G04 #@! TF.GenerationSoftware,KiCad,Pcbnew,10.0.3*
G04 #@! TF.CreationDate,2026-05-22T20:10:46+09:00*
G04 #@! TF.ProjectId,leafony-az01c-panelized,6c656166-6f6e-4792-9d61-7a3031632d70,v1.0*
G04 #@! TF.SameCoordinates,Original*
G04 #@! TF.FileFunction,Soldermask,Top*
G04 #@! TF.FilePolarity,Negative*
%FSLAX46Y46*%
G04 Gerber Fmt 4.6, Leading zero omitted, Abs format (unit mm)*
G04 Created by KiCad (PCBNEW 10.0.3) date 2026-05-22 20:10:46*
%MOMM*%
%LPD*%
G01*
G04 APERTURE LIST*
G04 Aperture macros list*
%AMRoundRect*
0 Rectangle with rounded corners*
0 $1 Rounding radius*
0 $2 $3 $4 $5 $6 $7 $8 $9 X,Y pos of 4 corners*
0 Add a 4 corners polygon primitive as box body*
4,1,4,$2,$3,$4,$5,$6,$7,$8,$9,$2,$3,0*
0 Add four circle primitives for the rounded corners*
1,1,$1+$1,$2,$3*
1,1,$1+$1,$4,$5*
1,1,$1+$1,$6,$7*
1,1,$1+$1,$8,$9*
0 Add four rect primitives between the rounded corners*
20,1,$1+$1,$2,$3,$4,$5,0*
20,1,$1+$1,$4,$5,$6,$7,0*
20,1,$1+$1,$6,$7,$8,$9,0*
20,1,$1+$1,$8,$9,$2,$3,0*%
%AMFreePoly0*
4,1,43,0.052099,0.920729,0.127746,0.900460,0.139805,0.895465,0.207628,0.856307,0.217983,0.848361,0.273361,0.792983,0.281307,0.782628,0.320465,0.714805,0.325460,0.702746,0.345729,0.627099,0.347433,0.614158,0.347433,0.535842,0.345729,0.522901,0.325460,0.447254,0.320465,0.435195,0.281307,0.367372,0.275000,0.359152,0.275000,-0.575000,0.260355,-0.610355,0.225000,-0.625000,
-0.225000,-0.625000,-0.260355,-0.610355,-0.275000,-0.575000,-0.275000,0.359152,-0.281307,0.367372,-0.320465,0.435195,-0.325460,0.447254,-0.345729,0.522901,-0.347433,0.535842,-0.347433,0.614158,-0.345729,0.627099,-0.325460,0.702746,-0.320465,0.714805,-0.281307,0.782628,-0.273361,0.792983,-0.217983,0.848361,-0.207628,0.856307,-0.139805,0.895465,-0.127746,0.900460,-0.052099,0.920729,
-0.039158,0.922433,0.039158,0.922433,0.052099,0.920729,0.052099,0.920729,$1*%
G04 Aperture macros list end*
%ADD10C,0.150000*%
%ADD11C,0.100000*%
%ADD12RoundRect,0.250000X0.250000X0.275000X-0.250000X0.275000X-0.250000X-0.275000X0.250000X-0.275000X0*%
%ADD13RoundRect,0.165000X-0.165000X-0.195000X0.165000X-0.195000X0.165000X0.195000X-0.165000X0.195000X0*%
%ADD14RoundRect,0.165000X-0.195000X0.165000X-0.195000X-0.165000X0.195000X-0.165000X0.195000X0.165000X0*%
%ADD15RoundRect,0.250000X0.275000X-0.250000X0.275000X0.250000X-0.275000X0.250000X-0.275000X-0.250000X0*%
%ADD16RoundRect,0.160000X-0.160000X-0.210000X0.160000X-0.210000X0.160000X0.210000X-0.160000X0.210000X0*%
%ADD17RoundRect,0.075000X-0.075000X0.375000X-0.075000X-0.375000X0.075000X-0.375000X0.075000X0.375000X0*%
%ADD18RoundRect,0.050000X-1.250000X0.850000X-1.250000X-0.850000X1.250000X-0.850000X1.250000X0.850000X0*%
%ADD19RoundRect,0.118750X0.181250X0.118750X-0.181250X0.118750X-0.181250X-0.118750X0.181250X-0.118750X0*%
%ADD20RoundRect,0.100000X0.275000X0.100000X-0.275000X0.100000X-0.275000X-0.100000X0.275000X-0.100000X0*%
%ADD21RoundRect,0.243750X0.243750X0.406250X-0.243750X0.406250X-0.243750X-0.406250X0.243750X-0.406250X0*%
%ADD22RoundRect,0.160000X0.160000X0.210000X-0.160000X0.210000X-0.160000X-0.210000X0.160000X-0.210000X0*%
%ADD23RoundRect,0.175000X0.537500X0.175000X-0.537500X0.175000X-0.537500X-0.175000X0.537500X-0.175000X0*%
%ADD24C,2.590000*%
%ADD25RoundRect,0.050000X0.725000X-0.450000X0.725000X0.450000X-0.725000X0.450000X-0.725000X-0.450000X0*%
%ADD26FreePoly0,90.000000*%
%ADD27FreePoly0,270.000000*%
%ADD28RoundRect,0.102000X0.450000X-0.150000X0.450000X0.150000X-0.450000X0.150000X-0.450000X-0.150000X0*%
%ADD29O,2.804000X1.504000*%
%ADD30O,2.654000X1.429000*%
%ADD31RoundRect,0.243750X-0.243750X-0.281250X0.243750X-0.281250X0.243750X0.281250X-0.243750X0.281250X0*%
%ADD32RoundRect,0.162500X0.162500X0.687500X-0.162500X0.687500X-0.162500X-0.687500X0.162500X-0.687500X0*%
%ADD33RoundRect,0.150000X-0.150000X0.562500X-0.150000X-0.562500X0.150000X-0.562500X0.150000X0.562500X0*%
%ADD34RoundRect,0.165000X0.195000X-0.165000X0.195000X0.165000X-0.195000X0.165000X-0.195000X-0.165000X0*%
%ADD35RoundRect,0.165000X0.165000X0.195000X-0.165000X0.195000X-0.165000X-0.195000X0.165000X-0.195000X0*%
%ADD36RoundRect,0.050000X-0.124999X0.299999X-0.124999X-0.299999X0.124999X-0.299999X0.124999X0.299999X0*%
%ADD37RoundRect,0.050000X-0.149999X0.550000X-0.149999X-0.550000X0.149999X-0.550000X0.149999X0.550000X0*%
%ADD38C,2.100000*%
%ADD39C,2.000000*%
%ADD40C,2.250000*%
G04 APERTURE END LIST*
D10*
X77000000Y-97050000D02*
X79900000Y-97050000D01*
X79900000Y-110950000D01*
X77000000Y-110950000D01*
X77000000Y-97050000D01*
G36*
X77000000Y-97050000D02*
G01*
X79900000Y-97050000D01*
X79900000Y-110950000D01*
X77000000Y-110950000D01*
X77000000Y-97050000D01*
G37*
X99300000Y-110950000D02*
X101700000Y-110950000D01*
X101700000Y-112250000D01*
X99300000Y-112250000D01*
X99300000Y-110950000D01*
G36*
X99300000Y-110950000D02*
G01*
X101700000Y-110950000D01*
X101700000Y-112250000D01*
X99300000Y-112250000D01*
X99300000Y-110950000D01*
G37*
X55300000Y-110950000D02*
X57700000Y-110950000D01*
X57700000Y-112250000D01*
X55300000Y-112250000D01*
X55300000Y-110950000D01*
G36*
X55300000Y-110950000D02*
G01*
X57700000Y-110950000D01*
X57700000Y-112250000D01*
X55300000Y-112250000D01*
X55300000Y-110950000D01*
G37*
X77300000Y-110950000D02*
X79700000Y-110950000D01*
X79700000Y-112250000D01*
X77300000Y-112250000D01*
X77300000Y-110950000D01*
G36*
X77300000Y-110950000D02*
G01*
X79700000Y-110950000D01*
X79700000Y-112250000D01*
X77300000Y-112250000D01*
X77300000Y-110950000D01*
G37*
X55000000Y-97050000D02*
X57900000Y-97050000D01*
X57900000Y-110950000D01*
X55000000Y-110950000D01*
X55000000Y-97050000D01*
G36*
X55000000Y-97050000D02*
G01*
X57900000Y-97050000D01*
X57900000Y-110950000D01*
X55000000Y-110950000D01*
X55000000Y-97050000D01*
G37*
X33000000Y-97050000D02*
X35900000Y-97050000D01*
X35900000Y-110950000D01*
X33000000Y-110950000D01*
X33000000Y-97050000D01*
G36*
X33000000Y-97050000D02*
G01*
X35900000Y-97050000D01*
X35900000Y-110950000D01*
X33000000Y-110950000D01*
X33000000Y-97050000D01*
G37*
X33300000Y-95750000D02*
X35700000Y-95750000D01*
X35700000Y-97050000D01*
X33300000Y-97050000D01*
X33300000Y-95750000D01*
G36*
X33300000Y-95750000D02*
G01*
X35700000Y-95750000D01*
X35700000Y-97050000D01*
X33300000Y-97050000D01*
X33300000Y-95750000D01*
G37*
X55300000Y-95750000D02*
X57700000Y-95750000D01*
X57700000Y-97050000D01*
X55300000Y-97050000D01*
X55300000Y-95750000D01*
G36*
X55300000Y-95750000D02*
G01*
X57700000Y-95750000D01*
X57700000Y-97050000D01*
X55300000Y-97050000D01*
X55300000Y-95750000D01*
G37*
X77300000Y-95750000D02*
X79700000Y-95750000D01*
X79700000Y-97050000D01*
X77300000Y-97050000D01*
X77300000Y-95750000D01*
G36*
X77300000Y-95750000D02*
G01*
X79700000Y-95750000D01*
X79700000Y-97050000D01*
X77300000Y-97050000D01*
X77300000Y-95750000D01*
G37*
X99000000Y-97050000D02*
X101900000Y-97050000D01*
X101900000Y-110950000D01*
X99000000Y-110950000D01*
X99000000Y-97050000D01*
G36*
X99000000Y-97050000D02*
G01*
X101900000Y-97050000D01*
X101900000Y-110950000D01*
X99000000Y-110950000D01*
X99000000Y-97050000D01*
G37*
X99300000Y-95750000D02*
X101700000Y-95750000D01*
X101700000Y-97050000D01*
X99300000Y-97050000D01*
X99300000Y-95750000D01*
G36*
X99300000Y-95750000D02*
G01*
X101700000Y-95750000D01*
X101700000Y-97050000D01*
X99300000Y-97050000D01*
X99300000Y-95750000D01*
G37*
X33300000Y-110950000D02*
X35700000Y-110950000D01*
X35700000Y-112250000D01*
X33300000Y-112250000D01*
X33300000Y-110950000D01*
G36*
X33300000Y-110950000D02*
G01*
X35700000Y-110950000D01*
X35700000Y-112250000D01*
X33300000Y-112250000D01*
X33300000Y-110950000D01*
G37*
X77000000Y-68050000D02*
X79900000Y-68050000D01*
X79900000Y-81950000D01*
X77000000Y-81950000D01*
X77000000Y-68050000D01*
G36*
X77000000Y-68050000D02*
G01*
X79900000Y-68050000D01*
X79900000Y-81950000D01*
X77000000Y-81950000D01*
X77000000Y-68050000D01*
G37*
X99300000Y-81950000D02*
X101700000Y-81950000D01*
X101700000Y-83250000D01*
X99300000Y-83250000D01*
X99300000Y-81950000D01*
G36*
X99300000Y-81950000D02*
G01*
X101700000Y-81950000D01*
X101700000Y-83250000D01*
X99300000Y-83250000D01*
X99300000Y-81950000D01*
G37*
X55300000Y-81950000D02*
X57700000Y-81950000D01*
X57700000Y-83250000D01*
X55300000Y-83250000D01*
X55300000Y-81950000D01*
G36*
X55300000Y-81950000D02*
G01*
X57700000Y-81950000D01*
X57700000Y-83250000D01*
X55300000Y-83250000D01*
X55300000Y-81950000D01*
G37*
X77300000Y-81950000D02*
X79700000Y-81950000D01*
X79700000Y-83250000D01*
X77300000Y-83250000D01*
X77300000Y-81950000D01*
G36*
X77300000Y-81950000D02*
G01*
X79700000Y-81950000D01*
X79700000Y-83250000D01*
X77300000Y-83250000D01*
X77300000Y-81950000D01*
G37*
X55000000Y-68050000D02*
X57900000Y-68050000D01*
X57900000Y-81950000D01*
X55000000Y-81950000D01*
X55000000Y-68050000D01*
G36*
X55000000Y-68050000D02*
G01*
X57900000Y-68050000D01*
X57900000Y-81950000D01*
X55000000Y-81950000D01*
X55000000Y-68050000D01*
G37*
X33000000Y-68050000D02*
X35900000Y-68050000D01*
X35900000Y-81950000D01*
X33000000Y-81950000D01*
X33000000Y-68050000D01*
G36*
X33000000Y-68050000D02*
G01*
X35900000Y-68050000D01*
X35900000Y-81950000D01*
X33000000Y-81950000D01*
X33000000Y-68050000D01*
G37*
X33300000Y-66750000D02*
X35700000Y-66750000D01*
X35700000Y-68050000D01*
X33300000Y-68050000D01*
X33300000Y-66750000D01*
G36*
X33300000Y-66750000D02*
G01*
X35700000Y-66750000D01*
X35700000Y-68050000D01*
X33300000Y-68050000D01*
X33300000Y-66750000D01*
G37*
X55300000Y-66750000D02*
X57700000Y-66750000D01*
X57700000Y-68050000D01*
X55300000Y-68050000D01*
X55300000Y-66750000D01*
G36*
X55300000Y-66750000D02*
G01*
X57700000Y-66750000D01*
X57700000Y-68050000D01*
X55300000Y-68050000D01*
X55300000Y-66750000D01*
G37*
X77300000Y-66750000D02*
X79700000Y-66750000D01*
X79700000Y-68050000D01*
X77300000Y-68050000D01*
X77300000Y-66750000D01*
G36*
X77300000Y-66750000D02*
G01*
X79700000Y-66750000D01*
X79700000Y-68050000D01*
X77300000Y-68050000D01*
X77300000Y-66750000D01*
G37*
X99000000Y-68050000D02*
X101900000Y-68050000D01*
X101900000Y-81950000D01*
X99000000Y-81950000D01*
X99000000Y-68050000D01*
G36*
X99000000Y-68050000D02*
G01*
X101900000Y-68050000D01*
X101900000Y-81950000D01*
X99000000Y-81950000D01*
X99000000Y-68050000D01*
G37*
X99300000Y-66750000D02*
X101700000Y-66750000D01*
X101700000Y-68050000D01*
X99300000Y-68050000D01*
X99300000Y-66750000D01*
G36*
X99300000Y-66750000D02*
G01*
X101700000Y-66750000D01*
X101700000Y-68050000D01*
X99300000Y-68050000D01*
X99300000Y-66750000D01*
G37*
X33300000Y-81950000D02*
X35700000Y-81950000D01*
X35700000Y-83250000D01*
X33300000Y-83250000D01*
X33300000Y-81950000D01*
G36*
X33300000Y-81950000D02*
G01*
X35700000Y-81950000D01*
X35700000Y-83250000D01*
X33300000Y-83250000D01*
X33300000Y-81950000D01*
G37*
X99000000Y-39050000D02*
X101900000Y-39050000D01*
X101900000Y-52950000D01*
X99000000Y-52950000D01*
X99000000Y-39050000D01*
G36*
X99000000Y-39050000D02*
G01*
X101900000Y-39050000D01*
X101900000Y-52950000D01*
X99000000Y-52950000D01*
X99000000Y-39050000D01*
G37*
X99300000Y-37750000D02*
X101700000Y-37750000D01*
X101700000Y-39050000D01*
X99300000Y-39050000D01*
X99300000Y-37750000D01*
G36*
X99300000Y-37750000D02*
G01*
X101700000Y-37750000D01*
X101700000Y-39050000D01*
X99300000Y-39050000D01*
X99300000Y-37750000D01*
G37*
X99300000Y-52950000D02*
X101700000Y-52950000D01*
X101700000Y-54250000D01*
X99300000Y-54250000D01*
X99300000Y-52950000D01*
G36*
X99300000Y-52950000D02*
G01*
X101700000Y-52950000D01*
X101700000Y-54250000D01*
X99300000Y-54250000D01*
X99300000Y-52950000D01*
G37*
X77000000Y-39050000D02*
X79900000Y-39050000D01*
X79900000Y-52950000D01*
X77000000Y-52950000D01*
X77000000Y-39050000D01*
G36*
X77000000Y-39050000D02*
G01*
X79900000Y-39050000D01*
X79900000Y-52950000D01*
X77000000Y-52950000D01*
X77000000Y-39050000D01*
G37*
X77300000Y-37750000D02*
X79700000Y-37750000D01*
X79700000Y-39050000D01*
X77300000Y-39050000D01*
X77300000Y-37750000D01*
G36*
X77300000Y-37750000D02*
G01*
X79700000Y-37750000D01*
X79700000Y-39050000D01*
X77300000Y-39050000D01*
X77300000Y-37750000D01*
G37*
X77300000Y-52950000D02*
X79700000Y-52950000D01*
X79700000Y-54250000D01*
X77300000Y-54250000D01*
X77300000Y-52950000D01*
G36*
X77300000Y-52950000D02*
G01*
X79700000Y-52950000D01*
X79700000Y-54250000D01*
X77300000Y-54250000D01*
X77300000Y-52950000D01*
G37*
X55000000Y-39050000D02*
X57900000Y-39050000D01*
X57900000Y-52950000D01*
X55000000Y-52950000D01*
X55000000Y-39050000D01*
G36*
X55000000Y-39050000D02*
G01*
X57900000Y-39050000D01*
X57900000Y-52950000D01*
X55000000Y-52950000D01*
X55000000Y-39050000D01*
G37*
X55300000Y-37750000D02*
X57700000Y-37750000D01*
X57700000Y-39050000D01*
X55300000Y-39050000D01*
X55300000Y-37750000D01*
G36*
X55300000Y-37750000D02*
G01*
X57700000Y-37750000D01*
X57700000Y-39050000D01*
X55300000Y-39050000D01*
X55300000Y-37750000D01*
G37*
X55300000Y-52950000D02*
X57700000Y-52950000D01*
X57700000Y-54250000D01*
X55300000Y-54250000D01*
X55300000Y-52950000D01*
G36*
X55300000Y-52950000D02*
G01*
X57700000Y-52950000D01*
X57700000Y-54250000D01*
X55300000Y-54250000D01*
X55300000Y-52950000D01*
G37*
X33300000Y-52950000D02*
X35700000Y-52950000D01*
X35700000Y-54250000D01*
X33300000Y-54250000D01*
X33300000Y-52950000D01*
G36*
X33300000Y-52950000D02*
G01*
X35700000Y-52950000D01*
X35700000Y-54250000D01*
X33300000Y-54250000D01*
X33300000Y-52950000D01*
G37*
X33000000Y-39050000D02*
X35900000Y-39050000D01*
X35900000Y-52950000D01*
X33000000Y-52950000D01*
X33000000Y-39050000D01*
G36*
X33000000Y-39050000D02*
G01*
X35900000Y-39050000D01*
X35900000Y-52950000D01*
X33000000Y-52950000D01*
X33000000Y-39050000D01*
G37*
X33300000Y-37750000D02*
X35700000Y-37750000D01*
X35700000Y-39050000D01*
X33300000Y-39050000D01*
X33300000Y-37750000D01*
G36*
X33300000Y-37750000D02*
G01*
X35700000Y-37750000D01*
X35700000Y-39050000D01*
X33300000Y-39050000D01*
X33300000Y-37750000D01*
G37*
D11*
X54700000Y-28900000D02*
X95500000Y-28900000D01*
X95500000Y-32200000D01*
X54700000Y-32200000D01*
X54700000Y-28900000D01*
G36*
X54700000Y-28900000D02*
G01*
X95500000Y-28900000D01*
X95500000Y-32200000D01*
X54700000Y-32200000D01*
X54700000Y-28900000D01*
G37*
D12*
X71075000Y-110850000D03*
X69525000Y-110850000D03*
D13*
X104390000Y-98325000D03*
X105350000Y-98325000D03*
D14*
X86600000Y-111220000D03*
X86600000Y-112180000D03*
D15*
X110000000Y-112475000D03*
X110000000Y-110925000D03*
D12*
X115075000Y-110850000D03*
X113525000Y-110850000D03*
D16*
X60340000Y-96000000D03*
X61360000Y-96000000D03*
D17*
X106700000Y-100500000D03*
X106250000Y-100500000D03*
X105800000Y-100500000D03*
X105350000Y-100500000D03*
X104900000Y-100500000D03*
X104450000Y-100500000D03*
X104450000Y-103400000D03*
X104900000Y-103400000D03*
X105350000Y-103400000D03*
X105800000Y-103400000D03*
X106250000Y-103400000D03*
X106700000Y-103400000D03*
D18*
X105575000Y-101950000D03*
D19*
X109800000Y-102475000D03*
D20*
X109875000Y-101937500D03*
D19*
X109800000Y-101400000D03*
X108100000Y-101400000D03*
D20*
X108025000Y-101937500D03*
D19*
X108100000Y-102475000D03*
D21*
X109312500Y-97700000D03*
X107187500Y-97700000D03*
D15*
X67500000Y-112475000D03*
X67500000Y-110925000D03*
D13*
X82390000Y-97325000D03*
X83350000Y-97325000D03*
D12*
X93075000Y-110850000D03*
X91525000Y-110850000D03*
X49075000Y-110850000D03*
X47525000Y-110850000D03*
D21*
X65312500Y-97700000D03*
X63187500Y-97700000D03*
D13*
X82390000Y-98325000D03*
X83350000Y-98325000D03*
D22*
X66060000Y-99150000D03*
X65040000Y-99150000D03*
D14*
X64600000Y-111220000D03*
X64600000Y-112180000D03*
D23*
X63037500Y-112150000D03*
X63037500Y-111200000D03*
X63037500Y-110250000D03*
X60762500Y-110250000D03*
X60762500Y-112150000D03*
D24*
X78500000Y-112250000D03*
X78500000Y-95750000D03*
D25*
X79475000Y-110075000D03*
D26*
X77675000Y-110300000D03*
D27*
X79325000Y-108950000D03*
D26*
X77675000Y-109400000D03*
D27*
X79325000Y-108050000D03*
D26*
X77675000Y-108500000D03*
D27*
X79325000Y-107150000D03*
D26*
X77675000Y-107600000D03*
D27*
X79325000Y-106250000D03*
D26*
X77675000Y-106700000D03*
D27*
X79325000Y-105350000D03*
D26*
X77675000Y-105800000D03*
D27*
X79325000Y-104450000D03*
D26*
X77675000Y-104900000D03*
D27*
X79325000Y-103550000D03*
D26*
X77675000Y-104000000D03*
D27*
X79325000Y-102650000D03*
D26*
X77675000Y-103100000D03*
D27*
X79325000Y-101750000D03*
D26*
X77675000Y-102200000D03*
D27*
X79325000Y-100850000D03*
D26*
X77675000Y-101300000D03*
D27*
X79325000Y-99950000D03*
D26*
X77675000Y-100400000D03*
D27*
X79325000Y-99050000D03*
D26*
X77675000Y-99500000D03*
D25*
X79475000Y-97925000D03*
D26*
X77675000Y-98600000D03*
X77675000Y-97700000D03*
D28*
X111530000Y-105150000D03*
X111530000Y-104150000D03*
X111530000Y-103150000D03*
X111530000Y-102150000D03*
X111530000Y-100650000D03*
X111530000Y-99650000D03*
X111530000Y-98650000D03*
X111530000Y-97650000D03*
X111530000Y-98150000D03*
X111530000Y-99150000D03*
X111530000Y-100150000D03*
X111530000Y-101150000D03*
X111530000Y-101650000D03*
X111530000Y-102650000D03*
X111530000Y-103650000D03*
X111530000Y-104650000D03*
X111530000Y-105650000D03*
X111530000Y-97150000D03*
D29*
X112150000Y-106800000D03*
X112150000Y-96000000D03*
D30*
X115380000Y-106800000D03*
X115380000Y-96000000D03*
D31*
X62497787Y-95054867D03*
X64072787Y-95054867D03*
D32*
X92275000Y-112650000D03*
X90825000Y-112650000D03*
D33*
X85095796Y-105305662D03*
X84445796Y-105305662D03*
X83795796Y-105305662D03*
X83145796Y-105305662D03*
X83145796Y-107580662D03*
X83795796Y-107580662D03*
X84445796Y-107580662D03*
X85095796Y-107580662D03*
X41095796Y-105305662D03*
X40445796Y-105305662D03*
X39795796Y-105305662D03*
X39145796Y-105305662D03*
X39145796Y-107580662D03*
X39795796Y-107580662D03*
X40445796Y-107580662D03*
X41095796Y-107580662D03*
D14*
X37850000Y-104670000D03*
X37850000Y-105630000D03*
D34*
X108345796Y-106960662D03*
X108345796Y-106000662D03*
D15*
X45500000Y-112475000D03*
X45500000Y-110925000D03*
D22*
X88060000Y-99150000D03*
X87040000Y-99150000D03*
X44060000Y-99150000D03*
X43040000Y-99150000D03*
D35*
X87480000Y-100300000D03*
X86520000Y-100300000D03*
D31*
X40497787Y-95054867D03*
X42072787Y-95054867D03*
D36*
X92799998Y-108300000D03*
X92299999Y-108300000D03*
X91800000Y-108300000D03*
D37*
X91800000Y-109400000D03*
X92299999Y-109400000D03*
X92799998Y-109400000D03*
D21*
X87312500Y-97700000D03*
X85187500Y-97700000D03*
D31*
X84497787Y-95054867D03*
X86072787Y-95054867D03*
D33*
X107095796Y-105305662D03*
X106445796Y-105305662D03*
X105795796Y-105305662D03*
X105145796Y-105305662D03*
X105145796Y-107580662D03*
X105795796Y-107580662D03*
X106445796Y-107580662D03*
X107095796Y-107580662D03*
D22*
X105360000Y-95000000D03*
X104340000Y-95000000D03*
D23*
X85037500Y-112150000D03*
X85037500Y-111200000D03*
X85037500Y-110250000D03*
X82762500Y-110250000D03*
X82762500Y-112150000D03*
D34*
X86345796Y-106960662D03*
X86345796Y-106000662D03*
D24*
X100500000Y-112250000D03*
X100500000Y-95750000D03*
D25*
X101475000Y-110075000D03*
D26*
X99675000Y-110300000D03*
D27*
X101325000Y-108950000D03*
D26*
X99675000Y-109400000D03*
D27*
X101325000Y-108050000D03*
D26*
X99675000Y-108500000D03*
D27*
X101325000Y-107150000D03*
D26*
X99675000Y-107600000D03*
D27*
X101325000Y-106250000D03*
D26*
X99675000Y-106700000D03*
D27*
X101325000Y-105350000D03*
D26*
X99675000Y-105800000D03*
D27*
X101325000Y-104450000D03*
D26*
X99675000Y-104900000D03*
D27*
X101325000Y-103550000D03*
D26*
X99675000Y-104000000D03*
D27*
X101325000Y-102650000D03*
D26*
X99675000Y-103100000D03*
D27*
X101325000Y-101750000D03*
D26*
X99675000Y-102200000D03*
D27*
X101325000Y-100850000D03*
D26*
X99675000Y-101300000D03*
D27*
X101325000Y-99950000D03*
D26*
X99675000Y-100400000D03*
D27*
X101325000Y-99050000D03*
D26*
X99675000Y-99500000D03*
D25*
X101475000Y-97925000D03*
D26*
X99675000Y-98600000D03*
X99675000Y-97700000D03*
D22*
X83360000Y-95000000D03*
X82340000Y-95000000D03*
D14*
X81850000Y-104670000D03*
X81850000Y-105630000D03*
D17*
X40700000Y-100500000D03*
X40250000Y-100500000D03*
X39800000Y-100500000D03*
X39350000Y-100500000D03*
X38900000Y-100500000D03*
X38450000Y-100500000D03*
X38450000Y-103400000D03*
X38900000Y-103400000D03*
X39350000Y-103400000D03*
X39800000Y-103400000D03*
X40250000Y-103400000D03*
X40700000Y-103400000D03*
D18*
X39575000Y-101950000D03*
D22*
X61360000Y-95000000D03*
X60340000Y-95000000D03*
D35*
X43480000Y-100300000D03*
X42520000Y-100300000D03*
D16*
X64990000Y-103800000D03*
X66010000Y-103800000D03*
D19*
X87800000Y-102475000D03*
D20*
X87875000Y-101937500D03*
D19*
X87800000Y-101400000D03*
X86100000Y-101400000D03*
D20*
X86025000Y-101937500D03*
D19*
X86100000Y-102475000D03*
D13*
X60390000Y-97325000D03*
X61350000Y-97325000D03*
D24*
X56500000Y-112250000D03*
X56500000Y-95750000D03*
D25*
X57475000Y-110075000D03*
D26*
X55675000Y-110300000D03*
D27*
X57325000Y-108950000D03*
D26*
X55675000Y-109400000D03*
D27*
X57325000Y-108050000D03*
D26*
X55675000Y-108500000D03*
D27*
X57325000Y-107150000D03*
D26*
X55675000Y-107600000D03*
D27*
X57325000Y-106250000D03*
D26*
X55675000Y-106700000D03*
D27*
X57325000Y-105350000D03*
D26*
X55675000Y-105800000D03*
D27*
X57325000Y-104450000D03*
D26*
X55675000Y-104900000D03*
D27*
X57325000Y-103550000D03*
D26*
X55675000Y-104000000D03*
D27*
X57325000Y-102650000D03*
D26*
X55675000Y-103100000D03*
D27*
X57325000Y-101750000D03*
D26*
X55675000Y-102200000D03*
D27*
X57325000Y-100850000D03*
D26*
X55675000Y-101300000D03*
D27*
X57325000Y-99950000D03*
D26*
X55675000Y-100400000D03*
D27*
X57325000Y-99050000D03*
D26*
X55675000Y-99500000D03*
D25*
X57475000Y-97925000D03*
D26*
X55675000Y-98600000D03*
X55675000Y-97700000D03*
D32*
X70275000Y-112650000D03*
X68825000Y-112650000D03*
D33*
X63095796Y-105305662D03*
X62445796Y-105305662D03*
X61795796Y-105305662D03*
X61145796Y-105305662D03*
X61145796Y-107580662D03*
X61795796Y-107580662D03*
X62445796Y-107580662D03*
X63095796Y-107580662D03*
D34*
X64345796Y-106960662D03*
X64345796Y-106000662D03*
D16*
X82340000Y-96000000D03*
X83360000Y-96000000D03*
D35*
X65480000Y-100300000D03*
X64520000Y-100300000D03*
D15*
X44000000Y-112475000D03*
X44000000Y-110925000D03*
D28*
X89530000Y-105150000D03*
X89530000Y-104150000D03*
X89530000Y-103150000D03*
X89530000Y-102150000D03*
X89530000Y-100650000D03*
X89530000Y-99650000D03*
X89530000Y-98650000D03*
X89530000Y-97650000D03*
X89530000Y-98150000D03*
X89530000Y-99150000D03*
X89530000Y-100150000D03*
X89530000Y-101150000D03*
X89530000Y-101650000D03*
X89530000Y-102650000D03*
X89530000Y-103650000D03*
X89530000Y-104650000D03*
X89530000Y-105650000D03*
X89530000Y-97150000D03*
D29*
X90150000Y-106800000D03*
X90150000Y-96000000D03*
D30*
X93380000Y-106800000D03*
X93380000Y-96000000D03*
D36*
X114799998Y-108300000D03*
X114299999Y-108300000D03*
X113800000Y-108300000D03*
D37*
X113800000Y-109400000D03*
X114299999Y-109400000D03*
X114799998Y-109400000D03*
D35*
X83350000Y-99325000D03*
X82390000Y-99325000D03*
D13*
X38390000Y-97325000D03*
X39350000Y-97325000D03*
D17*
X62700000Y-100500000D03*
X62250000Y-100500000D03*
X61800000Y-100500000D03*
X61350000Y-100500000D03*
X60900000Y-100500000D03*
X60450000Y-100500000D03*
X60450000Y-103400000D03*
X60900000Y-103400000D03*
X61350000Y-103400000D03*
X61800000Y-103400000D03*
X62250000Y-103400000D03*
X62700000Y-103400000D03*
D18*
X61575000Y-101950000D03*
D16*
X104340000Y-96000000D03*
X105360000Y-96000000D03*
D15*
X88000000Y-112475000D03*
X88000000Y-110925000D03*
D35*
X39350000Y-99325000D03*
X38390000Y-99325000D03*
X105350000Y-99325000D03*
X104390000Y-99325000D03*
D32*
X48275000Y-112650000D03*
X46825000Y-112650000D03*
D17*
X84700000Y-100500000D03*
X84250000Y-100500000D03*
X83800000Y-100500000D03*
X83350000Y-100500000D03*
X82900000Y-100500000D03*
X82450000Y-100500000D03*
X82450000Y-103400000D03*
X82900000Y-103400000D03*
X83350000Y-103400000D03*
X83800000Y-103400000D03*
X84250000Y-103400000D03*
X84700000Y-103400000D03*
D18*
X83575000Y-101950000D03*
D35*
X109480000Y-100300000D03*
X108520000Y-100300000D03*
D22*
X39360000Y-95000000D03*
X38340000Y-95000000D03*
D34*
X42345796Y-106960662D03*
X42345796Y-106000662D03*
D36*
X70799998Y-108300000D03*
X70299999Y-108300000D03*
X69800000Y-108300000D03*
D37*
X69800000Y-109400000D03*
X70299999Y-109400000D03*
X70799998Y-109400000D03*
D22*
X110060000Y-99150000D03*
X109040000Y-99150000D03*
D15*
X111500000Y-112475000D03*
X111500000Y-110925000D03*
D23*
X107037500Y-112150000D03*
X107037500Y-111200000D03*
X107037500Y-110250000D03*
X104762500Y-110250000D03*
X104762500Y-112150000D03*
X41037500Y-112150000D03*
X41037500Y-111200000D03*
X41037500Y-110250000D03*
X38762500Y-110250000D03*
X38762500Y-112150000D03*
D14*
X59850000Y-104670000D03*
X59850000Y-105630000D03*
D15*
X89500000Y-112475000D03*
X89500000Y-110925000D03*
D16*
X86990000Y-103800000D03*
X88010000Y-103800000D03*
D28*
X45530000Y-105150000D03*
X45530000Y-104150000D03*
X45530000Y-103150000D03*
X45530000Y-102150000D03*
X45530000Y-100650000D03*
X45530000Y-99650000D03*
X45530000Y-98650000D03*
X45530000Y-97650000D03*
X45530000Y-98150000D03*
X45530000Y-99150000D03*
X45530000Y-100150000D03*
X45530000Y-101150000D03*
X45530000Y-101650000D03*
X45530000Y-102650000D03*
X45530000Y-103650000D03*
X45530000Y-104650000D03*
X45530000Y-105650000D03*
X45530000Y-97150000D03*
D29*
X46150000Y-106800000D03*
X46150000Y-96000000D03*
D30*
X49380000Y-106800000D03*
X49380000Y-96000000D03*
D16*
X108990000Y-103800000D03*
X110010000Y-103800000D03*
D28*
X67530000Y-105150000D03*
X67530000Y-104150000D03*
X67530000Y-103150000D03*
X67530000Y-102150000D03*
X67530000Y-100650000D03*
X67530000Y-99650000D03*
X67530000Y-98650000D03*
X67530000Y-97650000D03*
X67530000Y-98150000D03*
X67530000Y-99150000D03*
X67530000Y-100150000D03*
X67530000Y-101150000D03*
X67530000Y-101650000D03*
X67530000Y-102650000D03*
X67530000Y-103650000D03*
X67530000Y-104650000D03*
X67530000Y-105650000D03*
X67530000Y-97150000D03*
D29*
X68150000Y-106800000D03*
X68150000Y-96000000D03*
D30*
X71380000Y-106800000D03*
X71380000Y-96000000D03*
D14*
X108600000Y-111220000D03*
X108600000Y-112180000D03*
D19*
X43800000Y-102475000D03*
D20*
X43875000Y-101937500D03*
D19*
X43800000Y-101400000D03*
X42100000Y-101400000D03*
D20*
X42025000Y-101937500D03*
D19*
X42100000Y-102475000D03*
D13*
X60390000Y-98325000D03*
X61350000Y-98325000D03*
D14*
X42600000Y-111220000D03*
X42600000Y-112180000D03*
X103850000Y-104670000D03*
X103850000Y-105630000D03*
D32*
X114275000Y-112650000D03*
X112825000Y-112650000D03*
D16*
X42990000Y-103800000D03*
X44010000Y-103800000D03*
X38340000Y-96000000D03*
X39360000Y-96000000D03*
D31*
X106497787Y-95054867D03*
X108072787Y-95054867D03*
D36*
X48799998Y-108300000D03*
X48299999Y-108300000D03*
X47800000Y-108300000D03*
D37*
X47800000Y-109400000D03*
X48299999Y-109400000D03*
X48799998Y-109400000D03*
D15*
X66000000Y-112475000D03*
X66000000Y-110925000D03*
D13*
X104390000Y-97325000D03*
X105350000Y-97325000D03*
D19*
X65800000Y-102475000D03*
D20*
X65875000Y-101937500D03*
D19*
X65800000Y-101400000D03*
X64100000Y-101400000D03*
D20*
X64025000Y-101937500D03*
D19*
X64100000Y-102475000D03*
D13*
X38390000Y-98325000D03*
X39350000Y-98325000D03*
D21*
X43312500Y-97700000D03*
X41187500Y-97700000D03*
D35*
X61350000Y-99325000D03*
X60390000Y-99325000D03*
D24*
X34500000Y-112250000D03*
X34500000Y-95750000D03*
D25*
X35475000Y-110075000D03*
D26*
X33675000Y-110300000D03*
D27*
X35325000Y-108950000D03*
D26*
X33675000Y-109400000D03*
D27*
X35325000Y-108050000D03*
D26*
X33675000Y-108500000D03*
D27*
X35325000Y-107150000D03*
D26*
X33675000Y-107600000D03*
D27*
X35325000Y-106250000D03*
D26*
X33675000Y-106700000D03*
D27*
X35325000Y-105350000D03*
D26*
X33675000Y-105800000D03*
D27*
X35325000Y-104450000D03*
D26*
X33675000Y-104900000D03*
D27*
X35325000Y-103550000D03*
D26*
X33675000Y-104000000D03*
D27*
X35325000Y-102650000D03*
D26*
X33675000Y-103100000D03*
D27*
X35325000Y-101750000D03*
D26*
X33675000Y-102200000D03*
D27*
X35325000Y-100850000D03*
D26*
X33675000Y-101300000D03*
D27*
X35325000Y-99950000D03*
D26*
X33675000Y-100400000D03*
D27*
X35325000Y-99050000D03*
D26*
X33675000Y-99500000D03*
D25*
X35475000Y-97925000D03*
D26*
X33675000Y-98600000D03*
X33675000Y-97700000D03*
D12*
X71075000Y-81850000D03*
X69525000Y-81850000D03*
D13*
X104390000Y-69325000D03*
X105350000Y-69325000D03*
D14*
X86600000Y-82220000D03*
X86600000Y-83180000D03*
D15*
X110000000Y-83475000D03*
X110000000Y-81925000D03*
D12*
X115075000Y-81850000D03*
X113525000Y-81850000D03*
D16*
X60340000Y-67000000D03*
X61360000Y-67000000D03*
D17*
X106700000Y-71500000D03*
X106250000Y-71500000D03*
X105800000Y-71500000D03*
X105350000Y-71500000D03*
X104900000Y-71500000D03*
X104450000Y-71500000D03*
X104450000Y-74400000D03*
X104900000Y-74400000D03*
X105350000Y-74400000D03*
X105800000Y-74400000D03*
X106250000Y-74400000D03*
X106700000Y-74400000D03*
D18*
X105575000Y-72950000D03*
D19*
X109800000Y-73475000D03*
D20*
X109875000Y-72937500D03*
D19*
X109800000Y-72400000D03*
X108100000Y-72400000D03*
D20*
X108025000Y-72937500D03*
D19*
X108100000Y-73475000D03*
D21*
X109312500Y-68700000D03*
X107187500Y-68700000D03*
D15*
X67500000Y-83475000D03*
X67500000Y-81925000D03*
D13*
X82390000Y-68325000D03*
X83350000Y-68325000D03*
D12*
X93075000Y-81850000D03*
X91525000Y-81850000D03*
X49075000Y-81850000D03*
X47525000Y-81850000D03*
D21*
X65312500Y-68700000D03*
X63187500Y-68700000D03*
D13*
X82390000Y-69325000D03*
X83350000Y-69325000D03*
D22*
X66060000Y-70150000D03*
X65040000Y-70150000D03*
D14*
X64600000Y-82220000D03*
X64600000Y-83180000D03*
D23*
X63037500Y-83150000D03*
X63037500Y-82200000D03*
X63037500Y-81250000D03*
X60762500Y-81250000D03*
X60762500Y-83150000D03*
D24*
X78500000Y-83250000D03*
X78500000Y-66750000D03*
D25*
X79475000Y-81075000D03*
D26*
X77675000Y-81300000D03*
D27*
X79325000Y-79950000D03*
D26*
X77675000Y-80400000D03*
D27*
X79325000Y-79050000D03*
D26*
X77675000Y-79500000D03*
D27*
X79325000Y-78150000D03*
D26*
X77675000Y-78600000D03*
D27*
X79325000Y-77250000D03*
D26*
X77675000Y-77700000D03*
D27*
X79325000Y-76350000D03*
D26*
X77675000Y-76800000D03*
D27*
X79325000Y-75450000D03*
D26*
X77675000Y-75900000D03*
D27*
X79325000Y-74550000D03*
D26*
X77675000Y-75000000D03*
D27*
X79325000Y-73650000D03*
D26*
X77675000Y-74100000D03*
D27*
X79325000Y-72750000D03*
D26*
X77675000Y-73200000D03*
D27*
X79325000Y-71850000D03*
D26*
X77675000Y-72300000D03*
D27*
X79325000Y-70950000D03*
D26*
X77675000Y-71400000D03*
D27*
X79325000Y-70050000D03*
D26*
X77675000Y-70500000D03*
D25*
X79475000Y-68925000D03*
D26*
X77675000Y-69600000D03*
X77675000Y-68700000D03*
D28*
X111530000Y-76150000D03*
X111530000Y-75150000D03*
X111530000Y-74150000D03*
X111530000Y-73150000D03*
X111530000Y-71650000D03*
X111530000Y-70650000D03*
X111530000Y-69650000D03*
X111530000Y-68650000D03*
X111530000Y-69150000D03*
X111530000Y-70150000D03*
X111530000Y-71150000D03*
X111530000Y-72150000D03*
X111530000Y-72650000D03*
X111530000Y-73650000D03*
X111530000Y-74650000D03*
X111530000Y-75650000D03*
X111530000Y-76650000D03*
X111530000Y-68150000D03*
D29*
X112150000Y-77800000D03*
X112150000Y-67000000D03*
D30*
X115380000Y-77800000D03*
X115380000Y-67000000D03*
D31*
X62497787Y-66054867D03*
X64072787Y-66054867D03*
D32*
X92275000Y-83650000D03*
X90825000Y-83650000D03*
D33*
X85095796Y-76305662D03*
X84445796Y-76305662D03*
X83795796Y-76305662D03*
X83145796Y-76305662D03*
X83145796Y-78580662D03*
X83795796Y-78580662D03*
X84445796Y-78580662D03*
X85095796Y-78580662D03*
X41095796Y-76305662D03*
X40445796Y-76305662D03*
X39795796Y-76305662D03*
X39145796Y-76305662D03*
X39145796Y-78580662D03*
X39795796Y-78580662D03*
X40445796Y-78580662D03*
X41095796Y-78580662D03*
D14*
X37850000Y-75670000D03*
X37850000Y-76630000D03*
D34*
X108345796Y-77960662D03*
X108345796Y-77000662D03*
D15*
X45500000Y-83475000D03*
X45500000Y-81925000D03*
D22*
X88060000Y-70150000D03*
X87040000Y-70150000D03*
X44060000Y-70150000D03*
X43040000Y-70150000D03*
D35*
X87480000Y-71300000D03*
X86520000Y-71300000D03*
D31*
X40497787Y-66054867D03*
X42072787Y-66054867D03*
D36*
X92799998Y-79300000D03*
X92299999Y-79300000D03*
X91800000Y-79300000D03*
D37*
X91800000Y-80400000D03*
X92299999Y-80400000D03*
X92799998Y-80400000D03*
D21*
X87312500Y-68700000D03*
X85187500Y-68700000D03*
D31*
X84497787Y-66054867D03*
X86072787Y-66054867D03*
D33*
X107095796Y-76305662D03*
X106445796Y-76305662D03*
X105795796Y-76305662D03*
X105145796Y-76305662D03*
X105145796Y-78580662D03*
X105795796Y-78580662D03*
X106445796Y-78580662D03*
X107095796Y-78580662D03*
D22*
X105360000Y-66000000D03*
X104340000Y-66000000D03*
D23*
X85037500Y-83150000D03*
X85037500Y-82200000D03*
X85037500Y-81250000D03*
X82762500Y-81250000D03*
X82762500Y-83150000D03*
D34*
X86345796Y-77960662D03*
X86345796Y-77000662D03*
D24*
X100500000Y-83250000D03*
X100500000Y-66750000D03*
D25*
X101475000Y-81075000D03*
D26*
X99675000Y-81300000D03*
D27*
X101325000Y-79950000D03*
D26*
X99675000Y-80400000D03*
D27*
X101325000Y-79050000D03*
D26*
X99675000Y-79500000D03*
D27*
X101325000Y-78150000D03*
D26*
X99675000Y-78600000D03*
D27*
X101325000Y-77250000D03*
D26*
X99675000Y-77700000D03*
D27*
X101325000Y-76350000D03*
D26*
X99675000Y-76800000D03*
D27*
X101325000Y-75450000D03*
D26*
X99675000Y-75900000D03*
D27*
X101325000Y-74550000D03*
D26*
X99675000Y-75000000D03*
D27*
X101325000Y-73650000D03*
D26*
X99675000Y-74100000D03*
D27*
X101325000Y-72750000D03*
D26*
X99675000Y-73200000D03*
D27*
X101325000Y-71850000D03*
D26*
X99675000Y-72300000D03*
D27*
X101325000Y-70950000D03*
D26*
X99675000Y-71400000D03*
D27*
X101325000Y-70050000D03*
D26*
X99675000Y-70500000D03*
D25*
X101475000Y-68925000D03*
D26*
X99675000Y-69600000D03*
X99675000Y-68700000D03*
D22*
X83360000Y-66000000D03*
X82340000Y-66000000D03*
D14*
X81850000Y-75670000D03*
X81850000Y-76630000D03*
D17*
X40700000Y-71500000D03*
X40250000Y-71500000D03*
X39800000Y-71500000D03*
X39350000Y-71500000D03*
X38900000Y-71500000D03*
X38450000Y-71500000D03*
X38450000Y-74400000D03*
X38900000Y-74400000D03*
X39350000Y-74400000D03*
X39800000Y-74400000D03*
X40250000Y-74400000D03*
X40700000Y-74400000D03*
D18*
X39575000Y-72950000D03*
D22*
X61360000Y-66000000D03*
X60340000Y-66000000D03*
D35*
X43480000Y-71300000D03*
X42520000Y-71300000D03*
D16*
X64990000Y-74800000D03*
X66010000Y-74800000D03*
D19*
X87800000Y-73475000D03*
D20*
X87875000Y-72937500D03*
D19*
X87800000Y-72400000D03*
X86100000Y-72400000D03*
D20*
X86025000Y-72937500D03*
D19*
X86100000Y-73475000D03*
D13*
X60390000Y-68325000D03*
X61350000Y-68325000D03*
D24*
X56500000Y-83250000D03*
X56500000Y-66750000D03*
D25*
X57475000Y-81075000D03*
D26*
X55675000Y-81300000D03*
D27*
X57325000Y-79950000D03*
D26*
X55675000Y-80400000D03*
D27*
X57325000Y-79050000D03*
D26*
X55675000Y-79500000D03*
D27*
X57325000Y-78150000D03*
D26*
X55675000Y-78600000D03*
D27*
X57325000Y-77250000D03*
D26*
X55675000Y-77700000D03*
D27*
X57325000Y-76350000D03*
D26*
X55675000Y-76800000D03*
D27*
X57325000Y-75450000D03*
D26*
X55675000Y-75900000D03*
D27*
X57325000Y-74550000D03*
D26*
X55675000Y-75000000D03*
D27*
X57325000Y-73650000D03*
D26*
X55675000Y-74100000D03*
D27*
X57325000Y-72750000D03*
D26*
X55675000Y-73200000D03*
D27*
X57325000Y-71850000D03*
D26*
X55675000Y-72300000D03*
D27*
X57325000Y-70950000D03*
D26*
X55675000Y-71400000D03*
D27*
X57325000Y-70050000D03*
D26*
X55675000Y-70500000D03*
D25*
X57475000Y-68925000D03*
D26*
X55675000Y-69600000D03*
X55675000Y-68700000D03*
D32*
X70275000Y-83650000D03*
X68825000Y-83650000D03*
D33*
X63095796Y-76305662D03*
X62445796Y-76305662D03*
X61795796Y-76305662D03*
X61145796Y-76305662D03*
X61145796Y-78580662D03*
X61795796Y-78580662D03*
X62445796Y-78580662D03*
X63095796Y-78580662D03*
D34*
X64345796Y-77960662D03*
X64345796Y-77000662D03*
D16*
X82340000Y-67000000D03*
X83360000Y-67000000D03*
D35*
X65480000Y-71300000D03*
X64520000Y-71300000D03*
D15*
X44000000Y-83475000D03*
X44000000Y-81925000D03*
D28*
X89530000Y-76150000D03*
X89530000Y-75150000D03*
X89530000Y-74150000D03*
X89530000Y-73150000D03*
X89530000Y-71650000D03*
X89530000Y-70650000D03*
X89530000Y-69650000D03*
X89530000Y-68650000D03*
X89530000Y-69150000D03*
X89530000Y-70150000D03*
X89530000Y-71150000D03*
X89530000Y-72150000D03*
X89530000Y-72650000D03*
X89530000Y-73650000D03*
X89530000Y-74650000D03*
X89530000Y-75650000D03*
X89530000Y-76650000D03*
X89530000Y-68150000D03*
D29*
X90150000Y-77800000D03*
X90150000Y-67000000D03*
D30*
X93380000Y-77800000D03*
X93380000Y-67000000D03*
D36*
X114799998Y-79300000D03*
X114299999Y-79300000D03*
X113800000Y-79300000D03*
D37*
X113800000Y-80400000D03*
X114299999Y-80400000D03*
X114799998Y-80400000D03*
D35*
X83350000Y-70325000D03*
X82390000Y-70325000D03*
D13*
X38390000Y-68325000D03*
X39350000Y-68325000D03*
D17*
X62700000Y-71500000D03*
X62250000Y-71500000D03*
X61800000Y-71500000D03*
X61350000Y-71500000D03*
X60900000Y-71500000D03*
X60450000Y-71500000D03*
X60450000Y-74400000D03*
X60900000Y-74400000D03*
X61350000Y-74400000D03*
X61800000Y-74400000D03*
X62250000Y-74400000D03*
X62700000Y-74400000D03*
D18*
X61575000Y-72950000D03*
D16*
X104340000Y-67000000D03*
X105360000Y-67000000D03*
D15*
X88000000Y-83475000D03*
X88000000Y-81925000D03*
D35*
X39350000Y-70325000D03*
X38390000Y-70325000D03*
X105350000Y-70325000D03*
X104390000Y-70325000D03*
D32*
X48275000Y-83650000D03*
X46825000Y-83650000D03*
D17*
X84700000Y-71500000D03*
X84250000Y-71500000D03*
X83800000Y-71500000D03*
X83350000Y-71500000D03*
X82900000Y-71500000D03*
X82450000Y-71500000D03*
X82450000Y-74400000D03*
X82900000Y-74400000D03*
X83350000Y-74400000D03*
X83800000Y-74400000D03*
X84250000Y-74400000D03*
X84700000Y-74400000D03*
D18*
X83575000Y-72950000D03*
D35*
X109480000Y-71300000D03*
X108520000Y-71300000D03*
D22*
X39360000Y-66000000D03*
X38340000Y-66000000D03*
D34*
X42345796Y-77960662D03*
X42345796Y-77000662D03*
D36*
X70799998Y-79300000D03*
X70299999Y-79300000D03*
X69800000Y-79300000D03*
D37*
X69800000Y-80400000D03*
X70299999Y-80400000D03*
X70799998Y-80400000D03*
D22*
X110060000Y-70150000D03*
X109040000Y-70150000D03*
D15*
X111500000Y-83475000D03*
X111500000Y-81925000D03*
D23*
X107037500Y-83150000D03*
X107037500Y-82200000D03*
X107037500Y-81250000D03*
X104762500Y-81250000D03*
X104762500Y-83150000D03*
X41037500Y-83150000D03*
X41037500Y-82200000D03*
X41037500Y-81250000D03*
X38762500Y-81250000D03*
X38762500Y-83150000D03*
D14*
X59850000Y-75670000D03*
X59850000Y-76630000D03*
D15*
X89500000Y-83475000D03*
X89500000Y-81925000D03*
D16*
X86990000Y-74800000D03*
X88010000Y-74800000D03*
D28*
X45530000Y-76150000D03*
X45530000Y-75150000D03*
X45530000Y-74150000D03*
X45530000Y-73150000D03*
X45530000Y-71650000D03*
X45530000Y-70650000D03*
X45530000Y-69650000D03*
X45530000Y-68650000D03*
X45530000Y-69150000D03*
X45530000Y-70150000D03*
X45530000Y-71150000D03*
X45530000Y-72150000D03*
X45530000Y-72650000D03*
X45530000Y-73650000D03*
X45530000Y-74650000D03*
X45530000Y-75650000D03*
X45530000Y-76650000D03*
X45530000Y-68150000D03*
D29*
X46150000Y-77800000D03*
X46150000Y-67000000D03*
D30*
X49380000Y-77800000D03*
X49380000Y-67000000D03*
D16*
X108990000Y-74800000D03*
X110010000Y-74800000D03*
D28*
X67530000Y-76150000D03*
X67530000Y-75150000D03*
X67530000Y-74150000D03*
X67530000Y-73150000D03*
X67530000Y-71650000D03*
X67530000Y-70650000D03*
X67530000Y-69650000D03*
X67530000Y-68650000D03*
X67530000Y-69150000D03*
X67530000Y-70150000D03*
X67530000Y-71150000D03*
X67530000Y-72150000D03*
X67530000Y-72650000D03*
X67530000Y-73650000D03*
X67530000Y-74650000D03*
X67530000Y-75650000D03*
X67530000Y-76650000D03*
X67530000Y-68150000D03*
D29*
X68150000Y-77800000D03*
X68150000Y-67000000D03*
D30*
X71380000Y-77800000D03*
X71380000Y-67000000D03*
D14*
X108600000Y-82220000D03*
X108600000Y-83180000D03*
D19*
X43800000Y-73475000D03*
D20*
X43875000Y-72937500D03*
D19*
X43800000Y-72400000D03*
X42100000Y-72400000D03*
D20*
X42025000Y-72937500D03*
D19*
X42100000Y-73475000D03*
D13*
X60390000Y-69325000D03*
X61350000Y-69325000D03*
D14*
X42600000Y-82220000D03*
X42600000Y-83180000D03*
X103850000Y-75670000D03*
X103850000Y-76630000D03*
D32*
X114275000Y-83650000D03*
X112825000Y-83650000D03*
D16*
X42990000Y-74800000D03*
X44010000Y-74800000D03*
X38340000Y-67000000D03*
X39360000Y-67000000D03*
D31*
X106497787Y-66054867D03*
X108072787Y-66054867D03*
D36*
X48799998Y-79300000D03*
X48299999Y-79300000D03*
X47800000Y-79300000D03*
D37*
X47800000Y-80400000D03*
X48299999Y-80400000D03*
X48799998Y-80400000D03*
D15*
X66000000Y-83475000D03*
X66000000Y-81925000D03*
D13*
X104390000Y-68325000D03*
X105350000Y-68325000D03*
D19*
X65800000Y-73475000D03*
D20*
X65875000Y-72937500D03*
D19*
X65800000Y-72400000D03*
X64100000Y-72400000D03*
D20*
X64025000Y-72937500D03*
D19*
X64100000Y-73475000D03*
D13*
X38390000Y-69325000D03*
X39350000Y-69325000D03*
D21*
X43312500Y-68700000D03*
X41187500Y-68700000D03*
D35*
X61350000Y-70325000D03*
X60390000Y-70325000D03*
D24*
X34500000Y-83250000D03*
X34500000Y-66750000D03*
D25*
X35475000Y-81075000D03*
D26*
X33675000Y-81300000D03*
D27*
X35325000Y-79950000D03*
D26*
X33675000Y-80400000D03*
D27*
X35325000Y-79050000D03*
D26*
X33675000Y-79500000D03*
D27*
X35325000Y-78150000D03*
D26*
X33675000Y-78600000D03*
D27*
X35325000Y-77250000D03*
D26*
X33675000Y-77700000D03*
D27*
X35325000Y-76350000D03*
D26*
X33675000Y-76800000D03*
D27*
X35325000Y-75450000D03*
D26*
X33675000Y-75900000D03*
D27*
X35325000Y-74550000D03*
D26*
X33675000Y-75000000D03*
D27*
X35325000Y-73650000D03*
D26*
X33675000Y-74100000D03*
D27*
X35325000Y-72750000D03*
D26*
X33675000Y-73200000D03*
D27*
X35325000Y-71850000D03*
D26*
X33675000Y-72300000D03*
D27*
X35325000Y-70950000D03*
D26*
X33675000Y-71400000D03*
D27*
X35325000Y-70050000D03*
D26*
X33675000Y-70500000D03*
D25*
X35475000Y-68925000D03*
D26*
X33675000Y-69600000D03*
X33675000Y-68700000D03*
D12*
X115075000Y-52850000D03*
X113525000Y-52850000D03*
D33*
X107095796Y-47305662D03*
X106445796Y-47305662D03*
X105795796Y-47305662D03*
X105145796Y-47305662D03*
X105145796Y-49580662D03*
X105795796Y-49580662D03*
X106445796Y-49580662D03*
X107095796Y-49580662D03*
D14*
X103850000Y-46670000D03*
X103850000Y-47630000D03*
D15*
X111500000Y-54475000D03*
X111500000Y-52925000D03*
D22*
X110060000Y-41150000D03*
X109040000Y-41150000D03*
D31*
X106497787Y-37054867D03*
X108072787Y-37054867D03*
D17*
X106700000Y-42500000D03*
X106250000Y-42500000D03*
X105800000Y-42500000D03*
X105350000Y-42500000D03*
X104900000Y-42500000D03*
X104450000Y-42500000D03*
X104450000Y-45400000D03*
X104900000Y-45400000D03*
X105350000Y-45400000D03*
X105800000Y-45400000D03*
X106250000Y-45400000D03*
X106700000Y-45400000D03*
D18*
X105575000Y-43950000D03*
D35*
X109480000Y-42300000D03*
X108520000Y-42300000D03*
D15*
X110000000Y-54475000D03*
X110000000Y-52925000D03*
D13*
X104390000Y-39325000D03*
X105350000Y-39325000D03*
D35*
X105350000Y-41325000D03*
X104390000Y-41325000D03*
D32*
X114275000Y-54650000D03*
X112825000Y-54650000D03*
D22*
X105360000Y-37000000D03*
X104340000Y-37000000D03*
D34*
X108345796Y-48960662D03*
X108345796Y-48000662D03*
D23*
X107037500Y-54150000D03*
X107037500Y-53200000D03*
X107037500Y-52250000D03*
X104762500Y-52250000D03*
X104762500Y-54150000D03*
D28*
X111530000Y-47150000D03*
X111530000Y-46150000D03*
X111530000Y-45150000D03*
X111530000Y-44150000D03*
X111530000Y-42650000D03*
X111530000Y-41650000D03*
X111530000Y-40650000D03*
X111530000Y-39650000D03*
X111530000Y-40150000D03*
X111530000Y-41150000D03*
X111530000Y-42150000D03*
X111530000Y-43150000D03*
X111530000Y-43650000D03*
X111530000Y-44650000D03*
X111530000Y-45650000D03*
X111530000Y-46650000D03*
X111530000Y-47650000D03*
X111530000Y-39150000D03*
D29*
X112150000Y-48800000D03*
X112150000Y-38000000D03*
D30*
X115380000Y-48800000D03*
X115380000Y-38000000D03*
D19*
X109800000Y-44475000D03*
D20*
X109875000Y-43937500D03*
D19*
X109800000Y-43400000D03*
X108100000Y-43400000D03*
D20*
X108025000Y-43937500D03*
D19*
X108100000Y-44475000D03*
D14*
X108600000Y-53220000D03*
X108600000Y-54180000D03*
D16*
X108990000Y-45800000D03*
X110010000Y-45800000D03*
X104340000Y-38000000D03*
X105360000Y-38000000D03*
D36*
X114799998Y-50300000D03*
X114299999Y-50300000D03*
X113800000Y-50300000D03*
D37*
X113800000Y-51400000D03*
X114299999Y-51400000D03*
X114799998Y-51400000D03*
D13*
X104390000Y-40325000D03*
X105350000Y-40325000D03*
D21*
X109312500Y-39700000D03*
X107187500Y-39700000D03*
D24*
X100500000Y-54250000D03*
X100500000Y-37750000D03*
D25*
X101475000Y-52075000D03*
D26*
X99675000Y-52300000D03*
D27*
X101325000Y-50950000D03*
D26*
X99675000Y-51400000D03*
D27*
X101325000Y-50050000D03*
D26*
X99675000Y-50500000D03*
D27*
X101325000Y-49150000D03*
D26*
X99675000Y-49600000D03*
D27*
X101325000Y-48250000D03*
D26*
X99675000Y-48700000D03*
D27*
X101325000Y-47350000D03*
D26*
X99675000Y-47800000D03*
D27*
X101325000Y-46450000D03*
D26*
X99675000Y-46900000D03*
D27*
X101325000Y-45550000D03*
D26*
X99675000Y-46000000D03*
D27*
X101325000Y-44650000D03*
D26*
X99675000Y-45100000D03*
D27*
X101325000Y-43750000D03*
D26*
X99675000Y-44200000D03*
D27*
X101325000Y-42850000D03*
D26*
X99675000Y-43300000D03*
D27*
X101325000Y-41950000D03*
D26*
X99675000Y-42400000D03*
D27*
X101325000Y-41050000D03*
D26*
X99675000Y-41500000D03*
D25*
X101475000Y-39925000D03*
D26*
X99675000Y-40600000D03*
X99675000Y-39700000D03*
D12*
X93075000Y-52850000D03*
X91525000Y-52850000D03*
D33*
X85095796Y-47305662D03*
X84445796Y-47305662D03*
X83795796Y-47305662D03*
X83145796Y-47305662D03*
X83145796Y-49580662D03*
X83795796Y-49580662D03*
X84445796Y-49580662D03*
X85095796Y-49580662D03*
D14*
X81850000Y-46670000D03*
X81850000Y-47630000D03*
D15*
X89500000Y-54475000D03*
X89500000Y-52925000D03*
D22*
X88060000Y-41150000D03*
X87040000Y-41150000D03*
D31*
X84497787Y-37054867D03*
X86072787Y-37054867D03*
D17*
X84700000Y-42500000D03*
X84250000Y-42500000D03*
X83800000Y-42500000D03*
X83350000Y-42500000D03*
X82900000Y-42500000D03*
X82450000Y-42500000D03*
X82450000Y-45400000D03*
X82900000Y-45400000D03*
X83350000Y-45400000D03*
X83800000Y-45400000D03*
X84250000Y-45400000D03*
X84700000Y-45400000D03*
D18*
X83575000Y-43950000D03*
D35*
X87480000Y-42300000D03*
X86520000Y-42300000D03*
D15*
X88000000Y-54475000D03*
X88000000Y-52925000D03*
D13*
X82390000Y-39325000D03*
X83350000Y-39325000D03*
D35*
X83350000Y-41325000D03*
X82390000Y-41325000D03*
D32*
X92275000Y-54650000D03*
X90825000Y-54650000D03*
D22*
X83360000Y-37000000D03*
X82340000Y-37000000D03*
D34*
X86345796Y-48960662D03*
X86345796Y-48000662D03*
D23*
X85037500Y-54150000D03*
X85037500Y-53200000D03*
X85037500Y-52250000D03*
X82762500Y-52250000D03*
X82762500Y-54150000D03*
D28*
X89530000Y-47150000D03*
X89530000Y-46150000D03*
X89530000Y-45150000D03*
X89530000Y-44150000D03*
X89530000Y-42650000D03*
X89530000Y-41650000D03*
X89530000Y-40650000D03*
X89530000Y-39650000D03*
X89530000Y-40150000D03*
X89530000Y-41150000D03*
X89530000Y-42150000D03*
X89530000Y-43150000D03*
X89530000Y-43650000D03*
X89530000Y-44650000D03*
X89530000Y-45650000D03*
X89530000Y-46650000D03*
X89530000Y-47650000D03*
X89530000Y-39150000D03*
D29*
X90150000Y-48800000D03*
X90150000Y-38000000D03*
D30*
X93380000Y-48800000D03*
X93380000Y-38000000D03*
D19*
X87800000Y-44475000D03*
D20*
X87875000Y-43937500D03*
D19*
X87800000Y-43400000D03*
X86100000Y-43400000D03*
D20*
X86025000Y-43937500D03*
D19*
X86100000Y-44475000D03*
D14*
X86600000Y-53220000D03*
X86600000Y-54180000D03*
D16*
X86990000Y-45800000D03*
X88010000Y-45800000D03*
X82340000Y-38000000D03*
X83360000Y-38000000D03*
D36*
X92799998Y-50300000D03*
X92299999Y-50300000D03*
X91800000Y-50300000D03*
D37*
X91800000Y-51400000D03*
X92299999Y-51400000D03*
X92799998Y-51400000D03*
D13*
X82390000Y-40325000D03*
X83350000Y-40325000D03*
D21*
X87312500Y-39700000D03*
X85187500Y-39700000D03*
D24*
X78500000Y-54250000D03*
X78500000Y-37750000D03*
D25*
X79475000Y-52075000D03*
D26*
X77675000Y-52300000D03*
D27*
X79325000Y-50950000D03*
D26*
X77675000Y-51400000D03*
D27*
X79325000Y-50050000D03*
D26*
X77675000Y-50500000D03*
D27*
X79325000Y-49150000D03*
D26*
X77675000Y-49600000D03*
D27*
X79325000Y-48250000D03*
D26*
X77675000Y-48700000D03*
D27*
X79325000Y-47350000D03*
D26*
X77675000Y-47800000D03*
D27*
X79325000Y-46450000D03*
D26*
X77675000Y-46900000D03*
D27*
X79325000Y-45550000D03*
D26*
X77675000Y-46000000D03*
D27*
X79325000Y-44650000D03*
D26*
X77675000Y-45100000D03*
D27*
X79325000Y-43750000D03*
D26*
X77675000Y-44200000D03*
D27*
X79325000Y-42850000D03*
D26*
X77675000Y-43300000D03*
D27*
X79325000Y-41950000D03*
D26*
X77675000Y-42400000D03*
D27*
X79325000Y-41050000D03*
D26*
X77675000Y-41500000D03*
D25*
X79475000Y-39925000D03*
D26*
X77675000Y-40600000D03*
X77675000Y-39700000D03*
D12*
X71075000Y-52850000D03*
X69525000Y-52850000D03*
D33*
X63095796Y-47305662D03*
X62445796Y-47305662D03*
X61795796Y-47305662D03*
X61145796Y-47305662D03*
X61145796Y-49580662D03*
X61795796Y-49580662D03*
X62445796Y-49580662D03*
X63095796Y-49580662D03*
D14*
X59850000Y-46670000D03*
X59850000Y-47630000D03*
D15*
X67500000Y-54475000D03*
X67500000Y-52925000D03*
D22*
X66060000Y-41150000D03*
X65040000Y-41150000D03*
D31*
X62497787Y-37054867D03*
X64072787Y-37054867D03*
D17*
X62700000Y-42500000D03*
X62250000Y-42500000D03*
X61800000Y-42500000D03*
X61350000Y-42500000D03*
X60900000Y-42500000D03*
X60450000Y-42500000D03*
X60450000Y-45400000D03*
X60900000Y-45400000D03*
X61350000Y-45400000D03*
X61800000Y-45400000D03*
X62250000Y-45400000D03*
X62700000Y-45400000D03*
D18*
X61575000Y-43950000D03*
D35*
X65480000Y-42300000D03*
X64520000Y-42300000D03*
D15*
X66000000Y-54475000D03*
X66000000Y-52925000D03*
D13*
X60390000Y-39325000D03*
X61350000Y-39325000D03*
D35*
X61350000Y-41325000D03*
X60390000Y-41325000D03*
D32*
X70275000Y-54650000D03*
X68825000Y-54650000D03*
D22*
X61360000Y-37000000D03*
X60340000Y-37000000D03*
D34*
X64345796Y-48960662D03*
X64345796Y-48000662D03*
D23*
X63037500Y-54150000D03*
X63037500Y-53200000D03*
X63037500Y-52250000D03*
X60762500Y-52250000D03*
X60762500Y-54150000D03*
D28*
X67530000Y-47150000D03*
X67530000Y-46150000D03*
X67530000Y-45150000D03*
X67530000Y-44150000D03*
X67530000Y-42650000D03*
X67530000Y-41650000D03*
X67530000Y-40650000D03*
X67530000Y-39650000D03*
X67530000Y-40150000D03*
X67530000Y-41150000D03*
X67530000Y-42150000D03*
X67530000Y-43150000D03*
X67530000Y-43650000D03*
X67530000Y-44650000D03*
X67530000Y-45650000D03*
X67530000Y-46650000D03*
X67530000Y-47650000D03*
X67530000Y-39150000D03*
D29*
X68150000Y-48800000D03*
X68150000Y-38000000D03*
D30*
X71380000Y-48800000D03*
X71380000Y-38000000D03*
D19*
X65800000Y-44475000D03*
D20*
X65875000Y-43937500D03*
D19*
X65800000Y-43400000D03*
X64100000Y-43400000D03*
D20*
X64025000Y-43937500D03*
D19*
X64100000Y-44475000D03*
D14*
X64600000Y-53220000D03*
X64600000Y-54180000D03*
D16*
X64990000Y-45800000D03*
X66010000Y-45800000D03*
X60340000Y-38000000D03*
X61360000Y-38000000D03*
D36*
X70799998Y-50300000D03*
X70299999Y-50300000D03*
X69800000Y-50300000D03*
D37*
X69800000Y-51400000D03*
X70299999Y-51400000D03*
X70799998Y-51400000D03*
D13*
X60390000Y-40325000D03*
X61350000Y-40325000D03*
D21*
X65312500Y-39700000D03*
X63187500Y-39700000D03*
D24*
X56500000Y-54250000D03*
X56500000Y-37750000D03*
D25*
X57475000Y-52075000D03*
D26*
X55675000Y-52300000D03*
D27*
X57325000Y-50950000D03*
D26*
X55675000Y-51400000D03*
D27*
X57325000Y-50050000D03*
D26*
X55675000Y-50500000D03*
D27*
X57325000Y-49150000D03*
D26*
X55675000Y-49600000D03*
D27*
X57325000Y-48250000D03*
D26*
X55675000Y-48700000D03*
D27*
X57325000Y-47350000D03*
D26*
X55675000Y-47800000D03*
D27*
X57325000Y-46450000D03*
D26*
X55675000Y-46900000D03*
D27*
X57325000Y-45550000D03*
D26*
X55675000Y-46000000D03*
D27*
X57325000Y-44650000D03*
D26*
X55675000Y-45100000D03*
D27*
X57325000Y-43750000D03*
D26*
X55675000Y-44200000D03*
D27*
X57325000Y-42850000D03*
D26*
X55675000Y-43300000D03*
D27*
X57325000Y-41950000D03*
D26*
X55675000Y-42400000D03*
D27*
X57325000Y-41050000D03*
D26*
X55675000Y-41500000D03*
D25*
X57475000Y-39925000D03*
D26*
X55675000Y-40600000D03*
X55675000Y-39700000D03*
D17*
X40700000Y-42500000D03*
X40250000Y-42500000D03*
X39800000Y-42500000D03*
X39350000Y-42500000D03*
X38900000Y-42500000D03*
X38450000Y-42500000D03*
X38450000Y-45400000D03*
X38900000Y-45400000D03*
X39350000Y-45400000D03*
X39800000Y-45400000D03*
X40250000Y-45400000D03*
X40700000Y-45400000D03*
D18*
X39575000Y-43950000D03*
D15*
X44000000Y-54475000D03*
X44000000Y-52925000D03*
X45500000Y-54475000D03*
X45500000Y-52925000D03*
D21*
X43312500Y-39700000D03*
X41187500Y-39700000D03*
D24*
X34500000Y-54250000D03*
X34500000Y-37750000D03*
D25*
X35475000Y-52075000D03*
D26*
X33675000Y-52300000D03*
D27*
X35325000Y-50950000D03*
D26*
X33675000Y-51400000D03*
D27*
X35325000Y-50050000D03*
D26*
X33675000Y-50500000D03*
D27*
X35325000Y-49150000D03*
D26*
X33675000Y-49600000D03*
D27*
X35325000Y-48250000D03*
D26*
X33675000Y-48700000D03*
D27*
X35325000Y-47350000D03*
D26*
X33675000Y-47800000D03*
D27*
X35325000Y-46450000D03*
D26*
X33675000Y-46900000D03*
D27*
X35325000Y-45550000D03*
D26*
X33675000Y-46000000D03*
D27*
X35325000Y-44650000D03*
D26*
X33675000Y-45100000D03*
D27*
X35325000Y-43750000D03*
D26*
X33675000Y-44200000D03*
D27*
X35325000Y-42850000D03*
D26*
X33675000Y-43300000D03*
D27*
X35325000Y-41950000D03*
D26*
X33675000Y-42400000D03*
D27*
X35325000Y-41050000D03*
D26*
X33675000Y-41500000D03*
D25*
X35475000Y-39925000D03*
D26*
X33675000Y-40600000D03*
X33675000Y-39700000D03*
D14*
X37850000Y-46670000D03*
X37850000Y-47630000D03*
D12*
X49075000Y-52850000D03*
X47525000Y-52850000D03*
D14*
X42600000Y-53220000D03*
X42600000Y-54180000D03*
D34*
X42345796Y-48960662D03*
X42345796Y-48000662D03*
D22*
X39360000Y-37000000D03*
X38340000Y-37000000D03*
D16*
X38340000Y-38000000D03*
X39360000Y-38000000D03*
D35*
X43480000Y-42300000D03*
X42520000Y-42300000D03*
D13*
X38390000Y-39325000D03*
X39350000Y-39325000D03*
D28*
X45530000Y-47150000D03*
X45530000Y-46150000D03*
X45530000Y-45150000D03*
X45530000Y-44150000D03*
X45530000Y-42650000D03*
X45530000Y-41650000D03*
X45530000Y-40650000D03*
X45530000Y-39650000D03*
X45530000Y-40150000D03*
X45530000Y-41150000D03*
X45530000Y-42150000D03*
X45530000Y-43150000D03*
X45530000Y-43650000D03*
X45530000Y-44650000D03*
X45530000Y-45650000D03*
X45530000Y-46650000D03*
X45530000Y-47650000D03*
X45530000Y-39150000D03*
D29*
X46150000Y-48800000D03*
X46150000Y-38000000D03*
D30*
X49380000Y-48800000D03*
X49380000Y-38000000D03*
D35*
X39350000Y-41325000D03*
X38390000Y-41325000D03*
D33*
X41095796Y-47305662D03*
X40445796Y-47305662D03*
X39795796Y-47305662D03*
X39145796Y-47305662D03*
X39145796Y-49580662D03*
X39795796Y-49580662D03*
X40445796Y-49580662D03*
X41095796Y-49580662D03*
D31*
X40497787Y-37054867D03*
X42072787Y-37054867D03*
D16*
X42990000Y-45800000D03*
X44010000Y-45800000D03*
D19*
X43800000Y-44475000D03*
D20*
X43875000Y-43937500D03*
D19*
X43800000Y-43400000D03*
X42100000Y-43400000D03*
D20*
X42025000Y-43937500D03*
D19*
X42100000Y-44475000D03*
D36*
X48799998Y-50300000D03*
X48299999Y-50300000D03*
X47800000Y-50300000D03*
D37*
X47800000Y-51400000D03*
X48299999Y-51400000D03*
X48799998Y-51400000D03*
D22*
X44060000Y-41150000D03*
X43040000Y-41150000D03*
D13*
X38390000Y-40325000D03*
X39350000Y-40325000D03*
D23*
X41037500Y-54150000D03*
X41037500Y-53200000D03*
X41037500Y-52250000D03*
X38762500Y-52250000D03*
X38762500Y-54150000D03*
D32*
X48275000Y-54650000D03*
X46825000Y-54650000D03*
D38*
X30000000Y-30000000D03*
D39*
X115000000Y-30000000D03*
D38*
X30000000Y-120000000D03*
D39*
X35000000Y-30000000D03*
D40*
X35000000Y-30000000D03*
D39*
X110000000Y-120000000D03*
D38*
X120000000Y-120000000D03*
D39*
X40000000Y-120000000D03*
D38*
X120000000Y-30000000D03*
M02*
