G04 #@! TF.GenerationSoftware,KiCad,Pcbnew,10.0.3*
G04 #@! TF.CreationDate,2026-05-22T20:10:46+09:00*
G04 #@! TF.ProjectId,leafony-az01c-panelized,6c656166-6f6e-4792-9d61-7a3031632d70,v1.0*
G04 #@! TF.SameCoordinates,Original*
G04 #@! TF.FileFunction,Paste,Top*
G04 #@! TF.FilePolarity,Positive*
%FSLAX46Y46*%
G04 Gerber Fmt 4.6, Leading zero omitted, Abs format (unit mm)*
G04 Created by KiCad (PCBNEW 10.0.3) date 2026-05-22 20:10:46*
%MOMM*%
%LPD*%
G01*
G04 APERTURE LIST*
G04 Aperture macros list*
%AMRoundRect*
0 Rectangle with rounded corners*
0 $1 Rounding radius*
0 $2 $3 $4 $5 $6 $7 $8 $9 X,Y pos of 4 corners*
0 Add a 4 corners polygon primitive as box body*
4,1,4,$2,$3,$4,$5,$6,$7,$8,$9,$2,$3,0*
0 Add four circle primitives for the rounded corners*
1,1,$1+$1,$2,$3*
1,1,$1+$1,$4,$5*
1,1,$1+$1,$6,$7*
1,1,$1+$1,$8,$9*
0 Add four rect primitives between the rounded corners*
20,1,$1+$1,$2,$3,$4,$5,0*
20,1,$1+$1,$4,$5,$6,$7,0*
20,1,$1+$1,$6,$7,$8,$9,0*
20,1,$1+$1,$8,$9,$2,$3,0*%
G04 Aperture macros list end*
%ADD10C,0.000000*%
%ADD11RoundRect,0.225000X0.225000X0.250000X-0.225000X0.250000X-0.225000X-0.250000X0.225000X-0.250000X0*%
%ADD12RoundRect,0.140000X-0.140000X-0.170000X0.140000X-0.170000X0.140000X0.170000X-0.140000X0.170000X0*%
%ADD13RoundRect,0.140000X-0.170000X0.140000X-0.170000X-0.140000X0.170000X-0.140000X0.170000X0.140000X0*%
%ADD14RoundRect,0.225000X0.250000X-0.225000X0.250000X0.225000X-0.250000X0.225000X-0.250000X-0.225000X0*%
%ADD15RoundRect,0.135000X-0.135000X-0.185000X0.135000X-0.185000X0.135000X0.185000X-0.135000X0.185000X0*%
%ADD16RoundRect,0.172500X-0.332500X0.172500X-0.332500X-0.172500X0.332500X-0.172500X0.332500X0.172500X0*%
%ADD17RoundRect,0.050000X-0.050000X0.350000X-0.050000X-0.350000X0.050000X-0.350000X0.050000X0.350000X0*%
%ADD18RoundRect,0.093750X0.156250X0.093750X-0.156250X0.093750X-0.156250X-0.093750X0.156250X-0.093750X0*%
%ADD19RoundRect,0.075000X0.250000X0.075000X-0.250000X0.075000X-0.250000X-0.075000X0.250000X-0.075000X0*%
%ADD20RoundRect,0.218750X0.218750X0.381250X-0.218750X0.381250X-0.218750X-0.381250X0.218750X-0.381250X0*%
%ADD21RoundRect,0.135000X0.135000X0.185000X-0.135000X0.185000X-0.135000X-0.185000X0.135000X-0.185000X0*%
%ADD22RoundRect,0.150000X0.512500X0.150000X-0.512500X0.150000X-0.512500X-0.150000X0.512500X-0.150000X0*%
%ADD23R,0.900000X0.300000*%
%ADD24RoundRect,0.218750X-0.218750X-0.256250X0.218750X-0.256250X0.218750X0.256250X-0.218750X0.256250X0*%
%ADD25RoundRect,0.137500X0.137500X0.662500X-0.137500X0.662500X-0.137500X-0.662500X0.137500X-0.662500X0*%
%ADD26RoundRect,0.125000X-0.125000X0.537500X-0.125000X-0.537500X0.125000X-0.537500X0.125000X0.537500X0*%
%ADD27RoundRect,0.140000X0.170000X-0.140000X0.170000X0.140000X-0.170000X0.140000X-0.170000X-0.140000X0*%
%ADD28RoundRect,0.140000X0.140000X0.170000X-0.140000X0.170000X-0.140000X-0.170000X0.140000X-0.170000X0*%
%ADD29R,0.249999X0.599999*%
G04 APERTURE END LIST*
D10*
G36*
X91859754Y-109050961D02*
G01*
X91869134Y-109053806D01*
X91877777Y-109058429D01*
X91885354Y-109064646D01*
X91891572Y-109072223D01*
X91896195Y-109080867D01*
X91899040Y-109090247D01*
X91900000Y-109100001D01*
X91900000Y-109850002D01*
X91899040Y-109859755D01*
X91896195Y-109869136D01*
X91891572Y-109877779D01*
X91885354Y-109885356D01*
X91877777Y-109891574D01*
X91869134Y-109896197D01*
X91859754Y-109899042D01*
X91850000Y-109900002D01*
X91750000Y-109900002D01*
X91740247Y-109899042D01*
X91730866Y-109896197D01*
X91722223Y-109891574D01*
X91714646Y-109885356D01*
X91708428Y-109877779D01*
X91703805Y-109869136D01*
X91700960Y-109859755D01*
X91700000Y-109850002D01*
X91700000Y-109100001D01*
X91700960Y-109090247D01*
X91703805Y-109080867D01*
X91708428Y-109072223D01*
X91714646Y-109064646D01*
X91722223Y-109058429D01*
X91730866Y-109053806D01*
X91740247Y-109050961D01*
X91750000Y-109050001D01*
X91850000Y-109050001D01*
X91859754Y-109050961D01*
G37*
G36*
X92359753Y-109050961D02*
G01*
X92369133Y-109053806D01*
X92377776Y-109058429D01*
X92385353Y-109064646D01*
X92391571Y-109072223D01*
X92396194Y-109080867D01*
X92399039Y-109090247D01*
X92399999Y-109100001D01*
X92399999Y-109850002D01*
X92399039Y-109859755D01*
X92396194Y-109869136D01*
X92391571Y-109877779D01*
X92385353Y-109885356D01*
X92377776Y-109891574D01*
X92369133Y-109896197D01*
X92359753Y-109899042D01*
X92349999Y-109900002D01*
X92249999Y-109900002D01*
X92240245Y-109899042D01*
X92230865Y-109896197D01*
X92222222Y-109891574D01*
X92214645Y-109885356D01*
X92208427Y-109877779D01*
X92203804Y-109869136D01*
X92200959Y-109859755D01*
X92199999Y-109850002D01*
X92199999Y-109100001D01*
X92200959Y-109090247D01*
X92203804Y-109080867D01*
X92208427Y-109072223D01*
X92214645Y-109064646D01*
X92222222Y-109058429D01*
X92230865Y-109053806D01*
X92240245Y-109050961D01*
X92249999Y-109050001D01*
X92349999Y-109050001D01*
X92359753Y-109050961D01*
G37*
G36*
X92859751Y-109050961D02*
G01*
X92869132Y-109053806D01*
X92877775Y-109058429D01*
X92885352Y-109064646D01*
X92891570Y-109072223D01*
X92896193Y-109080867D01*
X92899038Y-109090247D01*
X92899998Y-109100001D01*
X92899998Y-109850002D01*
X92899038Y-109859755D01*
X92896193Y-109869136D01*
X92891570Y-109877779D01*
X92885352Y-109885356D01*
X92877775Y-109891574D01*
X92869132Y-109896197D01*
X92859751Y-109899042D01*
X92849998Y-109900002D01*
X92749998Y-109900002D01*
X92740244Y-109899042D01*
X92730864Y-109896197D01*
X92722221Y-109891574D01*
X92714644Y-109885356D01*
X92708426Y-109877779D01*
X92703803Y-109869136D01*
X92700958Y-109859755D01*
X92699998Y-109850002D01*
X92699998Y-109100001D01*
X92700958Y-109090247D01*
X92703803Y-109080867D01*
X92708426Y-109072223D01*
X92714644Y-109064646D01*
X92722221Y-109058429D01*
X92730864Y-109053806D01*
X92740244Y-109050961D01*
X92749998Y-109050001D01*
X92849998Y-109050001D01*
X92859751Y-109050961D01*
G37*
G36*
X113859754Y-109050961D02*
G01*
X113869134Y-109053806D01*
X113877777Y-109058429D01*
X113885354Y-109064646D01*
X113891572Y-109072223D01*
X113896195Y-109080867D01*
X113899040Y-109090247D01*
X113900000Y-109100001D01*
X113900000Y-109850002D01*
X113899040Y-109859755D01*
X113896195Y-109869136D01*
X113891572Y-109877779D01*
X113885354Y-109885356D01*
X113877777Y-109891574D01*
X113869134Y-109896197D01*
X113859754Y-109899042D01*
X113850000Y-109900002D01*
X113750000Y-109900002D01*
X113740247Y-109899042D01*
X113730866Y-109896197D01*
X113722223Y-109891574D01*
X113714646Y-109885356D01*
X113708428Y-109877779D01*
X113703805Y-109869136D01*
X113700960Y-109859755D01*
X113700000Y-109850002D01*
X113700000Y-109100001D01*
X113700960Y-109090247D01*
X113703805Y-109080867D01*
X113708428Y-109072223D01*
X113714646Y-109064646D01*
X113722223Y-109058429D01*
X113730866Y-109053806D01*
X113740247Y-109050961D01*
X113750000Y-109050001D01*
X113850000Y-109050001D01*
X113859754Y-109050961D01*
G37*
G36*
X114359753Y-109050961D02*
G01*
X114369133Y-109053806D01*
X114377776Y-109058429D01*
X114385353Y-109064646D01*
X114391571Y-109072223D01*
X114396194Y-109080867D01*
X114399039Y-109090247D01*
X114399999Y-109100001D01*
X114399999Y-109850002D01*
X114399039Y-109859755D01*
X114396194Y-109869136D01*
X114391571Y-109877779D01*
X114385353Y-109885356D01*
X114377776Y-109891574D01*
X114369133Y-109896197D01*
X114359753Y-109899042D01*
X114349999Y-109900002D01*
X114249999Y-109900002D01*
X114240245Y-109899042D01*
X114230865Y-109896197D01*
X114222222Y-109891574D01*
X114214645Y-109885356D01*
X114208427Y-109877779D01*
X114203804Y-109869136D01*
X114200959Y-109859755D01*
X114199999Y-109850002D01*
X114199999Y-109100001D01*
X114200959Y-109090247D01*
X114203804Y-109080867D01*
X114208427Y-109072223D01*
X114214645Y-109064646D01*
X114222222Y-109058429D01*
X114230865Y-109053806D01*
X114240245Y-109050961D01*
X114249999Y-109050001D01*
X114349999Y-109050001D01*
X114359753Y-109050961D01*
G37*
G36*
X114859751Y-109050961D02*
G01*
X114869132Y-109053806D01*
X114877775Y-109058429D01*
X114885352Y-109064646D01*
X114891570Y-109072223D01*
X114896193Y-109080867D01*
X114899038Y-109090247D01*
X114899998Y-109100001D01*
X114899998Y-109850002D01*
X114899038Y-109859755D01*
X114896193Y-109869136D01*
X114891570Y-109877779D01*
X114885352Y-109885356D01*
X114877775Y-109891574D01*
X114869132Y-109896197D01*
X114859751Y-109899042D01*
X114849998Y-109900002D01*
X114749998Y-109900002D01*
X114740244Y-109899042D01*
X114730864Y-109896197D01*
X114722221Y-109891574D01*
X114714644Y-109885356D01*
X114708426Y-109877779D01*
X114703803Y-109869136D01*
X114700958Y-109859755D01*
X114699998Y-109850002D01*
X114699998Y-109100001D01*
X114700958Y-109090247D01*
X114703803Y-109080867D01*
X114708426Y-109072223D01*
X114714644Y-109064646D01*
X114722221Y-109058429D01*
X114730864Y-109053806D01*
X114740244Y-109050961D01*
X114749998Y-109050001D01*
X114849998Y-109050001D01*
X114859751Y-109050961D01*
G37*
G36*
X69859754Y-109050961D02*
G01*
X69869134Y-109053806D01*
X69877777Y-109058429D01*
X69885354Y-109064646D01*
X69891572Y-109072223D01*
X69896195Y-109080867D01*
X69899040Y-109090247D01*
X69900000Y-109100001D01*
X69900000Y-109850002D01*
X69899040Y-109859755D01*
X69896195Y-109869136D01*
X69891572Y-109877779D01*
X69885354Y-109885356D01*
X69877777Y-109891574D01*
X69869134Y-109896197D01*
X69859754Y-109899042D01*
X69850000Y-109900002D01*
X69750000Y-109900002D01*
X69740247Y-109899042D01*
X69730866Y-109896197D01*
X69722223Y-109891574D01*
X69714646Y-109885356D01*
X69708428Y-109877779D01*
X69703805Y-109869136D01*
X69700960Y-109859755D01*
X69700000Y-109850002D01*
X69700000Y-109100001D01*
X69700960Y-109090247D01*
X69703805Y-109080867D01*
X69708428Y-109072223D01*
X69714646Y-109064646D01*
X69722223Y-109058429D01*
X69730866Y-109053806D01*
X69740247Y-109050961D01*
X69750000Y-109050001D01*
X69850000Y-109050001D01*
X69859754Y-109050961D01*
G37*
G36*
X70359753Y-109050961D02*
G01*
X70369133Y-109053806D01*
X70377776Y-109058429D01*
X70385353Y-109064646D01*
X70391571Y-109072223D01*
X70396194Y-109080867D01*
X70399039Y-109090247D01*
X70399999Y-109100001D01*
X70399999Y-109850002D01*
X70399039Y-109859755D01*
X70396194Y-109869136D01*
X70391571Y-109877779D01*
X70385353Y-109885356D01*
X70377776Y-109891574D01*
X70369133Y-109896197D01*
X70359753Y-109899042D01*
X70349999Y-109900002D01*
X70249999Y-109900002D01*
X70240245Y-109899042D01*
X70230865Y-109896197D01*
X70222222Y-109891574D01*
X70214645Y-109885356D01*
X70208427Y-109877779D01*
X70203804Y-109869136D01*
X70200959Y-109859755D01*
X70199999Y-109850002D01*
X70199999Y-109100001D01*
X70200959Y-109090247D01*
X70203804Y-109080867D01*
X70208427Y-109072223D01*
X70214645Y-109064646D01*
X70222222Y-109058429D01*
X70230865Y-109053806D01*
X70240245Y-109050961D01*
X70249999Y-109050001D01*
X70349999Y-109050001D01*
X70359753Y-109050961D01*
G37*
G36*
X70859751Y-109050961D02*
G01*
X70869132Y-109053806D01*
X70877775Y-109058429D01*
X70885352Y-109064646D01*
X70891570Y-109072223D01*
X70896193Y-109080867D01*
X70899038Y-109090247D01*
X70899998Y-109100001D01*
X70899998Y-109850002D01*
X70899038Y-109859755D01*
X70896193Y-109869136D01*
X70891570Y-109877779D01*
X70885352Y-109885356D01*
X70877775Y-109891574D01*
X70869132Y-109896197D01*
X70859751Y-109899042D01*
X70849998Y-109900002D01*
X70749998Y-109900002D01*
X70740244Y-109899042D01*
X70730864Y-109896197D01*
X70722221Y-109891574D01*
X70714644Y-109885356D01*
X70708426Y-109877779D01*
X70703803Y-109869136D01*
X70700958Y-109859755D01*
X70699998Y-109850002D01*
X70699998Y-109100001D01*
X70700958Y-109090247D01*
X70703803Y-109080867D01*
X70708426Y-109072223D01*
X70714644Y-109064646D01*
X70722221Y-109058429D01*
X70730864Y-109053806D01*
X70740244Y-109050961D01*
X70749998Y-109050001D01*
X70849998Y-109050001D01*
X70859751Y-109050961D01*
G37*
G36*
X47859754Y-109050961D02*
G01*
X47869134Y-109053806D01*
X47877777Y-109058429D01*
X47885354Y-109064646D01*
X47891572Y-109072223D01*
X47896195Y-109080867D01*
X47899040Y-109090247D01*
X47900000Y-109100001D01*
X47900000Y-109850002D01*
X47899040Y-109859755D01*
X47896195Y-109869136D01*
X47891572Y-109877779D01*
X47885354Y-109885356D01*
X47877777Y-109891574D01*
X47869134Y-109896197D01*
X47859754Y-109899042D01*
X47850000Y-109900002D01*
X47750000Y-109900002D01*
X47740247Y-109899042D01*
X47730866Y-109896197D01*
X47722223Y-109891574D01*
X47714646Y-109885356D01*
X47708428Y-109877779D01*
X47703805Y-109869136D01*
X47700960Y-109859755D01*
X47700000Y-109850002D01*
X47700000Y-109100001D01*
X47700960Y-109090247D01*
X47703805Y-109080867D01*
X47708428Y-109072223D01*
X47714646Y-109064646D01*
X47722223Y-109058429D01*
X47730866Y-109053806D01*
X47740247Y-109050961D01*
X47750000Y-109050001D01*
X47850000Y-109050001D01*
X47859754Y-109050961D01*
G37*
G36*
X48359753Y-109050961D02*
G01*
X48369133Y-109053806D01*
X48377776Y-109058429D01*
X48385353Y-109064646D01*
X48391571Y-109072223D01*
X48396194Y-109080867D01*
X48399039Y-109090247D01*
X48399999Y-109100001D01*
X48399999Y-109850002D01*
X48399039Y-109859755D01*
X48396194Y-109869136D01*
X48391571Y-109877779D01*
X48385353Y-109885356D01*
X48377776Y-109891574D01*
X48369133Y-109896197D01*
X48359753Y-109899042D01*
X48349999Y-109900002D01*
X48249999Y-109900002D01*
X48240245Y-109899042D01*
X48230865Y-109896197D01*
X48222222Y-109891574D01*
X48214645Y-109885356D01*
X48208427Y-109877779D01*
X48203804Y-109869136D01*
X48200959Y-109859755D01*
X48199999Y-109850002D01*
X48199999Y-109100001D01*
X48200959Y-109090247D01*
X48203804Y-109080867D01*
X48208427Y-109072223D01*
X48214645Y-109064646D01*
X48222222Y-109058429D01*
X48230865Y-109053806D01*
X48240245Y-109050961D01*
X48249999Y-109050001D01*
X48349999Y-109050001D01*
X48359753Y-109050961D01*
G37*
G36*
X48859751Y-109050961D02*
G01*
X48869132Y-109053806D01*
X48877775Y-109058429D01*
X48885352Y-109064646D01*
X48891570Y-109072223D01*
X48896193Y-109080867D01*
X48899038Y-109090247D01*
X48899998Y-109100001D01*
X48899998Y-109850002D01*
X48899038Y-109859755D01*
X48896193Y-109869136D01*
X48891570Y-109877779D01*
X48885352Y-109885356D01*
X48877775Y-109891574D01*
X48869132Y-109896197D01*
X48859751Y-109899042D01*
X48849998Y-109900002D01*
X48749998Y-109900002D01*
X48740244Y-109899042D01*
X48730864Y-109896197D01*
X48722221Y-109891574D01*
X48714644Y-109885356D01*
X48708426Y-109877779D01*
X48703803Y-109869136D01*
X48700958Y-109859755D01*
X48699998Y-109850002D01*
X48699998Y-109100001D01*
X48700958Y-109090247D01*
X48703803Y-109080867D01*
X48708426Y-109072223D01*
X48714644Y-109064646D01*
X48722221Y-109058429D01*
X48730864Y-109053806D01*
X48740244Y-109050961D01*
X48749998Y-109050001D01*
X48849998Y-109050001D01*
X48859751Y-109050961D01*
G37*
G36*
X91859754Y-80050961D02*
G01*
X91869134Y-80053806D01*
X91877777Y-80058429D01*
X91885354Y-80064646D01*
X91891572Y-80072223D01*
X91896195Y-80080867D01*
X91899040Y-80090247D01*
X91900000Y-80100001D01*
X91900000Y-80850002D01*
X91899040Y-80859755D01*
X91896195Y-80869136D01*
X91891572Y-80877779D01*
X91885354Y-80885356D01*
X91877777Y-80891574D01*
X91869134Y-80896197D01*
X91859754Y-80899042D01*
X91850000Y-80900002D01*
X91750000Y-80900002D01*
X91740247Y-80899042D01*
X91730866Y-80896197D01*
X91722223Y-80891574D01*
X91714646Y-80885356D01*
X91708428Y-80877779D01*
X91703805Y-80869136D01*
X91700960Y-80859755D01*
X91700000Y-80850002D01*
X91700000Y-80100001D01*
X91700960Y-80090247D01*
X91703805Y-80080867D01*
X91708428Y-80072223D01*
X91714646Y-80064646D01*
X91722223Y-80058429D01*
X91730866Y-80053806D01*
X91740247Y-80050961D01*
X91750000Y-80050001D01*
X91850000Y-80050001D01*
X91859754Y-80050961D01*
G37*
G36*
X92359753Y-80050961D02*
G01*
X92369133Y-80053806D01*
X92377776Y-80058429D01*
X92385353Y-80064646D01*
X92391571Y-80072223D01*
X92396194Y-80080867D01*
X92399039Y-80090247D01*
X92399999Y-80100001D01*
X92399999Y-80850002D01*
X92399039Y-80859755D01*
X92396194Y-80869136D01*
X92391571Y-80877779D01*
X92385353Y-80885356D01*
X92377776Y-80891574D01*
X92369133Y-80896197D01*
X92359753Y-80899042D01*
X92349999Y-80900002D01*
X92249999Y-80900002D01*
X92240245Y-80899042D01*
X92230865Y-80896197D01*
X92222222Y-80891574D01*
X92214645Y-80885356D01*
X92208427Y-80877779D01*
X92203804Y-80869136D01*
X92200959Y-80859755D01*
X92199999Y-80850002D01*
X92199999Y-80100001D01*
X92200959Y-80090247D01*
X92203804Y-80080867D01*
X92208427Y-80072223D01*
X92214645Y-80064646D01*
X92222222Y-80058429D01*
X92230865Y-80053806D01*
X92240245Y-80050961D01*
X92249999Y-80050001D01*
X92349999Y-80050001D01*
X92359753Y-80050961D01*
G37*
G36*
X92859751Y-80050961D02*
G01*
X92869132Y-80053806D01*
X92877775Y-80058429D01*
X92885352Y-80064646D01*
X92891570Y-80072223D01*
X92896193Y-80080867D01*
X92899038Y-80090247D01*
X92899998Y-80100001D01*
X92899998Y-80850002D01*
X92899038Y-80859755D01*
X92896193Y-80869136D01*
X92891570Y-80877779D01*
X92885352Y-80885356D01*
X92877775Y-80891574D01*
X92869132Y-80896197D01*
X92859751Y-80899042D01*
X92849998Y-80900002D01*
X92749998Y-80900002D01*
X92740244Y-80899042D01*
X92730864Y-80896197D01*
X92722221Y-80891574D01*
X92714644Y-80885356D01*
X92708426Y-80877779D01*
X92703803Y-80869136D01*
X92700958Y-80859755D01*
X92699998Y-80850002D01*
X92699998Y-80100001D01*
X92700958Y-80090247D01*
X92703803Y-80080867D01*
X92708426Y-80072223D01*
X92714644Y-80064646D01*
X92722221Y-80058429D01*
X92730864Y-80053806D01*
X92740244Y-80050961D01*
X92749998Y-80050001D01*
X92849998Y-80050001D01*
X92859751Y-80050961D01*
G37*
G36*
X113859754Y-80050961D02*
G01*
X113869134Y-80053806D01*
X113877777Y-80058429D01*
X113885354Y-80064646D01*
X113891572Y-80072223D01*
X113896195Y-80080867D01*
X113899040Y-80090247D01*
X113900000Y-80100001D01*
X113900000Y-80850002D01*
X113899040Y-80859755D01*
X113896195Y-80869136D01*
X113891572Y-80877779D01*
X113885354Y-80885356D01*
X113877777Y-80891574D01*
X113869134Y-80896197D01*
X113859754Y-80899042D01*
X113850000Y-80900002D01*
X113750000Y-80900002D01*
X113740247Y-80899042D01*
X113730866Y-80896197D01*
X113722223Y-80891574D01*
X113714646Y-80885356D01*
X113708428Y-80877779D01*
X113703805Y-80869136D01*
X113700960Y-80859755D01*
X113700000Y-80850002D01*
X113700000Y-80100001D01*
X113700960Y-80090247D01*
X113703805Y-80080867D01*
X113708428Y-80072223D01*
X113714646Y-80064646D01*
X113722223Y-80058429D01*
X113730866Y-80053806D01*
X113740247Y-80050961D01*
X113750000Y-80050001D01*
X113850000Y-80050001D01*
X113859754Y-80050961D01*
G37*
G36*
X114359753Y-80050961D02*
G01*
X114369133Y-80053806D01*
X114377776Y-80058429D01*
X114385353Y-80064646D01*
X114391571Y-80072223D01*
X114396194Y-80080867D01*
X114399039Y-80090247D01*
X114399999Y-80100001D01*
X114399999Y-80850002D01*
X114399039Y-80859755D01*
X114396194Y-80869136D01*
X114391571Y-80877779D01*
X114385353Y-80885356D01*
X114377776Y-80891574D01*
X114369133Y-80896197D01*
X114359753Y-80899042D01*
X114349999Y-80900002D01*
X114249999Y-80900002D01*
X114240245Y-80899042D01*
X114230865Y-80896197D01*
X114222222Y-80891574D01*
X114214645Y-80885356D01*
X114208427Y-80877779D01*
X114203804Y-80869136D01*
X114200959Y-80859755D01*
X114199999Y-80850002D01*
X114199999Y-80100001D01*
X114200959Y-80090247D01*
X114203804Y-80080867D01*
X114208427Y-80072223D01*
X114214645Y-80064646D01*
X114222222Y-80058429D01*
X114230865Y-80053806D01*
X114240245Y-80050961D01*
X114249999Y-80050001D01*
X114349999Y-80050001D01*
X114359753Y-80050961D01*
G37*
G36*
X114859751Y-80050961D02*
G01*
X114869132Y-80053806D01*
X114877775Y-80058429D01*
X114885352Y-80064646D01*
X114891570Y-80072223D01*
X114896193Y-80080867D01*
X114899038Y-80090247D01*
X114899998Y-80100001D01*
X114899998Y-80850002D01*
X114899038Y-80859755D01*
X114896193Y-80869136D01*
X114891570Y-80877779D01*
X114885352Y-80885356D01*
X114877775Y-80891574D01*
X114869132Y-80896197D01*
X114859751Y-80899042D01*
X114849998Y-80900002D01*
X114749998Y-80900002D01*
X114740244Y-80899042D01*
X114730864Y-80896197D01*
X114722221Y-80891574D01*
X114714644Y-80885356D01*
X114708426Y-80877779D01*
X114703803Y-80869136D01*
X114700958Y-80859755D01*
X114699998Y-80850002D01*
X114699998Y-80100001D01*
X114700958Y-80090247D01*
X114703803Y-80080867D01*
X114708426Y-80072223D01*
X114714644Y-80064646D01*
X114722221Y-80058429D01*
X114730864Y-80053806D01*
X114740244Y-80050961D01*
X114749998Y-80050001D01*
X114849998Y-80050001D01*
X114859751Y-80050961D01*
G37*
G36*
X69859754Y-80050961D02*
G01*
X69869134Y-80053806D01*
X69877777Y-80058429D01*
X69885354Y-80064646D01*
X69891572Y-80072223D01*
X69896195Y-80080867D01*
X69899040Y-80090247D01*
X69900000Y-80100001D01*
X69900000Y-80850002D01*
X69899040Y-80859755D01*
X69896195Y-80869136D01*
X69891572Y-80877779D01*
X69885354Y-80885356D01*
X69877777Y-80891574D01*
X69869134Y-80896197D01*
X69859754Y-80899042D01*
X69850000Y-80900002D01*
X69750000Y-80900002D01*
X69740247Y-80899042D01*
X69730866Y-80896197D01*
X69722223Y-80891574D01*
X69714646Y-80885356D01*
X69708428Y-80877779D01*
X69703805Y-80869136D01*
X69700960Y-80859755D01*
X69700000Y-80850002D01*
X69700000Y-80100001D01*
X69700960Y-80090247D01*
X69703805Y-80080867D01*
X69708428Y-80072223D01*
X69714646Y-80064646D01*
X69722223Y-80058429D01*
X69730866Y-80053806D01*
X69740247Y-80050961D01*
X69750000Y-80050001D01*
X69850000Y-80050001D01*
X69859754Y-80050961D01*
G37*
G36*
X70359753Y-80050961D02*
G01*
X70369133Y-80053806D01*
X70377776Y-80058429D01*
X70385353Y-80064646D01*
X70391571Y-80072223D01*
X70396194Y-80080867D01*
X70399039Y-80090247D01*
X70399999Y-80100001D01*
X70399999Y-80850002D01*
X70399039Y-80859755D01*
X70396194Y-80869136D01*
X70391571Y-80877779D01*
X70385353Y-80885356D01*
X70377776Y-80891574D01*
X70369133Y-80896197D01*
X70359753Y-80899042D01*
X70349999Y-80900002D01*
X70249999Y-80900002D01*
X70240245Y-80899042D01*
X70230865Y-80896197D01*
X70222222Y-80891574D01*
X70214645Y-80885356D01*
X70208427Y-80877779D01*
X70203804Y-80869136D01*
X70200959Y-80859755D01*
X70199999Y-80850002D01*
X70199999Y-80100001D01*
X70200959Y-80090247D01*
X70203804Y-80080867D01*
X70208427Y-80072223D01*
X70214645Y-80064646D01*
X70222222Y-80058429D01*
X70230865Y-80053806D01*
X70240245Y-80050961D01*
X70249999Y-80050001D01*
X70349999Y-80050001D01*
X70359753Y-80050961D01*
G37*
G36*
X70859751Y-80050961D02*
G01*
X70869132Y-80053806D01*
X70877775Y-80058429D01*
X70885352Y-80064646D01*
X70891570Y-80072223D01*
X70896193Y-80080867D01*
X70899038Y-80090247D01*
X70899998Y-80100001D01*
X70899998Y-80850002D01*
X70899038Y-80859755D01*
X70896193Y-80869136D01*
X70891570Y-80877779D01*
X70885352Y-80885356D01*
X70877775Y-80891574D01*
X70869132Y-80896197D01*
X70859751Y-80899042D01*
X70849998Y-80900002D01*
X70749998Y-80900002D01*
X70740244Y-80899042D01*
X70730864Y-80896197D01*
X70722221Y-80891574D01*
X70714644Y-80885356D01*
X70708426Y-80877779D01*
X70703803Y-80869136D01*
X70700958Y-80859755D01*
X70699998Y-80850002D01*
X70699998Y-80100001D01*
X70700958Y-80090247D01*
X70703803Y-80080867D01*
X70708426Y-80072223D01*
X70714644Y-80064646D01*
X70722221Y-80058429D01*
X70730864Y-80053806D01*
X70740244Y-80050961D01*
X70749998Y-80050001D01*
X70849998Y-80050001D01*
X70859751Y-80050961D01*
G37*
G36*
X47859754Y-80050961D02*
G01*
X47869134Y-80053806D01*
X47877777Y-80058429D01*
X47885354Y-80064646D01*
X47891572Y-80072223D01*
X47896195Y-80080867D01*
X47899040Y-80090247D01*
X47900000Y-80100001D01*
X47900000Y-80850002D01*
X47899040Y-80859755D01*
X47896195Y-80869136D01*
X47891572Y-80877779D01*
X47885354Y-80885356D01*
X47877777Y-80891574D01*
X47869134Y-80896197D01*
X47859754Y-80899042D01*
X47850000Y-80900002D01*
X47750000Y-80900002D01*
X47740247Y-80899042D01*
X47730866Y-80896197D01*
X47722223Y-80891574D01*
X47714646Y-80885356D01*
X47708428Y-80877779D01*
X47703805Y-80869136D01*
X47700960Y-80859755D01*
X47700000Y-80850002D01*
X47700000Y-80100001D01*
X47700960Y-80090247D01*
X47703805Y-80080867D01*
X47708428Y-80072223D01*
X47714646Y-80064646D01*
X47722223Y-80058429D01*
X47730866Y-80053806D01*
X47740247Y-80050961D01*
X47750000Y-80050001D01*
X47850000Y-80050001D01*
X47859754Y-80050961D01*
G37*
G36*
X48359753Y-80050961D02*
G01*
X48369133Y-80053806D01*
X48377776Y-80058429D01*
X48385353Y-80064646D01*
X48391571Y-80072223D01*
X48396194Y-80080867D01*
X48399039Y-80090247D01*
X48399999Y-80100001D01*
X48399999Y-80850002D01*
X48399039Y-80859755D01*
X48396194Y-80869136D01*
X48391571Y-80877779D01*
X48385353Y-80885356D01*
X48377776Y-80891574D01*
X48369133Y-80896197D01*
X48359753Y-80899042D01*
X48349999Y-80900002D01*
X48249999Y-80900002D01*
X48240245Y-80899042D01*
X48230865Y-80896197D01*
X48222222Y-80891574D01*
X48214645Y-80885356D01*
X48208427Y-80877779D01*
X48203804Y-80869136D01*
X48200959Y-80859755D01*
X48199999Y-80850002D01*
X48199999Y-80100001D01*
X48200959Y-80090247D01*
X48203804Y-80080867D01*
X48208427Y-80072223D01*
X48214645Y-80064646D01*
X48222222Y-80058429D01*
X48230865Y-80053806D01*
X48240245Y-80050961D01*
X48249999Y-80050001D01*
X48349999Y-80050001D01*
X48359753Y-80050961D01*
G37*
G36*
X48859751Y-80050961D02*
G01*
X48869132Y-80053806D01*
X48877775Y-80058429D01*
X48885352Y-80064646D01*
X48891570Y-80072223D01*
X48896193Y-80080867D01*
X48899038Y-80090247D01*
X48899998Y-80100001D01*
X48899998Y-80850002D01*
X48899038Y-80859755D01*
X48896193Y-80869136D01*
X48891570Y-80877779D01*
X48885352Y-80885356D01*
X48877775Y-80891574D01*
X48869132Y-80896197D01*
X48859751Y-80899042D01*
X48849998Y-80900002D01*
X48749998Y-80900002D01*
X48740244Y-80899042D01*
X48730864Y-80896197D01*
X48722221Y-80891574D01*
X48714644Y-80885356D01*
X48708426Y-80877779D01*
X48703803Y-80869136D01*
X48700958Y-80859755D01*
X48699998Y-80850002D01*
X48699998Y-80100001D01*
X48700958Y-80090247D01*
X48703803Y-80080867D01*
X48708426Y-80072223D01*
X48714644Y-80064646D01*
X48722221Y-80058429D01*
X48730864Y-80053806D01*
X48740244Y-80050961D01*
X48749998Y-80050001D01*
X48849998Y-80050001D01*
X48859751Y-80050961D01*
G37*
G36*
X113859754Y-51050961D02*
G01*
X113869134Y-51053806D01*
X113877777Y-51058429D01*
X113885354Y-51064646D01*
X113891572Y-51072223D01*
X113896195Y-51080867D01*
X113899040Y-51090247D01*
X113900000Y-51100001D01*
X113900000Y-51850002D01*
X113899040Y-51859755D01*
X113896195Y-51869136D01*
X113891572Y-51877779D01*
X113885354Y-51885356D01*
X113877777Y-51891574D01*
X113869134Y-51896197D01*
X113859754Y-51899042D01*
X113850000Y-51900002D01*
X113750000Y-51900002D01*
X113740247Y-51899042D01*
X113730866Y-51896197D01*
X113722223Y-51891574D01*
X113714646Y-51885356D01*
X113708428Y-51877779D01*
X113703805Y-51869136D01*
X113700960Y-51859755D01*
X113700000Y-51850002D01*
X113700000Y-51100001D01*
X113700960Y-51090247D01*
X113703805Y-51080867D01*
X113708428Y-51072223D01*
X113714646Y-51064646D01*
X113722223Y-51058429D01*
X113730866Y-51053806D01*
X113740247Y-51050961D01*
X113750000Y-51050001D01*
X113850000Y-51050001D01*
X113859754Y-51050961D01*
G37*
G36*
X114359753Y-51050961D02*
G01*
X114369133Y-51053806D01*
X114377776Y-51058429D01*
X114385353Y-51064646D01*
X114391571Y-51072223D01*
X114396194Y-51080867D01*
X114399039Y-51090247D01*
X114399999Y-51100001D01*
X114399999Y-51850002D01*
X114399039Y-51859755D01*
X114396194Y-51869136D01*
X114391571Y-51877779D01*
X114385353Y-51885356D01*
X114377776Y-51891574D01*
X114369133Y-51896197D01*
X114359753Y-51899042D01*
X114349999Y-51900002D01*
X114249999Y-51900002D01*
X114240245Y-51899042D01*
X114230865Y-51896197D01*
X114222222Y-51891574D01*
X114214645Y-51885356D01*
X114208427Y-51877779D01*
X114203804Y-51869136D01*
X114200959Y-51859755D01*
X114199999Y-51850002D01*
X114199999Y-51100001D01*
X114200959Y-51090247D01*
X114203804Y-51080867D01*
X114208427Y-51072223D01*
X114214645Y-51064646D01*
X114222222Y-51058429D01*
X114230865Y-51053806D01*
X114240245Y-51050961D01*
X114249999Y-51050001D01*
X114349999Y-51050001D01*
X114359753Y-51050961D01*
G37*
G36*
X114859751Y-51050961D02*
G01*
X114869132Y-51053806D01*
X114877775Y-51058429D01*
X114885352Y-51064646D01*
X114891570Y-51072223D01*
X114896193Y-51080867D01*
X114899038Y-51090247D01*
X114899998Y-51100001D01*
X114899998Y-51850002D01*
X114899038Y-51859755D01*
X114896193Y-51869136D01*
X114891570Y-51877779D01*
X114885352Y-51885356D01*
X114877775Y-51891574D01*
X114869132Y-51896197D01*
X114859751Y-51899042D01*
X114849998Y-51900002D01*
X114749998Y-51900002D01*
X114740244Y-51899042D01*
X114730864Y-51896197D01*
X114722221Y-51891574D01*
X114714644Y-51885356D01*
X114708426Y-51877779D01*
X114703803Y-51869136D01*
X114700958Y-51859755D01*
X114699998Y-51850002D01*
X114699998Y-51100001D01*
X114700958Y-51090247D01*
X114703803Y-51080867D01*
X114708426Y-51072223D01*
X114714644Y-51064646D01*
X114722221Y-51058429D01*
X114730864Y-51053806D01*
X114740244Y-51050961D01*
X114749998Y-51050001D01*
X114849998Y-51050001D01*
X114859751Y-51050961D01*
G37*
G36*
X91859754Y-51050961D02*
G01*
X91869134Y-51053806D01*
X91877777Y-51058429D01*
X91885354Y-51064646D01*
X91891572Y-51072223D01*
X91896195Y-51080867D01*
X91899040Y-51090247D01*
X91900000Y-51100001D01*
X91900000Y-51850002D01*
X91899040Y-51859755D01*
X91896195Y-51869136D01*
X91891572Y-51877779D01*
X91885354Y-51885356D01*
X91877777Y-51891574D01*
X91869134Y-51896197D01*
X91859754Y-51899042D01*
X91850000Y-51900002D01*
X91750000Y-51900002D01*
X91740247Y-51899042D01*
X91730866Y-51896197D01*
X91722223Y-51891574D01*
X91714646Y-51885356D01*
X91708428Y-51877779D01*
X91703805Y-51869136D01*
X91700960Y-51859755D01*
X91700000Y-51850002D01*
X91700000Y-51100001D01*
X91700960Y-51090247D01*
X91703805Y-51080867D01*
X91708428Y-51072223D01*
X91714646Y-51064646D01*
X91722223Y-51058429D01*
X91730866Y-51053806D01*
X91740247Y-51050961D01*
X91750000Y-51050001D01*
X91850000Y-51050001D01*
X91859754Y-51050961D01*
G37*
G36*
X92359753Y-51050961D02*
G01*
X92369133Y-51053806D01*
X92377776Y-51058429D01*
X92385353Y-51064646D01*
X92391571Y-51072223D01*
X92396194Y-51080867D01*
X92399039Y-51090247D01*
X92399999Y-51100001D01*
X92399999Y-51850002D01*
X92399039Y-51859755D01*
X92396194Y-51869136D01*
X92391571Y-51877779D01*
X92385353Y-51885356D01*
X92377776Y-51891574D01*
X92369133Y-51896197D01*
X92359753Y-51899042D01*
X92349999Y-51900002D01*
X92249999Y-51900002D01*
X92240245Y-51899042D01*
X92230865Y-51896197D01*
X92222222Y-51891574D01*
X92214645Y-51885356D01*
X92208427Y-51877779D01*
X92203804Y-51869136D01*
X92200959Y-51859755D01*
X92199999Y-51850002D01*
X92199999Y-51100001D01*
X92200959Y-51090247D01*
X92203804Y-51080867D01*
X92208427Y-51072223D01*
X92214645Y-51064646D01*
X92222222Y-51058429D01*
X92230865Y-51053806D01*
X92240245Y-51050961D01*
X92249999Y-51050001D01*
X92349999Y-51050001D01*
X92359753Y-51050961D01*
G37*
G36*
X92859751Y-51050961D02*
G01*
X92869132Y-51053806D01*
X92877775Y-51058429D01*
X92885352Y-51064646D01*
X92891570Y-51072223D01*
X92896193Y-51080867D01*
X92899038Y-51090247D01*
X92899998Y-51100001D01*
X92899998Y-51850002D01*
X92899038Y-51859755D01*
X92896193Y-51869136D01*
X92891570Y-51877779D01*
X92885352Y-51885356D01*
X92877775Y-51891574D01*
X92869132Y-51896197D01*
X92859751Y-51899042D01*
X92849998Y-51900002D01*
X92749998Y-51900002D01*
X92740244Y-51899042D01*
X92730864Y-51896197D01*
X92722221Y-51891574D01*
X92714644Y-51885356D01*
X92708426Y-51877779D01*
X92703803Y-51869136D01*
X92700958Y-51859755D01*
X92699998Y-51850002D01*
X92699998Y-51100001D01*
X92700958Y-51090247D01*
X92703803Y-51080867D01*
X92708426Y-51072223D01*
X92714644Y-51064646D01*
X92722221Y-51058429D01*
X92730864Y-51053806D01*
X92740244Y-51050961D01*
X92749998Y-51050001D01*
X92849998Y-51050001D01*
X92859751Y-51050961D01*
G37*
G36*
X69859754Y-51050961D02*
G01*
X69869134Y-51053806D01*
X69877777Y-51058429D01*
X69885354Y-51064646D01*
X69891572Y-51072223D01*
X69896195Y-51080867D01*
X69899040Y-51090247D01*
X69900000Y-51100001D01*
X69900000Y-51850002D01*
X69899040Y-51859755D01*
X69896195Y-51869136D01*
X69891572Y-51877779D01*
X69885354Y-51885356D01*
X69877777Y-51891574D01*
X69869134Y-51896197D01*
X69859754Y-51899042D01*
X69850000Y-51900002D01*
X69750000Y-51900002D01*
X69740247Y-51899042D01*
X69730866Y-51896197D01*
X69722223Y-51891574D01*
X69714646Y-51885356D01*
X69708428Y-51877779D01*
X69703805Y-51869136D01*
X69700960Y-51859755D01*
X69700000Y-51850002D01*
X69700000Y-51100001D01*
X69700960Y-51090247D01*
X69703805Y-51080867D01*
X69708428Y-51072223D01*
X69714646Y-51064646D01*
X69722223Y-51058429D01*
X69730866Y-51053806D01*
X69740247Y-51050961D01*
X69750000Y-51050001D01*
X69850000Y-51050001D01*
X69859754Y-51050961D01*
G37*
G36*
X70359753Y-51050961D02*
G01*
X70369133Y-51053806D01*
X70377776Y-51058429D01*
X70385353Y-51064646D01*
X70391571Y-51072223D01*
X70396194Y-51080867D01*
X70399039Y-51090247D01*
X70399999Y-51100001D01*
X70399999Y-51850002D01*
X70399039Y-51859755D01*
X70396194Y-51869136D01*
X70391571Y-51877779D01*
X70385353Y-51885356D01*
X70377776Y-51891574D01*
X70369133Y-51896197D01*
X70359753Y-51899042D01*
X70349999Y-51900002D01*
X70249999Y-51900002D01*
X70240245Y-51899042D01*
X70230865Y-51896197D01*
X70222222Y-51891574D01*
X70214645Y-51885356D01*
X70208427Y-51877779D01*
X70203804Y-51869136D01*
X70200959Y-51859755D01*
X70199999Y-51850002D01*
X70199999Y-51100001D01*
X70200959Y-51090247D01*
X70203804Y-51080867D01*
X70208427Y-51072223D01*
X70214645Y-51064646D01*
X70222222Y-51058429D01*
X70230865Y-51053806D01*
X70240245Y-51050961D01*
X70249999Y-51050001D01*
X70349999Y-51050001D01*
X70359753Y-51050961D01*
G37*
G36*
X70859751Y-51050961D02*
G01*
X70869132Y-51053806D01*
X70877775Y-51058429D01*
X70885352Y-51064646D01*
X70891570Y-51072223D01*
X70896193Y-51080867D01*
X70899038Y-51090247D01*
X70899998Y-51100001D01*
X70899998Y-51850002D01*
X70899038Y-51859755D01*
X70896193Y-51869136D01*
X70891570Y-51877779D01*
X70885352Y-51885356D01*
X70877775Y-51891574D01*
X70869132Y-51896197D01*
X70859751Y-51899042D01*
X70849998Y-51900002D01*
X70749998Y-51900002D01*
X70740244Y-51899042D01*
X70730864Y-51896197D01*
X70722221Y-51891574D01*
X70714644Y-51885356D01*
X70708426Y-51877779D01*
X70703803Y-51869136D01*
X70700958Y-51859755D01*
X70699998Y-51850002D01*
X70699998Y-51100001D01*
X70700958Y-51090247D01*
X70703803Y-51080867D01*
X70708426Y-51072223D01*
X70714644Y-51064646D01*
X70722221Y-51058429D01*
X70730864Y-51053806D01*
X70740244Y-51050961D01*
X70749998Y-51050001D01*
X70849998Y-51050001D01*
X70859751Y-51050961D01*
G37*
G36*
X47859754Y-51050961D02*
G01*
X47869134Y-51053806D01*
X47877777Y-51058429D01*
X47885354Y-51064646D01*
X47891572Y-51072223D01*
X47896195Y-51080867D01*
X47899040Y-51090247D01*
X47900000Y-51100001D01*
X47900000Y-51850002D01*
X47899040Y-51859755D01*
X47896195Y-51869136D01*
X47891572Y-51877779D01*
X47885354Y-51885356D01*
X47877777Y-51891574D01*
X47869134Y-51896197D01*
X47859754Y-51899042D01*
X47850000Y-51900002D01*
X47750000Y-51900002D01*
X47740247Y-51899042D01*
X47730866Y-51896197D01*
X47722223Y-51891574D01*
X47714646Y-51885356D01*
X47708428Y-51877779D01*
X47703805Y-51869136D01*
X47700960Y-51859755D01*
X47700000Y-51850002D01*
X47700000Y-51100001D01*
X47700960Y-51090247D01*
X47703805Y-51080867D01*
X47708428Y-51072223D01*
X47714646Y-51064646D01*
X47722223Y-51058429D01*
X47730866Y-51053806D01*
X47740247Y-51050961D01*
X47750000Y-51050001D01*
X47850000Y-51050001D01*
X47859754Y-51050961D01*
G37*
G36*
X48359753Y-51050961D02*
G01*
X48369133Y-51053806D01*
X48377776Y-51058429D01*
X48385353Y-51064646D01*
X48391571Y-51072223D01*
X48396194Y-51080867D01*
X48399039Y-51090247D01*
X48399999Y-51100001D01*
X48399999Y-51850002D01*
X48399039Y-51859755D01*
X48396194Y-51869136D01*
X48391571Y-51877779D01*
X48385353Y-51885356D01*
X48377776Y-51891574D01*
X48369133Y-51896197D01*
X48359753Y-51899042D01*
X48349999Y-51900002D01*
X48249999Y-51900002D01*
X48240245Y-51899042D01*
X48230865Y-51896197D01*
X48222222Y-51891574D01*
X48214645Y-51885356D01*
X48208427Y-51877779D01*
X48203804Y-51869136D01*
X48200959Y-51859755D01*
X48199999Y-51850002D01*
X48199999Y-51100001D01*
X48200959Y-51090247D01*
X48203804Y-51080867D01*
X48208427Y-51072223D01*
X48214645Y-51064646D01*
X48222222Y-51058429D01*
X48230865Y-51053806D01*
X48240245Y-51050961D01*
X48249999Y-51050001D01*
X48349999Y-51050001D01*
X48359753Y-51050961D01*
G37*
G36*
X48859751Y-51050961D02*
G01*
X48869132Y-51053806D01*
X48877775Y-51058429D01*
X48885352Y-51064646D01*
X48891570Y-51072223D01*
X48896193Y-51080867D01*
X48899038Y-51090247D01*
X48899998Y-51100001D01*
X48899998Y-51850002D01*
X48899038Y-51859755D01*
X48896193Y-51869136D01*
X48891570Y-51877779D01*
X48885352Y-51885356D01*
X48877775Y-51891574D01*
X48869132Y-51896197D01*
X48859751Y-51899042D01*
X48849998Y-51900002D01*
X48749998Y-51900002D01*
X48740244Y-51899042D01*
X48730864Y-51896197D01*
X48722221Y-51891574D01*
X48714644Y-51885356D01*
X48708426Y-51877779D01*
X48703803Y-51869136D01*
X48700958Y-51859755D01*
X48699998Y-51850002D01*
X48699998Y-51100001D01*
X48700958Y-51090247D01*
X48703803Y-51080867D01*
X48708426Y-51072223D01*
X48714644Y-51064646D01*
X48722221Y-51058429D01*
X48730864Y-51053806D01*
X48740244Y-51050961D01*
X48749998Y-51050001D01*
X48849998Y-51050001D01*
X48859751Y-51050961D01*
G37*
D11*
X71075000Y-110850000D03*
X69525000Y-110850000D03*
D12*
X104390000Y-98325000D03*
X105350000Y-98325000D03*
D13*
X86600000Y-111220000D03*
X86600000Y-112180000D03*
D14*
X110000000Y-112475000D03*
X110000000Y-110925000D03*
D11*
X115075000Y-110850000D03*
X113525000Y-110850000D03*
D15*
X60340000Y-96000000D03*
X61360000Y-96000000D03*
D16*
X106200000Y-101525000D03*
X104950000Y-101525000D03*
X106200000Y-102375000D03*
X104950000Y-102375000D03*
D17*
X106700000Y-100500000D03*
X106250000Y-100500000D03*
X105800000Y-100500000D03*
X105350000Y-100500000D03*
X104900000Y-100500000D03*
X104450000Y-100500000D03*
X104450000Y-103400000D03*
X104900000Y-103400000D03*
X105350000Y-103400000D03*
X105800000Y-103400000D03*
X106250000Y-103400000D03*
X106700000Y-103400000D03*
D18*
X109800000Y-102475000D03*
D19*
X109875000Y-101937500D03*
D18*
X109800000Y-101400000D03*
X108100000Y-101400000D03*
D19*
X108025000Y-101937500D03*
D18*
X108100000Y-102475000D03*
D20*
X109312500Y-97700000D03*
X107187500Y-97700000D03*
D14*
X67500000Y-112475000D03*
X67500000Y-110925000D03*
D12*
X82390000Y-97325000D03*
X83350000Y-97325000D03*
D11*
X93075000Y-110850000D03*
X91525000Y-110850000D03*
X49075000Y-110850000D03*
X47525000Y-110850000D03*
D20*
X65312500Y-97700000D03*
X63187500Y-97700000D03*
D12*
X82390000Y-98325000D03*
X83350000Y-98325000D03*
D21*
X66060000Y-99150000D03*
X65040000Y-99150000D03*
D13*
X64600000Y-111220000D03*
X64600000Y-112180000D03*
D22*
X63037500Y-112150000D03*
X63037500Y-111200000D03*
X63037500Y-110250000D03*
X60762500Y-110250000D03*
X60762500Y-112150000D03*
D23*
X111530000Y-105150000D03*
X111530000Y-104150000D03*
X111530000Y-103150000D03*
X111530000Y-102150000D03*
X111530000Y-100650000D03*
X111530000Y-99650000D03*
X111530000Y-98650000D03*
X111530000Y-97650000D03*
X111530000Y-98150000D03*
X111530000Y-99150000D03*
X111530000Y-100150000D03*
X111530000Y-101150000D03*
X111530000Y-101650000D03*
X111530000Y-102650000D03*
X111530000Y-103650000D03*
X111530000Y-104650000D03*
X111530000Y-105650000D03*
X111530000Y-97150000D03*
D24*
X62497787Y-95054867D03*
X64072787Y-95054867D03*
D25*
X92275000Y-112650000D03*
X90825000Y-112650000D03*
D26*
X85095796Y-105305662D03*
X84445796Y-105305662D03*
X83795796Y-105305662D03*
X83145796Y-105305662D03*
X83145796Y-107580662D03*
X83795796Y-107580662D03*
X84445796Y-107580662D03*
X85095796Y-107580662D03*
X41095796Y-105305662D03*
X40445796Y-105305662D03*
X39795796Y-105305662D03*
X39145796Y-105305662D03*
X39145796Y-107580662D03*
X39795796Y-107580662D03*
X40445796Y-107580662D03*
X41095796Y-107580662D03*
D13*
X37850000Y-104670000D03*
X37850000Y-105630000D03*
D27*
X108345796Y-106960662D03*
X108345796Y-106000662D03*
D14*
X45500000Y-112475000D03*
X45500000Y-110925000D03*
D21*
X88060000Y-99150000D03*
X87040000Y-99150000D03*
X44060000Y-99150000D03*
X43040000Y-99150000D03*
D28*
X87480000Y-100300000D03*
X86520000Y-100300000D03*
D24*
X40497787Y-95054867D03*
X42072787Y-95054867D03*
D29*
X92799998Y-108300000D03*
X92299999Y-108300000D03*
X91800000Y-108300000D03*
D20*
X87312500Y-97700000D03*
X85187500Y-97700000D03*
D24*
X84497787Y-95054867D03*
X86072787Y-95054867D03*
D26*
X107095796Y-105305662D03*
X106445796Y-105305662D03*
X105795796Y-105305662D03*
X105145796Y-105305662D03*
X105145796Y-107580662D03*
X105795796Y-107580662D03*
X106445796Y-107580662D03*
X107095796Y-107580662D03*
D21*
X105360000Y-95000000D03*
X104340000Y-95000000D03*
D22*
X85037500Y-112150000D03*
X85037500Y-111200000D03*
X85037500Y-110250000D03*
X82762500Y-110250000D03*
X82762500Y-112150000D03*
D27*
X86345796Y-106960662D03*
X86345796Y-106000662D03*
D21*
X83360000Y-95000000D03*
X82340000Y-95000000D03*
D13*
X81850000Y-104670000D03*
X81850000Y-105630000D03*
D16*
X40200000Y-101525000D03*
X38950000Y-101525000D03*
X40200000Y-102375000D03*
X38950000Y-102375000D03*
D17*
X40700000Y-100500000D03*
X40250000Y-100500000D03*
X39800000Y-100500000D03*
X39350000Y-100500000D03*
X38900000Y-100500000D03*
X38450000Y-100500000D03*
X38450000Y-103400000D03*
X38900000Y-103400000D03*
X39350000Y-103400000D03*
X39800000Y-103400000D03*
X40250000Y-103400000D03*
X40700000Y-103400000D03*
D21*
X61360000Y-95000000D03*
X60340000Y-95000000D03*
D28*
X43480000Y-100300000D03*
X42520000Y-100300000D03*
D15*
X64990000Y-103800000D03*
X66010000Y-103800000D03*
D18*
X87800000Y-102475000D03*
D19*
X87875000Y-101937500D03*
D18*
X87800000Y-101400000D03*
X86100000Y-101400000D03*
D19*
X86025000Y-101937500D03*
D18*
X86100000Y-102475000D03*
D12*
X60390000Y-97325000D03*
X61350000Y-97325000D03*
D25*
X70275000Y-112650000D03*
X68825000Y-112650000D03*
D26*
X63095796Y-105305662D03*
X62445796Y-105305662D03*
X61795796Y-105305662D03*
X61145796Y-105305662D03*
X61145796Y-107580662D03*
X61795796Y-107580662D03*
X62445796Y-107580662D03*
X63095796Y-107580662D03*
D27*
X64345796Y-106960662D03*
X64345796Y-106000662D03*
D15*
X82340000Y-96000000D03*
X83360000Y-96000000D03*
D28*
X65480000Y-100300000D03*
X64520000Y-100300000D03*
D14*
X44000000Y-112475000D03*
X44000000Y-110925000D03*
D23*
X89530000Y-105150000D03*
X89530000Y-104150000D03*
X89530000Y-103150000D03*
X89530000Y-102150000D03*
X89530000Y-100650000D03*
X89530000Y-99650000D03*
X89530000Y-98650000D03*
X89530000Y-97650000D03*
X89530000Y-98150000D03*
X89530000Y-99150000D03*
X89530000Y-100150000D03*
X89530000Y-101150000D03*
X89530000Y-101650000D03*
X89530000Y-102650000D03*
X89530000Y-103650000D03*
X89530000Y-104650000D03*
X89530000Y-105650000D03*
X89530000Y-97150000D03*
D29*
X114799998Y-108300000D03*
X114299999Y-108300000D03*
X113800000Y-108300000D03*
D28*
X83350000Y-99325000D03*
X82390000Y-99325000D03*
D12*
X38390000Y-97325000D03*
X39350000Y-97325000D03*
D16*
X62200000Y-101525000D03*
X60950000Y-101525000D03*
X62200000Y-102375000D03*
X60950000Y-102375000D03*
D17*
X62700000Y-100500000D03*
X62250000Y-100500000D03*
X61800000Y-100500000D03*
X61350000Y-100500000D03*
X60900000Y-100500000D03*
X60450000Y-100500000D03*
X60450000Y-103400000D03*
X60900000Y-103400000D03*
X61350000Y-103400000D03*
X61800000Y-103400000D03*
X62250000Y-103400000D03*
X62700000Y-103400000D03*
D15*
X104340000Y-96000000D03*
X105360000Y-96000000D03*
D14*
X88000000Y-112475000D03*
X88000000Y-110925000D03*
D28*
X39350000Y-99325000D03*
X38390000Y-99325000D03*
X105350000Y-99325000D03*
X104390000Y-99325000D03*
D25*
X48275000Y-112650000D03*
X46825000Y-112650000D03*
D16*
X84200000Y-101525000D03*
X82950000Y-101525000D03*
X84200000Y-102375000D03*
X82950000Y-102375000D03*
D17*
X84700000Y-100500000D03*
X84250000Y-100500000D03*
X83800000Y-100500000D03*
X83350000Y-100500000D03*
X82900000Y-100500000D03*
X82450000Y-100500000D03*
X82450000Y-103400000D03*
X82900000Y-103400000D03*
X83350000Y-103400000D03*
X83800000Y-103400000D03*
X84250000Y-103400000D03*
X84700000Y-103400000D03*
D28*
X109480000Y-100300000D03*
X108520000Y-100300000D03*
D21*
X39360000Y-95000000D03*
X38340000Y-95000000D03*
D27*
X42345796Y-106960662D03*
X42345796Y-106000662D03*
D29*
X70799998Y-108300000D03*
X70299999Y-108300000D03*
X69800000Y-108300000D03*
D21*
X110060000Y-99150000D03*
X109040000Y-99150000D03*
D14*
X111500000Y-112475000D03*
X111500000Y-110925000D03*
D22*
X107037500Y-112150000D03*
X107037500Y-111200000D03*
X107037500Y-110250000D03*
X104762500Y-110250000D03*
X104762500Y-112150000D03*
X41037500Y-112150000D03*
X41037500Y-111200000D03*
X41037500Y-110250000D03*
X38762500Y-110250000D03*
X38762500Y-112150000D03*
D13*
X59850000Y-104670000D03*
X59850000Y-105630000D03*
D14*
X89500000Y-112475000D03*
X89500000Y-110925000D03*
D15*
X86990000Y-103800000D03*
X88010000Y-103800000D03*
D23*
X45530000Y-105150000D03*
X45530000Y-104150000D03*
X45530000Y-103150000D03*
X45530000Y-102150000D03*
X45530000Y-100650000D03*
X45530000Y-99650000D03*
X45530000Y-98650000D03*
X45530000Y-97650000D03*
X45530000Y-98150000D03*
X45530000Y-99150000D03*
X45530000Y-100150000D03*
X45530000Y-101150000D03*
X45530000Y-101650000D03*
X45530000Y-102650000D03*
X45530000Y-103650000D03*
X45530000Y-104650000D03*
X45530000Y-105650000D03*
X45530000Y-97150000D03*
D15*
X108990000Y-103800000D03*
X110010000Y-103800000D03*
D23*
X67530000Y-105150000D03*
X67530000Y-104150000D03*
X67530000Y-103150000D03*
X67530000Y-102150000D03*
X67530000Y-100650000D03*
X67530000Y-99650000D03*
X67530000Y-98650000D03*
X67530000Y-97650000D03*
X67530000Y-98150000D03*
X67530000Y-99150000D03*
X67530000Y-100150000D03*
X67530000Y-101150000D03*
X67530000Y-101650000D03*
X67530000Y-102650000D03*
X67530000Y-103650000D03*
X67530000Y-104650000D03*
X67530000Y-105650000D03*
X67530000Y-97150000D03*
D13*
X108600000Y-111220000D03*
X108600000Y-112180000D03*
D18*
X43800000Y-102475000D03*
D19*
X43875000Y-101937500D03*
D18*
X43800000Y-101400000D03*
X42100000Y-101400000D03*
D19*
X42025000Y-101937500D03*
D18*
X42100000Y-102475000D03*
D12*
X60390000Y-98325000D03*
X61350000Y-98325000D03*
D13*
X42600000Y-111220000D03*
X42600000Y-112180000D03*
X103850000Y-104670000D03*
X103850000Y-105630000D03*
D25*
X114275000Y-112650000D03*
X112825000Y-112650000D03*
D15*
X42990000Y-103800000D03*
X44010000Y-103800000D03*
X38340000Y-96000000D03*
X39360000Y-96000000D03*
D24*
X106497787Y-95054867D03*
X108072787Y-95054867D03*
D29*
X48799998Y-108300000D03*
X48299999Y-108300000D03*
X47800000Y-108300000D03*
D14*
X66000000Y-112475000D03*
X66000000Y-110925000D03*
D12*
X104390000Y-97325000D03*
X105350000Y-97325000D03*
D18*
X65800000Y-102475000D03*
D19*
X65875000Y-101937500D03*
D18*
X65800000Y-101400000D03*
X64100000Y-101400000D03*
D19*
X64025000Y-101937500D03*
D18*
X64100000Y-102475000D03*
D12*
X38390000Y-98325000D03*
X39350000Y-98325000D03*
D20*
X43312500Y-97700000D03*
X41187500Y-97700000D03*
D28*
X61350000Y-99325000D03*
X60390000Y-99325000D03*
D11*
X71075000Y-81850000D03*
X69525000Y-81850000D03*
D12*
X104390000Y-69325000D03*
X105350000Y-69325000D03*
D13*
X86600000Y-82220000D03*
X86600000Y-83180000D03*
D14*
X110000000Y-83475000D03*
X110000000Y-81925000D03*
D11*
X115075000Y-81850000D03*
X113525000Y-81850000D03*
D15*
X60340000Y-67000000D03*
X61360000Y-67000000D03*
D16*
X106200000Y-72525000D03*
X104950000Y-72525000D03*
X106200000Y-73375000D03*
X104950000Y-73375000D03*
D17*
X106700000Y-71500000D03*
X106250000Y-71500000D03*
X105800000Y-71500000D03*
X105350000Y-71500000D03*
X104900000Y-71500000D03*
X104450000Y-71500000D03*
X104450000Y-74400000D03*
X104900000Y-74400000D03*
X105350000Y-74400000D03*
X105800000Y-74400000D03*
X106250000Y-74400000D03*
X106700000Y-74400000D03*
D18*
X109800000Y-73475000D03*
D19*
X109875000Y-72937500D03*
D18*
X109800000Y-72400000D03*
X108100000Y-72400000D03*
D19*
X108025000Y-72937500D03*
D18*
X108100000Y-73475000D03*
D20*
X109312500Y-68700000D03*
X107187500Y-68700000D03*
D14*
X67500000Y-83475000D03*
X67500000Y-81925000D03*
D12*
X82390000Y-68325000D03*
X83350000Y-68325000D03*
D11*
X93075000Y-81850000D03*
X91525000Y-81850000D03*
X49075000Y-81850000D03*
X47525000Y-81850000D03*
D20*
X65312500Y-68700000D03*
X63187500Y-68700000D03*
D12*
X82390000Y-69325000D03*
X83350000Y-69325000D03*
D21*
X66060000Y-70150000D03*
X65040000Y-70150000D03*
D13*
X64600000Y-82220000D03*
X64600000Y-83180000D03*
D22*
X63037500Y-83150000D03*
X63037500Y-82200000D03*
X63037500Y-81250000D03*
X60762500Y-81250000D03*
X60762500Y-83150000D03*
D23*
X111530000Y-76150000D03*
X111530000Y-75150000D03*
X111530000Y-74150000D03*
X111530000Y-73150000D03*
X111530000Y-71650000D03*
X111530000Y-70650000D03*
X111530000Y-69650000D03*
X111530000Y-68650000D03*
X111530000Y-69150000D03*
X111530000Y-70150000D03*
X111530000Y-71150000D03*
X111530000Y-72150000D03*
X111530000Y-72650000D03*
X111530000Y-73650000D03*
X111530000Y-74650000D03*
X111530000Y-75650000D03*
X111530000Y-76650000D03*
X111530000Y-68150000D03*
D24*
X62497787Y-66054867D03*
X64072787Y-66054867D03*
D25*
X92275000Y-83650000D03*
X90825000Y-83650000D03*
D26*
X85095796Y-76305662D03*
X84445796Y-76305662D03*
X83795796Y-76305662D03*
X83145796Y-76305662D03*
X83145796Y-78580662D03*
X83795796Y-78580662D03*
X84445796Y-78580662D03*
X85095796Y-78580662D03*
X41095796Y-76305662D03*
X40445796Y-76305662D03*
X39795796Y-76305662D03*
X39145796Y-76305662D03*
X39145796Y-78580662D03*
X39795796Y-78580662D03*
X40445796Y-78580662D03*
X41095796Y-78580662D03*
D13*
X37850000Y-75670000D03*
X37850000Y-76630000D03*
D27*
X108345796Y-77960662D03*
X108345796Y-77000662D03*
D14*
X45500000Y-83475000D03*
X45500000Y-81925000D03*
D21*
X88060000Y-70150000D03*
X87040000Y-70150000D03*
X44060000Y-70150000D03*
X43040000Y-70150000D03*
D28*
X87480000Y-71300000D03*
X86520000Y-71300000D03*
D24*
X40497787Y-66054867D03*
X42072787Y-66054867D03*
D29*
X92799998Y-79300000D03*
X92299999Y-79300000D03*
X91800000Y-79300000D03*
D20*
X87312500Y-68700000D03*
X85187500Y-68700000D03*
D24*
X84497787Y-66054867D03*
X86072787Y-66054867D03*
D26*
X107095796Y-76305662D03*
X106445796Y-76305662D03*
X105795796Y-76305662D03*
X105145796Y-76305662D03*
X105145796Y-78580662D03*
X105795796Y-78580662D03*
X106445796Y-78580662D03*
X107095796Y-78580662D03*
D21*
X105360000Y-66000000D03*
X104340000Y-66000000D03*
D22*
X85037500Y-83150000D03*
X85037500Y-82200000D03*
X85037500Y-81250000D03*
X82762500Y-81250000D03*
X82762500Y-83150000D03*
D27*
X86345796Y-77960662D03*
X86345796Y-77000662D03*
D21*
X83360000Y-66000000D03*
X82340000Y-66000000D03*
D13*
X81850000Y-75670000D03*
X81850000Y-76630000D03*
D16*
X40200000Y-72525000D03*
X38950000Y-72525000D03*
X40200000Y-73375000D03*
X38950000Y-73375000D03*
D17*
X40700000Y-71500000D03*
X40250000Y-71500000D03*
X39800000Y-71500000D03*
X39350000Y-71500000D03*
X38900000Y-71500000D03*
X38450000Y-71500000D03*
X38450000Y-74400000D03*
X38900000Y-74400000D03*
X39350000Y-74400000D03*
X39800000Y-74400000D03*
X40250000Y-74400000D03*
X40700000Y-74400000D03*
D21*
X61360000Y-66000000D03*
X60340000Y-66000000D03*
D28*
X43480000Y-71300000D03*
X42520000Y-71300000D03*
D15*
X64990000Y-74800000D03*
X66010000Y-74800000D03*
D18*
X87800000Y-73475000D03*
D19*
X87875000Y-72937500D03*
D18*
X87800000Y-72400000D03*
X86100000Y-72400000D03*
D19*
X86025000Y-72937500D03*
D18*
X86100000Y-73475000D03*
D12*
X60390000Y-68325000D03*
X61350000Y-68325000D03*
D25*
X70275000Y-83650000D03*
X68825000Y-83650000D03*
D26*
X63095796Y-76305662D03*
X62445796Y-76305662D03*
X61795796Y-76305662D03*
X61145796Y-76305662D03*
X61145796Y-78580662D03*
X61795796Y-78580662D03*
X62445796Y-78580662D03*
X63095796Y-78580662D03*
D27*
X64345796Y-77960662D03*
X64345796Y-77000662D03*
D15*
X82340000Y-67000000D03*
X83360000Y-67000000D03*
D28*
X65480000Y-71300000D03*
X64520000Y-71300000D03*
D14*
X44000000Y-83475000D03*
X44000000Y-81925000D03*
D23*
X89530000Y-76150000D03*
X89530000Y-75150000D03*
X89530000Y-74150000D03*
X89530000Y-73150000D03*
X89530000Y-71650000D03*
X89530000Y-70650000D03*
X89530000Y-69650000D03*
X89530000Y-68650000D03*
X89530000Y-69150000D03*
X89530000Y-70150000D03*
X89530000Y-71150000D03*
X89530000Y-72150000D03*
X89530000Y-72650000D03*
X89530000Y-73650000D03*
X89530000Y-74650000D03*
X89530000Y-75650000D03*
X89530000Y-76650000D03*
X89530000Y-68150000D03*
D29*
X114799998Y-79300000D03*
X114299999Y-79300000D03*
X113800000Y-79300000D03*
D28*
X83350000Y-70325000D03*
X82390000Y-70325000D03*
D12*
X38390000Y-68325000D03*
X39350000Y-68325000D03*
D16*
X62200000Y-72525000D03*
X60950000Y-72525000D03*
X62200000Y-73375000D03*
X60950000Y-73375000D03*
D17*
X62700000Y-71500000D03*
X62250000Y-71500000D03*
X61800000Y-71500000D03*
X61350000Y-71500000D03*
X60900000Y-71500000D03*
X60450000Y-71500000D03*
X60450000Y-74400000D03*
X60900000Y-74400000D03*
X61350000Y-74400000D03*
X61800000Y-74400000D03*
X62250000Y-74400000D03*
X62700000Y-74400000D03*
D15*
X104340000Y-67000000D03*
X105360000Y-67000000D03*
D14*
X88000000Y-83475000D03*
X88000000Y-81925000D03*
D28*
X39350000Y-70325000D03*
X38390000Y-70325000D03*
X105350000Y-70325000D03*
X104390000Y-70325000D03*
D25*
X48275000Y-83650000D03*
X46825000Y-83650000D03*
D16*
X84200000Y-72525000D03*
X82950000Y-72525000D03*
X84200000Y-73375000D03*
X82950000Y-73375000D03*
D17*
X84700000Y-71500000D03*
X84250000Y-71500000D03*
X83800000Y-71500000D03*
X83350000Y-71500000D03*
X82900000Y-71500000D03*
X82450000Y-71500000D03*
X82450000Y-74400000D03*
X82900000Y-74400000D03*
X83350000Y-74400000D03*
X83800000Y-74400000D03*
X84250000Y-74400000D03*
X84700000Y-74400000D03*
D28*
X109480000Y-71300000D03*
X108520000Y-71300000D03*
D21*
X39360000Y-66000000D03*
X38340000Y-66000000D03*
D27*
X42345796Y-77960662D03*
X42345796Y-77000662D03*
D29*
X70799998Y-79300000D03*
X70299999Y-79300000D03*
X69800000Y-79300000D03*
D21*
X110060000Y-70150000D03*
X109040000Y-70150000D03*
D14*
X111500000Y-83475000D03*
X111500000Y-81925000D03*
D22*
X107037500Y-83150000D03*
X107037500Y-82200000D03*
X107037500Y-81250000D03*
X104762500Y-81250000D03*
X104762500Y-83150000D03*
X41037500Y-83150000D03*
X41037500Y-82200000D03*
X41037500Y-81250000D03*
X38762500Y-81250000D03*
X38762500Y-83150000D03*
D13*
X59850000Y-75670000D03*
X59850000Y-76630000D03*
D14*
X89500000Y-83475000D03*
X89500000Y-81925000D03*
D15*
X86990000Y-74800000D03*
X88010000Y-74800000D03*
D23*
X45530000Y-76150000D03*
X45530000Y-75150000D03*
X45530000Y-74150000D03*
X45530000Y-73150000D03*
X45530000Y-71650000D03*
X45530000Y-70650000D03*
X45530000Y-69650000D03*
X45530000Y-68650000D03*
X45530000Y-69150000D03*
X45530000Y-70150000D03*
X45530000Y-71150000D03*
X45530000Y-72150000D03*
X45530000Y-72650000D03*
X45530000Y-73650000D03*
X45530000Y-74650000D03*
X45530000Y-75650000D03*
X45530000Y-76650000D03*
X45530000Y-68150000D03*
D15*
X108990000Y-74800000D03*
X110010000Y-74800000D03*
D23*
X67530000Y-76150000D03*
X67530000Y-75150000D03*
X67530000Y-74150000D03*
X67530000Y-73150000D03*
X67530000Y-71650000D03*
X67530000Y-70650000D03*
X67530000Y-69650000D03*
X67530000Y-68650000D03*
X67530000Y-69150000D03*
X67530000Y-70150000D03*
X67530000Y-71150000D03*
X67530000Y-72150000D03*
X67530000Y-72650000D03*
X67530000Y-73650000D03*
X67530000Y-74650000D03*
X67530000Y-75650000D03*
X67530000Y-76650000D03*
X67530000Y-68150000D03*
D13*
X108600000Y-82220000D03*
X108600000Y-83180000D03*
D18*
X43800000Y-73475000D03*
D19*
X43875000Y-72937500D03*
D18*
X43800000Y-72400000D03*
X42100000Y-72400000D03*
D19*
X42025000Y-72937500D03*
D18*
X42100000Y-73475000D03*
D12*
X60390000Y-69325000D03*
X61350000Y-69325000D03*
D13*
X42600000Y-82220000D03*
X42600000Y-83180000D03*
X103850000Y-75670000D03*
X103850000Y-76630000D03*
D25*
X114275000Y-83650000D03*
X112825000Y-83650000D03*
D15*
X42990000Y-74800000D03*
X44010000Y-74800000D03*
X38340000Y-67000000D03*
X39360000Y-67000000D03*
D24*
X106497787Y-66054867D03*
X108072787Y-66054867D03*
D29*
X48799998Y-79300000D03*
X48299999Y-79300000D03*
X47800000Y-79300000D03*
D14*
X66000000Y-83475000D03*
X66000000Y-81925000D03*
D12*
X104390000Y-68325000D03*
X105350000Y-68325000D03*
D18*
X65800000Y-73475000D03*
D19*
X65875000Y-72937500D03*
D18*
X65800000Y-72400000D03*
X64100000Y-72400000D03*
D19*
X64025000Y-72937500D03*
D18*
X64100000Y-73475000D03*
D12*
X38390000Y-69325000D03*
X39350000Y-69325000D03*
D20*
X43312500Y-68700000D03*
X41187500Y-68700000D03*
D28*
X61350000Y-70325000D03*
X60390000Y-70325000D03*
D11*
X115075000Y-52850000D03*
X113525000Y-52850000D03*
D26*
X107095796Y-47305662D03*
X106445796Y-47305662D03*
X105795796Y-47305662D03*
X105145796Y-47305662D03*
X105145796Y-49580662D03*
X105795796Y-49580662D03*
X106445796Y-49580662D03*
X107095796Y-49580662D03*
D13*
X103850000Y-46670000D03*
X103850000Y-47630000D03*
D14*
X111500000Y-54475000D03*
X111500000Y-52925000D03*
D21*
X110060000Y-41150000D03*
X109040000Y-41150000D03*
D24*
X106497787Y-37054867D03*
X108072787Y-37054867D03*
D16*
X106200000Y-43525000D03*
X104950000Y-43525000D03*
X106200000Y-44375000D03*
X104950000Y-44375000D03*
D17*
X106700000Y-42500000D03*
X106250000Y-42500000D03*
X105800000Y-42500000D03*
X105350000Y-42500000D03*
X104900000Y-42500000D03*
X104450000Y-42500000D03*
X104450000Y-45400000D03*
X104900000Y-45400000D03*
X105350000Y-45400000D03*
X105800000Y-45400000D03*
X106250000Y-45400000D03*
X106700000Y-45400000D03*
D28*
X109480000Y-42300000D03*
X108520000Y-42300000D03*
D14*
X110000000Y-54475000D03*
X110000000Y-52925000D03*
D12*
X104390000Y-39325000D03*
X105350000Y-39325000D03*
D28*
X105350000Y-41325000D03*
X104390000Y-41325000D03*
D25*
X114275000Y-54650000D03*
X112825000Y-54650000D03*
D21*
X105360000Y-37000000D03*
X104340000Y-37000000D03*
D27*
X108345796Y-48960662D03*
X108345796Y-48000662D03*
D22*
X107037500Y-54150000D03*
X107037500Y-53200000D03*
X107037500Y-52250000D03*
X104762500Y-52250000D03*
X104762500Y-54150000D03*
D23*
X111530000Y-47150000D03*
X111530000Y-46150000D03*
X111530000Y-45150000D03*
X111530000Y-44150000D03*
X111530000Y-42650000D03*
X111530000Y-41650000D03*
X111530000Y-40650000D03*
X111530000Y-39650000D03*
X111530000Y-40150000D03*
X111530000Y-41150000D03*
X111530000Y-42150000D03*
X111530000Y-43150000D03*
X111530000Y-43650000D03*
X111530000Y-44650000D03*
X111530000Y-45650000D03*
X111530000Y-46650000D03*
X111530000Y-47650000D03*
X111530000Y-39150000D03*
D18*
X109800000Y-44475000D03*
D19*
X109875000Y-43937500D03*
D18*
X109800000Y-43400000D03*
X108100000Y-43400000D03*
D19*
X108025000Y-43937500D03*
D18*
X108100000Y-44475000D03*
D13*
X108600000Y-53220000D03*
X108600000Y-54180000D03*
D15*
X108990000Y-45800000D03*
X110010000Y-45800000D03*
X104340000Y-38000000D03*
X105360000Y-38000000D03*
D29*
X114799998Y-50300000D03*
X114299999Y-50300000D03*
X113800000Y-50300000D03*
D12*
X104390000Y-40325000D03*
X105350000Y-40325000D03*
D20*
X109312500Y-39700000D03*
X107187500Y-39700000D03*
D11*
X93075000Y-52850000D03*
X91525000Y-52850000D03*
D26*
X85095796Y-47305662D03*
X84445796Y-47305662D03*
X83795796Y-47305662D03*
X83145796Y-47305662D03*
X83145796Y-49580662D03*
X83795796Y-49580662D03*
X84445796Y-49580662D03*
X85095796Y-49580662D03*
D13*
X81850000Y-46670000D03*
X81850000Y-47630000D03*
D14*
X89500000Y-54475000D03*
X89500000Y-52925000D03*
D21*
X88060000Y-41150000D03*
X87040000Y-41150000D03*
D24*
X84497787Y-37054867D03*
X86072787Y-37054867D03*
D16*
X84200000Y-43525000D03*
X82950000Y-43525000D03*
X84200000Y-44375000D03*
X82950000Y-44375000D03*
D17*
X84700000Y-42500000D03*
X84250000Y-42500000D03*
X83800000Y-42500000D03*
X83350000Y-42500000D03*
X82900000Y-42500000D03*
X82450000Y-42500000D03*
X82450000Y-45400000D03*
X82900000Y-45400000D03*
X83350000Y-45400000D03*
X83800000Y-45400000D03*
X84250000Y-45400000D03*
X84700000Y-45400000D03*
D28*
X87480000Y-42300000D03*
X86520000Y-42300000D03*
D14*
X88000000Y-54475000D03*
X88000000Y-52925000D03*
D12*
X82390000Y-39325000D03*
X83350000Y-39325000D03*
D28*
X83350000Y-41325000D03*
X82390000Y-41325000D03*
D25*
X92275000Y-54650000D03*
X90825000Y-54650000D03*
D21*
X83360000Y-37000000D03*
X82340000Y-37000000D03*
D27*
X86345796Y-48960662D03*
X86345796Y-48000662D03*
D22*
X85037500Y-54150000D03*
X85037500Y-53200000D03*
X85037500Y-52250000D03*
X82762500Y-52250000D03*
X82762500Y-54150000D03*
D23*
X89530000Y-47150000D03*
X89530000Y-46150000D03*
X89530000Y-45150000D03*
X89530000Y-44150000D03*
X89530000Y-42650000D03*
X89530000Y-41650000D03*
X89530000Y-40650000D03*
X89530000Y-39650000D03*
X89530000Y-40150000D03*
X89530000Y-41150000D03*
X89530000Y-42150000D03*
X89530000Y-43150000D03*
X89530000Y-43650000D03*
X89530000Y-44650000D03*
X89530000Y-45650000D03*
X89530000Y-46650000D03*
X89530000Y-47650000D03*
X89530000Y-39150000D03*
D18*
X87800000Y-44475000D03*
D19*
X87875000Y-43937500D03*
D18*
X87800000Y-43400000D03*
X86100000Y-43400000D03*
D19*
X86025000Y-43937500D03*
D18*
X86100000Y-44475000D03*
D13*
X86600000Y-53220000D03*
X86600000Y-54180000D03*
D15*
X86990000Y-45800000D03*
X88010000Y-45800000D03*
X82340000Y-38000000D03*
X83360000Y-38000000D03*
D29*
X92799998Y-50300000D03*
X92299999Y-50300000D03*
X91800000Y-50300000D03*
D12*
X82390000Y-40325000D03*
X83350000Y-40325000D03*
D20*
X87312500Y-39700000D03*
X85187500Y-39700000D03*
D11*
X71075000Y-52850000D03*
X69525000Y-52850000D03*
D26*
X63095796Y-47305662D03*
X62445796Y-47305662D03*
X61795796Y-47305662D03*
X61145796Y-47305662D03*
X61145796Y-49580662D03*
X61795796Y-49580662D03*
X62445796Y-49580662D03*
X63095796Y-49580662D03*
D13*
X59850000Y-46670000D03*
X59850000Y-47630000D03*
D14*
X67500000Y-54475000D03*
X67500000Y-52925000D03*
D21*
X66060000Y-41150000D03*
X65040000Y-41150000D03*
D24*
X62497787Y-37054867D03*
X64072787Y-37054867D03*
D16*
X62200000Y-43525000D03*
X60950000Y-43525000D03*
X62200000Y-44375000D03*
X60950000Y-44375000D03*
D17*
X62700000Y-42500000D03*
X62250000Y-42500000D03*
X61800000Y-42500000D03*
X61350000Y-42500000D03*
X60900000Y-42500000D03*
X60450000Y-42500000D03*
X60450000Y-45400000D03*
X60900000Y-45400000D03*
X61350000Y-45400000D03*
X61800000Y-45400000D03*
X62250000Y-45400000D03*
X62700000Y-45400000D03*
D28*
X65480000Y-42300000D03*
X64520000Y-42300000D03*
D14*
X66000000Y-54475000D03*
X66000000Y-52925000D03*
D12*
X60390000Y-39325000D03*
X61350000Y-39325000D03*
D28*
X61350000Y-41325000D03*
X60390000Y-41325000D03*
D25*
X70275000Y-54650000D03*
X68825000Y-54650000D03*
D21*
X61360000Y-37000000D03*
X60340000Y-37000000D03*
D27*
X64345796Y-48960662D03*
X64345796Y-48000662D03*
D22*
X63037500Y-54150000D03*
X63037500Y-53200000D03*
X63037500Y-52250000D03*
X60762500Y-52250000D03*
X60762500Y-54150000D03*
D23*
X67530000Y-47150000D03*
X67530000Y-46150000D03*
X67530000Y-45150000D03*
X67530000Y-44150000D03*
X67530000Y-42650000D03*
X67530000Y-41650000D03*
X67530000Y-40650000D03*
X67530000Y-39650000D03*
X67530000Y-40150000D03*
X67530000Y-41150000D03*
X67530000Y-42150000D03*
X67530000Y-43150000D03*
X67530000Y-43650000D03*
X67530000Y-44650000D03*
X67530000Y-45650000D03*
X67530000Y-46650000D03*
X67530000Y-47650000D03*
X67530000Y-39150000D03*
D18*
X65800000Y-44475000D03*
D19*
X65875000Y-43937500D03*
D18*
X65800000Y-43400000D03*
X64100000Y-43400000D03*
D19*
X64025000Y-43937500D03*
D18*
X64100000Y-44475000D03*
D13*
X64600000Y-53220000D03*
X64600000Y-54180000D03*
D15*
X64990000Y-45800000D03*
X66010000Y-45800000D03*
X60340000Y-38000000D03*
X61360000Y-38000000D03*
D29*
X70799998Y-50300000D03*
X70299999Y-50300000D03*
X69800000Y-50300000D03*
D12*
X60390000Y-40325000D03*
X61350000Y-40325000D03*
D20*
X65312500Y-39700000D03*
X63187500Y-39700000D03*
D16*
X40200000Y-43525000D03*
X38950000Y-43525000D03*
X40200000Y-44375000D03*
X38950000Y-44375000D03*
D17*
X40700000Y-42500000D03*
X40250000Y-42500000D03*
X39800000Y-42500000D03*
X39350000Y-42500000D03*
X38900000Y-42500000D03*
X38450000Y-42500000D03*
X38450000Y-45400000D03*
X38900000Y-45400000D03*
X39350000Y-45400000D03*
X39800000Y-45400000D03*
X40250000Y-45400000D03*
X40700000Y-45400000D03*
D14*
X44000000Y-54475000D03*
X44000000Y-52925000D03*
X45500000Y-54475000D03*
X45500000Y-52925000D03*
D20*
X43312500Y-39700000D03*
X41187500Y-39700000D03*
D13*
X37850000Y-46670000D03*
X37850000Y-47630000D03*
D11*
X49075000Y-52850000D03*
X47525000Y-52850000D03*
D13*
X42600000Y-53220000D03*
X42600000Y-54180000D03*
D27*
X42345796Y-48960662D03*
X42345796Y-48000662D03*
D21*
X39360000Y-37000000D03*
X38340000Y-37000000D03*
D15*
X38340000Y-38000000D03*
X39360000Y-38000000D03*
D28*
X43480000Y-42300000D03*
X42520000Y-42300000D03*
D12*
X38390000Y-39325000D03*
X39350000Y-39325000D03*
D23*
X45530000Y-47150000D03*
X45530000Y-46150000D03*
X45530000Y-45150000D03*
X45530000Y-44150000D03*
X45530000Y-42650000D03*
X45530000Y-41650000D03*
X45530000Y-40650000D03*
X45530000Y-39650000D03*
X45530000Y-40150000D03*
X45530000Y-41150000D03*
X45530000Y-42150000D03*
X45530000Y-43150000D03*
X45530000Y-43650000D03*
X45530000Y-44650000D03*
X45530000Y-45650000D03*
X45530000Y-46650000D03*
X45530000Y-47650000D03*
X45530000Y-39150000D03*
D28*
X39350000Y-41325000D03*
X38390000Y-41325000D03*
D26*
X41095796Y-47305662D03*
X40445796Y-47305662D03*
X39795796Y-47305662D03*
X39145796Y-47305662D03*
X39145796Y-49580662D03*
X39795796Y-49580662D03*
X40445796Y-49580662D03*
X41095796Y-49580662D03*
D24*
X40497787Y-37054867D03*
X42072787Y-37054867D03*
D15*
X42990000Y-45800000D03*
X44010000Y-45800000D03*
D18*
X43800000Y-44475000D03*
D19*
X43875000Y-43937500D03*
D18*
X43800000Y-43400000D03*
X42100000Y-43400000D03*
D19*
X42025000Y-43937500D03*
D18*
X42100000Y-44475000D03*
D29*
X48799998Y-50300000D03*
X48299999Y-50300000D03*
X47800000Y-50300000D03*
D21*
X44060000Y-41150000D03*
X43040000Y-41150000D03*
D12*
X38390000Y-40325000D03*
X39350000Y-40325000D03*
D22*
X41037500Y-54150000D03*
X41037500Y-53200000D03*
X41037500Y-52250000D03*
X38762500Y-52250000D03*
X38762500Y-54150000D03*
D25*
X48275000Y-54650000D03*
X46825000Y-54650000D03*
M02*
