G04 #@! TF.GenerationSoftware,KiCad,Pcbnew,9.0.5*
G04 #@! TF.CreationDate,2026-04-27T00:47:07+09:00*
G04 #@! TF.ProjectId,leafony-az01c-panelized,6c656166-6f6e-4792-9d61-7a3031632d70,v1.0*
G04 #@! TF.SameCoordinates,Original*
G04 #@! TF.FileFunction,Paste,Top*
G04 #@! TF.FilePolarity,Positive*
%FSLAX46Y46*%
G04 Gerber Fmt 4.6, Leading zero omitted, Abs format (unit mm)*
G04 Created by KiCad (PCBNEW 9.0.5) date 2026-04-27 00:47:07*
%MOMM*%
%LPD*%
G01*
G04 APERTURE LIST*
G04 Aperture macros list*
%AMRoundRect*
0 Rectangle with rounded corners*
0 $1 Rounding radius*
0 $2 $3 $4 $5 $6 $7 $8 $9 X,Y pos of 4 corners*
0 Add a 4 corners polygon primitive as box body*
4,1,4,$2,$3,$4,$5,$6,$7,$8,$9,$2,$3,0*
0 Add four circle primitives for the rounded corners*
1,1,$1+$1,$2,$3*
1,1,$1+$1,$4,$5*
1,1,$1+$1,$6,$7*
1,1,$1+$1,$8,$9*
0 Add four rect primitives between the rounded corners*
20,1,$1+$1,$2,$3,$4,$5,0*
20,1,$1+$1,$4,$5,$6,$7,0*
20,1,$1+$1,$6,$7,$8,$9,0*
20,1,$1+$1,$8,$9,$2,$3,0*%
G04 Aperture macros list end*
%ADD10C,0.000000*%
%ADD11RoundRect,0.135000X-0.135000X-0.185000X0.135000X-0.185000X0.135000X0.185000X-0.135000X0.185000X0*%
%ADD12RoundRect,0.225000X0.225000X0.250000X-0.225000X0.250000X-0.225000X-0.250000X0.225000X-0.250000X0*%
%ADD13RoundRect,0.225000X0.250000X-0.225000X0.250000X0.225000X-0.250000X0.225000X-0.250000X-0.225000X0*%
%ADD14RoundRect,0.140000X0.140000X0.170000X-0.140000X0.170000X-0.140000X-0.170000X0.140000X-0.170000X0*%
%ADD15RoundRect,0.172500X-0.332500X0.172500X-0.332500X-0.172500X0.332500X-0.172500X0.332500X0.172500X0*%
%ADD16RoundRect,0.050000X-0.050000X0.350000X-0.050000X-0.350000X0.050000X-0.350000X0.050000X0.350000X0*%
%ADD17R,0.900000X0.300000*%
%ADD18RoundRect,0.218750X-0.218750X-0.256250X0.218750X-0.256250X0.218750X0.256250X-0.218750X0.256250X0*%
%ADD19RoundRect,0.140000X0.170000X-0.140000X0.170000X0.140000X-0.170000X0.140000X-0.170000X-0.140000X0*%
%ADD20RoundRect,0.137500X0.137500X0.662500X-0.137500X0.662500X-0.137500X-0.662500X0.137500X-0.662500X0*%
%ADD21R,0.249999X0.599999*%
%ADD22RoundRect,0.135000X0.135000X0.185000X-0.135000X0.185000X-0.135000X-0.185000X0.135000X-0.185000X0*%
%ADD23RoundRect,0.093750X0.156250X0.093750X-0.156250X0.093750X-0.156250X-0.093750X0.156250X-0.093750X0*%
%ADD24RoundRect,0.075000X0.250000X0.075000X-0.250000X0.075000X-0.250000X-0.075000X0.250000X-0.075000X0*%
%ADD25RoundRect,0.218750X0.218750X0.381250X-0.218750X0.381250X-0.218750X-0.381250X0.218750X-0.381250X0*%
%ADD26RoundRect,0.140000X-0.140000X-0.170000X0.140000X-0.170000X0.140000X0.170000X-0.140000X0.170000X0*%
%ADD27RoundRect,0.140000X-0.170000X0.140000X-0.170000X-0.140000X0.170000X-0.140000X0.170000X0.140000X0*%
%ADD28RoundRect,0.125000X-0.125000X0.537500X-0.125000X-0.537500X0.125000X-0.537500X0.125000X0.537500X0*%
G04 APERTURE END LIST*
D10*
G36*
X108709754Y-108900961D02*
G01*
X108719134Y-108903806D01*
X108727777Y-108908429D01*
X108735354Y-108914646D01*
X108741572Y-108922223D01*
X108746195Y-108930867D01*
X108749040Y-108940247D01*
X108750000Y-108950001D01*
X108750000Y-109700002D01*
X108749040Y-109709755D01*
X108746195Y-109719136D01*
X108741572Y-109727779D01*
X108735354Y-109735356D01*
X108727777Y-109741574D01*
X108719134Y-109746197D01*
X108709754Y-109749042D01*
X108700000Y-109750002D01*
X108600000Y-109750002D01*
X108590247Y-109749042D01*
X108580866Y-109746197D01*
X108572223Y-109741574D01*
X108564646Y-109735356D01*
X108558428Y-109727779D01*
X108553805Y-109719136D01*
X108550960Y-109709755D01*
X108550000Y-109700002D01*
X108550000Y-108950001D01*
X108550960Y-108940247D01*
X108553805Y-108930867D01*
X108558428Y-108922223D01*
X108564646Y-108914646D01*
X108572223Y-108908429D01*
X108580866Y-108903806D01*
X108590247Y-108900961D01*
X108600000Y-108900001D01*
X108700000Y-108900001D01*
X108709754Y-108900961D01*
G37*
G36*
X109209753Y-108900961D02*
G01*
X109219133Y-108903806D01*
X109227776Y-108908429D01*
X109235353Y-108914646D01*
X109241571Y-108922223D01*
X109246194Y-108930867D01*
X109249039Y-108940247D01*
X109249999Y-108950001D01*
X109249999Y-109700002D01*
X109249039Y-109709755D01*
X109246194Y-109719136D01*
X109241571Y-109727779D01*
X109235353Y-109735356D01*
X109227776Y-109741574D01*
X109219133Y-109746197D01*
X109209753Y-109749042D01*
X109199999Y-109750002D01*
X109099999Y-109750002D01*
X109090245Y-109749042D01*
X109080865Y-109746197D01*
X109072222Y-109741574D01*
X109064645Y-109735356D01*
X109058427Y-109727779D01*
X109053804Y-109719136D01*
X109050959Y-109709755D01*
X109049999Y-109700002D01*
X109049999Y-108950001D01*
X109050959Y-108940247D01*
X109053804Y-108930867D01*
X109058427Y-108922223D01*
X109064645Y-108914646D01*
X109072222Y-108908429D01*
X109080865Y-108903806D01*
X109090245Y-108900961D01*
X109099999Y-108900001D01*
X109199999Y-108900001D01*
X109209753Y-108900961D01*
G37*
G36*
X109709751Y-108900961D02*
G01*
X109719132Y-108903806D01*
X109727775Y-108908429D01*
X109735352Y-108914646D01*
X109741570Y-108922223D01*
X109746193Y-108930867D01*
X109749038Y-108940247D01*
X109749998Y-108950001D01*
X109749998Y-109700002D01*
X109749038Y-109709755D01*
X109746193Y-109719136D01*
X109741570Y-109727779D01*
X109735352Y-109735356D01*
X109727775Y-109741574D01*
X109719132Y-109746197D01*
X109709751Y-109749042D01*
X109699998Y-109750002D01*
X109599998Y-109750002D01*
X109590244Y-109749042D01*
X109580864Y-109746197D01*
X109572221Y-109741574D01*
X109564644Y-109735356D01*
X109558426Y-109727779D01*
X109553803Y-109719136D01*
X109550958Y-109709755D01*
X109549998Y-109700002D01*
X109549998Y-108950001D01*
X109550958Y-108940247D01*
X109553803Y-108930867D01*
X109558426Y-108922223D01*
X109564644Y-108914646D01*
X109572221Y-108908429D01*
X109580864Y-108903806D01*
X109590244Y-108900961D01*
X109599998Y-108900001D01*
X109699998Y-108900001D01*
X109709751Y-108900961D01*
G37*
G36*
X86709754Y-108900961D02*
G01*
X86719134Y-108903806D01*
X86727777Y-108908429D01*
X86735354Y-108914646D01*
X86741572Y-108922223D01*
X86746195Y-108930867D01*
X86749040Y-108940247D01*
X86750000Y-108950001D01*
X86750000Y-109700002D01*
X86749040Y-109709755D01*
X86746195Y-109719136D01*
X86741572Y-109727779D01*
X86735354Y-109735356D01*
X86727777Y-109741574D01*
X86719134Y-109746197D01*
X86709754Y-109749042D01*
X86700000Y-109750002D01*
X86600000Y-109750002D01*
X86590247Y-109749042D01*
X86580866Y-109746197D01*
X86572223Y-109741574D01*
X86564646Y-109735356D01*
X86558428Y-109727779D01*
X86553805Y-109719136D01*
X86550960Y-109709755D01*
X86550000Y-109700002D01*
X86550000Y-108950001D01*
X86550960Y-108940247D01*
X86553805Y-108930867D01*
X86558428Y-108922223D01*
X86564646Y-108914646D01*
X86572223Y-108908429D01*
X86580866Y-108903806D01*
X86590247Y-108900961D01*
X86600000Y-108900001D01*
X86700000Y-108900001D01*
X86709754Y-108900961D01*
G37*
G36*
X87209753Y-108900961D02*
G01*
X87219133Y-108903806D01*
X87227776Y-108908429D01*
X87235353Y-108914646D01*
X87241571Y-108922223D01*
X87246194Y-108930867D01*
X87249039Y-108940247D01*
X87249999Y-108950001D01*
X87249999Y-109700002D01*
X87249039Y-109709755D01*
X87246194Y-109719136D01*
X87241571Y-109727779D01*
X87235353Y-109735356D01*
X87227776Y-109741574D01*
X87219133Y-109746197D01*
X87209753Y-109749042D01*
X87199999Y-109750002D01*
X87099999Y-109750002D01*
X87090245Y-109749042D01*
X87080865Y-109746197D01*
X87072222Y-109741574D01*
X87064645Y-109735356D01*
X87058427Y-109727779D01*
X87053804Y-109719136D01*
X87050959Y-109709755D01*
X87049999Y-109700002D01*
X87049999Y-108950001D01*
X87050959Y-108940247D01*
X87053804Y-108930867D01*
X87058427Y-108922223D01*
X87064645Y-108914646D01*
X87072222Y-108908429D01*
X87080865Y-108903806D01*
X87090245Y-108900961D01*
X87099999Y-108900001D01*
X87199999Y-108900001D01*
X87209753Y-108900961D01*
G37*
G36*
X87709751Y-108900961D02*
G01*
X87719132Y-108903806D01*
X87727775Y-108908429D01*
X87735352Y-108914646D01*
X87741570Y-108922223D01*
X87746193Y-108930867D01*
X87749038Y-108940247D01*
X87749998Y-108950001D01*
X87749998Y-109700002D01*
X87749038Y-109709755D01*
X87746193Y-109719136D01*
X87741570Y-109727779D01*
X87735352Y-109735356D01*
X87727775Y-109741574D01*
X87719132Y-109746197D01*
X87709751Y-109749042D01*
X87699998Y-109750002D01*
X87599998Y-109750002D01*
X87590244Y-109749042D01*
X87580864Y-109746197D01*
X87572221Y-109741574D01*
X87564644Y-109735356D01*
X87558426Y-109727779D01*
X87553803Y-109719136D01*
X87550958Y-109709755D01*
X87549998Y-109700002D01*
X87549998Y-108950001D01*
X87550958Y-108940247D01*
X87553803Y-108930867D01*
X87558426Y-108922223D01*
X87564644Y-108914646D01*
X87572221Y-108908429D01*
X87580864Y-108903806D01*
X87590244Y-108900961D01*
X87599998Y-108900001D01*
X87699998Y-108900001D01*
X87709751Y-108900961D01*
G37*
G36*
X64709754Y-108900961D02*
G01*
X64719134Y-108903806D01*
X64727777Y-108908429D01*
X64735354Y-108914646D01*
X64741572Y-108922223D01*
X64746195Y-108930867D01*
X64749040Y-108940247D01*
X64750000Y-108950001D01*
X64750000Y-109700002D01*
X64749040Y-109709755D01*
X64746195Y-109719136D01*
X64741572Y-109727779D01*
X64735354Y-109735356D01*
X64727777Y-109741574D01*
X64719134Y-109746197D01*
X64709754Y-109749042D01*
X64700000Y-109750002D01*
X64600000Y-109750002D01*
X64590247Y-109749042D01*
X64580866Y-109746197D01*
X64572223Y-109741574D01*
X64564646Y-109735356D01*
X64558428Y-109727779D01*
X64553805Y-109719136D01*
X64550960Y-109709755D01*
X64550000Y-109700002D01*
X64550000Y-108950001D01*
X64550960Y-108940247D01*
X64553805Y-108930867D01*
X64558428Y-108922223D01*
X64564646Y-108914646D01*
X64572223Y-108908429D01*
X64580866Y-108903806D01*
X64590247Y-108900961D01*
X64600000Y-108900001D01*
X64700000Y-108900001D01*
X64709754Y-108900961D01*
G37*
G36*
X65209753Y-108900961D02*
G01*
X65219133Y-108903806D01*
X65227776Y-108908429D01*
X65235353Y-108914646D01*
X65241571Y-108922223D01*
X65246194Y-108930867D01*
X65249039Y-108940247D01*
X65249999Y-108950001D01*
X65249999Y-109700002D01*
X65249039Y-109709755D01*
X65246194Y-109719136D01*
X65241571Y-109727779D01*
X65235353Y-109735356D01*
X65227776Y-109741574D01*
X65219133Y-109746197D01*
X65209753Y-109749042D01*
X65199999Y-109750002D01*
X65099999Y-109750002D01*
X65090245Y-109749042D01*
X65080865Y-109746197D01*
X65072222Y-109741574D01*
X65064645Y-109735356D01*
X65058427Y-109727779D01*
X65053804Y-109719136D01*
X65050959Y-109709755D01*
X65049999Y-109700002D01*
X65049999Y-108950001D01*
X65050959Y-108940247D01*
X65053804Y-108930867D01*
X65058427Y-108922223D01*
X65064645Y-108914646D01*
X65072222Y-108908429D01*
X65080865Y-108903806D01*
X65090245Y-108900961D01*
X65099999Y-108900001D01*
X65199999Y-108900001D01*
X65209753Y-108900961D01*
G37*
G36*
X65709751Y-108900961D02*
G01*
X65719132Y-108903806D01*
X65727775Y-108908429D01*
X65735352Y-108914646D01*
X65741570Y-108922223D01*
X65746193Y-108930867D01*
X65749038Y-108940247D01*
X65749998Y-108950001D01*
X65749998Y-109700002D01*
X65749038Y-109709755D01*
X65746193Y-109719136D01*
X65741570Y-109727779D01*
X65735352Y-109735356D01*
X65727775Y-109741574D01*
X65719132Y-109746197D01*
X65709751Y-109749042D01*
X65699998Y-109750002D01*
X65599998Y-109750002D01*
X65590244Y-109749042D01*
X65580864Y-109746197D01*
X65572221Y-109741574D01*
X65564644Y-109735356D01*
X65558426Y-109727779D01*
X65553803Y-109719136D01*
X65550958Y-109709755D01*
X65549998Y-109700002D01*
X65549998Y-108950001D01*
X65550958Y-108940247D01*
X65553803Y-108930867D01*
X65558426Y-108922223D01*
X65564644Y-108914646D01*
X65572221Y-108908429D01*
X65580864Y-108903806D01*
X65590244Y-108900961D01*
X65599998Y-108900001D01*
X65699998Y-108900001D01*
X65709751Y-108900961D01*
G37*
G36*
X42709754Y-108900961D02*
G01*
X42719134Y-108903806D01*
X42727777Y-108908429D01*
X42735354Y-108914646D01*
X42741572Y-108922223D01*
X42746195Y-108930867D01*
X42749040Y-108940247D01*
X42750000Y-108950001D01*
X42750000Y-109700002D01*
X42749040Y-109709755D01*
X42746195Y-109719136D01*
X42741572Y-109727779D01*
X42735354Y-109735356D01*
X42727777Y-109741574D01*
X42719134Y-109746197D01*
X42709754Y-109749042D01*
X42700000Y-109750002D01*
X42600000Y-109750002D01*
X42590247Y-109749042D01*
X42580866Y-109746197D01*
X42572223Y-109741574D01*
X42564646Y-109735356D01*
X42558428Y-109727779D01*
X42553805Y-109719136D01*
X42550960Y-109709755D01*
X42550000Y-109700002D01*
X42550000Y-108950001D01*
X42550960Y-108940247D01*
X42553805Y-108930867D01*
X42558428Y-108922223D01*
X42564646Y-108914646D01*
X42572223Y-108908429D01*
X42580866Y-108903806D01*
X42590247Y-108900961D01*
X42600000Y-108900001D01*
X42700000Y-108900001D01*
X42709754Y-108900961D01*
G37*
G36*
X43209753Y-108900961D02*
G01*
X43219133Y-108903806D01*
X43227776Y-108908429D01*
X43235353Y-108914646D01*
X43241571Y-108922223D01*
X43246194Y-108930867D01*
X43249039Y-108940247D01*
X43249999Y-108950001D01*
X43249999Y-109700002D01*
X43249039Y-109709755D01*
X43246194Y-109719136D01*
X43241571Y-109727779D01*
X43235353Y-109735356D01*
X43227776Y-109741574D01*
X43219133Y-109746197D01*
X43209753Y-109749042D01*
X43199999Y-109750002D01*
X43099999Y-109750002D01*
X43090245Y-109749042D01*
X43080865Y-109746197D01*
X43072222Y-109741574D01*
X43064645Y-109735356D01*
X43058427Y-109727779D01*
X43053804Y-109719136D01*
X43050959Y-109709755D01*
X43049999Y-109700002D01*
X43049999Y-108950001D01*
X43050959Y-108940247D01*
X43053804Y-108930867D01*
X43058427Y-108922223D01*
X43064645Y-108914646D01*
X43072222Y-108908429D01*
X43080865Y-108903806D01*
X43090245Y-108900961D01*
X43099999Y-108900001D01*
X43199999Y-108900001D01*
X43209753Y-108900961D01*
G37*
G36*
X43709751Y-108900961D02*
G01*
X43719132Y-108903806D01*
X43727775Y-108908429D01*
X43735352Y-108914646D01*
X43741570Y-108922223D01*
X43746193Y-108930867D01*
X43749038Y-108940247D01*
X43749998Y-108950001D01*
X43749998Y-109700002D01*
X43749038Y-109709755D01*
X43746193Y-109719136D01*
X43741570Y-109727779D01*
X43735352Y-109735356D01*
X43727775Y-109741574D01*
X43719132Y-109746197D01*
X43709751Y-109749042D01*
X43699998Y-109750002D01*
X43599998Y-109750002D01*
X43590244Y-109749042D01*
X43580864Y-109746197D01*
X43572221Y-109741574D01*
X43564644Y-109735356D01*
X43558426Y-109727779D01*
X43553803Y-109719136D01*
X43550958Y-109709755D01*
X43549998Y-109700002D01*
X43549998Y-108950001D01*
X43550958Y-108940247D01*
X43553803Y-108930867D01*
X43558426Y-108922223D01*
X43564644Y-108914646D01*
X43572221Y-108908429D01*
X43580864Y-108903806D01*
X43590244Y-108900961D01*
X43599998Y-108900001D01*
X43699998Y-108900001D01*
X43709751Y-108900961D01*
G37*
G36*
X109709751Y-79900961D02*
G01*
X109719132Y-79903806D01*
X109727775Y-79908429D01*
X109735352Y-79914646D01*
X109741570Y-79922223D01*
X109746193Y-79930867D01*
X109749038Y-79940247D01*
X109749998Y-79950001D01*
X109749998Y-80700002D01*
X109749038Y-80709755D01*
X109746193Y-80719136D01*
X109741570Y-80727779D01*
X109735352Y-80735356D01*
X109727775Y-80741574D01*
X109719132Y-80746197D01*
X109709751Y-80749042D01*
X109699998Y-80750002D01*
X109599998Y-80750002D01*
X109590244Y-80749042D01*
X109580864Y-80746197D01*
X109572221Y-80741574D01*
X109564644Y-80735356D01*
X109558426Y-80727779D01*
X109553803Y-80719136D01*
X109550958Y-80709755D01*
X109549998Y-80700002D01*
X109549998Y-79950001D01*
X109550958Y-79940247D01*
X109553803Y-79930867D01*
X109558426Y-79922223D01*
X109564644Y-79914646D01*
X109572221Y-79908429D01*
X109580864Y-79903806D01*
X109590244Y-79900961D01*
X109599998Y-79900001D01*
X109699998Y-79900001D01*
X109709751Y-79900961D01*
G37*
G36*
X109209753Y-79900961D02*
G01*
X109219133Y-79903806D01*
X109227776Y-79908429D01*
X109235353Y-79914646D01*
X109241571Y-79922223D01*
X109246194Y-79930867D01*
X109249039Y-79940247D01*
X109249999Y-79950001D01*
X109249999Y-80700002D01*
X109249039Y-80709755D01*
X109246194Y-80719136D01*
X109241571Y-80727779D01*
X109235353Y-80735356D01*
X109227776Y-80741574D01*
X109219133Y-80746197D01*
X109209753Y-80749042D01*
X109199999Y-80750002D01*
X109099999Y-80750002D01*
X109090245Y-80749042D01*
X109080865Y-80746197D01*
X109072222Y-80741574D01*
X109064645Y-80735356D01*
X109058427Y-80727779D01*
X109053804Y-80719136D01*
X109050959Y-80709755D01*
X109049999Y-80700002D01*
X109049999Y-79950001D01*
X109050959Y-79940247D01*
X109053804Y-79930867D01*
X109058427Y-79922223D01*
X109064645Y-79914646D01*
X109072222Y-79908429D01*
X109080865Y-79903806D01*
X109090245Y-79900961D01*
X109099999Y-79900001D01*
X109199999Y-79900001D01*
X109209753Y-79900961D01*
G37*
G36*
X108709754Y-79900961D02*
G01*
X108719134Y-79903806D01*
X108727777Y-79908429D01*
X108735354Y-79914646D01*
X108741572Y-79922223D01*
X108746195Y-79930867D01*
X108749040Y-79940247D01*
X108750000Y-79950001D01*
X108750000Y-80700002D01*
X108749040Y-80709755D01*
X108746195Y-80719136D01*
X108741572Y-80727779D01*
X108735354Y-80735356D01*
X108727777Y-80741574D01*
X108719134Y-80746197D01*
X108709754Y-80749042D01*
X108700000Y-80750002D01*
X108600000Y-80750002D01*
X108590247Y-80749042D01*
X108580866Y-80746197D01*
X108572223Y-80741574D01*
X108564646Y-80735356D01*
X108558428Y-80727779D01*
X108553805Y-80719136D01*
X108550960Y-80709755D01*
X108550000Y-80700002D01*
X108550000Y-79950001D01*
X108550960Y-79940247D01*
X108553805Y-79930867D01*
X108558428Y-79922223D01*
X108564646Y-79914646D01*
X108572223Y-79908429D01*
X108580866Y-79903806D01*
X108590247Y-79900961D01*
X108600000Y-79900001D01*
X108700000Y-79900001D01*
X108709754Y-79900961D01*
G37*
G36*
X87709751Y-79900961D02*
G01*
X87719132Y-79903806D01*
X87727775Y-79908429D01*
X87735352Y-79914646D01*
X87741570Y-79922223D01*
X87746193Y-79930867D01*
X87749038Y-79940247D01*
X87749998Y-79950001D01*
X87749998Y-80700002D01*
X87749038Y-80709755D01*
X87746193Y-80719136D01*
X87741570Y-80727779D01*
X87735352Y-80735356D01*
X87727775Y-80741574D01*
X87719132Y-80746197D01*
X87709751Y-80749042D01*
X87699998Y-80750002D01*
X87599998Y-80750002D01*
X87590244Y-80749042D01*
X87580864Y-80746197D01*
X87572221Y-80741574D01*
X87564644Y-80735356D01*
X87558426Y-80727779D01*
X87553803Y-80719136D01*
X87550958Y-80709755D01*
X87549998Y-80700002D01*
X87549998Y-79950001D01*
X87550958Y-79940247D01*
X87553803Y-79930867D01*
X87558426Y-79922223D01*
X87564644Y-79914646D01*
X87572221Y-79908429D01*
X87580864Y-79903806D01*
X87590244Y-79900961D01*
X87599998Y-79900001D01*
X87699998Y-79900001D01*
X87709751Y-79900961D01*
G37*
G36*
X87209753Y-79900961D02*
G01*
X87219133Y-79903806D01*
X87227776Y-79908429D01*
X87235353Y-79914646D01*
X87241571Y-79922223D01*
X87246194Y-79930867D01*
X87249039Y-79940247D01*
X87249999Y-79950001D01*
X87249999Y-80700002D01*
X87249039Y-80709755D01*
X87246194Y-80719136D01*
X87241571Y-80727779D01*
X87235353Y-80735356D01*
X87227776Y-80741574D01*
X87219133Y-80746197D01*
X87209753Y-80749042D01*
X87199999Y-80750002D01*
X87099999Y-80750002D01*
X87090245Y-80749042D01*
X87080865Y-80746197D01*
X87072222Y-80741574D01*
X87064645Y-80735356D01*
X87058427Y-80727779D01*
X87053804Y-80719136D01*
X87050959Y-80709755D01*
X87049999Y-80700002D01*
X87049999Y-79950001D01*
X87050959Y-79940247D01*
X87053804Y-79930867D01*
X87058427Y-79922223D01*
X87064645Y-79914646D01*
X87072222Y-79908429D01*
X87080865Y-79903806D01*
X87090245Y-79900961D01*
X87099999Y-79900001D01*
X87199999Y-79900001D01*
X87209753Y-79900961D01*
G37*
G36*
X86709754Y-79900961D02*
G01*
X86719134Y-79903806D01*
X86727777Y-79908429D01*
X86735354Y-79914646D01*
X86741572Y-79922223D01*
X86746195Y-79930867D01*
X86749040Y-79940247D01*
X86750000Y-79950001D01*
X86750000Y-80700002D01*
X86749040Y-80709755D01*
X86746195Y-80719136D01*
X86741572Y-80727779D01*
X86735354Y-80735356D01*
X86727777Y-80741574D01*
X86719134Y-80746197D01*
X86709754Y-80749042D01*
X86700000Y-80750002D01*
X86600000Y-80750002D01*
X86590247Y-80749042D01*
X86580866Y-80746197D01*
X86572223Y-80741574D01*
X86564646Y-80735356D01*
X86558428Y-80727779D01*
X86553805Y-80719136D01*
X86550960Y-80709755D01*
X86550000Y-80700002D01*
X86550000Y-79950001D01*
X86550960Y-79940247D01*
X86553805Y-79930867D01*
X86558428Y-79922223D01*
X86564646Y-79914646D01*
X86572223Y-79908429D01*
X86580866Y-79903806D01*
X86590247Y-79900961D01*
X86600000Y-79900001D01*
X86700000Y-79900001D01*
X86709754Y-79900961D01*
G37*
G36*
X65709751Y-79900961D02*
G01*
X65719132Y-79903806D01*
X65727775Y-79908429D01*
X65735352Y-79914646D01*
X65741570Y-79922223D01*
X65746193Y-79930867D01*
X65749038Y-79940247D01*
X65749998Y-79950001D01*
X65749998Y-80700002D01*
X65749038Y-80709755D01*
X65746193Y-80719136D01*
X65741570Y-80727779D01*
X65735352Y-80735356D01*
X65727775Y-80741574D01*
X65719132Y-80746197D01*
X65709751Y-80749042D01*
X65699998Y-80750002D01*
X65599998Y-80750002D01*
X65590244Y-80749042D01*
X65580864Y-80746197D01*
X65572221Y-80741574D01*
X65564644Y-80735356D01*
X65558426Y-80727779D01*
X65553803Y-80719136D01*
X65550958Y-80709755D01*
X65549998Y-80700002D01*
X65549998Y-79950001D01*
X65550958Y-79940247D01*
X65553803Y-79930867D01*
X65558426Y-79922223D01*
X65564644Y-79914646D01*
X65572221Y-79908429D01*
X65580864Y-79903806D01*
X65590244Y-79900961D01*
X65599998Y-79900001D01*
X65699998Y-79900001D01*
X65709751Y-79900961D01*
G37*
G36*
X65209753Y-79900961D02*
G01*
X65219133Y-79903806D01*
X65227776Y-79908429D01*
X65235353Y-79914646D01*
X65241571Y-79922223D01*
X65246194Y-79930867D01*
X65249039Y-79940247D01*
X65249999Y-79950001D01*
X65249999Y-80700002D01*
X65249039Y-80709755D01*
X65246194Y-80719136D01*
X65241571Y-80727779D01*
X65235353Y-80735356D01*
X65227776Y-80741574D01*
X65219133Y-80746197D01*
X65209753Y-80749042D01*
X65199999Y-80750002D01*
X65099999Y-80750002D01*
X65090245Y-80749042D01*
X65080865Y-80746197D01*
X65072222Y-80741574D01*
X65064645Y-80735356D01*
X65058427Y-80727779D01*
X65053804Y-80719136D01*
X65050959Y-80709755D01*
X65049999Y-80700002D01*
X65049999Y-79950001D01*
X65050959Y-79940247D01*
X65053804Y-79930867D01*
X65058427Y-79922223D01*
X65064645Y-79914646D01*
X65072222Y-79908429D01*
X65080865Y-79903806D01*
X65090245Y-79900961D01*
X65099999Y-79900001D01*
X65199999Y-79900001D01*
X65209753Y-79900961D01*
G37*
G36*
X64709754Y-79900961D02*
G01*
X64719134Y-79903806D01*
X64727777Y-79908429D01*
X64735354Y-79914646D01*
X64741572Y-79922223D01*
X64746195Y-79930867D01*
X64749040Y-79940247D01*
X64750000Y-79950001D01*
X64750000Y-80700002D01*
X64749040Y-80709755D01*
X64746195Y-80719136D01*
X64741572Y-80727779D01*
X64735354Y-80735356D01*
X64727777Y-80741574D01*
X64719134Y-80746197D01*
X64709754Y-80749042D01*
X64700000Y-80750002D01*
X64600000Y-80750002D01*
X64590247Y-80749042D01*
X64580866Y-80746197D01*
X64572223Y-80741574D01*
X64564646Y-80735356D01*
X64558428Y-80727779D01*
X64553805Y-80719136D01*
X64550960Y-80709755D01*
X64550000Y-80700002D01*
X64550000Y-79950001D01*
X64550960Y-79940247D01*
X64553805Y-79930867D01*
X64558428Y-79922223D01*
X64564646Y-79914646D01*
X64572223Y-79908429D01*
X64580866Y-79903806D01*
X64590247Y-79900961D01*
X64600000Y-79900001D01*
X64700000Y-79900001D01*
X64709754Y-79900961D01*
G37*
G36*
X43709751Y-79900961D02*
G01*
X43719132Y-79903806D01*
X43727775Y-79908429D01*
X43735352Y-79914646D01*
X43741570Y-79922223D01*
X43746193Y-79930867D01*
X43749038Y-79940247D01*
X43749998Y-79950001D01*
X43749998Y-80700002D01*
X43749038Y-80709755D01*
X43746193Y-80719136D01*
X43741570Y-80727779D01*
X43735352Y-80735356D01*
X43727775Y-80741574D01*
X43719132Y-80746197D01*
X43709751Y-80749042D01*
X43699998Y-80750002D01*
X43599998Y-80750002D01*
X43590244Y-80749042D01*
X43580864Y-80746197D01*
X43572221Y-80741574D01*
X43564644Y-80735356D01*
X43558426Y-80727779D01*
X43553803Y-80719136D01*
X43550958Y-80709755D01*
X43549998Y-80700002D01*
X43549998Y-79950001D01*
X43550958Y-79940247D01*
X43553803Y-79930867D01*
X43558426Y-79922223D01*
X43564644Y-79914646D01*
X43572221Y-79908429D01*
X43580864Y-79903806D01*
X43590244Y-79900961D01*
X43599998Y-79900001D01*
X43699998Y-79900001D01*
X43709751Y-79900961D01*
G37*
G36*
X43209753Y-79900961D02*
G01*
X43219133Y-79903806D01*
X43227776Y-79908429D01*
X43235353Y-79914646D01*
X43241571Y-79922223D01*
X43246194Y-79930867D01*
X43249039Y-79940247D01*
X43249999Y-79950001D01*
X43249999Y-80700002D01*
X43249039Y-80709755D01*
X43246194Y-80719136D01*
X43241571Y-80727779D01*
X43235353Y-80735356D01*
X43227776Y-80741574D01*
X43219133Y-80746197D01*
X43209753Y-80749042D01*
X43199999Y-80750002D01*
X43099999Y-80750002D01*
X43090245Y-80749042D01*
X43080865Y-80746197D01*
X43072222Y-80741574D01*
X43064645Y-80735356D01*
X43058427Y-80727779D01*
X43053804Y-80719136D01*
X43050959Y-80709755D01*
X43049999Y-80700002D01*
X43049999Y-79950001D01*
X43050959Y-79940247D01*
X43053804Y-79930867D01*
X43058427Y-79922223D01*
X43064645Y-79914646D01*
X43072222Y-79908429D01*
X43080865Y-79903806D01*
X43090245Y-79900961D01*
X43099999Y-79900001D01*
X43199999Y-79900001D01*
X43209753Y-79900961D01*
G37*
G36*
X42709754Y-79900961D02*
G01*
X42719134Y-79903806D01*
X42727777Y-79908429D01*
X42735354Y-79914646D01*
X42741572Y-79922223D01*
X42746195Y-79930867D01*
X42749040Y-79940247D01*
X42750000Y-79950001D01*
X42750000Y-80700002D01*
X42749040Y-80709755D01*
X42746195Y-80719136D01*
X42741572Y-80727779D01*
X42735354Y-80735356D01*
X42727777Y-80741574D01*
X42719134Y-80746197D01*
X42709754Y-80749042D01*
X42700000Y-80750002D01*
X42600000Y-80750002D01*
X42590247Y-80749042D01*
X42580866Y-80746197D01*
X42572223Y-80741574D01*
X42564646Y-80735356D01*
X42558428Y-80727779D01*
X42553805Y-80719136D01*
X42550960Y-80709755D01*
X42550000Y-80700002D01*
X42550000Y-79950001D01*
X42550960Y-79940247D01*
X42553805Y-79930867D01*
X42558428Y-79922223D01*
X42564646Y-79914646D01*
X42572223Y-79908429D01*
X42580866Y-79903806D01*
X42590247Y-79900961D01*
X42600000Y-79900001D01*
X42700000Y-79900001D01*
X42709754Y-79900961D01*
G37*
G36*
X108709754Y-50900961D02*
G01*
X108719134Y-50903806D01*
X108727777Y-50908429D01*
X108735354Y-50914646D01*
X108741572Y-50922223D01*
X108746195Y-50930867D01*
X108749040Y-50940247D01*
X108750000Y-50950001D01*
X108750000Y-51700002D01*
X108749040Y-51709755D01*
X108746195Y-51719136D01*
X108741572Y-51727779D01*
X108735354Y-51735356D01*
X108727777Y-51741574D01*
X108719134Y-51746197D01*
X108709754Y-51749042D01*
X108700000Y-51750002D01*
X108600000Y-51750002D01*
X108590247Y-51749042D01*
X108580866Y-51746197D01*
X108572223Y-51741574D01*
X108564646Y-51735356D01*
X108558428Y-51727779D01*
X108553805Y-51719136D01*
X108550960Y-51709755D01*
X108550000Y-51700002D01*
X108550000Y-50950001D01*
X108550960Y-50940247D01*
X108553805Y-50930867D01*
X108558428Y-50922223D01*
X108564646Y-50914646D01*
X108572223Y-50908429D01*
X108580866Y-50903806D01*
X108590247Y-50900961D01*
X108600000Y-50900001D01*
X108700000Y-50900001D01*
X108709754Y-50900961D01*
G37*
G36*
X109209753Y-50900961D02*
G01*
X109219133Y-50903806D01*
X109227776Y-50908429D01*
X109235353Y-50914646D01*
X109241571Y-50922223D01*
X109246194Y-50930867D01*
X109249039Y-50940247D01*
X109249999Y-50950001D01*
X109249999Y-51700002D01*
X109249039Y-51709755D01*
X109246194Y-51719136D01*
X109241571Y-51727779D01*
X109235353Y-51735356D01*
X109227776Y-51741574D01*
X109219133Y-51746197D01*
X109209753Y-51749042D01*
X109199999Y-51750002D01*
X109099999Y-51750002D01*
X109090245Y-51749042D01*
X109080865Y-51746197D01*
X109072222Y-51741574D01*
X109064645Y-51735356D01*
X109058427Y-51727779D01*
X109053804Y-51719136D01*
X109050959Y-51709755D01*
X109049999Y-51700002D01*
X109049999Y-50950001D01*
X109050959Y-50940247D01*
X109053804Y-50930867D01*
X109058427Y-50922223D01*
X109064645Y-50914646D01*
X109072222Y-50908429D01*
X109080865Y-50903806D01*
X109090245Y-50900961D01*
X109099999Y-50900001D01*
X109199999Y-50900001D01*
X109209753Y-50900961D01*
G37*
G36*
X109709751Y-50900961D02*
G01*
X109719132Y-50903806D01*
X109727775Y-50908429D01*
X109735352Y-50914646D01*
X109741570Y-50922223D01*
X109746193Y-50930867D01*
X109749038Y-50940247D01*
X109749998Y-50950001D01*
X109749998Y-51700002D01*
X109749038Y-51709755D01*
X109746193Y-51719136D01*
X109741570Y-51727779D01*
X109735352Y-51735356D01*
X109727775Y-51741574D01*
X109719132Y-51746197D01*
X109709751Y-51749042D01*
X109699998Y-51750002D01*
X109599998Y-51750002D01*
X109590244Y-51749042D01*
X109580864Y-51746197D01*
X109572221Y-51741574D01*
X109564644Y-51735356D01*
X109558426Y-51727779D01*
X109553803Y-51719136D01*
X109550958Y-51709755D01*
X109549998Y-51700002D01*
X109549998Y-50950001D01*
X109550958Y-50940247D01*
X109553803Y-50930867D01*
X109558426Y-50922223D01*
X109564644Y-50914646D01*
X109572221Y-50908429D01*
X109580864Y-50903806D01*
X109590244Y-50900961D01*
X109599998Y-50900001D01*
X109699998Y-50900001D01*
X109709751Y-50900961D01*
G37*
G36*
X86709754Y-50900961D02*
G01*
X86719134Y-50903806D01*
X86727777Y-50908429D01*
X86735354Y-50914646D01*
X86741572Y-50922223D01*
X86746195Y-50930867D01*
X86749040Y-50940247D01*
X86750000Y-50950001D01*
X86750000Y-51700002D01*
X86749040Y-51709755D01*
X86746195Y-51719136D01*
X86741572Y-51727779D01*
X86735354Y-51735356D01*
X86727777Y-51741574D01*
X86719134Y-51746197D01*
X86709754Y-51749042D01*
X86700000Y-51750002D01*
X86600000Y-51750002D01*
X86590247Y-51749042D01*
X86580866Y-51746197D01*
X86572223Y-51741574D01*
X86564646Y-51735356D01*
X86558428Y-51727779D01*
X86553805Y-51719136D01*
X86550960Y-51709755D01*
X86550000Y-51700002D01*
X86550000Y-50950001D01*
X86550960Y-50940247D01*
X86553805Y-50930867D01*
X86558428Y-50922223D01*
X86564646Y-50914646D01*
X86572223Y-50908429D01*
X86580866Y-50903806D01*
X86590247Y-50900961D01*
X86600000Y-50900001D01*
X86700000Y-50900001D01*
X86709754Y-50900961D01*
G37*
G36*
X87209753Y-50900961D02*
G01*
X87219133Y-50903806D01*
X87227776Y-50908429D01*
X87235353Y-50914646D01*
X87241571Y-50922223D01*
X87246194Y-50930867D01*
X87249039Y-50940247D01*
X87249999Y-50950001D01*
X87249999Y-51700002D01*
X87249039Y-51709755D01*
X87246194Y-51719136D01*
X87241571Y-51727779D01*
X87235353Y-51735356D01*
X87227776Y-51741574D01*
X87219133Y-51746197D01*
X87209753Y-51749042D01*
X87199999Y-51750002D01*
X87099999Y-51750002D01*
X87090245Y-51749042D01*
X87080865Y-51746197D01*
X87072222Y-51741574D01*
X87064645Y-51735356D01*
X87058427Y-51727779D01*
X87053804Y-51719136D01*
X87050959Y-51709755D01*
X87049999Y-51700002D01*
X87049999Y-50950001D01*
X87050959Y-50940247D01*
X87053804Y-50930867D01*
X87058427Y-50922223D01*
X87064645Y-50914646D01*
X87072222Y-50908429D01*
X87080865Y-50903806D01*
X87090245Y-50900961D01*
X87099999Y-50900001D01*
X87199999Y-50900001D01*
X87209753Y-50900961D01*
G37*
G36*
X87709751Y-50900961D02*
G01*
X87719132Y-50903806D01*
X87727775Y-50908429D01*
X87735352Y-50914646D01*
X87741570Y-50922223D01*
X87746193Y-50930867D01*
X87749038Y-50940247D01*
X87749998Y-50950001D01*
X87749998Y-51700002D01*
X87749038Y-51709755D01*
X87746193Y-51719136D01*
X87741570Y-51727779D01*
X87735352Y-51735356D01*
X87727775Y-51741574D01*
X87719132Y-51746197D01*
X87709751Y-51749042D01*
X87699998Y-51750002D01*
X87599998Y-51750002D01*
X87590244Y-51749042D01*
X87580864Y-51746197D01*
X87572221Y-51741574D01*
X87564644Y-51735356D01*
X87558426Y-51727779D01*
X87553803Y-51719136D01*
X87550958Y-51709755D01*
X87549998Y-51700002D01*
X87549998Y-50950001D01*
X87550958Y-50940247D01*
X87553803Y-50930867D01*
X87558426Y-50922223D01*
X87564644Y-50914646D01*
X87572221Y-50908429D01*
X87580864Y-50903806D01*
X87590244Y-50900961D01*
X87599998Y-50900001D01*
X87699998Y-50900001D01*
X87709751Y-50900961D01*
G37*
G36*
X65709751Y-50900961D02*
G01*
X65719132Y-50903806D01*
X65727775Y-50908429D01*
X65735352Y-50914646D01*
X65741570Y-50922223D01*
X65746193Y-50930867D01*
X65749038Y-50940247D01*
X65749998Y-50950001D01*
X65749998Y-51700002D01*
X65749038Y-51709755D01*
X65746193Y-51719136D01*
X65741570Y-51727779D01*
X65735352Y-51735356D01*
X65727775Y-51741574D01*
X65719132Y-51746197D01*
X65709751Y-51749042D01*
X65699998Y-51750002D01*
X65599998Y-51750002D01*
X65590244Y-51749042D01*
X65580864Y-51746197D01*
X65572221Y-51741574D01*
X65564644Y-51735356D01*
X65558426Y-51727779D01*
X65553803Y-51719136D01*
X65550958Y-51709755D01*
X65549998Y-51700002D01*
X65549998Y-50950001D01*
X65550958Y-50940247D01*
X65553803Y-50930867D01*
X65558426Y-50922223D01*
X65564644Y-50914646D01*
X65572221Y-50908429D01*
X65580864Y-50903806D01*
X65590244Y-50900961D01*
X65599998Y-50900001D01*
X65699998Y-50900001D01*
X65709751Y-50900961D01*
G37*
G36*
X65209753Y-50900961D02*
G01*
X65219133Y-50903806D01*
X65227776Y-50908429D01*
X65235353Y-50914646D01*
X65241571Y-50922223D01*
X65246194Y-50930867D01*
X65249039Y-50940247D01*
X65249999Y-50950001D01*
X65249999Y-51700002D01*
X65249039Y-51709755D01*
X65246194Y-51719136D01*
X65241571Y-51727779D01*
X65235353Y-51735356D01*
X65227776Y-51741574D01*
X65219133Y-51746197D01*
X65209753Y-51749042D01*
X65199999Y-51750002D01*
X65099999Y-51750002D01*
X65090245Y-51749042D01*
X65080865Y-51746197D01*
X65072222Y-51741574D01*
X65064645Y-51735356D01*
X65058427Y-51727779D01*
X65053804Y-51719136D01*
X65050959Y-51709755D01*
X65049999Y-51700002D01*
X65049999Y-50950001D01*
X65050959Y-50940247D01*
X65053804Y-50930867D01*
X65058427Y-50922223D01*
X65064645Y-50914646D01*
X65072222Y-50908429D01*
X65080865Y-50903806D01*
X65090245Y-50900961D01*
X65099999Y-50900001D01*
X65199999Y-50900001D01*
X65209753Y-50900961D01*
G37*
G36*
X64709754Y-50900961D02*
G01*
X64719134Y-50903806D01*
X64727777Y-50908429D01*
X64735354Y-50914646D01*
X64741572Y-50922223D01*
X64746195Y-50930867D01*
X64749040Y-50940247D01*
X64750000Y-50950001D01*
X64750000Y-51700002D01*
X64749040Y-51709755D01*
X64746195Y-51719136D01*
X64741572Y-51727779D01*
X64735354Y-51735356D01*
X64727777Y-51741574D01*
X64719134Y-51746197D01*
X64709754Y-51749042D01*
X64700000Y-51750002D01*
X64600000Y-51750002D01*
X64590247Y-51749042D01*
X64580866Y-51746197D01*
X64572223Y-51741574D01*
X64564646Y-51735356D01*
X64558428Y-51727779D01*
X64553805Y-51719136D01*
X64550960Y-51709755D01*
X64550000Y-51700002D01*
X64550000Y-50950001D01*
X64550960Y-50940247D01*
X64553805Y-50930867D01*
X64558428Y-50922223D01*
X64564646Y-50914646D01*
X64572223Y-50908429D01*
X64580866Y-50903806D01*
X64590247Y-50900961D01*
X64600000Y-50900001D01*
X64700000Y-50900001D01*
X64709754Y-50900961D01*
G37*
G36*
X42709754Y-50900961D02*
G01*
X42719134Y-50903806D01*
X42727777Y-50908429D01*
X42735354Y-50914646D01*
X42741572Y-50922223D01*
X42746195Y-50930867D01*
X42749040Y-50940247D01*
X42750000Y-50950001D01*
X42750000Y-51700002D01*
X42749040Y-51709755D01*
X42746195Y-51719136D01*
X42741572Y-51727779D01*
X42735354Y-51735356D01*
X42727777Y-51741574D01*
X42719134Y-51746197D01*
X42709754Y-51749042D01*
X42700000Y-51750002D01*
X42600000Y-51750002D01*
X42590247Y-51749042D01*
X42580866Y-51746197D01*
X42572223Y-51741574D01*
X42564646Y-51735356D01*
X42558428Y-51727779D01*
X42553805Y-51719136D01*
X42550960Y-51709755D01*
X42550000Y-51700002D01*
X42550000Y-50950001D01*
X42550960Y-50940247D01*
X42553805Y-50930867D01*
X42558428Y-50922223D01*
X42564646Y-50914646D01*
X42572223Y-50908429D01*
X42580866Y-50903806D01*
X42590247Y-50900961D01*
X42600000Y-50900001D01*
X42700000Y-50900001D01*
X42709754Y-50900961D01*
G37*
G36*
X43209753Y-50900961D02*
G01*
X43219133Y-50903806D01*
X43227776Y-50908429D01*
X43235353Y-50914646D01*
X43241571Y-50922223D01*
X43246194Y-50930867D01*
X43249039Y-50940247D01*
X43249999Y-50950001D01*
X43249999Y-51700002D01*
X43249039Y-51709755D01*
X43246194Y-51719136D01*
X43241571Y-51727779D01*
X43235353Y-51735356D01*
X43227776Y-51741574D01*
X43219133Y-51746197D01*
X43209753Y-51749042D01*
X43199999Y-51750002D01*
X43099999Y-51750002D01*
X43090245Y-51749042D01*
X43080865Y-51746197D01*
X43072222Y-51741574D01*
X43064645Y-51735356D01*
X43058427Y-51727779D01*
X43053804Y-51719136D01*
X43050959Y-51709755D01*
X43049999Y-51700002D01*
X43049999Y-50950001D01*
X43050959Y-50940247D01*
X43053804Y-50930867D01*
X43058427Y-50922223D01*
X43064645Y-50914646D01*
X43072222Y-50908429D01*
X43080865Y-50903806D01*
X43090245Y-50900961D01*
X43099999Y-50900001D01*
X43199999Y-50900001D01*
X43209753Y-50900961D01*
G37*
G36*
X43709751Y-50900961D02*
G01*
X43719132Y-50903806D01*
X43727775Y-50908429D01*
X43735352Y-50914646D01*
X43741570Y-50922223D01*
X43746193Y-50930867D01*
X43749038Y-50940247D01*
X43749998Y-50950001D01*
X43749998Y-51700002D01*
X43749038Y-51709755D01*
X43746193Y-51719136D01*
X43741570Y-51727779D01*
X43735352Y-51735356D01*
X43727775Y-51741574D01*
X43719132Y-51746197D01*
X43709751Y-51749042D01*
X43699998Y-51750002D01*
X43599998Y-51750002D01*
X43590244Y-51749042D01*
X43580864Y-51746197D01*
X43572221Y-51741574D01*
X43564644Y-51735356D01*
X43558426Y-51727779D01*
X43553803Y-51719136D01*
X43550958Y-51709755D01*
X43549998Y-51700002D01*
X43549998Y-50950001D01*
X43550958Y-50940247D01*
X43553803Y-50930867D01*
X43558426Y-50922223D01*
X43564644Y-50914646D01*
X43572221Y-50908429D01*
X43580864Y-50903806D01*
X43590244Y-50900961D01*
X43599998Y-50900001D01*
X43699998Y-50900001D01*
X43709751Y-50900961D01*
G37*
D11*
X104340000Y-96000000D03*
X105360000Y-96000000D03*
D12*
X109925000Y-110700000D03*
X108375000Y-110700000D03*
D13*
X106350000Y-112325000D03*
X106350000Y-110775000D03*
D14*
X105350000Y-99325000D03*
X104390000Y-99325000D03*
D15*
X106200000Y-101525000D03*
X104950000Y-101525000D03*
X106200000Y-102375000D03*
X104950000Y-102375000D03*
D16*
X106700000Y-100500000D03*
X106250000Y-100500000D03*
X105800000Y-100500000D03*
X105350000Y-100500000D03*
X104900000Y-100500000D03*
X104450000Y-100500000D03*
X104450000Y-103400000D03*
X104900000Y-103400000D03*
X105350000Y-103400000D03*
X105800000Y-103400000D03*
X106250000Y-103400000D03*
X106700000Y-103400000D03*
D11*
X108990000Y-103800000D03*
X110010000Y-103800000D03*
D17*
X111530000Y-105150000D03*
X111530000Y-104150000D03*
X111530000Y-103150000D03*
X111530000Y-102150000D03*
X111530000Y-100650000D03*
X111530000Y-99650000D03*
X111530000Y-98650000D03*
X111530000Y-97650000D03*
X111530000Y-98150000D03*
X111530000Y-99150000D03*
X111530000Y-100150000D03*
X111530000Y-101150000D03*
X111530000Y-101650000D03*
X111530000Y-102650000D03*
X111530000Y-103650000D03*
X111530000Y-104650000D03*
X111530000Y-105650000D03*
X111530000Y-97150000D03*
D18*
X106497787Y-95054867D03*
X108072787Y-95054867D03*
D19*
X108345796Y-106960662D03*
X108345796Y-106000662D03*
D20*
X109125000Y-112500000D03*
X107675000Y-112500000D03*
D21*
X109649998Y-108150000D03*
X109149999Y-108150000D03*
X108650000Y-108150000D03*
D14*
X109480000Y-100300000D03*
X108520000Y-100300000D03*
D22*
X105360000Y-95000000D03*
X104340000Y-95000000D03*
X110060000Y-99150000D03*
X109040000Y-99150000D03*
D23*
X109800000Y-102475000D03*
D24*
X109875000Y-101937500D03*
D23*
X109800000Y-101400000D03*
X108100000Y-101400000D03*
D24*
X108025000Y-101937500D03*
D23*
X108100000Y-102475000D03*
D25*
X109312500Y-97700000D03*
X107187500Y-97700000D03*
D26*
X104390000Y-98325000D03*
X105350000Y-98325000D03*
X104390000Y-97325000D03*
X105350000Y-97325000D03*
D13*
X104850000Y-112325000D03*
X104850000Y-110775000D03*
D11*
X82340000Y-96000000D03*
X83360000Y-96000000D03*
D12*
X87925000Y-110700000D03*
X86375000Y-110700000D03*
D13*
X84350000Y-112325000D03*
X84350000Y-110775000D03*
D14*
X83350000Y-99325000D03*
X82390000Y-99325000D03*
D15*
X84200000Y-101525000D03*
X82950000Y-101525000D03*
X84200000Y-102375000D03*
X82950000Y-102375000D03*
D16*
X84700000Y-100500000D03*
X84250000Y-100500000D03*
X83800000Y-100500000D03*
X83350000Y-100500000D03*
X82900000Y-100500000D03*
X82450000Y-100500000D03*
X82450000Y-103400000D03*
X82900000Y-103400000D03*
X83350000Y-103400000D03*
X83800000Y-103400000D03*
X84250000Y-103400000D03*
X84700000Y-103400000D03*
D11*
X86990000Y-103800000D03*
X88010000Y-103800000D03*
D17*
X89530000Y-105150000D03*
X89530000Y-104150000D03*
X89530000Y-103150000D03*
X89530000Y-102150000D03*
X89530000Y-100650000D03*
X89530000Y-99650000D03*
X89530000Y-98650000D03*
X89530000Y-97650000D03*
X89530000Y-98150000D03*
X89530000Y-99150000D03*
X89530000Y-100150000D03*
X89530000Y-101150000D03*
X89530000Y-101650000D03*
X89530000Y-102650000D03*
X89530000Y-103650000D03*
X89530000Y-104650000D03*
X89530000Y-105650000D03*
X89530000Y-97150000D03*
D18*
X84497787Y-95054867D03*
X86072787Y-95054867D03*
D19*
X86345796Y-106960662D03*
X86345796Y-106000662D03*
D20*
X87125000Y-112500000D03*
X85675000Y-112500000D03*
D21*
X87649998Y-108150000D03*
X87149999Y-108150000D03*
X86650000Y-108150000D03*
D14*
X87480000Y-100300000D03*
X86520000Y-100300000D03*
D22*
X83360000Y-95000000D03*
X82340000Y-95000000D03*
X88060000Y-99150000D03*
X87040000Y-99150000D03*
D11*
X60340000Y-96000000D03*
X61360000Y-96000000D03*
D12*
X65925000Y-110700000D03*
X64375000Y-110700000D03*
D13*
X62350000Y-112325000D03*
X62350000Y-110775000D03*
D14*
X61350000Y-99325000D03*
X60390000Y-99325000D03*
D15*
X62200000Y-101525000D03*
X60950000Y-101525000D03*
X62200000Y-102375000D03*
X60950000Y-102375000D03*
D16*
X62700000Y-100500000D03*
X62250000Y-100500000D03*
X61800000Y-100500000D03*
X61350000Y-100500000D03*
X60900000Y-100500000D03*
X60450000Y-100500000D03*
X60450000Y-103400000D03*
X60900000Y-103400000D03*
X61350000Y-103400000D03*
X61800000Y-103400000D03*
X62250000Y-103400000D03*
X62700000Y-103400000D03*
D11*
X64990000Y-103800000D03*
X66010000Y-103800000D03*
D17*
X67530000Y-105150000D03*
X67530000Y-104150000D03*
X67530000Y-103150000D03*
X67530000Y-102150000D03*
X67530000Y-100650000D03*
X67530000Y-99650000D03*
X67530000Y-98650000D03*
X67530000Y-97650000D03*
X67530000Y-98150000D03*
X67530000Y-99150000D03*
X67530000Y-100150000D03*
X67530000Y-101150000D03*
X67530000Y-101650000D03*
X67530000Y-102650000D03*
X67530000Y-103650000D03*
X67530000Y-104650000D03*
X67530000Y-105650000D03*
X67530000Y-97150000D03*
D18*
X62497787Y-95054867D03*
X64072787Y-95054867D03*
D19*
X64345796Y-106960662D03*
X64345796Y-106000662D03*
D23*
X87800000Y-102475000D03*
D24*
X87875000Y-101937500D03*
D23*
X87800000Y-101400000D03*
X86100000Y-101400000D03*
D24*
X86025000Y-101937500D03*
D23*
X86100000Y-102475000D03*
D25*
X87312500Y-97700000D03*
X85187500Y-97700000D03*
D26*
X82390000Y-98325000D03*
X83350000Y-98325000D03*
D27*
X103850000Y-104670000D03*
X103850000Y-105630000D03*
D26*
X82390000Y-97325000D03*
X83350000Y-97325000D03*
D13*
X82850000Y-112325000D03*
X82850000Y-110775000D03*
D28*
X107095796Y-105305662D03*
X106445796Y-105305662D03*
X105795796Y-105305662D03*
X105145796Y-105305662D03*
X105145796Y-107580662D03*
X105795796Y-107580662D03*
X106445796Y-107580662D03*
X107095796Y-107580662D03*
D20*
X65125000Y-112500000D03*
X63675000Y-112500000D03*
D21*
X65649998Y-108150000D03*
X65149999Y-108150000D03*
X64650000Y-108150000D03*
D20*
X43125000Y-112500000D03*
X41675000Y-112500000D03*
D11*
X38340000Y-96000000D03*
X39360000Y-96000000D03*
D12*
X43925000Y-110700000D03*
X42375000Y-110700000D03*
D13*
X40350000Y-112325000D03*
X40350000Y-110775000D03*
D14*
X39350000Y-99325000D03*
X38390000Y-99325000D03*
D15*
X40200000Y-101525000D03*
X38950000Y-101525000D03*
X40200000Y-102375000D03*
X38950000Y-102375000D03*
D16*
X40700000Y-100500000D03*
X40250000Y-100500000D03*
X39800000Y-100500000D03*
X39350000Y-100500000D03*
X38900000Y-100500000D03*
X38450000Y-100500000D03*
X38450000Y-103400000D03*
X38900000Y-103400000D03*
X39350000Y-103400000D03*
X39800000Y-103400000D03*
X40250000Y-103400000D03*
X40700000Y-103400000D03*
D11*
X42990000Y-103800000D03*
X44010000Y-103800000D03*
D17*
X45530000Y-105150000D03*
X45530000Y-104150000D03*
X45530000Y-103150000D03*
X45530000Y-102150000D03*
X45530000Y-100650000D03*
X45530000Y-99650000D03*
X45530000Y-98650000D03*
X45530000Y-97650000D03*
X45530000Y-98150000D03*
X45530000Y-99150000D03*
X45530000Y-100150000D03*
X45530000Y-101150000D03*
X45530000Y-101650000D03*
X45530000Y-102650000D03*
X45530000Y-103650000D03*
X45530000Y-104650000D03*
X45530000Y-105650000D03*
X45530000Y-97150000D03*
D18*
X40497787Y-95054867D03*
X42072787Y-95054867D03*
D19*
X42345796Y-106960662D03*
X42345796Y-106000662D03*
D22*
X44060000Y-99150000D03*
X43040000Y-99150000D03*
D28*
X41095796Y-105305662D03*
X40445796Y-105305662D03*
X39795796Y-105305662D03*
X39145796Y-105305662D03*
X39145796Y-107580662D03*
X39795796Y-107580662D03*
X40445796Y-107580662D03*
X41095796Y-107580662D03*
D27*
X37850000Y-104670000D03*
X37850000Y-105630000D03*
D23*
X43800000Y-102475000D03*
D24*
X43875000Y-101937500D03*
D23*
X43800000Y-101400000D03*
X42100000Y-101400000D03*
D24*
X42025000Y-101937500D03*
D23*
X42100000Y-102475000D03*
D25*
X43312500Y-97700000D03*
X41187500Y-97700000D03*
D26*
X38390000Y-98325000D03*
X39350000Y-98325000D03*
D13*
X38850000Y-112325000D03*
X38850000Y-110775000D03*
D26*
X38390000Y-97325000D03*
X39350000Y-97325000D03*
D21*
X43649998Y-108150000D03*
X43149999Y-108150000D03*
X42650000Y-108150000D03*
D14*
X43480000Y-100300000D03*
X42520000Y-100300000D03*
D22*
X39360000Y-95000000D03*
X38340000Y-95000000D03*
D14*
X65480000Y-100300000D03*
X64520000Y-100300000D03*
D22*
X61360000Y-95000000D03*
X60340000Y-95000000D03*
D28*
X85095796Y-105305662D03*
X84445796Y-105305662D03*
X83795796Y-105305662D03*
X83145796Y-105305662D03*
X83145796Y-107580662D03*
X83795796Y-107580662D03*
X84445796Y-107580662D03*
X85095796Y-107580662D03*
D27*
X81850000Y-104670000D03*
X81850000Y-105630000D03*
D22*
X66060000Y-99150000D03*
X65040000Y-99150000D03*
D28*
X63095796Y-105305662D03*
X62445796Y-105305662D03*
X61795796Y-105305662D03*
X61145796Y-105305662D03*
X61145796Y-107580662D03*
X61795796Y-107580662D03*
X62445796Y-107580662D03*
X63095796Y-107580662D03*
D27*
X59850000Y-104670000D03*
X59850000Y-105630000D03*
D26*
X60390000Y-98325000D03*
X61350000Y-98325000D03*
D13*
X60850000Y-112325000D03*
X60850000Y-110775000D03*
D26*
X60390000Y-97325000D03*
X61350000Y-97325000D03*
D23*
X65800000Y-102475000D03*
D24*
X65875000Y-101937500D03*
D23*
X65800000Y-101400000D03*
X64100000Y-101400000D03*
D24*
X64025000Y-101937500D03*
D23*
X64100000Y-102475000D03*
D25*
X65312500Y-97700000D03*
X63187500Y-97700000D03*
D11*
X105360000Y-67000000D03*
X104340000Y-67000000D03*
D12*
X108375000Y-81700000D03*
X109925000Y-81700000D03*
D13*
X106350000Y-81775000D03*
X106350000Y-83325000D03*
D14*
X104390000Y-70325000D03*
X105350000Y-70325000D03*
D16*
X106700000Y-74400000D03*
X106250000Y-74400000D03*
X105800000Y-74400000D03*
X105350000Y-74400000D03*
X104900000Y-74400000D03*
X104450000Y-74400000D03*
X104450000Y-71500000D03*
X104900000Y-71500000D03*
X105350000Y-71500000D03*
X105800000Y-71500000D03*
X106250000Y-71500000D03*
X106700000Y-71500000D03*
D15*
X104950000Y-73375000D03*
X106200000Y-73375000D03*
X104950000Y-72525000D03*
X106200000Y-72525000D03*
D11*
X110010000Y-74800000D03*
X108990000Y-74800000D03*
D17*
X111530000Y-68150000D03*
X111530000Y-76650000D03*
X111530000Y-75650000D03*
X111530000Y-74650000D03*
X111530000Y-73650000D03*
X111530000Y-72650000D03*
X111530000Y-72150000D03*
X111530000Y-71150000D03*
X111530000Y-70150000D03*
X111530000Y-69150000D03*
X111530000Y-68650000D03*
X111530000Y-69650000D03*
X111530000Y-70650000D03*
X111530000Y-71650000D03*
X111530000Y-73150000D03*
X111530000Y-74150000D03*
X111530000Y-75150000D03*
X111530000Y-76150000D03*
D18*
X108072787Y-66054867D03*
X106497787Y-66054867D03*
D19*
X108345796Y-77000662D03*
X108345796Y-77960662D03*
D20*
X107675000Y-83500000D03*
X109125000Y-83500000D03*
D21*
X108650000Y-79150000D03*
X109149999Y-79150000D03*
X109649998Y-79150000D03*
D14*
X108520000Y-71300000D03*
X109480000Y-71300000D03*
D22*
X104340000Y-66000000D03*
X105360000Y-66000000D03*
X109040000Y-70150000D03*
X110060000Y-70150000D03*
D23*
X108100000Y-73475000D03*
D24*
X108025000Y-72937500D03*
D23*
X108100000Y-72400000D03*
X109800000Y-72400000D03*
D24*
X109875000Y-72937500D03*
D23*
X109800000Y-73475000D03*
D25*
X107187500Y-68700000D03*
X109312500Y-68700000D03*
D26*
X105350000Y-69325000D03*
X104390000Y-69325000D03*
X105350000Y-68325000D03*
X104390000Y-68325000D03*
D13*
X104850000Y-81775000D03*
X104850000Y-83325000D03*
D11*
X83360000Y-67000000D03*
X82340000Y-67000000D03*
D12*
X86375000Y-81700000D03*
X87925000Y-81700000D03*
D13*
X84350000Y-81775000D03*
X84350000Y-83325000D03*
D14*
X82390000Y-70325000D03*
X83350000Y-70325000D03*
D16*
X84700000Y-74400000D03*
X84250000Y-74400000D03*
X83800000Y-74400000D03*
X83350000Y-74400000D03*
X82900000Y-74400000D03*
X82450000Y-74400000D03*
X82450000Y-71500000D03*
X82900000Y-71500000D03*
X83350000Y-71500000D03*
X83800000Y-71500000D03*
X84250000Y-71500000D03*
X84700000Y-71500000D03*
D15*
X82950000Y-73375000D03*
X84200000Y-73375000D03*
X82950000Y-72525000D03*
X84200000Y-72525000D03*
D11*
X88010000Y-74800000D03*
X86990000Y-74800000D03*
D17*
X89530000Y-68150000D03*
X89530000Y-76650000D03*
X89530000Y-75650000D03*
X89530000Y-74650000D03*
X89530000Y-73650000D03*
X89530000Y-72650000D03*
X89530000Y-72150000D03*
X89530000Y-71150000D03*
X89530000Y-70150000D03*
X89530000Y-69150000D03*
X89530000Y-68650000D03*
X89530000Y-69650000D03*
X89530000Y-70650000D03*
X89530000Y-71650000D03*
X89530000Y-73150000D03*
X89530000Y-74150000D03*
X89530000Y-75150000D03*
X89530000Y-76150000D03*
D18*
X86072787Y-66054867D03*
X84497787Y-66054867D03*
D19*
X86345796Y-77000662D03*
X86345796Y-77960662D03*
D20*
X85675000Y-83500000D03*
X87125000Y-83500000D03*
D21*
X86650000Y-79150000D03*
X87149999Y-79150000D03*
X87649998Y-79150000D03*
D14*
X86520000Y-71300000D03*
X87480000Y-71300000D03*
D22*
X82340000Y-66000000D03*
X83360000Y-66000000D03*
X87040000Y-70150000D03*
X88060000Y-70150000D03*
D11*
X61360000Y-67000000D03*
X60340000Y-67000000D03*
D12*
X64375000Y-81700000D03*
X65925000Y-81700000D03*
D13*
X62350000Y-81775000D03*
X62350000Y-83325000D03*
D14*
X60390000Y-70325000D03*
X61350000Y-70325000D03*
D16*
X62700000Y-74400000D03*
X62250000Y-74400000D03*
X61800000Y-74400000D03*
X61350000Y-74400000D03*
X60900000Y-74400000D03*
X60450000Y-74400000D03*
X60450000Y-71500000D03*
X60900000Y-71500000D03*
X61350000Y-71500000D03*
X61800000Y-71500000D03*
X62250000Y-71500000D03*
X62700000Y-71500000D03*
D15*
X60950000Y-73375000D03*
X62200000Y-73375000D03*
X60950000Y-72525000D03*
X62200000Y-72525000D03*
D11*
X66010000Y-74800000D03*
X64990000Y-74800000D03*
D17*
X67530000Y-68150000D03*
X67530000Y-76650000D03*
X67530000Y-75650000D03*
X67530000Y-74650000D03*
X67530000Y-73650000D03*
X67530000Y-72650000D03*
X67530000Y-72150000D03*
X67530000Y-71150000D03*
X67530000Y-70150000D03*
X67530000Y-69150000D03*
X67530000Y-68650000D03*
X67530000Y-69650000D03*
X67530000Y-70650000D03*
X67530000Y-71650000D03*
X67530000Y-73150000D03*
X67530000Y-74150000D03*
X67530000Y-75150000D03*
X67530000Y-76150000D03*
D18*
X64072787Y-66054867D03*
X62497787Y-66054867D03*
D19*
X64345796Y-77000662D03*
X64345796Y-77960662D03*
D23*
X86100000Y-73475000D03*
D24*
X86025000Y-72937500D03*
D23*
X86100000Y-72400000D03*
X87800000Y-72400000D03*
D24*
X87875000Y-72937500D03*
D23*
X87800000Y-73475000D03*
D25*
X85187500Y-68700000D03*
X87312500Y-68700000D03*
D26*
X83350000Y-69325000D03*
X82390000Y-69325000D03*
D27*
X103850000Y-76630000D03*
X103850000Y-75670000D03*
D26*
X83350000Y-68325000D03*
X82390000Y-68325000D03*
D13*
X82850000Y-81775000D03*
X82850000Y-83325000D03*
D28*
X107095796Y-78580662D03*
X106445796Y-78580662D03*
X105795796Y-78580662D03*
X105145796Y-78580662D03*
X105145796Y-76305662D03*
X105795796Y-76305662D03*
X106445796Y-76305662D03*
X107095796Y-76305662D03*
D20*
X63675000Y-83500000D03*
X65125000Y-83500000D03*
D21*
X64650000Y-79150000D03*
X65149999Y-79150000D03*
X65649998Y-79150000D03*
D20*
X41675000Y-83500000D03*
X43125000Y-83500000D03*
D11*
X39360000Y-67000000D03*
X38340000Y-67000000D03*
D12*
X42375000Y-81700000D03*
X43925000Y-81700000D03*
D13*
X40350000Y-81775000D03*
X40350000Y-83325000D03*
D14*
X38390000Y-70325000D03*
X39350000Y-70325000D03*
D16*
X40700000Y-74400000D03*
X40250000Y-74400000D03*
X39800000Y-74400000D03*
X39350000Y-74400000D03*
X38900000Y-74400000D03*
X38450000Y-74400000D03*
X38450000Y-71500000D03*
X38900000Y-71500000D03*
X39350000Y-71500000D03*
X39800000Y-71500000D03*
X40250000Y-71500000D03*
X40700000Y-71500000D03*
D15*
X38950000Y-73375000D03*
X40200000Y-73375000D03*
X38950000Y-72525000D03*
X40200000Y-72525000D03*
D11*
X44010000Y-74800000D03*
X42990000Y-74800000D03*
D17*
X45530000Y-68150000D03*
X45530000Y-76650000D03*
X45530000Y-75650000D03*
X45530000Y-74650000D03*
X45530000Y-73650000D03*
X45530000Y-72650000D03*
X45530000Y-72150000D03*
X45530000Y-71150000D03*
X45530000Y-70150000D03*
X45530000Y-69150000D03*
X45530000Y-68650000D03*
X45530000Y-69650000D03*
X45530000Y-70650000D03*
X45530000Y-71650000D03*
X45530000Y-73150000D03*
X45530000Y-74150000D03*
X45530000Y-75150000D03*
X45530000Y-76150000D03*
D18*
X42072787Y-66054867D03*
X40497787Y-66054867D03*
D19*
X42345796Y-77000662D03*
X42345796Y-77960662D03*
D22*
X43040000Y-70150000D03*
X44060000Y-70150000D03*
D28*
X41095796Y-78580662D03*
X40445796Y-78580662D03*
X39795796Y-78580662D03*
X39145796Y-78580662D03*
X39145796Y-76305662D03*
X39795796Y-76305662D03*
X40445796Y-76305662D03*
X41095796Y-76305662D03*
D27*
X37850000Y-76630000D03*
X37850000Y-75670000D03*
D23*
X42100000Y-73475000D03*
D24*
X42025000Y-72937500D03*
D23*
X42100000Y-72400000D03*
X43800000Y-72400000D03*
D24*
X43875000Y-72937500D03*
D23*
X43800000Y-73475000D03*
D25*
X41187500Y-68700000D03*
X43312500Y-68700000D03*
D26*
X39350000Y-69325000D03*
X38390000Y-69325000D03*
D13*
X38850000Y-81775000D03*
X38850000Y-83325000D03*
D26*
X39350000Y-68325000D03*
X38390000Y-68325000D03*
D21*
X42650000Y-79150000D03*
X43149999Y-79150000D03*
X43649998Y-79150000D03*
D14*
X42520000Y-71300000D03*
X43480000Y-71300000D03*
D22*
X38340000Y-66000000D03*
X39360000Y-66000000D03*
D14*
X64520000Y-71300000D03*
X65480000Y-71300000D03*
D22*
X60340000Y-66000000D03*
X61360000Y-66000000D03*
D28*
X85095796Y-78580662D03*
X84445796Y-78580662D03*
X83795796Y-78580662D03*
X83145796Y-78580662D03*
X83145796Y-76305662D03*
X83795796Y-76305662D03*
X84445796Y-76305662D03*
X85095796Y-76305662D03*
D27*
X81850000Y-76630000D03*
X81850000Y-75670000D03*
D22*
X65040000Y-70150000D03*
X66060000Y-70150000D03*
D28*
X63095796Y-78580662D03*
X62445796Y-78580662D03*
X61795796Y-78580662D03*
X61145796Y-78580662D03*
X61145796Y-76305662D03*
X61795796Y-76305662D03*
X62445796Y-76305662D03*
X63095796Y-76305662D03*
D27*
X59850000Y-76630000D03*
X59850000Y-75670000D03*
D23*
X64100000Y-73475000D03*
D24*
X64025000Y-72937500D03*
D23*
X64100000Y-72400000D03*
X65800000Y-72400000D03*
D24*
X65875000Y-72937500D03*
D23*
X65800000Y-73475000D03*
D25*
X63187500Y-68700000D03*
X65312500Y-68700000D03*
D26*
X61350000Y-69325000D03*
X60390000Y-69325000D03*
D13*
X60850000Y-81775000D03*
X60850000Y-83325000D03*
D26*
X61350000Y-68325000D03*
X60390000Y-68325000D03*
D11*
X104340000Y-38000000D03*
X105360000Y-38000000D03*
D12*
X109925000Y-52700000D03*
X108375000Y-52700000D03*
D13*
X106350000Y-54325000D03*
X106350000Y-52775000D03*
D14*
X105350000Y-41325000D03*
X104390000Y-41325000D03*
D15*
X106200000Y-43525000D03*
X104950000Y-43525000D03*
X106200000Y-44375000D03*
X104950000Y-44375000D03*
D16*
X106700000Y-42500000D03*
X106250000Y-42500000D03*
X105800000Y-42500000D03*
X105350000Y-42500000D03*
X104900000Y-42500000D03*
X104450000Y-42500000D03*
X104450000Y-45400000D03*
X104900000Y-45400000D03*
X105350000Y-45400000D03*
X105800000Y-45400000D03*
X106250000Y-45400000D03*
X106700000Y-45400000D03*
D11*
X108990000Y-45800000D03*
X110010000Y-45800000D03*
D17*
X111530000Y-47150000D03*
X111530000Y-46150000D03*
X111530000Y-45150000D03*
X111530000Y-44150000D03*
X111530000Y-42650000D03*
X111530000Y-41650000D03*
X111530000Y-40650000D03*
X111530000Y-39650000D03*
X111530000Y-40150000D03*
X111530000Y-41150000D03*
X111530000Y-42150000D03*
X111530000Y-43150000D03*
X111530000Y-43650000D03*
X111530000Y-44650000D03*
X111530000Y-45650000D03*
X111530000Y-46650000D03*
X111530000Y-47650000D03*
X111530000Y-39150000D03*
D18*
X106497787Y-37054867D03*
X108072787Y-37054867D03*
D19*
X108345796Y-48960662D03*
X108345796Y-48000662D03*
D20*
X109125000Y-54500000D03*
X107675000Y-54500000D03*
D21*
X109649998Y-50150000D03*
X109149999Y-50150000D03*
X108650000Y-50150000D03*
D14*
X109480000Y-42300000D03*
X108520000Y-42300000D03*
D22*
X105360000Y-37000000D03*
X104340000Y-37000000D03*
X110060000Y-41150000D03*
X109040000Y-41150000D03*
D23*
X109800000Y-44475000D03*
D24*
X109875000Y-43937500D03*
D23*
X109800000Y-43400000D03*
X108100000Y-43400000D03*
D24*
X108025000Y-43937500D03*
D23*
X108100000Y-44475000D03*
D25*
X109312500Y-39700000D03*
X107187500Y-39700000D03*
D26*
X104390000Y-40325000D03*
X105350000Y-40325000D03*
X104390000Y-39325000D03*
X105350000Y-39325000D03*
D13*
X104850000Y-54325000D03*
X104850000Y-52775000D03*
D28*
X107095796Y-47305662D03*
X106445796Y-47305662D03*
X105795796Y-47305662D03*
X105145796Y-47305662D03*
X105145796Y-49580662D03*
X105795796Y-49580662D03*
X106445796Y-49580662D03*
X107095796Y-49580662D03*
D27*
X103850000Y-46670000D03*
X103850000Y-47630000D03*
D11*
X82340000Y-38000000D03*
X83360000Y-38000000D03*
D12*
X87925000Y-52700000D03*
X86375000Y-52700000D03*
D13*
X84350000Y-54325000D03*
X84350000Y-52775000D03*
D14*
X83350000Y-41325000D03*
X82390000Y-41325000D03*
D15*
X84200000Y-43525000D03*
X82950000Y-43525000D03*
X84200000Y-44375000D03*
X82950000Y-44375000D03*
D16*
X84700000Y-42500000D03*
X84250000Y-42500000D03*
X83800000Y-42500000D03*
X83350000Y-42500000D03*
X82900000Y-42500000D03*
X82450000Y-42500000D03*
X82450000Y-45400000D03*
X82900000Y-45400000D03*
X83350000Y-45400000D03*
X83800000Y-45400000D03*
X84250000Y-45400000D03*
X84700000Y-45400000D03*
D11*
X86990000Y-45800000D03*
X88010000Y-45800000D03*
D17*
X89530000Y-47150000D03*
X89530000Y-46150000D03*
X89530000Y-45150000D03*
X89530000Y-44150000D03*
X89530000Y-42650000D03*
X89530000Y-41650000D03*
X89530000Y-40650000D03*
X89530000Y-39650000D03*
X89530000Y-40150000D03*
X89530000Y-41150000D03*
X89530000Y-42150000D03*
X89530000Y-43150000D03*
X89530000Y-43650000D03*
X89530000Y-44650000D03*
X89530000Y-45650000D03*
X89530000Y-46650000D03*
X89530000Y-47650000D03*
X89530000Y-39150000D03*
D18*
X84497787Y-37054867D03*
X86072787Y-37054867D03*
D19*
X86345796Y-48960662D03*
X86345796Y-48000662D03*
D20*
X87125000Y-54500000D03*
X85675000Y-54500000D03*
D21*
X87649998Y-50150000D03*
X87149999Y-50150000D03*
X86650000Y-50150000D03*
D14*
X87480000Y-42300000D03*
X86520000Y-42300000D03*
D22*
X83360000Y-37000000D03*
X82340000Y-37000000D03*
X88060000Y-41150000D03*
X87040000Y-41150000D03*
D28*
X85095796Y-47305662D03*
X84445796Y-47305662D03*
X83795796Y-47305662D03*
X83145796Y-47305662D03*
X83145796Y-49580662D03*
X83795796Y-49580662D03*
X84445796Y-49580662D03*
X85095796Y-49580662D03*
D27*
X81850000Y-46670000D03*
X81850000Y-47630000D03*
D23*
X87800000Y-44475000D03*
D24*
X87875000Y-43937500D03*
D23*
X87800000Y-43400000D03*
X86100000Y-43400000D03*
D24*
X86025000Y-43937500D03*
D23*
X86100000Y-44475000D03*
D25*
X87312500Y-39700000D03*
X85187500Y-39700000D03*
D26*
X82390000Y-40325000D03*
X83350000Y-40325000D03*
D13*
X82850000Y-54325000D03*
X82850000Y-52775000D03*
D26*
X82390000Y-39325000D03*
X83350000Y-39325000D03*
D20*
X63675000Y-54500000D03*
X65125000Y-54500000D03*
D11*
X61360000Y-38000000D03*
X60340000Y-38000000D03*
D12*
X64375000Y-52700000D03*
X65925000Y-52700000D03*
D13*
X62350000Y-52775000D03*
X62350000Y-54325000D03*
D14*
X60390000Y-41325000D03*
X61350000Y-41325000D03*
D16*
X62700000Y-45400000D03*
X62250000Y-45400000D03*
X61800000Y-45400000D03*
X61350000Y-45400000D03*
X60900000Y-45400000D03*
X60450000Y-45400000D03*
X60450000Y-42500000D03*
X60900000Y-42500000D03*
X61350000Y-42500000D03*
X61800000Y-42500000D03*
X62250000Y-42500000D03*
X62700000Y-42500000D03*
D15*
X60950000Y-44375000D03*
X62200000Y-44375000D03*
X60950000Y-43525000D03*
X62200000Y-43525000D03*
D11*
X66010000Y-45800000D03*
X64990000Y-45800000D03*
D17*
X67530000Y-39150000D03*
X67530000Y-47650000D03*
X67530000Y-46650000D03*
X67530000Y-45650000D03*
X67530000Y-44650000D03*
X67530000Y-43650000D03*
X67530000Y-43150000D03*
X67530000Y-42150000D03*
X67530000Y-41150000D03*
X67530000Y-40150000D03*
X67530000Y-39650000D03*
X67530000Y-40650000D03*
X67530000Y-41650000D03*
X67530000Y-42650000D03*
X67530000Y-44150000D03*
X67530000Y-45150000D03*
X67530000Y-46150000D03*
X67530000Y-47150000D03*
D18*
X64072787Y-37054867D03*
X62497787Y-37054867D03*
D19*
X64345796Y-48000662D03*
X64345796Y-48960662D03*
D22*
X65040000Y-41150000D03*
X66060000Y-41150000D03*
D28*
X63095796Y-49580662D03*
X62445796Y-49580662D03*
X61795796Y-49580662D03*
X61145796Y-49580662D03*
X61145796Y-47305662D03*
X61795796Y-47305662D03*
X62445796Y-47305662D03*
X63095796Y-47305662D03*
D27*
X59850000Y-47630000D03*
X59850000Y-46670000D03*
D23*
X64100000Y-44475000D03*
D24*
X64025000Y-43937500D03*
D23*
X64100000Y-43400000D03*
X65800000Y-43400000D03*
D24*
X65875000Y-43937500D03*
D23*
X65800000Y-44475000D03*
D25*
X63187500Y-39700000D03*
X65312500Y-39700000D03*
D26*
X61350000Y-40325000D03*
X60390000Y-40325000D03*
D13*
X60850000Y-52775000D03*
X60850000Y-54325000D03*
D26*
X61350000Y-39325000D03*
X60390000Y-39325000D03*
D21*
X64650000Y-50150000D03*
X65149999Y-50150000D03*
X65649998Y-50150000D03*
D14*
X64520000Y-42300000D03*
X65480000Y-42300000D03*
D22*
X60340000Y-37000000D03*
X61360000Y-37000000D03*
X39360000Y-37000000D03*
X38340000Y-37000000D03*
D14*
X43480000Y-42300000D03*
X42520000Y-42300000D03*
D21*
X43649998Y-50150000D03*
X43149999Y-50150000D03*
X42650000Y-50150000D03*
D26*
X38390000Y-39325000D03*
X39350000Y-39325000D03*
D13*
X38850000Y-54325000D03*
X38850000Y-52775000D03*
D26*
X38390000Y-40325000D03*
X39350000Y-40325000D03*
D25*
X43312500Y-39700000D03*
X41187500Y-39700000D03*
D23*
X43800000Y-44475000D03*
D24*
X43875000Y-43937500D03*
D23*
X43800000Y-43400000D03*
X42100000Y-43400000D03*
D24*
X42025000Y-43937500D03*
D23*
X42100000Y-44475000D03*
D27*
X37850000Y-46670000D03*
X37850000Y-47630000D03*
D28*
X41095796Y-47305662D03*
X40445796Y-47305662D03*
X39795796Y-47305662D03*
X39145796Y-47305662D03*
X39145796Y-49580662D03*
X39795796Y-49580662D03*
X40445796Y-49580662D03*
X41095796Y-49580662D03*
D22*
X44060000Y-41150000D03*
X43040000Y-41150000D03*
D19*
X42345796Y-48960662D03*
X42345796Y-48000662D03*
D18*
X40497787Y-37054867D03*
X42072787Y-37054867D03*
D17*
X45530000Y-47150000D03*
X45530000Y-46150000D03*
X45530000Y-45150000D03*
X45530000Y-44150000D03*
X45530000Y-42650000D03*
X45530000Y-41650000D03*
X45530000Y-40650000D03*
X45530000Y-39650000D03*
X45530000Y-40150000D03*
X45530000Y-41150000D03*
X45530000Y-42150000D03*
X45530000Y-43150000D03*
X45530000Y-43650000D03*
X45530000Y-44650000D03*
X45530000Y-45650000D03*
X45530000Y-46650000D03*
X45530000Y-47650000D03*
X45530000Y-39150000D03*
D11*
X42990000Y-45800000D03*
X44010000Y-45800000D03*
D15*
X40200000Y-43525000D03*
X38950000Y-43525000D03*
X40200000Y-44375000D03*
X38950000Y-44375000D03*
D16*
X40700000Y-42500000D03*
X40250000Y-42500000D03*
X39800000Y-42500000D03*
X39350000Y-42500000D03*
X38900000Y-42500000D03*
X38450000Y-42500000D03*
X38450000Y-45400000D03*
X38900000Y-45400000D03*
X39350000Y-45400000D03*
X39800000Y-45400000D03*
X40250000Y-45400000D03*
X40700000Y-45400000D03*
D14*
X39350000Y-41325000D03*
X38390000Y-41325000D03*
D13*
X40350000Y-54325000D03*
X40350000Y-52775000D03*
D12*
X43925000Y-52700000D03*
X42375000Y-52700000D03*
D11*
X38340000Y-38000000D03*
X39360000Y-38000000D03*
D20*
X43125000Y-54500000D03*
X41675000Y-54500000D03*
M02*
