M48
; DRILL file KiCad 10.0.3 date 2026-05-22T20:10:49
; FORMAT={-:-/ absolute / metric / decimal}
; #@! TF.CreationDate,2026-05-22T20:10:49+09:00
; #@! TF.GenerationSoftware,Kicad,Pcbnew,10.0.3
; #@! TF.FileFunction,Plated,1,4,PTH
FMAT,2
METRIC
; #@! TA.AperFunction,Plated,PTH,ViaDrill
T1C0.200
; #@! TA.AperFunction,Plated,PTH,ComponentDrill
T2C0.550
%
G90
G05
T1
X33.1Y-39.7
X33.1Y-40.6
X33.1Y-41.5
X33.1Y-42.4
X33.1Y-43.3
X33.1Y-44.2
X33.1Y-45.1
X33.1Y-46.0
X33.1Y-46.9
X33.1Y-47.8
X33.1Y-48.7
X33.1Y-49.6
X33.1Y-50.5
X33.1Y-51.4
X33.1Y-52.3
X33.1Y-68.7
X33.1Y-69.6
X33.1Y-70.5
X33.1Y-71.4
X33.1Y-72.3
X33.1Y-73.2
X33.1Y-74.1
X33.1Y-75.0
X33.1Y-75.9
X33.1Y-76.8
X33.1Y-77.7
X33.1Y-78.6
X33.1Y-79.5
X33.1Y-80.4
X33.1Y-81.3
X33.1Y-97.7
X33.1Y-98.6
X33.1Y-99.5
X33.1Y-100.4
X33.1Y-101.3
X33.1Y-102.2
X33.1Y-103.1
X33.1Y-104.0
X33.1Y-104.9
X33.1Y-105.8
X33.1Y-106.7
X33.1Y-107.6
X33.1Y-108.5
X33.1Y-109.4
X33.1Y-110.3
X35.895Y-39.925
X35.895Y-68.925
X35.895Y-97.925
X35.9Y-41.05
X35.9Y-41.95
X35.9Y-42.85
X35.9Y-43.75
X35.9Y-44.65
X35.9Y-45.55
X35.9Y-46.45
X35.9Y-47.35
X35.9Y-48.25
X35.9Y-49.15
X35.9Y-50.05
X35.9Y-50.95
X35.9Y-70.05
X35.9Y-70.95
X35.9Y-71.85
X35.9Y-72.75
X35.9Y-73.65
X35.9Y-74.55
X35.9Y-75.45
X35.9Y-76.35
X35.9Y-77.25
X35.9Y-78.15
X35.9Y-79.05
X35.9Y-79.95
X35.9Y-99.05
X35.9Y-99.95
X35.9Y-100.85
X35.9Y-101.75
X35.9Y-102.65
X35.9Y-103.55
X35.9Y-104.45
X35.9Y-105.35
X35.9Y-106.25
X35.9Y-107.15
X35.9Y-108.05
X35.9Y-108.95
X35.91Y-52.07
X35.91Y-81.07
X35.91Y-110.07
X37.35Y-44.85
X37.35Y-73.85
X37.35Y-102.85
X37.4Y-39.4
X37.4Y-39.9
X37.4Y-40.4
X37.4Y-68.4
X37.4Y-68.9
X37.4Y-69.4
X37.4Y-97.4
X37.4Y-97.9
X37.4Y-98.4
X37.65Y-43.3
X37.65Y-44.2
X37.65Y-72.3
X37.65Y-73.2
X37.65Y-101.3
X37.65Y-102.2
X37.8Y-37.0
X37.8Y-38.0
X37.8Y-66.0
X37.8Y-67.0
X37.8Y-95.0
X37.8Y-96.0
X37.85Y-48.15
X37.85Y-77.15
X37.85Y-106.15
X37.875Y-39.325
X37.875Y-40.325
X37.875Y-41.325
X37.875Y-42.5
X37.875Y-68.325
X37.875Y-69.325
X37.875Y-70.325
X37.875Y-71.5
X37.875Y-97.325
X37.875Y-98.325
X37.875Y-99.325
X37.875Y-100.5
X38.0Y-50.0
X38.0Y-79.0
X38.0Y-108.0
X38.3Y-53.5
X38.3Y-82.5
X38.3Y-111.5
X38.65Y-47.3
X38.65Y-76.3
X38.65Y-105.3
X38.75Y-53.5
X38.75Y-82.5
X38.75Y-111.5
X39.1Y-46.15
X39.1Y-75.15
X39.1Y-104.15
X39.2Y-53.5
X39.2Y-82.5
X39.2Y-111.5
X39.575Y-43.95
X39.575Y-72.95
X39.575Y-101.95
X39.9Y-48.45
X39.9Y-77.45
X39.9Y-106.45
X39.911Y-39.363
X39.911Y-68.363
X39.911Y-97.363
X40.15Y-41.35
X40.15Y-70.35
X40.15Y-99.35
X40.4Y-39.2
X40.4Y-39.7
X40.4Y-40.2
X40.4Y-68.2
X40.4Y-68.7
X40.4Y-69.2
X40.4Y-97.2
X40.4Y-97.7
X40.4Y-98.2
X40.45Y-50.6
X40.45Y-79.6
X40.45Y-108.6
X40.65Y-41.1
X40.65Y-70.1
X40.65Y-99.1
X41.1Y-46.25
X41.1Y-50.6
X41.1Y-75.25
X41.1Y-79.6
X41.1Y-104.25
X41.1Y-108.6
X41.796Y-48.956
X41.796Y-77.956
X41.796Y-106.956
X42.0Y-42.3
X42.0Y-53.2
X42.0Y-71.3
X42.0Y-82.2
X42.0Y-100.3
X42.0Y-111.2
X42.5Y-41.15
X42.5Y-70.15
X42.5Y-99.15
X42.6Y-52.6
X42.6Y-81.6
X42.6Y-110.6
X42.85Y-37.05
X42.85Y-66.05
X42.85Y-95.05
X42.9Y-48.0
X42.9Y-48.95
X42.9Y-77.0
X42.9Y-77.95
X42.9Y-106.0
X42.9Y-106.95
X43.0Y-45.2
X43.0Y-74.2
X43.0Y-103.2
X43.7Y-52.15
X43.7Y-81.15
X43.7Y-110.15
X44.0Y-42.3
X44.0Y-71.3
X44.0Y-100.3
X44.05Y-39.15
X44.05Y-39.7
X44.05Y-40.25
X44.05Y-68.15
X44.05Y-68.7
X44.05Y-69.25
X44.05Y-97.15
X44.05Y-97.7
X44.05Y-98.25
X44.3Y-52.15
X44.3Y-81.15
X44.3Y-110.15
X44.6Y-44.15
X44.6Y-73.15
X44.6Y-102.15
X44.8Y-39.15
X44.8Y-39.65
X44.8Y-40.135
X44.8Y-40.65
X44.8Y-41.15
X44.8Y-43.15
X44.8Y-45.65
X44.8Y-46.15
X44.8Y-46.665
X44.8Y-47.15
X44.8Y-47.65
X44.8Y-68.15
X44.8Y-68.65
X44.8Y-69.135
X44.8Y-69.65
X44.8Y-70.15
X44.8Y-72.15
X44.8Y-74.65
X44.8Y-75.15
X44.8Y-75.665
X44.8Y-76.15
X44.8Y-76.65
X44.8Y-97.15
X44.8Y-97.65
X44.8Y-98.135
X44.8Y-98.65
X44.8Y-99.15
X44.8Y-101.15
X44.8Y-103.65
X44.8Y-104.15
X44.8Y-104.665
X44.8Y-105.15
X44.8Y-105.65
X45.2Y-52.15
X45.2Y-81.15
X45.2Y-110.15
X45.8Y-52.15
X45.8Y-81.15
X45.8Y-110.15
X49.15Y-54.15
X49.15Y-55.15
X49.15Y-83.15
X49.15Y-84.15
X49.15Y-112.15
X49.15Y-113.15
X49.3Y-51.1
X49.3Y-51.6
X49.3Y-52.1
X49.3Y-80.1
X49.3Y-80.6
X49.3Y-81.1
X49.3Y-109.1
X49.3Y-109.6
X49.3Y-110.1
X51.0Y-37.0
X51.0Y-66.0
X51.0Y-95.0
X55.1Y-39.7
X55.1Y-40.6
X55.1Y-41.5
X55.1Y-42.4
X55.1Y-43.3
X55.1Y-44.2
X55.1Y-45.1
X55.1Y-46.0
X55.1Y-46.9
X55.1Y-47.8
X55.1Y-48.7
X55.1Y-49.6
X55.1Y-50.5
X55.1Y-51.4
X55.1Y-52.3
X55.1Y-68.7
X55.1Y-69.6
X55.1Y-70.5
X55.1Y-71.4
X55.1Y-72.3
X55.1Y-73.2
X55.1Y-74.1
X55.1Y-75.0
X55.1Y-75.9
X55.1Y-76.8
X55.1Y-77.7
X55.1Y-78.6
X55.1Y-79.5
X55.1Y-80.4
X55.1Y-81.3
X55.1Y-97.7
X55.1Y-98.6
X55.1Y-99.5
X55.1Y-100.4
X55.1Y-101.3
X55.1Y-102.2
X55.1Y-103.1
X55.1Y-104.0
X55.1Y-104.9
X55.1Y-105.8
X55.1Y-106.7
X55.1Y-107.6
X55.1Y-108.5
X55.1Y-109.4
X55.1Y-110.3
X57.895Y-39.925
X57.895Y-68.925
X57.895Y-97.925
X57.9Y-41.05
X57.9Y-41.95
X57.9Y-42.85
X57.9Y-43.75
X57.9Y-44.65
X57.9Y-45.55
X57.9Y-46.45
X57.9Y-47.35
X57.9Y-48.25
X57.9Y-49.15
X57.9Y-50.05
X57.9Y-50.95
X57.9Y-70.05
X57.9Y-70.95
X57.9Y-71.85
X57.9Y-72.75
X57.9Y-73.65
X57.9Y-74.55
X57.9Y-75.45
X57.9Y-76.35
X57.9Y-77.25
X57.9Y-78.15
X57.9Y-79.05
X57.9Y-79.95
X57.9Y-99.05
X57.9Y-99.95
X57.9Y-100.85
X57.9Y-101.75
X57.9Y-102.65
X57.9Y-103.55
X57.9Y-104.45
X57.9Y-105.35
X57.9Y-106.25
X57.9Y-107.15
X57.9Y-108.05
X57.9Y-108.95
X57.91Y-52.07
X57.91Y-81.07
X57.91Y-110.07
X59.35Y-44.85
X59.35Y-73.85
X59.35Y-102.85
X59.4Y-39.4
X59.4Y-39.9
X59.4Y-40.4
X59.4Y-68.4
X59.4Y-68.9
X59.4Y-69.4
X59.4Y-97.4
X59.4Y-97.9
X59.4Y-98.4
X59.65Y-43.3
X59.65Y-44.2
X59.65Y-72.3
X59.65Y-73.2
X59.65Y-101.3
X59.65Y-102.2
X59.8Y-37.0
X59.8Y-38.0
X59.8Y-66.0
X59.8Y-67.0
X59.8Y-95.0
X59.8Y-96.0
X59.85Y-48.15
X59.85Y-77.15
X59.85Y-106.15
X59.875Y-39.325
X59.875Y-40.325
X59.875Y-41.325
X59.875Y-42.5
X59.875Y-68.325
X59.875Y-69.325
X59.875Y-70.325
X59.875Y-71.5
X59.875Y-97.325
X59.875Y-98.325
X59.875Y-99.325
X59.875Y-100.5
X60.0Y-50.0
X60.0Y-79.0
X60.0Y-108.0
X60.3Y-53.5
X60.3Y-82.5
X60.3Y-111.5
X60.65Y-47.3
X60.65Y-76.3
X60.65Y-105.3
X60.75Y-53.5
X60.75Y-82.5
X60.75Y-111.5
X61.1Y-46.15
X61.1Y-75.15
X61.1Y-104.15
X61.2Y-53.5
X61.2Y-82.5
X61.2Y-111.5
X61.575Y-43.95
X61.575Y-72.95
X61.575Y-101.95
X61.9Y-48.45
X61.9Y-77.45
X61.9Y-106.45
X61.911Y-39.363
X61.911Y-68.363
X61.911Y-97.363
X62.15Y-41.35
X62.15Y-70.35
X62.15Y-99.35
X62.4Y-39.2
X62.4Y-39.7
X62.4Y-40.2
X62.4Y-68.2
X62.4Y-68.7
X62.4Y-69.2
X62.4Y-97.2
X62.4Y-97.7
X62.4Y-98.2
X62.45Y-50.6
X62.45Y-79.6
X62.45Y-108.6
X62.65Y-41.1
X62.65Y-70.1
X62.65Y-99.1
X63.1Y-46.25
X63.1Y-50.6
X63.1Y-75.25
X63.1Y-79.6
X63.1Y-104.25
X63.1Y-108.6
X63.796Y-48.956
X63.796Y-77.956
X63.796Y-106.956
X64.0Y-42.3
X64.0Y-53.2
X64.0Y-71.3
X64.0Y-82.2
X64.0Y-100.3
X64.0Y-111.2
X64.5Y-41.15
X64.5Y-70.15
X64.5Y-99.15
X64.6Y-52.6
X64.6Y-81.6
X64.6Y-110.6
X64.85Y-37.05
X64.85Y-66.05
X64.85Y-95.05
X64.9Y-48.0
X64.9Y-48.95
X64.9Y-77.0
X64.9Y-77.95
X64.9Y-106.0
X64.9Y-106.95
X65.0Y-45.2
X65.0Y-74.2
X65.0Y-103.2
X65.7Y-52.15
X65.7Y-81.15
X65.7Y-110.15
X66.0Y-42.3
X66.0Y-71.3
X66.0Y-100.3
X66.05Y-39.15
X66.05Y-39.7
X66.05Y-40.25
X66.05Y-68.15
X66.05Y-68.7
X66.05Y-69.25
X66.05Y-97.15
X66.05Y-97.7
X66.05Y-98.25
X66.3Y-52.15
X66.3Y-81.15
X66.3Y-110.15
X66.6Y-44.15
X66.6Y-73.15
X66.6Y-102.15
X66.8Y-39.15
X66.8Y-39.65
X66.8Y-40.135
X66.8Y-40.65
X66.8Y-41.15
X66.8Y-43.15
X66.8Y-45.65
X66.8Y-46.15
X66.8Y-46.665
X66.8Y-47.15
X66.8Y-47.65
X66.8Y-68.15
X66.8Y-68.65
X66.8Y-69.135
X66.8Y-69.65
X66.8Y-70.15
X66.8Y-72.15
X66.8Y-74.65
X66.8Y-75.15
X66.8Y-75.665
X66.8Y-76.15
X66.8Y-76.65
X66.8Y-97.15
X66.8Y-97.65
X66.8Y-98.135
X66.8Y-98.65
X66.8Y-99.15
X66.8Y-101.15
X66.8Y-103.65
X66.8Y-104.15
X66.8Y-104.665
X66.8Y-105.15
X66.8Y-105.65
X67.2Y-52.15
X67.2Y-81.15
X67.2Y-110.15
X67.8Y-52.15
X67.8Y-81.15
X67.8Y-110.15
X71.15Y-54.15
X71.15Y-55.15
X71.15Y-83.15
X71.15Y-84.15
X71.15Y-112.15
X71.15Y-113.15
X71.3Y-51.1
X71.3Y-51.6
X71.3Y-52.1
X71.3Y-80.1
X71.3Y-80.6
X71.3Y-81.1
X71.3Y-109.1
X71.3Y-109.6
X71.3Y-110.1
X73.0Y-37.0
X73.0Y-66.0
X73.0Y-95.0
X77.1Y-39.7
X77.1Y-40.6
X77.1Y-41.5
X77.1Y-42.4
X77.1Y-43.3
X77.1Y-44.2
X77.1Y-45.1
X77.1Y-46.0
X77.1Y-46.9
X77.1Y-47.8
X77.1Y-48.7
X77.1Y-49.6
X77.1Y-50.5
X77.1Y-51.4
X77.1Y-52.3
X77.1Y-68.7
X77.1Y-69.6
X77.1Y-70.5
X77.1Y-71.4
X77.1Y-72.3
X77.1Y-73.2
X77.1Y-74.1
X77.1Y-75.0
X77.1Y-75.9
X77.1Y-76.8
X77.1Y-77.7
X77.1Y-78.6
X77.1Y-79.5
X77.1Y-80.4
X77.1Y-81.3
X77.1Y-97.7
X77.1Y-98.6
X77.1Y-99.5
X77.1Y-100.4
X77.1Y-101.3
X77.1Y-102.2
X77.1Y-103.1
X77.1Y-104.0
X77.1Y-104.9
X77.1Y-105.8
X77.1Y-106.7
X77.1Y-107.6
X77.1Y-108.5
X77.1Y-109.4
X77.1Y-110.3
X79.895Y-39.925
X79.895Y-68.925
X79.895Y-97.925
X79.9Y-41.05
X79.9Y-41.95
X79.9Y-42.85
X79.9Y-43.75
X79.9Y-44.65
X79.9Y-45.55
X79.9Y-46.45
X79.9Y-47.35
X79.9Y-48.25
X79.9Y-49.15
X79.9Y-50.05
X79.9Y-50.95
X79.9Y-70.05
X79.9Y-70.95
X79.9Y-71.85
X79.9Y-72.75
X79.9Y-73.65
X79.9Y-74.55
X79.9Y-75.45
X79.9Y-76.35
X79.9Y-77.25
X79.9Y-78.15
X79.9Y-79.05
X79.9Y-79.95
X79.9Y-99.05
X79.9Y-99.95
X79.9Y-100.85
X79.9Y-101.75
X79.9Y-102.65
X79.9Y-103.55
X79.9Y-104.45
X79.9Y-105.35
X79.9Y-106.25
X79.9Y-107.15
X79.9Y-108.05
X79.9Y-108.95
X79.91Y-52.07
X79.91Y-81.07
X79.91Y-110.07
X81.35Y-44.85
X81.35Y-73.85
X81.35Y-102.85
X81.4Y-39.4
X81.4Y-39.9
X81.4Y-40.4
X81.4Y-68.4
X81.4Y-68.9
X81.4Y-69.4
X81.4Y-97.4
X81.4Y-97.9
X81.4Y-98.4
X81.65Y-43.3
X81.65Y-44.2
X81.65Y-72.3
X81.65Y-73.2
X81.65Y-101.3
X81.65Y-102.2
X81.8Y-37.0
X81.8Y-38.0
X81.8Y-66.0
X81.8Y-67.0
X81.8Y-95.0
X81.8Y-96.0
X81.85Y-48.15
X81.85Y-77.15
X81.85Y-106.15
X81.875Y-39.325
X81.875Y-40.325
X81.875Y-41.325
X81.875Y-42.5
X81.875Y-68.325
X81.875Y-69.325
X81.875Y-70.325
X81.875Y-71.5
X81.875Y-97.325
X81.875Y-98.325
X81.875Y-99.325
X81.875Y-100.5
X82.0Y-50.0
X82.0Y-79.0
X82.0Y-108.0
X82.3Y-53.5
X82.3Y-82.5
X82.3Y-111.5
X82.65Y-47.3
X82.65Y-76.3
X82.65Y-105.3
X82.75Y-53.5
X82.75Y-82.5
X82.75Y-111.5
X83.1Y-46.15
X83.1Y-75.15
X83.1Y-104.15
X83.2Y-53.5
X83.2Y-82.5
X83.2Y-111.5
X83.575Y-43.95
X83.575Y-72.95
X83.575Y-101.95
X83.9Y-48.45
X83.9Y-77.45
X83.9Y-106.45
X83.911Y-39.363
X83.911Y-68.363
X83.911Y-97.363
X84.15Y-41.35
X84.15Y-70.35
X84.15Y-99.35
X84.4Y-39.2
X84.4Y-39.7
X84.4Y-40.2
X84.4Y-68.2
X84.4Y-68.7
X84.4Y-69.2
X84.4Y-97.2
X84.4Y-97.7
X84.4Y-98.2
X84.45Y-50.6
X84.45Y-79.6
X84.45Y-108.6
X84.65Y-41.1
X84.65Y-70.1
X84.65Y-99.1
X85.1Y-46.25
X85.1Y-50.6
X85.1Y-75.25
X85.1Y-79.6
X85.1Y-104.25
X85.1Y-108.6
X85.796Y-48.956
X85.796Y-77.956
X85.796Y-106.956
X86.0Y-42.3
X86.0Y-53.2
X86.0Y-71.3
X86.0Y-82.2
X86.0Y-100.3
X86.0Y-111.2
X86.5Y-41.15
X86.5Y-70.15
X86.5Y-99.15
X86.6Y-52.6
X86.6Y-81.6
X86.6Y-110.6
X86.85Y-37.05
X86.85Y-66.05
X86.85Y-95.05
X86.9Y-48.0
X86.9Y-48.95
X86.9Y-77.0
X86.9Y-77.95
X86.9Y-106.0
X86.9Y-106.95
X87.0Y-45.2
X87.0Y-74.2
X87.0Y-103.2
X87.7Y-52.15
X87.7Y-81.15
X87.7Y-110.15
X88.0Y-42.3
X88.0Y-71.3
X88.0Y-100.3
X88.05Y-39.15
X88.05Y-39.7
X88.05Y-40.25
X88.05Y-68.15
X88.05Y-68.7
X88.05Y-69.25
X88.05Y-97.15
X88.05Y-97.7
X88.05Y-98.25
X88.3Y-52.15
X88.3Y-81.15
X88.3Y-110.15
X88.6Y-44.15
X88.6Y-73.15
X88.6Y-102.15
X88.8Y-39.15
X88.8Y-39.65
X88.8Y-40.135
X88.8Y-40.65
X88.8Y-41.15
X88.8Y-43.15
X88.8Y-45.65
X88.8Y-46.15
X88.8Y-46.665
X88.8Y-47.15
X88.8Y-47.65
X88.8Y-68.15
X88.8Y-68.65
X88.8Y-69.135
X88.8Y-69.65
X88.8Y-70.15
X88.8Y-72.15
X88.8Y-74.65
X88.8Y-75.15
X88.8Y-75.665
X88.8Y-76.15
X88.8Y-76.65
X88.8Y-97.15
X88.8Y-97.65
X88.8Y-98.135
X88.8Y-98.65
X88.8Y-99.15
X88.8Y-101.15
X88.8Y-103.65
X88.8Y-104.15
X88.8Y-104.665
X88.8Y-105.15
X88.8Y-105.65
X89.2Y-52.15
X89.2Y-81.15
X89.2Y-110.15
X89.8Y-52.15
X89.8Y-81.15
X89.8Y-110.15
X93.15Y-54.15
X93.15Y-55.15
X93.15Y-83.15
X93.15Y-84.15
X93.15Y-112.15
X93.15Y-113.15
X93.3Y-51.1
X93.3Y-51.6
X93.3Y-52.1
X93.3Y-80.1
X93.3Y-80.6
X93.3Y-81.1
X93.3Y-109.1
X93.3Y-109.6
X93.3Y-110.1
X95.0Y-37.0
X95.0Y-66.0
X95.0Y-95.0
X99.1Y-39.7
X99.1Y-40.6
X99.1Y-41.5
X99.1Y-42.4
X99.1Y-43.3
X99.1Y-44.2
X99.1Y-45.1
X99.1Y-46.0
X99.1Y-46.9
X99.1Y-47.8
X99.1Y-48.7
X99.1Y-49.6
X99.1Y-50.5
X99.1Y-51.4
X99.1Y-52.3
X99.1Y-68.7
X99.1Y-69.6
X99.1Y-70.5
X99.1Y-71.4
X99.1Y-72.3
X99.1Y-73.2
X99.1Y-74.1
X99.1Y-75.0
X99.1Y-75.9
X99.1Y-76.8
X99.1Y-77.7
X99.1Y-78.6
X99.1Y-79.5
X99.1Y-80.4
X99.1Y-81.3
X99.1Y-97.7
X99.1Y-98.6
X99.1Y-99.5
X99.1Y-100.4
X99.1Y-101.3
X99.1Y-102.2
X99.1Y-103.1
X99.1Y-104.0
X99.1Y-104.9
X99.1Y-105.8
X99.1Y-106.7
X99.1Y-107.6
X99.1Y-108.5
X99.1Y-109.4
X99.1Y-110.3
X101.895Y-39.925
X101.895Y-68.925
X101.895Y-97.925
X101.9Y-41.05
X101.9Y-41.95
X101.9Y-42.85
X101.9Y-43.75
X101.9Y-44.65
X101.9Y-45.55
X101.9Y-46.45
X101.9Y-47.35
X101.9Y-48.25
X101.9Y-49.15
X101.9Y-50.05
X101.9Y-50.95
X101.9Y-70.05
X101.9Y-70.95
X101.9Y-71.85
X101.9Y-72.75
X101.9Y-73.65
X101.9Y-74.55
X101.9Y-75.45
X101.9Y-76.35
X101.9Y-77.25
X101.9Y-78.15
X101.9Y-79.05
X101.9Y-79.95
X101.9Y-99.05
X101.9Y-99.95
X101.9Y-100.85
X101.9Y-101.75
X101.9Y-102.65
X101.9Y-103.55
X101.9Y-104.45
X101.9Y-105.35
X101.9Y-106.25
X101.9Y-107.15
X101.9Y-108.05
X101.9Y-108.95
X101.91Y-52.07
X101.91Y-81.07
X101.91Y-110.07
X103.35Y-44.85
X103.35Y-73.85
X103.35Y-102.85
X103.4Y-39.4
X103.4Y-39.9
X103.4Y-40.4
X103.4Y-68.4
X103.4Y-68.9
X103.4Y-69.4
X103.4Y-97.4
X103.4Y-97.9
X103.4Y-98.4
X103.65Y-43.3
X103.65Y-44.2
X103.65Y-72.3
X103.65Y-73.2
X103.65Y-101.3
X103.65Y-102.2
X103.8Y-37.0
X103.8Y-38.0
X103.8Y-66.0
X103.8Y-67.0
X103.8Y-95.0
X103.8Y-96.0
X103.85Y-48.15
X103.85Y-77.15
X103.85Y-106.15
X103.875Y-39.325
X103.875Y-40.325
X103.875Y-41.325
X103.875Y-42.5
X103.875Y-68.325
X103.875Y-69.325
X103.875Y-70.325
X103.875Y-71.5
X103.875Y-97.325
X103.875Y-98.325
X103.875Y-99.325
X103.875Y-100.5
X104.0Y-50.0
X104.0Y-79.0
X104.0Y-108.0
X104.3Y-53.5
X104.3Y-82.5
X104.3Y-111.5
X104.65Y-47.3
X104.65Y-76.3
X104.65Y-105.3
X104.75Y-53.5
X104.75Y-82.5
X104.75Y-111.5
X105.1Y-46.15
X105.1Y-75.15
X105.1Y-104.15
X105.2Y-53.5
X105.2Y-82.5
X105.2Y-111.5
X105.575Y-43.95
X105.575Y-72.95
X105.575Y-101.95
X105.9Y-48.45
X105.9Y-77.45
X105.9Y-106.45
X105.911Y-39.363
X105.911Y-68.363
X105.911Y-97.363
X106.15Y-41.35
X106.15Y-70.35
X106.15Y-99.35
X106.4Y-39.2
X106.4Y-39.7
X106.4Y-40.2
X106.4Y-68.2
X106.4Y-68.7
X106.4Y-69.2
X106.4Y-97.2
X106.4Y-97.7
X106.4Y-98.2
X106.45Y-50.6
X106.45Y-79.6
X106.45Y-108.6
X106.65Y-41.1
X106.65Y-70.1
X106.65Y-99.1
X107.1Y-46.25
X107.1Y-50.6
X107.1Y-75.25
X107.1Y-79.6
X107.1Y-104.25
X107.1Y-108.6
X107.796Y-48.956
X107.796Y-77.956
X107.796Y-106.956
X108.0Y-42.3
X108.0Y-53.2
X108.0Y-71.3
X108.0Y-82.2
X108.0Y-100.3
X108.0Y-111.2
X108.5Y-41.15
X108.5Y-70.15
X108.5Y-99.15
X108.6Y-52.6
X108.6Y-81.6
X108.6Y-110.6
X108.85Y-37.05
X108.85Y-66.05
X108.85Y-95.05
X108.9Y-48.0
X108.9Y-48.95
X108.9Y-77.0
X108.9Y-77.95
X108.9Y-106.0
X108.9Y-106.95
X109.0Y-45.2
X109.0Y-74.2
X109.0Y-103.2
X109.7Y-52.15
X109.7Y-81.15
X109.7Y-110.15
X110.0Y-42.3
X110.0Y-71.3
X110.0Y-100.3
X110.05Y-39.15
X110.05Y-39.7
X110.05Y-40.25
X110.05Y-68.15
X110.05Y-68.7
X110.05Y-69.25
X110.05Y-97.15
X110.05Y-97.7
X110.05Y-98.25
X110.3Y-52.15
X110.3Y-81.15
X110.3Y-110.15
X110.6Y-44.15
X110.6Y-73.15
X110.6Y-102.15
X110.8Y-39.15
X110.8Y-39.65
X110.8Y-40.135
X110.8Y-40.65
X110.8Y-41.15
X110.8Y-43.15
X110.8Y-45.65
X110.8Y-46.15
X110.8Y-46.665
X110.8Y-47.15
X110.8Y-47.65
X110.8Y-68.15
X110.8Y-68.65
X110.8Y-69.135
X110.8Y-69.65
X110.8Y-70.15
X110.8Y-72.15
X110.8Y-74.65
X110.8Y-75.15
X110.8Y-75.665
X110.8Y-76.15
X110.8Y-76.65
X110.8Y-97.15
X110.8Y-97.65
X110.8Y-98.135
X110.8Y-98.65
X110.8Y-99.15
X110.8Y-101.15
X110.8Y-103.65
X110.8Y-104.15
X110.8Y-104.665
X110.8Y-105.15
X110.8Y-105.65
X111.2Y-52.15
X111.2Y-81.15
X111.2Y-110.15
X111.8Y-52.15
X111.8Y-81.15
X111.8Y-110.15
X115.15Y-54.15
X115.15Y-55.15
X115.15Y-83.15
X115.15Y-84.15
X115.15Y-112.15
X115.15Y-113.15
X115.3Y-51.1
X115.3Y-51.6
X115.3Y-52.1
X115.3Y-80.1
X115.3Y-80.6
X115.3Y-81.1
X115.3Y-109.1
X115.3Y-109.6
X115.3Y-110.1
X117.0Y-37.0
X117.0Y-66.0
X117.0Y-95.0
T2
G00X45.375Y-38.0
M15
G01X46.925Y-38.0
M16
G05
G00X45.375Y-48.8
M15
G01X46.925Y-48.8
M16
G05
G00X45.375Y-67.0
M15
G01X46.925Y-67.0
M16
G05
G00X45.375Y-77.8
M15
G01X46.925Y-77.8
M16
G05
G00X45.375Y-96.0
M15
G01X46.925Y-96.0
M16
G05
G00X45.375Y-106.8
M15
G01X46.925Y-106.8
M16
G05
G00X48.73Y-38.0
M15
G01X50.03Y-38.0
M16
G05
G00X48.73Y-48.8
M15
G01X50.03Y-48.8
M16
G05
G00X48.73Y-67.0
M15
G01X50.03Y-67.0
M16
G05
G00X48.73Y-77.8
M15
G01X50.03Y-77.8
M16
G05
G00X48.73Y-96.0
M15
G01X50.03Y-96.0
M16
G05
G00X48.73Y-106.8
M15
G01X50.03Y-106.8
M16
G05
G00X67.375Y-38.0
M15
G01X68.925Y-38.0
M16
G05
G00X67.375Y-48.8
M15
G01X68.925Y-48.8
M16
G05
G00X67.375Y-67.0
M15
G01X68.925Y-67.0
M16
G05
G00X67.375Y-77.8
M15
G01X68.925Y-77.8
M16
G05
G00X67.375Y-96.0
M15
G01X68.925Y-96.0
M16
G05
G00X67.375Y-106.8
M15
G01X68.925Y-106.8
M16
G05
G00X70.73Y-38.0
M15
G01X72.03Y-38.0
M16
G05
G00X70.73Y-48.8
M15
G01X72.03Y-48.8
M16
G05
G00X70.73Y-67.0
M15
G01X72.03Y-67.0
M16
G05
G00X70.73Y-77.8
M15
G01X72.03Y-77.8
M16
G05
G00X70.73Y-96.0
M15
G01X72.03Y-96.0
M16
G05
G00X70.73Y-106.8
M15
G01X72.03Y-106.8
M16
G05
G00X89.375Y-38.0
M15
G01X90.925Y-38.0
M16
G05
G00X89.375Y-48.8
M15
G01X90.925Y-48.8
M16
G05
G00X89.375Y-67.0
M15
G01X90.925Y-67.0
M16
G05
G00X89.375Y-77.8
M15
G01X90.925Y-77.8
M16
G05
G00X89.375Y-96.0
M15
G01X90.925Y-96.0
M16
G05
G00X89.375Y-106.8
M15
G01X90.925Y-106.8
M16
G05
G00X92.73Y-38.0
M15
G01X94.03Y-38.0
M16
G05
G00X92.73Y-48.8
M15
G01X94.03Y-48.8
M16
G05
G00X92.73Y-67.0
M15
G01X94.03Y-67.0
M16
G05
G00X92.73Y-77.8
M15
G01X94.03Y-77.8
M16
G05
G00X92.73Y-96.0
M15
G01X94.03Y-96.0
M16
G05
G00X92.73Y-106.8
M15
G01X94.03Y-106.8
M16
G05
G00X111.375Y-38.0
M15
G01X112.925Y-38.0
M16
G05
G00X111.375Y-48.8
M15
G01X112.925Y-48.8
M16
G05
G00X111.375Y-67.0
M15
G01X112.925Y-67.0
M16
G05
G00X111.375Y-77.8
M15
G01X112.925Y-77.8
M16
G05
G00X111.375Y-96.0
M15
G01X112.925Y-96.0
M16
G05
G00X111.375Y-106.8
M15
G01X112.925Y-106.8
M16
G05
G00X114.73Y-38.0
M15
G01X116.03Y-38.0
M16
G05
G00X114.73Y-48.8
M15
G01X116.03Y-48.8
M16
G05
G00X114.73Y-67.0
M15
G01X116.03Y-67.0
M16
G05
G00X114.73Y-77.8
M15
G01X116.03Y-77.8
M16
G05
G00X114.73Y-96.0
M15
G01X116.03Y-96.0
M16
G05
G00X114.73Y-106.8
M15
G01X116.03Y-106.8
M16
G05
M30
