G04 #@! TF.GenerationSoftware,KiCad,Pcbnew,10.0.3*
G04 #@! TF.CreationDate,2026-05-22T20:10:46+09:00*
G04 #@! TF.ProjectId,leafony-az01c-panelized,6c656166-6f6e-4792-9d61-7a3031632d70,v1.0*
G04 #@! TF.SameCoordinates,Original*
G04 #@! TF.FileFunction,Legend,Top*
G04 #@! TF.FilePolarity,Positive*
%FSLAX46Y46*%
G04 Gerber Fmt 4.6, Leading zero omitted, Abs format (unit mm)*
G04 Created by KiCad (PCBNEW 10.0.3) date 2026-05-22 20:10:46*
%MOMM*%
%LPD*%
G01*
G04 APERTURE LIST*
G04 Aperture macros list*
%AMRoundRect*
0 Rectangle with rounded corners*
0 $1 Rounding radius*
0 $2 $3 $4 $5 $6 $7 $8 $9 X,Y pos of 4 corners*
0 Add a 4 corners polygon primitive as box body*
4,1,4,$2,$3,$4,$5,$6,$7,$8,$9,$2,$3,0*
0 Add four circle primitives for the rounded corners*
1,1,$1+$1,$2,$3*
1,1,$1+$1,$4,$5*
1,1,$1+$1,$6,$7*
1,1,$1+$1,$8,$9*
0 Add four rect primitives between the rounded corners*
20,1,$1+$1,$2,$3,$4,$5,0*
20,1,$1+$1,$4,$5,$6,$7,0*
20,1,$1+$1,$6,$7,$8,$9,0*
20,1,$1+$1,$8,$9,$2,$3,0*%
%AMFreePoly0*
4,1,43,0.052099,0.920729,0.127746,0.900460,0.139805,0.895465,0.207628,0.856307,0.217983,0.848361,0.273361,0.792983,0.281307,0.782628,0.320465,0.714805,0.325460,0.702746,0.345729,0.627099,0.347433,0.614158,0.347433,0.535842,0.345729,0.522901,0.325460,0.447254,0.320465,0.435195,0.281307,0.367372,0.275000,0.359152,0.275000,-0.575000,0.260355,-0.610355,0.225000,-0.625000,
-0.225000,-0.625000,-0.260355,-0.610355,-0.275000,-0.575000,-0.275000,0.359152,-0.281307,0.367372,-0.320465,0.435195,-0.325460,0.447254,-0.345729,0.522901,-0.347433,0.535842,-0.347433,0.614158,-0.345729,0.627099,-0.325460,0.702746,-0.320465,0.714805,-0.281307,0.782628,-0.273361,0.792983,-0.217983,0.848361,-0.207628,0.856307,-0.139805,0.895465,-0.127746,0.900460,-0.052099,0.920729,
-0.039158,0.922433,0.039158,0.922433,0.052099,0.920729,0.052099,0.920729,$1*%
G04 Aperture macros list end*
%ADD10C,0.100000*%
%ADD11C,0.120000*%
%ADD12C,0.200000*%
%ADD13C,0.150000*%
%ADD14RoundRect,0.250000X0.250000X0.275000X-0.250000X0.275000X-0.250000X-0.275000X0.250000X-0.275000X0*%
%ADD15RoundRect,0.165000X-0.165000X-0.195000X0.165000X-0.195000X0.165000X0.195000X-0.165000X0.195000X0*%
%ADD16RoundRect,0.165000X-0.195000X0.165000X-0.195000X-0.165000X0.195000X-0.165000X0.195000X0.165000X0*%
%ADD17RoundRect,0.250000X0.275000X-0.250000X0.275000X0.250000X-0.275000X0.250000X-0.275000X-0.250000X0*%
%ADD18RoundRect,0.160000X-0.160000X-0.210000X0.160000X-0.210000X0.160000X0.210000X-0.160000X0.210000X0*%
%ADD19RoundRect,0.075000X-0.075000X0.375000X-0.075000X-0.375000X0.075000X-0.375000X0.075000X0.375000X0*%
%ADD20RoundRect,0.050000X-1.250000X0.850000X-1.250000X-0.850000X1.250000X-0.850000X1.250000X0.850000X0*%
%ADD21RoundRect,0.118750X0.181250X0.118750X-0.181250X0.118750X-0.181250X-0.118750X0.181250X-0.118750X0*%
%ADD22RoundRect,0.100000X0.275000X0.100000X-0.275000X0.100000X-0.275000X-0.100000X0.275000X-0.100000X0*%
%ADD23RoundRect,0.243750X0.243750X0.406250X-0.243750X0.406250X-0.243750X-0.406250X0.243750X-0.406250X0*%
%ADD24RoundRect,0.160000X0.160000X0.210000X-0.160000X0.210000X-0.160000X-0.210000X0.160000X-0.210000X0*%
%ADD25RoundRect,0.175000X0.537500X0.175000X-0.537500X0.175000X-0.537500X-0.175000X0.537500X-0.175000X0*%
%ADD26C,2.590000*%
%ADD27RoundRect,0.050000X0.725000X-0.450000X0.725000X0.450000X-0.725000X0.450000X-0.725000X-0.450000X0*%
%ADD28FreePoly0,90.000000*%
%ADD29FreePoly0,270.000000*%
%ADD30RoundRect,0.102000X0.450000X-0.150000X0.450000X0.150000X-0.450000X0.150000X-0.450000X-0.150000X0*%
%ADD31O,2.804000X1.504000*%
%ADD32O,2.654000X1.429000*%
%ADD33RoundRect,0.243750X-0.243750X-0.281250X0.243750X-0.281250X0.243750X0.281250X-0.243750X0.281250X0*%
%ADD34RoundRect,0.162500X0.162500X0.687500X-0.162500X0.687500X-0.162500X-0.687500X0.162500X-0.687500X0*%
%ADD35RoundRect,0.150000X-0.150000X0.562500X-0.150000X-0.562500X0.150000X-0.562500X0.150000X0.562500X0*%
%ADD36RoundRect,0.165000X0.195000X-0.165000X0.195000X0.165000X-0.195000X0.165000X-0.195000X-0.165000X0*%
%ADD37RoundRect,0.165000X0.165000X0.195000X-0.165000X0.195000X-0.165000X-0.195000X0.165000X-0.195000X0*%
%ADD38RoundRect,0.050000X-0.124999X0.299999X-0.124999X-0.299999X0.124999X-0.299999X0.124999X0.299999X0*%
%ADD39RoundRect,0.050000X-0.149999X0.550000X-0.149999X-0.550000X0.149999X-0.550000X0.149999X0.550000X0*%
%ADD40C,2.100000*%
%ADD41C,2.000000*%
%ADD42C,2.250000*%
G04 APERTURE END LIST*
D10*
X37125000Y-94150000D02*
X51000000Y-94150000D01*
X51000000Y-94200000D01*
X37125000Y-94200000D01*
X37125000Y-94150000D01*
G36*
X37125000Y-94150000D02*
G01*
X51000000Y-94150000D01*
X51000000Y-94200000D01*
X37125000Y-94200000D01*
X37125000Y-94150000D01*
G37*
X59125000Y-94150000D02*
X73000000Y-94150000D01*
X73000000Y-94200000D01*
X59125000Y-94200000D01*
X59125000Y-94150000D01*
G36*
X59125000Y-94150000D02*
G01*
X73000000Y-94150000D01*
X73000000Y-94200000D01*
X59125000Y-94200000D01*
X59125000Y-94150000D01*
G37*
X81125000Y-94150000D02*
X95000000Y-94150000D01*
X95000000Y-94200000D01*
X81125000Y-94200000D01*
X81125000Y-94150000D01*
G36*
X81125000Y-94150000D02*
G01*
X95000000Y-94150000D01*
X95000000Y-94200000D01*
X81125000Y-94200000D01*
X81125000Y-94150000D01*
G37*
X103125000Y-94150000D02*
X117000000Y-94150000D01*
X117000000Y-94200000D01*
X103125000Y-94200000D01*
X103125000Y-94150000D01*
G36*
X103125000Y-94150000D02*
G01*
X117000000Y-94150000D01*
X117000000Y-94200000D01*
X103125000Y-94200000D01*
X103125000Y-94150000D01*
G37*
X37125000Y-65150000D02*
X51000000Y-65150000D01*
X51000000Y-65200000D01*
X37125000Y-65200000D01*
X37125000Y-65150000D01*
G36*
X37125000Y-65150000D02*
G01*
X51000000Y-65150000D01*
X51000000Y-65200000D01*
X37125000Y-65200000D01*
X37125000Y-65150000D01*
G37*
X59125000Y-65150000D02*
X73000000Y-65150000D01*
X73000000Y-65200000D01*
X59125000Y-65200000D01*
X59125000Y-65150000D01*
G36*
X59125000Y-65150000D02*
G01*
X73000000Y-65150000D01*
X73000000Y-65200000D01*
X59125000Y-65200000D01*
X59125000Y-65150000D01*
G37*
X81125000Y-65150000D02*
X95000000Y-65150000D01*
X95000000Y-65200000D01*
X81125000Y-65200000D01*
X81125000Y-65150000D01*
G36*
X81125000Y-65150000D02*
G01*
X95000000Y-65150000D01*
X95000000Y-65200000D01*
X81125000Y-65200000D01*
X81125000Y-65150000D01*
G37*
X103125000Y-65150000D02*
X117000000Y-65150000D01*
X117000000Y-65200000D01*
X103125000Y-65200000D01*
X103125000Y-65150000D01*
G36*
X103125000Y-65150000D02*
G01*
X117000000Y-65150000D01*
X117000000Y-65200000D01*
X103125000Y-65200000D01*
X103125000Y-65150000D01*
G37*
X103125000Y-36150000D02*
X117000000Y-36150000D01*
X117000000Y-36200000D01*
X103125000Y-36200000D01*
X103125000Y-36150000D01*
G36*
X103125000Y-36150000D02*
G01*
X117000000Y-36150000D01*
X117000000Y-36200000D01*
X103125000Y-36200000D01*
X103125000Y-36150000D01*
G37*
X81125000Y-36150000D02*
X95000000Y-36150000D01*
X95000000Y-36200000D01*
X81125000Y-36200000D01*
X81125000Y-36150000D01*
G36*
X81125000Y-36150000D02*
G01*
X95000000Y-36150000D01*
X95000000Y-36200000D01*
X81125000Y-36200000D01*
X81125000Y-36150000D01*
G37*
X59125000Y-36150000D02*
X73000000Y-36150000D01*
X73000000Y-36200000D01*
X59125000Y-36200000D01*
X59125000Y-36150000D01*
G36*
X59125000Y-36150000D02*
G01*
X73000000Y-36150000D01*
X73000000Y-36200000D01*
X59125000Y-36200000D01*
X59125000Y-36150000D01*
G37*
X37125000Y-36150000D02*
X51000000Y-36150000D01*
X51000000Y-36200000D01*
X37125000Y-36200000D01*
X37125000Y-36150000D01*
G36*
X37125000Y-36150000D02*
G01*
X51000000Y-36150000D01*
X51000000Y-36200000D01*
X37125000Y-36200000D01*
X37125000Y-36150000D01*
G37*
D11*
X70440580Y-110340000D02*
X70159420Y-110340000D01*
X70440580Y-111360000D02*
X70159420Y-111360000D01*
X104762164Y-97965000D02*
X104977836Y-97965000D01*
X104762164Y-98685000D02*
X104977836Y-98685000D01*
X86240000Y-111592164D02*
X86240000Y-111807836D01*
X86960000Y-111592164D02*
X86960000Y-111807836D01*
X109490000Y-111840580D02*
X109490000Y-111559420D01*
X110510000Y-111840580D02*
X110510000Y-111559420D01*
X114440580Y-110340000D02*
X114159420Y-110340000D01*
X114440580Y-111360000D02*
X114159420Y-111360000D01*
X60696359Y-95620000D02*
X61003641Y-95620000D01*
X60696359Y-96380000D02*
X61003641Y-96380000D01*
X103965000Y-100340000D02*
X104090000Y-100340000D01*
X103965000Y-103560000D02*
X103965000Y-100340000D01*
X104090000Y-103560000D02*
X103965000Y-103560000D01*
X107060000Y-100340000D02*
X107185000Y-100340000D01*
X107185000Y-100340000D02*
X107185000Y-103560000D01*
X107185000Y-103560000D02*
X107060000Y-103560000D01*
X106705000Y-99830000D02*
X106465000Y-99500000D01*
X106945000Y-99500000D01*
X106705000Y-99830000D01*
G36*
X106705000Y-99830000D02*
G01*
X106465000Y-99500000D01*
X106945000Y-99500000D01*
X106705000Y-99830000D01*
G37*
X108300000Y-100947500D02*
X109600000Y-100947500D01*
X108300000Y-102927500D02*
X109350000Y-102927500D01*
X109720000Y-102927500D02*
X110000000Y-102927500D01*
X109720000Y-103207500D01*
X109720000Y-102927500D01*
G36*
X109720000Y-103207500D02*
G01*
X109720000Y-102927500D01*
X110000000Y-102927500D01*
X109720000Y-103207500D01*
G37*
X108649622Y-97140000D02*
X107850378Y-97140000D01*
X108649622Y-98260000D02*
X107850378Y-98260000D01*
X66990000Y-111840580D02*
X66990000Y-111559420D01*
X68010000Y-111840580D02*
X68010000Y-111559420D01*
X82762164Y-96965000D02*
X82977836Y-96965000D01*
X82762164Y-97685000D02*
X82977836Y-97685000D01*
X92440580Y-110340000D02*
X92159420Y-110340000D01*
X92440580Y-111360000D02*
X92159420Y-111360000D01*
X48440580Y-110340000D02*
X48159420Y-110340000D01*
X48440580Y-111360000D02*
X48159420Y-111360000D01*
X64649622Y-97140000D02*
X63850378Y-97140000D01*
X64649622Y-98260000D02*
X63850378Y-98260000D01*
X82762164Y-97965000D02*
X82977836Y-97965000D01*
X82762164Y-98685000D02*
X82977836Y-98685000D01*
X65703641Y-98770000D02*
X65396359Y-98770000D01*
X65703641Y-99530000D02*
X65396359Y-99530000D01*
X64240000Y-111592164D02*
X64240000Y-111807836D01*
X64960000Y-111592164D02*
X64960000Y-111807836D01*
X60990000Y-109640000D02*
X62810000Y-109640000D01*
X60990000Y-109690000D02*
X60990000Y-109640000D01*
X60990000Y-111590000D02*
X60990000Y-110810000D01*
X60990000Y-112760000D02*
X60990000Y-112710000D01*
X62810000Y-109640000D02*
X62810000Y-109690000D01*
X62810000Y-112710000D02*
X62810000Y-112760000D01*
X62810000Y-112760000D02*
X60990000Y-112760000D01*
X63350000Y-112710000D02*
X63590000Y-113040000D01*
X63110000Y-113040000D01*
X63350000Y-112710000D01*
G36*
X63590000Y-113040000D02*
G01*
X63110000Y-113040000D01*
X63350000Y-112710000D01*
X63590000Y-113040000D01*
G37*
D12*
X110380000Y-105100000D02*
G75*
G02*
X110180000Y-105100000I-100000J0D01*
G01*
X110180000Y-105100000D02*
G75*
G02*
X110380000Y-105100000I100000J0D01*
G01*
D11*
X61800287Y-94319867D02*
X61800287Y-95789867D01*
X61800287Y-95789867D02*
X64085287Y-95789867D01*
X64085287Y-94319867D02*
X61800287Y-94319867D01*
X90440000Y-111590000D02*
X92660000Y-111590000D01*
X92660000Y-113710000D02*
X90440000Y-113710000D01*
X82560796Y-105533162D02*
X82635796Y-105533162D01*
X82560796Y-107353162D02*
X82560796Y-105533162D01*
X82635796Y-107353162D02*
X82560796Y-107353162D01*
X85605796Y-105533162D02*
X85680796Y-105533162D01*
X85680796Y-105533162D02*
X85680796Y-107353162D01*
X85680796Y-107353162D02*
X85605796Y-107353162D01*
X85610796Y-104993162D02*
X85940796Y-104753162D01*
X85940796Y-105233162D01*
X85610796Y-104993162D01*
G36*
X85940796Y-105233162D02*
G01*
X85610796Y-104993162D01*
X85940796Y-104753162D01*
X85940796Y-105233162D01*
G37*
X38560796Y-105533162D02*
X38635796Y-105533162D01*
X38560796Y-107353162D02*
X38560796Y-105533162D01*
X38635796Y-107353162D02*
X38560796Y-107353162D01*
X41605796Y-105533162D02*
X41680796Y-105533162D01*
X41680796Y-105533162D02*
X41680796Y-107353162D01*
X41680796Y-107353162D02*
X41605796Y-107353162D01*
X41610796Y-104993162D02*
X41940796Y-104753162D01*
X41940796Y-105233162D01*
X41610796Y-104993162D01*
G36*
X41940796Y-105233162D02*
G01*
X41610796Y-104993162D01*
X41940796Y-104753162D01*
X41940796Y-105233162D01*
G37*
X37490000Y-105042164D02*
X37490000Y-105257836D01*
X38210000Y-105042164D02*
X38210000Y-105257836D01*
X107985796Y-106588498D02*
X107985796Y-106372826D01*
X108705796Y-106588498D02*
X108705796Y-106372826D01*
X44990000Y-111840580D02*
X44990000Y-111559420D01*
X46010000Y-111840580D02*
X46010000Y-111559420D01*
X87703641Y-98770000D02*
X87396359Y-98770000D01*
X87703641Y-99530000D02*
X87396359Y-99530000D01*
X43703641Y-98770000D02*
X43396359Y-98770000D01*
X43703641Y-99530000D02*
X43396359Y-99530000D01*
X87107836Y-99940000D02*
X86892164Y-99940000D01*
X87107836Y-100660000D02*
X86892164Y-100660000D01*
X39800287Y-94319867D02*
X39800287Y-95789867D01*
X39800287Y-95789867D02*
X42085287Y-95789867D01*
X42085287Y-94319867D02*
X39800287Y-94319867D01*
D12*
X91399998Y-108225001D02*
X91399998Y-108425001D01*
X91399998Y-109500002D02*
X91399998Y-109700002D01*
X93200000Y-108200000D02*
X93200000Y-108700001D01*
X93200000Y-109450000D02*
X93200000Y-109650000D01*
D11*
X86649622Y-97140000D02*
X85850378Y-97140000D01*
X86649622Y-98260000D02*
X85850378Y-98260000D01*
X83800287Y-94319867D02*
X83800287Y-95789867D01*
X83800287Y-95789867D02*
X86085287Y-95789867D01*
X86085287Y-94319867D02*
X83800287Y-94319867D01*
X104560796Y-105533162D02*
X104635796Y-105533162D01*
X104560796Y-107353162D02*
X104560796Y-105533162D01*
X104635796Y-107353162D02*
X104560796Y-107353162D01*
X107605796Y-105533162D02*
X107680796Y-105533162D01*
X107680796Y-105533162D02*
X107680796Y-107353162D01*
X107680796Y-107353162D02*
X107605796Y-107353162D01*
X107610796Y-104993162D02*
X107940796Y-104753162D01*
X107940796Y-105233162D01*
X107610796Y-104993162D01*
G36*
X107940796Y-105233162D02*
G01*
X107610796Y-104993162D01*
X107940796Y-104753162D01*
X107940796Y-105233162D01*
G37*
X105003641Y-94620000D02*
X104696359Y-94620000D01*
X105003641Y-95380000D02*
X104696359Y-95380000D01*
X82990000Y-109640000D02*
X84810000Y-109640000D01*
X82990000Y-109690000D02*
X82990000Y-109640000D01*
X82990000Y-111590000D02*
X82990000Y-110810000D01*
X82990000Y-112760000D02*
X82990000Y-112710000D01*
X84810000Y-109640000D02*
X84810000Y-109690000D01*
X84810000Y-112710000D02*
X84810000Y-112760000D01*
X84810000Y-112760000D02*
X82990000Y-112760000D01*
X85350000Y-112710000D02*
X85590000Y-113040000D01*
X85110000Y-113040000D01*
X85350000Y-112710000D01*
G36*
X85590000Y-113040000D02*
G01*
X85110000Y-113040000D01*
X85350000Y-112710000D01*
X85590000Y-113040000D01*
G37*
X85985796Y-106588498D02*
X85985796Y-106372826D01*
X86705796Y-106588498D02*
X86705796Y-106372826D01*
X83003641Y-94620000D02*
X82696359Y-94620000D01*
X83003641Y-95380000D02*
X82696359Y-95380000D01*
X81490000Y-105042164D02*
X81490000Y-105257836D01*
X82210000Y-105042164D02*
X82210000Y-105257836D01*
X37965000Y-100340000D02*
X38090000Y-100340000D01*
X37965000Y-103560000D02*
X37965000Y-100340000D01*
X38090000Y-103560000D02*
X37965000Y-103560000D01*
X41060000Y-100340000D02*
X41185000Y-100340000D01*
X41185000Y-100340000D02*
X41185000Y-103560000D01*
X41185000Y-103560000D02*
X41060000Y-103560000D01*
X40705000Y-99830000D02*
X40465000Y-99500000D01*
X40945000Y-99500000D01*
X40705000Y-99830000D01*
G36*
X40705000Y-99830000D02*
G01*
X40465000Y-99500000D01*
X40945000Y-99500000D01*
X40705000Y-99830000D01*
G37*
X61003641Y-94620000D02*
X60696359Y-94620000D01*
X61003641Y-95380000D02*
X60696359Y-95380000D01*
X43107836Y-99940000D02*
X42892164Y-99940000D01*
X43107836Y-100660000D02*
X42892164Y-100660000D01*
X65346359Y-103420000D02*
X65653641Y-103420000D01*
X65346359Y-104180000D02*
X65653641Y-104180000D01*
X86300000Y-100947500D02*
X87600000Y-100947500D01*
X86300000Y-102927500D02*
X87350000Y-102927500D01*
X87720000Y-102927500D02*
X88000000Y-102927500D01*
X87720000Y-103207500D01*
X87720000Y-102927500D01*
G36*
X87720000Y-103207500D02*
G01*
X87720000Y-102927500D01*
X88000000Y-102927500D01*
X87720000Y-103207500D01*
G37*
X60762164Y-96965000D02*
X60977836Y-96965000D01*
X60762164Y-97685000D02*
X60977836Y-97685000D01*
X68440000Y-111590000D02*
X70660000Y-111590000D01*
X70660000Y-113710000D02*
X68440000Y-113710000D01*
X60560796Y-105533162D02*
X60635796Y-105533162D01*
X60560796Y-107353162D02*
X60560796Y-105533162D01*
X60635796Y-107353162D02*
X60560796Y-107353162D01*
X63605796Y-105533162D02*
X63680796Y-105533162D01*
X63680796Y-105533162D02*
X63680796Y-107353162D01*
X63680796Y-107353162D02*
X63605796Y-107353162D01*
X63610796Y-104993162D02*
X63940796Y-104753162D01*
X63940796Y-105233162D01*
X63610796Y-104993162D01*
G36*
X63940796Y-105233162D02*
G01*
X63610796Y-104993162D01*
X63940796Y-104753162D01*
X63940796Y-105233162D01*
G37*
X63985796Y-106588498D02*
X63985796Y-106372826D01*
X64705796Y-106588498D02*
X64705796Y-106372826D01*
X82696359Y-95620000D02*
X83003641Y-95620000D01*
X82696359Y-96380000D02*
X83003641Y-96380000D01*
X65107836Y-99940000D02*
X64892164Y-99940000D01*
X65107836Y-100660000D02*
X64892164Y-100660000D01*
X43490000Y-111840580D02*
X43490000Y-111559420D01*
X44510000Y-111840580D02*
X44510000Y-111559420D01*
D12*
X88380000Y-105100000D02*
G75*
G02*
X88180000Y-105100000I-100000J0D01*
G01*
X88180000Y-105100000D02*
G75*
G02*
X88380000Y-105100000I100000J0D01*
G01*
X113399998Y-108225001D02*
X113399998Y-108425001D01*
X113399998Y-109500002D02*
X113399998Y-109700002D01*
X115200000Y-108200000D02*
X115200000Y-108700001D01*
X115200000Y-109450000D02*
X115200000Y-109650000D01*
D11*
X82977836Y-98965000D02*
X82762164Y-98965000D01*
X82977836Y-99685000D02*
X82762164Y-99685000D01*
X38762164Y-96965000D02*
X38977836Y-96965000D01*
X38762164Y-97685000D02*
X38977836Y-97685000D01*
X59965000Y-100340000D02*
X60090000Y-100340000D01*
X59965000Y-103560000D02*
X59965000Y-100340000D01*
X60090000Y-103560000D02*
X59965000Y-103560000D01*
X63060000Y-100340000D02*
X63185000Y-100340000D01*
X63185000Y-100340000D02*
X63185000Y-103560000D01*
X63185000Y-103560000D02*
X63060000Y-103560000D01*
X62705000Y-99830000D02*
X62465000Y-99500000D01*
X62945000Y-99500000D01*
X62705000Y-99830000D01*
G36*
X62705000Y-99830000D02*
G01*
X62465000Y-99500000D01*
X62945000Y-99500000D01*
X62705000Y-99830000D01*
G37*
X104696359Y-95620000D02*
X105003641Y-95620000D01*
X104696359Y-96380000D02*
X105003641Y-96380000D01*
X87490000Y-111840580D02*
X87490000Y-111559420D01*
X88510000Y-111840580D02*
X88510000Y-111559420D01*
X38977836Y-98965000D02*
X38762164Y-98965000D01*
X38977836Y-99685000D02*
X38762164Y-99685000D01*
X104977836Y-98965000D02*
X104762164Y-98965000D01*
X104977836Y-99685000D02*
X104762164Y-99685000D01*
X46440000Y-111590000D02*
X48660000Y-111590000D01*
X48660000Y-113710000D02*
X46440000Y-113710000D01*
X81965000Y-100340000D02*
X82090000Y-100340000D01*
X81965000Y-103560000D02*
X81965000Y-100340000D01*
X82090000Y-103560000D02*
X81965000Y-103560000D01*
X85060000Y-100340000D02*
X85185000Y-100340000D01*
X85185000Y-100340000D02*
X85185000Y-103560000D01*
X85185000Y-103560000D02*
X85060000Y-103560000D01*
X84705000Y-99830000D02*
X84465000Y-99500000D01*
X84945000Y-99500000D01*
X84705000Y-99830000D01*
G36*
X84705000Y-99830000D02*
G01*
X84465000Y-99500000D01*
X84945000Y-99500000D01*
X84705000Y-99830000D01*
G37*
X109107836Y-99940000D02*
X108892164Y-99940000D01*
X109107836Y-100660000D02*
X108892164Y-100660000D01*
X39003641Y-94620000D02*
X38696359Y-94620000D01*
X39003641Y-95380000D02*
X38696359Y-95380000D01*
X41985796Y-106588498D02*
X41985796Y-106372826D01*
X42705796Y-106588498D02*
X42705796Y-106372826D01*
D12*
X69399998Y-108225001D02*
X69399998Y-108425001D01*
X69399998Y-109500002D02*
X69399998Y-109700002D01*
X71200000Y-108200000D02*
X71200000Y-108700001D01*
X71200000Y-109450000D02*
X71200000Y-109650000D01*
D11*
X109703641Y-98770000D02*
X109396359Y-98770000D01*
X109703641Y-99530000D02*
X109396359Y-99530000D01*
X110990000Y-111840580D02*
X110990000Y-111559420D01*
X112010000Y-111840580D02*
X112010000Y-111559420D01*
X104990000Y-109640000D02*
X106810000Y-109640000D01*
X104990000Y-109690000D02*
X104990000Y-109640000D01*
X104990000Y-111590000D02*
X104990000Y-110810000D01*
X104990000Y-112760000D02*
X104990000Y-112710000D01*
X106810000Y-109640000D02*
X106810000Y-109690000D01*
X106810000Y-112710000D02*
X106810000Y-112760000D01*
X106810000Y-112760000D02*
X104990000Y-112760000D01*
X107350000Y-112710000D02*
X107590000Y-113040000D01*
X107110000Y-113040000D01*
X107350000Y-112710000D01*
G36*
X107590000Y-113040000D02*
G01*
X107110000Y-113040000D01*
X107350000Y-112710000D01*
X107590000Y-113040000D01*
G37*
X38990000Y-109640000D02*
X40810000Y-109640000D01*
X38990000Y-109690000D02*
X38990000Y-109640000D01*
X38990000Y-111590000D02*
X38990000Y-110810000D01*
X38990000Y-112760000D02*
X38990000Y-112710000D01*
X40810000Y-109640000D02*
X40810000Y-109690000D01*
X40810000Y-112710000D02*
X40810000Y-112760000D01*
X40810000Y-112760000D02*
X38990000Y-112760000D01*
X41350000Y-112710000D02*
X41590000Y-113040000D01*
X41110000Y-113040000D01*
X41350000Y-112710000D01*
G36*
X41590000Y-113040000D02*
G01*
X41110000Y-113040000D01*
X41350000Y-112710000D01*
X41590000Y-113040000D01*
G37*
X59490000Y-105042164D02*
X59490000Y-105257836D01*
X60210000Y-105042164D02*
X60210000Y-105257836D01*
X88990000Y-111840580D02*
X88990000Y-111559420D01*
X90010000Y-111840580D02*
X90010000Y-111559420D01*
X87346359Y-103420000D02*
X87653641Y-103420000D01*
X87346359Y-104180000D02*
X87653641Y-104180000D01*
D12*
X44380000Y-105100000D02*
G75*
G02*
X44180000Y-105100000I-100000J0D01*
G01*
X44180000Y-105100000D02*
G75*
G02*
X44380000Y-105100000I100000J0D01*
G01*
D11*
X109346359Y-103420000D02*
X109653641Y-103420000D01*
X109346359Y-104180000D02*
X109653641Y-104180000D01*
D12*
X66380000Y-105100000D02*
G75*
G02*
X66180000Y-105100000I-100000J0D01*
G01*
X66180000Y-105100000D02*
G75*
G02*
X66380000Y-105100000I100000J0D01*
G01*
D11*
X108240000Y-111592164D02*
X108240000Y-111807836D01*
X108960000Y-111592164D02*
X108960000Y-111807836D01*
X42300000Y-100947500D02*
X43600000Y-100947500D01*
X42300000Y-102927500D02*
X43350000Y-102927500D01*
X43720000Y-102927500D02*
X44000000Y-102927500D01*
X43720000Y-103207500D01*
X43720000Y-102927500D01*
G36*
X43720000Y-103207500D02*
G01*
X43720000Y-102927500D01*
X44000000Y-102927500D01*
X43720000Y-103207500D01*
G37*
X60762164Y-97965000D02*
X60977836Y-97965000D01*
X60762164Y-98685000D02*
X60977836Y-98685000D01*
X42240000Y-111592164D02*
X42240000Y-111807836D01*
X42960000Y-111592164D02*
X42960000Y-111807836D01*
X103490000Y-105042164D02*
X103490000Y-105257836D01*
X104210000Y-105042164D02*
X104210000Y-105257836D01*
X112440000Y-111590000D02*
X114660000Y-111590000D01*
X114660000Y-113710000D02*
X112440000Y-113710000D01*
X43346359Y-103420000D02*
X43653641Y-103420000D01*
X43346359Y-104180000D02*
X43653641Y-104180000D01*
X38696359Y-95620000D02*
X39003641Y-95620000D01*
X38696359Y-96380000D02*
X39003641Y-96380000D01*
X105800287Y-94319867D02*
X105800287Y-95789867D01*
X105800287Y-95789867D02*
X108085287Y-95789867D01*
X108085287Y-94319867D02*
X105800287Y-94319867D01*
D12*
X47399998Y-108225001D02*
X47399998Y-108425001D01*
X47399998Y-109500002D02*
X47399998Y-109700002D01*
X49200000Y-108200000D02*
X49200000Y-108700001D01*
X49200000Y-109450000D02*
X49200000Y-109650000D01*
D11*
X65490000Y-111840580D02*
X65490000Y-111559420D01*
X66510000Y-111840580D02*
X66510000Y-111559420D01*
X104762164Y-96965000D02*
X104977836Y-96965000D01*
X104762164Y-97685000D02*
X104977836Y-97685000D01*
X64300000Y-100947500D02*
X65600000Y-100947500D01*
X64300000Y-102927500D02*
X65350000Y-102927500D01*
X65720000Y-102927500D02*
X66000000Y-102927500D01*
X65720000Y-103207500D01*
X65720000Y-102927500D01*
G36*
X65720000Y-103207500D02*
G01*
X65720000Y-102927500D01*
X66000000Y-102927500D01*
X65720000Y-103207500D01*
G37*
X38762164Y-97965000D02*
X38977836Y-97965000D01*
X38762164Y-98685000D02*
X38977836Y-98685000D01*
X42649622Y-97140000D02*
X41850378Y-97140000D01*
X42649622Y-98260000D02*
X41850378Y-98260000D01*
X60977836Y-98965000D02*
X60762164Y-98965000D01*
X60977836Y-99685000D02*
X60762164Y-99685000D01*
X70440580Y-81340000D02*
X70159420Y-81340000D01*
X70440580Y-82360000D02*
X70159420Y-82360000D01*
X104762164Y-68965000D02*
X104977836Y-68965000D01*
X104762164Y-69685000D02*
X104977836Y-69685000D01*
X86240000Y-82592164D02*
X86240000Y-82807836D01*
X86960000Y-82592164D02*
X86960000Y-82807836D01*
X109490000Y-82840580D02*
X109490000Y-82559420D01*
X110510000Y-82840580D02*
X110510000Y-82559420D01*
X114440580Y-81340000D02*
X114159420Y-81340000D01*
X114440580Y-82360000D02*
X114159420Y-82360000D01*
X60696359Y-66620000D02*
X61003641Y-66620000D01*
X60696359Y-67380000D02*
X61003641Y-67380000D01*
X103965000Y-71340000D02*
X104090000Y-71340000D01*
X103965000Y-74560000D02*
X103965000Y-71340000D01*
X104090000Y-74560000D02*
X103965000Y-74560000D01*
X107060000Y-71340000D02*
X107185000Y-71340000D01*
X107185000Y-71340000D02*
X107185000Y-74560000D01*
X107185000Y-74560000D02*
X107060000Y-74560000D01*
X106705000Y-70830000D02*
X106465000Y-70500000D01*
X106945000Y-70500000D01*
X106705000Y-70830000D01*
G36*
X106705000Y-70830000D02*
G01*
X106465000Y-70500000D01*
X106945000Y-70500000D01*
X106705000Y-70830000D01*
G37*
X108300000Y-71947500D02*
X109600000Y-71947500D01*
X108300000Y-73927500D02*
X109350000Y-73927500D01*
X109720000Y-73927500D02*
X110000000Y-73927500D01*
X109720000Y-74207500D01*
X109720000Y-73927500D01*
G36*
X109720000Y-74207500D02*
G01*
X109720000Y-73927500D01*
X110000000Y-73927500D01*
X109720000Y-74207500D01*
G37*
X108649622Y-68140000D02*
X107850378Y-68140000D01*
X108649622Y-69260000D02*
X107850378Y-69260000D01*
X66990000Y-82840580D02*
X66990000Y-82559420D01*
X68010000Y-82840580D02*
X68010000Y-82559420D01*
X82762164Y-67965000D02*
X82977836Y-67965000D01*
X82762164Y-68685000D02*
X82977836Y-68685000D01*
X92440580Y-81340000D02*
X92159420Y-81340000D01*
X92440580Y-82360000D02*
X92159420Y-82360000D01*
X48440580Y-81340000D02*
X48159420Y-81340000D01*
X48440580Y-82360000D02*
X48159420Y-82360000D01*
X64649622Y-68140000D02*
X63850378Y-68140000D01*
X64649622Y-69260000D02*
X63850378Y-69260000D01*
X82762164Y-68965000D02*
X82977836Y-68965000D01*
X82762164Y-69685000D02*
X82977836Y-69685000D01*
X65703641Y-69770000D02*
X65396359Y-69770000D01*
X65703641Y-70530000D02*
X65396359Y-70530000D01*
X64240000Y-82592164D02*
X64240000Y-82807836D01*
X64960000Y-82592164D02*
X64960000Y-82807836D01*
X60990000Y-80640000D02*
X62810000Y-80640000D01*
X60990000Y-80690000D02*
X60990000Y-80640000D01*
X60990000Y-82590000D02*
X60990000Y-81810000D01*
X60990000Y-83760000D02*
X60990000Y-83710000D01*
X62810000Y-80640000D02*
X62810000Y-80690000D01*
X62810000Y-83710000D02*
X62810000Y-83760000D01*
X62810000Y-83760000D02*
X60990000Y-83760000D01*
X63350000Y-83710000D02*
X63590000Y-84040000D01*
X63110000Y-84040000D01*
X63350000Y-83710000D01*
G36*
X63590000Y-84040000D02*
G01*
X63110000Y-84040000D01*
X63350000Y-83710000D01*
X63590000Y-84040000D01*
G37*
D12*
X110380000Y-76100000D02*
G75*
G02*
X110180000Y-76100000I-100000J0D01*
G01*
X110180000Y-76100000D02*
G75*
G02*
X110380000Y-76100000I100000J0D01*
G01*
D11*
X61800287Y-65319867D02*
X61800287Y-66789867D01*
X61800287Y-66789867D02*
X64085287Y-66789867D01*
X64085287Y-65319867D02*
X61800287Y-65319867D01*
X90440000Y-82590000D02*
X92660000Y-82590000D01*
X92660000Y-84710000D02*
X90440000Y-84710000D01*
X82560796Y-76533162D02*
X82635796Y-76533162D01*
X82560796Y-78353162D02*
X82560796Y-76533162D01*
X82635796Y-78353162D02*
X82560796Y-78353162D01*
X85605796Y-76533162D02*
X85680796Y-76533162D01*
X85680796Y-76533162D02*
X85680796Y-78353162D01*
X85680796Y-78353162D02*
X85605796Y-78353162D01*
X85610796Y-75993162D02*
X85940796Y-75753162D01*
X85940796Y-76233162D01*
X85610796Y-75993162D01*
G36*
X85940796Y-76233162D02*
G01*
X85610796Y-75993162D01*
X85940796Y-75753162D01*
X85940796Y-76233162D01*
G37*
X38560796Y-76533162D02*
X38635796Y-76533162D01*
X38560796Y-78353162D02*
X38560796Y-76533162D01*
X38635796Y-78353162D02*
X38560796Y-78353162D01*
X41605796Y-76533162D02*
X41680796Y-76533162D01*
X41680796Y-76533162D02*
X41680796Y-78353162D01*
X41680796Y-78353162D02*
X41605796Y-78353162D01*
X41610796Y-75993162D02*
X41940796Y-75753162D01*
X41940796Y-76233162D01*
X41610796Y-75993162D01*
G36*
X41940796Y-76233162D02*
G01*
X41610796Y-75993162D01*
X41940796Y-75753162D01*
X41940796Y-76233162D01*
G37*
X37490000Y-76042164D02*
X37490000Y-76257836D01*
X38210000Y-76042164D02*
X38210000Y-76257836D01*
X107985796Y-77588498D02*
X107985796Y-77372826D01*
X108705796Y-77588498D02*
X108705796Y-77372826D01*
X44990000Y-82840580D02*
X44990000Y-82559420D01*
X46010000Y-82840580D02*
X46010000Y-82559420D01*
X87703641Y-69770000D02*
X87396359Y-69770000D01*
X87703641Y-70530000D02*
X87396359Y-70530000D01*
X43703641Y-69770000D02*
X43396359Y-69770000D01*
X43703641Y-70530000D02*
X43396359Y-70530000D01*
X87107836Y-70940000D02*
X86892164Y-70940000D01*
X87107836Y-71660000D02*
X86892164Y-71660000D01*
X39800287Y-65319867D02*
X39800287Y-66789867D01*
X39800287Y-66789867D02*
X42085287Y-66789867D01*
X42085287Y-65319867D02*
X39800287Y-65319867D01*
D12*
X91399998Y-79225001D02*
X91399998Y-79425001D01*
X91399998Y-80500002D02*
X91399998Y-80700002D01*
X93200000Y-79200000D02*
X93200000Y-79700001D01*
X93200000Y-80450000D02*
X93200000Y-80650000D01*
D11*
X86649622Y-68140000D02*
X85850378Y-68140000D01*
X86649622Y-69260000D02*
X85850378Y-69260000D01*
X83800287Y-65319867D02*
X83800287Y-66789867D01*
X83800287Y-66789867D02*
X86085287Y-66789867D01*
X86085287Y-65319867D02*
X83800287Y-65319867D01*
X104560796Y-76533162D02*
X104635796Y-76533162D01*
X104560796Y-78353162D02*
X104560796Y-76533162D01*
X104635796Y-78353162D02*
X104560796Y-78353162D01*
X107605796Y-76533162D02*
X107680796Y-76533162D01*
X107680796Y-76533162D02*
X107680796Y-78353162D01*
X107680796Y-78353162D02*
X107605796Y-78353162D01*
X107610796Y-75993162D02*
X107940796Y-75753162D01*
X107940796Y-76233162D01*
X107610796Y-75993162D01*
G36*
X107940796Y-76233162D02*
G01*
X107610796Y-75993162D01*
X107940796Y-75753162D01*
X107940796Y-76233162D01*
G37*
X105003641Y-65620000D02*
X104696359Y-65620000D01*
X105003641Y-66380000D02*
X104696359Y-66380000D01*
X82990000Y-80640000D02*
X84810000Y-80640000D01*
X82990000Y-80690000D02*
X82990000Y-80640000D01*
X82990000Y-82590000D02*
X82990000Y-81810000D01*
X82990000Y-83760000D02*
X82990000Y-83710000D01*
X84810000Y-80640000D02*
X84810000Y-80690000D01*
X84810000Y-83710000D02*
X84810000Y-83760000D01*
X84810000Y-83760000D02*
X82990000Y-83760000D01*
X85350000Y-83710000D02*
X85590000Y-84040000D01*
X85110000Y-84040000D01*
X85350000Y-83710000D01*
G36*
X85590000Y-84040000D02*
G01*
X85110000Y-84040000D01*
X85350000Y-83710000D01*
X85590000Y-84040000D01*
G37*
X85985796Y-77588498D02*
X85985796Y-77372826D01*
X86705796Y-77588498D02*
X86705796Y-77372826D01*
X83003641Y-65620000D02*
X82696359Y-65620000D01*
X83003641Y-66380000D02*
X82696359Y-66380000D01*
X81490000Y-76042164D02*
X81490000Y-76257836D01*
X82210000Y-76042164D02*
X82210000Y-76257836D01*
X37965000Y-71340000D02*
X38090000Y-71340000D01*
X37965000Y-74560000D02*
X37965000Y-71340000D01*
X38090000Y-74560000D02*
X37965000Y-74560000D01*
X41060000Y-71340000D02*
X41185000Y-71340000D01*
X41185000Y-71340000D02*
X41185000Y-74560000D01*
X41185000Y-74560000D02*
X41060000Y-74560000D01*
X40705000Y-70830000D02*
X40465000Y-70500000D01*
X40945000Y-70500000D01*
X40705000Y-70830000D01*
G36*
X40705000Y-70830000D02*
G01*
X40465000Y-70500000D01*
X40945000Y-70500000D01*
X40705000Y-70830000D01*
G37*
X61003641Y-65620000D02*
X60696359Y-65620000D01*
X61003641Y-66380000D02*
X60696359Y-66380000D01*
X43107836Y-70940000D02*
X42892164Y-70940000D01*
X43107836Y-71660000D02*
X42892164Y-71660000D01*
X65346359Y-74420000D02*
X65653641Y-74420000D01*
X65346359Y-75180000D02*
X65653641Y-75180000D01*
X86300000Y-71947500D02*
X87600000Y-71947500D01*
X86300000Y-73927500D02*
X87350000Y-73927500D01*
X87720000Y-73927500D02*
X88000000Y-73927500D01*
X87720000Y-74207500D01*
X87720000Y-73927500D01*
G36*
X87720000Y-74207500D02*
G01*
X87720000Y-73927500D01*
X88000000Y-73927500D01*
X87720000Y-74207500D01*
G37*
X60762164Y-67965000D02*
X60977836Y-67965000D01*
X60762164Y-68685000D02*
X60977836Y-68685000D01*
X68440000Y-82590000D02*
X70660000Y-82590000D01*
X70660000Y-84710000D02*
X68440000Y-84710000D01*
X60560796Y-76533162D02*
X60635796Y-76533162D01*
X60560796Y-78353162D02*
X60560796Y-76533162D01*
X60635796Y-78353162D02*
X60560796Y-78353162D01*
X63605796Y-76533162D02*
X63680796Y-76533162D01*
X63680796Y-76533162D02*
X63680796Y-78353162D01*
X63680796Y-78353162D02*
X63605796Y-78353162D01*
X63610796Y-75993162D02*
X63940796Y-75753162D01*
X63940796Y-76233162D01*
X63610796Y-75993162D01*
G36*
X63940796Y-76233162D02*
G01*
X63610796Y-75993162D01*
X63940796Y-75753162D01*
X63940796Y-76233162D01*
G37*
X63985796Y-77588498D02*
X63985796Y-77372826D01*
X64705796Y-77588498D02*
X64705796Y-77372826D01*
X82696359Y-66620000D02*
X83003641Y-66620000D01*
X82696359Y-67380000D02*
X83003641Y-67380000D01*
X65107836Y-70940000D02*
X64892164Y-70940000D01*
X65107836Y-71660000D02*
X64892164Y-71660000D01*
X43490000Y-82840580D02*
X43490000Y-82559420D01*
X44510000Y-82840580D02*
X44510000Y-82559420D01*
D12*
X88380000Y-76100000D02*
G75*
G02*
X88180000Y-76100000I-100000J0D01*
G01*
X88180000Y-76100000D02*
G75*
G02*
X88380000Y-76100000I100000J0D01*
G01*
X113399998Y-79225001D02*
X113399998Y-79425001D01*
X113399998Y-80500002D02*
X113399998Y-80700002D01*
X115200000Y-79200000D02*
X115200000Y-79700001D01*
X115200000Y-80450000D02*
X115200000Y-80650000D01*
D11*
X82977836Y-69965000D02*
X82762164Y-69965000D01*
X82977836Y-70685000D02*
X82762164Y-70685000D01*
X38762164Y-67965000D02*
X38977836Y-67965000D01*
X38762164Y-68685000D02*
X38977836Y-68685000D01*
X59965000Y-71340000D02*
X60090000Y-71340000D01*
X59965000Y-74560000D02*
X59965000Y-71340000D01*
X60090000Y-74560000D02*
X59965000Y-74560000D01*
X63060000Y-71340000D02*
X63185000Y-71340000D01*
X63185000Y-71340000D02*
X63185000Y-74560000D01*
X63185000Y-74560000D02*
X63060000Y-74560000D01*
X62705000Y-70830000D02*
X62465000Y-70500000D01*
X62945000Y-70500000D01*
X62705000Y-70830000D01*
G36*
X62705000Y-70830000D02*
G01*
X62465000Y-70500000D01*
X62945000Y-70500000D01*
X62705000Y-70830000D01*
G37*
X104696359Y-66620000D02*
X105003641Y-66620000D01*
X104696359Y-67380000D02*
X105003641Y-67380000D01*
X87490000Y-82840580D02*
X87490000Y-82559420D01*
X88510000Y-82840580D02*
X88510000Y-82559420D01*
X38977836Y-69965000D02*
X38762164Y-69965000D01*
X38977836Y-70685000D02*
X38762164Y-70685000D01*
X104977836Y-69965000D02*
X104762164Y-69965000D01*
X104977836Y-70685000D02*
X104762164Y-70685000D01*
X46440000Y-82590000D02*
X48660000Y-82590000D01*
X48660000Y-84710000D02*
X46440000Y-84710000D01*
X81965000Y-71340000D02*
X82090000Y-71340000D01*
X81965000Y-74560000D02*
X81965000Y-71340000D01*
X82090000Y-74560000D02*
X81965000Y-74560000D01*
X85060000Y-71340000D02*
X85185000Y-71340000D01*
X85185000Y-71340000D02*
X85185000Y-74560000D01*
X85185000Y-74560000D02*
X85060000Y-74560000D01*
X84705000Y-70830000D02*
X84465000Y-70500000D01*
X84945000Y-70500000D01*
X84705000Y-70830000D01*
G36*
X84705000Y-70830000D02*
G01*
X84465000Y-70500000D01*
X84945000Y-70500000D01*
X84705000Y-70830000D01*
G37*
X109107836Y-70940000D02*
X108892164Y-70940000D01*
X109107836Y-71660000D02*
X108892164Y-71660000D01*
X39003641Y-65620000D02*
X38696359Y-65620000D01*
X39003641Y-66380000D02*
X38696359Y-66380000D01*
X41985796Y-77588498D02*
X41985796Y-77372826D01*
X42705796Y-77588498D02*
X42705796Y-77372826D01*
D12*
X69399998Y-79225001D02*
X69399998Y-79425001D01*
X69399998Y-80500002D02*
X69399998Y-80700002D01*
X71200000Y-79200000D02*
X71200000Y-79700001D01*
X71200000Y-80450000D02*
X71200000Y-80650000D01*
D11*
X109703641Y-69770000D02*
X109396359Y-69770000D01*
X109703641Y-70530000D02*
X109396359Y-70530000D01*
X110990000Y-82840580D02*
X110990000Y-82559420D01*
X112010000Y-82840580D02*
X112010000Y-82559420D01*
X104990000Y-80640000D02*
X106810000Y-80640000D01*
X104990000Y-80690000D02*
X104990000Y-80640000D01*
X104990000Y-82590000D02*
X104990000Y-81810000D01*
X104990000Y-83760000D02*
X104990000Y-83710000D01*
X106810000Y-80640000D02*
X106810000Y-80690000D01*
X106810000Y-83710000D02*
X106810000Y-83760000D01*
X106810000Y-83760000D02*
X104990000Y-83760000D01*
X107350000Y-83710000D02*
X107590000Y-84040000D01*
X107110000Y-84040000D01*
X107350000Y-83710000D01*
G36*
X107590000Y-84040000D02*
G01*
X107110000Y-84040000D01*
X107350000Y-83710000D01*
X107590000Y-84040000D01*
G37*
X38990000Y-80640000D02*
X40810000Y-80640000D01*
X38990000Y-80690000D02*
X38990000Y-80640000D01*
X38990000Y-82590000D02*
X38990000Y-81810000D01*
X38990000Y-83760000D02*
X38990000Y-83710000D01*
X40810000Y-80640000D02*
X40810000Y-80690000D01*
X40810000Y-83710000D02*
X40810000Y-83760000D01*
X40810000Y-83760000D02*
X38990000Y-83760000D01*
X41350000Y-83710000D02*
X41590000Y-84040000D01*
X41110000Y-84040000D01*
X41350000Y-83710000D01*
G36*
X41590000Y-84040000D02*
G01*
X41110000Y-84040000D01*
X41350000Y-83710000D01*
X41590000Y-84040000D01*
G37*
X59490000Y-76042164D02*
X59490000Y-76257836D01*
X60210000Y-76042164D02*
X60210000Y-76257836D01*
X88990000Y-82840580D02*
X88990000Y-82559420D01*
X90010000Y-82840580D02*
X90010000Y-82559420D01*
X87346359Y-74420000D02*
X87653641Y-74420000D01*
X87346359Y-75180000D02*
X87653641Y-75180000D01*
D12*
X44380000Y-76100000D02*
G75*
G02*
X44180000Y-76100000I-100000J0D01*
G01*
X44180000Y-76100000D02*
G75*
G02*
X44380000Y-76100000I100000J0D01*
G01*
D11*
X109346359Y-74420000D02*
X109653641Y-74420000D01*
X109346359Y-75180000D02*
X109653641Y-75180000D01*
D12*
X66380000Y-76100000D02*
G75*
G02*
X66180000Y-76100000I-100000J0D01*
G01*
X66180000Y-76100000D02*
G75*
G02*
X66380000Y-76100000I100000J0D01*
G01*
D11*
X108240000Y-82592164D02*
X108240000Y-82807836D01*
X108960000Y-82592164D02*
X108960000Y-82807836D01*
X42300000Y-71947500D02*
X43600000Y-71947500D01*
X42300000Y-73927500D02*
X43350000Y-73927500D01*
X43720000Y-73927500D02*
X44000000Y-73927500D01*
X43720000Y-74207500D01*
X43720000Y-73927500D01*
G36*
X43720000Y-74207500D02*
G01*
X43720000Y-73927500D01*
X44000000Y-73927500D01*
X43720000Y-74207500D01*
G37*
X60762164Y-68965000D02*
X60977836Y-68965000D01*
X60762164Y-69685000D02*
X60977836Y-69685000D01*
X42240000Y-82592164D02*
X42240000Y-82807836D01*
X42960000Y-82592164D02*
X42960000Y-82807836D01*
X103490000Y-76042164D02*
X103490000Y-76257836D01*
X104210000Y-76042164D02*
X104210000Y-76257836D01*
X112440000Y-82590000D02*
X114660000Y-82590000D01*
X114660000Y-84710000D02*
X112440000Y-84710000D01*
X43346359Y-74420000D02*
X43653641Y-74420000D01*
X43346359Y-75180000D02*
X43653641Y-75180000D01*
X38696359Y-66620000D02*
X39003641Y-66620000D01*
X38696359Y-67380000D02*
X39003641Y-67380000D01*
X105800287Y-65319867D02*
X105800287Y-66789867D01*
X105800287Y-66789867D02*
X108085287Y-66789867D01*
X108085287Y-65319867D02*
X105800287Y-65319867D01*
D12*
X47399998Y-79225001D02*
X47399998Y-79425001D01*
X47399998Y-80500002D02*
X47399998Y-80700002D01*
X49200000Y-79200000D02*
X49200000Y-79700001D01*
X49200000Y-80450000D02*
X49200000Y-80650000D01*
D11*
X65490000Y-82840580D02*
X65490000Y-82559420D01*
X66510000Y-82840580D02*
X66510000Y-82559420D01*
X104762164Y-67965000D02*
X104977836Y-67965000D01*
X104762164Y-68685000D02*
X104977836Y-68685000D01*
X64300000Y-71947500D02*
X65600000Y-71947500D01*
X64300000Y-73927500D02*
X65350000Y-73927500D01*
X65720000Y-73927500D02*
X66000000Y-73927500D01*
X65720000Y-74207500D01*
X65720000Y-73927500D01*
G36*
X65720000Y-74207500D02*
G01*
X65720000Y-73927500D01*
X66000000Y-73927500D01*
X65720000Y-74207500D01*
G37*
X38762164Y-68965000D02*
X38977836Y-68965000D01*
X38762164Y-69685000D02*
X38977836Y-69685000D01*
X42649622Y-68140000D02*
X41850378Y-68140000D01*
X42649622Y-69260000D02*
X41850378Y-69260000D01*
X60977836Y-69965000D02*
X60762164Y-69965000D01*
X60977836Y-70685000D02*
X60762164Y-70685000D01*
X114440580Y-52340000D02*
X114159420Y-52340000D01*
X114440580Y-53360000D02*
X114159420Y-53360000D01*
X104560796Y-47533162D02*
X104635796Y-47533162D01*
X104560796Y-49353162D02*
X104560796Y-47533162D01*
X104635796Y-49353162D02*
X104560796Y-49353162D01*
X107605796Y-47533162D02*
X107680796Y-47533162D01*
X107680796Y-47533162D02*
X107680796Y-49353162D01*
X107680796Y-49353162D02*
X107605796Y-49353162D01*
X107610796Y-46993162D02*
X107940796Y-46753162D01*
X107940796Y-47233162D01*
X107610796Y-46993162D01*
G36*
X107940796Y-47233162D02*
G01*
X107610796Y-46993162D01*
X107940796Y-46753162D01*
X107940796Y-47233162D01*
G37*
X103490000Y-47042164D02*
X103490000Y-47257836D01*
X104210000Y-47042164D02*
X104210000Y-47257836D01*
X110990000Y-53840580D02*
X110990000Y-53559420D01*
X112010000Y-53840580D02*
X112010000Y-53559420D01*
X109703641Y-40770000D02*
X109396359Y-40770000D01*
X109703641Y-41530000D02*
X109396359Y-41530000D01*
X105800287Y-36319867D02*
X105800287Y-37789867D01*
X105800287Y-37789867D02*
X108085287Y-37789867D01*
X108085287Y-36319867D02*
X105800287Y-36319867D01*
X103965000Y-42340000D02*
X104090000Y-42340000D01*
X103965000Y-45560000D02*
X103965000Y-42340000D01*
X104090000Y-45560000D02*
X103965000Y-45560000D01*
X107060000Y-42340000D02*
X107185000Y-42340000D01*
X107185000Y-42340000D02*
X107185000Y-45560000D01*
X107185000Y-45560000D02*
X107060000Y-45560000D01*
X106705000Y-41830000D02*
X106465000Y-41500000D01*
X106945000Y-41500000D01*
X106705000Y-41830000D01*
G36*
X106705000Y-41830000D02*
G01*
X106465000Y-41500000D01*
X106945000Y-41500000D01*
X106705000Y-41830000D01*
G37*
X109107836Y-41940000D02*
X108892164Y-41940000D01*
X109107836Y-42660000D02*
X108892164Y-42660000D01*
X109490000Y-53840580D02*
X109490000Y-53559420D01*
X110510000Y-53840580D02*
X110510000Y-53559420D01*
X104762164Y-38965000D02*
X104977836Y-38965000D01*
X104762164Y-39685000D02*
X104977836Y-39685000D01*
X104977836Y-40965000D02*
X104762164Y-40965000D01*
X104977836Y-41685000D02*
X104762164Y-41685000D01*
X112440000Y-53590000D02*
X114660000Y-53590000D01*
X114660000Y-55710000D02*
X112440000Y-55710000D01*
X105003641Y-36620000D02*
X104696359Y-36620000D01*
X105003641Y-37380000D02*
X104696359Y-37380000D01*
X107985796Y-48588498D02*
X107985796Y-48372826D01*
X108705796Y-48588498D02*
X108705796Y-48372826D01*
X104990000Y-51640000D02*
X106810000Y-51640000D01*
X104990000Y-51690000D02*
X104990000Y-51640000D01*
X104990000Y-53590000D02*
X104990000Y-52810000D01*
X104990000Y-54760000D02*
X104990000Y-54710000D01*
X106810000Y-51640000D02*
X106810000Y-51690000D01*
X106810000Y-54710000D02*
X106810000Y-54760000D01*
X106810000Y-54760000D02*
X104990000Y-54760000D01*
X107350000Y-54710000D02*
X107590000Y-55040000D01*
X107110000Y-55040000D01*
X107350000Y-54710000D01*
G36*
X107590000Y-55040000D02*
G01*
X107110000Y-55040000D01*
X107350000Y-54710000D01*
X107590000Y-55040000D01*
G37*
D12*
X110380000Y-47100000D02*
G75*
G02*
X110180000Y-47100000I-100000J0D01*
G01*
X110180000Y-47100000D02*
G75*
G02*
X110380000Y-47100000I100000J0D01*
G01*
D11*
X108300000Y-42947500D02*
X109600000Y-42947500D01*
X108300000Y-44927500D02*
X109350000Y-44927500D01*
X109720000Y-44927500D02*
X110000000Y-44927500D01*
X109720000Y-45207500D01*
X109720000Y-44927500D01*
G36*
X109720000Y-45207500D02*
G01*
X109720000Y-44927500D01*
X110000000Y-44927500D01*
X109720000Y-45207500D01*
G37*
X108240000Y-53592164D02*
X108240000Y-53807836D01*
X108960000Y-53592164D02*
X108960000Y-53807836D01*
X109346359Y-45420000D02*
X109653641Y-45420000D01*
X109346359Y-46180000D02*
X109653641Y-46180000D01*
X104696359Y-37620000D02*
X105003641Y-37620000D01*
X104696359Y-38380000D02*
X105003641Y-38380000D01*
D12*
X113399998Y-50225001D02*
X113399998Y-50425001D01*
X113399998Y-51500002D02*
X113399998Y-51700002D01*
X115200000Y-50200000D02*
X115200000Y-50700001D01*
X115200000Y-51450000D02*
X115200000Y-51650000D01*
D11*
X104762164Y-39965000D02*
X104977836Y-39965000D01*
X104762164Y-40685000D02*
X104977836Y-40685000D01*
X108649622Y-39140000D02*
X107850378Y-39140000D01*
X108649622Y-40260000D02*
X107850378Y-40260000D01*
X92440580Y-52340000D02*
X92159420Y-52340000D01*
X92440580Y-53360000D02*
X92159420Y-53360000D01*
X82560796Y-47533162D02*
X82635796Y-47533162D01*
X82560796Y-49353162D02*
X82560796Y-47533162D01*
X82635796Y-49353162D02*
X82560796Y-49353162D01*
X85605796Y-47533162D02*
X85680796Y-47533162D01*
X85680796Y-47533162D02*
X85680796Y-49353162D01*
X85680796Y-49353162D02*
X85605796Y-49353162D01*
X85610796Y-46993162D02*
X85940796Y-46753162D01*
X85940796Y-47233162D01*
X85610796Y-46993162D01*
G36*
X85940796Y-47233162D02*
G01*
X85610796Y-46993162D01*
X85940796Y-46753162D01*
X85940796Y-47233162D01*
G37*
X81490000Y-47042164D02*
X81490000Y-47257836D01*
X82210000Y-47042164D02*
X82210000Y-47257836D01*
X88990000Y-53840580D02*
X88990000Y-53559420D01*
X90010000Y-53840580D02*
X90010000Y-53559420D01*
X87703641Y-40770000D02*
X87396359Y-40770000D01*
X87703641Y-41530000D02*
X87396359Y-41530000D01*
X83800287Y-36319867D02*
X83800287Y-37789867D01*
X83800287Y-37789867D02*
X86085287Y-37789867D01*
X86085287Y-36319867D02*
X83800287Y-36319867D01*
X81965000Y-42340000D02*
X82090000Y-42340000D01*
X81965000Y-45560000D02*
X81965000Y-42340000D01*
X82090000Y-45560000D02*
X81965000Y-45560000D01*
X85060000Y-42340000D02*
X85185000Y-42340000D01*
X85185000Y-42340000D02*
X85185000Y-45560000D01*
X85185000Y-45560000D02*
X85060000Y-45560000D01*
X84705000Y-41830000D02*
X84465000Y-41500000D01*
X84945000Y-41500000D01*
X84705000Y-41830000D01*
G36*
X84705000Y-41830000D02*
G01*
X84465000Y-41500000D01*
X84945000Y-41500000D01*
X84705000Y-41830000D01*
G37*
X87107836Y-41940000D02*
X86892164Y-41940000D01*
X87107836Y-42660000D02*
X86892164Y-42660000D01*
X87490000Y-53840580D02*
X87490000Y-53559420D01*
X88510000Y-53840580D02*
X88510000Y-53559420D01*
X82762164Y-38965000D02*
X82977836Y-38965000D01*
X82762164Y-39685000D02*
X82977836Y-39685000D01*
X82977836Y-40965000D02*
X82762164Y-40965000D01*
X82977836Y-41685000D02*
X82762164Y-41685000D01*
X90440000Y-53590000D02*
X92660000Y-53590000D01*
X92660000Y-55710000D02*
X90440000Y-55710000D01*
X83003641Y-36620000D02*
X82696359Y-36620000D01*
X83003641Y-37380000D02*
X82696359Y-37380000D01*
X85985796Y-48588498D02*
X85985796Y-48372826D01*
X86705796Y-48588498D02*
X86705796Y-48372826D01*
X82990000Y-51640000D02*
X84810000Y-51640000D01*
X82990000Y-51690000D02*
X82990000Y-51640000D01*
X82990000Y-53590000D02*
X82990000Y-52810000D01*
X82990000Y-54760000D02*
X82990000Y-54710000D01*
X84810000Y-51640000D02*
X84810000Y-51690000D01*
X84810000Y-54710000D02*
X84810000Y-54760000D01*
X84810000Y-54760000D02*
X82990000Y-54760000D01*
X85350000Y-54710000D02*
X85590000Y-55040000D01*
X85110000Y-55040000D01*
X85350000Y-54710000D01*
G36*
X85590000Y-55040000D02*
G01*
X85110000Y-55040000D01*
X85350000Y-54710000D01*
X85590000Y-55040000D01*
G37*
D12*
X88380000Y-47100000D02*
G75*
G02*
X88180000Y-47100000I-100000J0D01*
G01*
X88180000Y-47100000D02*
G75*
G02*
X88380000Y-47100000I100000J0D01*
G01*
D11*
X86300000Y-42947500D02*
X87600000Y-42947500D01*
X86300000Y-44927500D02*
X87350000Y-44927500D01*
X87720000Y-44927500D02*
X88000000Y-44927500D01*
X87720000Y-45207500D01*
X87720000Y-44927500D01*
G36*
X87720000Y-45207500D02*
G01*
X87720000Y-44927500D01*
X88000000Y-44927500D01*
X87720000Y-45207500D01*
G37*
X86240000Y-53592164D02*
X86240000Y-53807836D01*
X86960000Y-53592164D02*
X86960000Y-53807836D01*
X87346359Y-45420000D02*
X87653641Y-45420000D01*
X87346359Y-46180000D02*
X87653641Y-46180000D01*
X82696359Y-37620000D02*
X83003641Y-37620000D01*
X82696359Y-38380000D02*
X83003641Y-38380000D01*
D12*
X91399998Y-50225001D02*
X91399998Y-50425001D01*
X91399998Y-51500002D02*
X91399998Y-51700002D01*
X93200000Y-50200000D02*
X93200000Y-50700001D01*
X93200000Y-51450000D02*
X93200000Y-51650000D01*
D11*
X82762164Y-39965000D02*
X82977836Y-39965000D01*
X82762164Y-40685000D02*
X82977836Y-40685000D01*
X86649622Y-39140000D02*
X85850378Y-39140000D01*
X86649622Y-40260000D02*
X85850378Y-40260000D01*
X70440580Y-52340000D02*
X70159420Y-52340000D01*
X70440580Y-53360000D02*
X70159420Y-53360000D01*
X60560796Y-47533162D02*
X60635796Y-47533162D01*
X60560796Y-49353162D02*
X60560796Y-47533162D01*
X60635796Y-49353162D02*
X60560796Y-49353162D01*
X63605796Y-47533162D02*
X63680796Y-47533162D01*
X63680796Y-47533162D02*
X63680796Y-49353162D01*
X63680796Y-49353162D02*
X63605796Y-49353162D01*
X63610796Y-46993162D02*
X63940796Y-46753162D01*
X63940796Y-47233162D01*
X63610796Y-46993162D01*
G36*
X63940796Y-47233162D02*
G01*
X63610796Y-46993162D01*
X63940796Y-46753162D01*
X63940796Y-47233162D01*
G37*
X59490000Y-47042164D02*
X59490000Y-47257836D01*
X60210000Y-47042164D02*
X60210000Y-47257836D01*
X66990000Y-53840580D02*
X66990000Y-53559420D01*
X68010000Y-53840580D02*
X68010000Y-53559420D01*
X65703641Y-40770000D02*
X65396359Y-40770000D01*
X65703641Y-41530000D02*
X65396359Y-41530000D01*
X61800287Y-36319867D02*
X61800287Y-37789867D01*
X61800287Y-37789867D02*
X64085287Y-37789867D01*
X64085287Y-36319867D02*
X61800287Y-36319867D01*
X59965000Y-42340000D02*
X60090000Y-42340000D01*
X59965000Y-45560000D02*
X59965000Y-42340000D01*
X60090000Y-45560000D02*
X59965000Y-45560000D01*
X63060000Y-42340000D02*
X63185000Y-42340000D01*
X63185000Y-42340000D02*
X63185000Y-45560000D01*
X63185000Y-45560000D02*
X63060000Y-45560000D01*
X62705000Y-41830000D02*
X62465000Y-41500000D01*
X62945000Y-41500000D01*
X62705000Y-41830000D01*
G36*
X62705000Y-41830000D02*
G01*
X62465000Y-41500000D01*
X62945000Y-41500000D01*
X62705000Y-41830000D01*
G37*
X65107836Y-41940000D02*
X64892164Y-41940000D01*
X65107836Y-42660000D02*
X64892164Y-42660000D01*
X65490000Y-53840580D02*
X65490000Y-53559420D01*
X66510000Y-53840580D02*
X66510000Y-53559420D01*
X60762164Y-38965000D02*
X60977836Y-38965000D01*
X60762164Y-39685000D02*
X60977836Y-39685000D01*
X60977836Y-40965000D02*
X60762164Y-40965000D01*
X60977836Y-41685000D02*
X60762164Y-41685000D01*
X68440000Y-53590000D02*
X70660000Y-53590000D01*
X70660000Y-55710000D02*
X68440000Y-55710000D01*
X61003641Y-36620000D02*
X60696359Y-36620000D01*
X61003641Y-37380000D02*
X60696359Y-37380000D01*
X63985796Y-48588498D02*
X63985796Y-48372826D01*
X64705796Y-48588498D02*
X64705796Y-48372826D01*
X60990000Y-51640000D02*
X62810000Y-51640000D01*
X60990000Y-51690000D02*
X60990000Y-51640000D01*
X60990000Y-53590000D02*
X60990000Y-52810000D01*
X60990000Y-54760000D02*
X60990000Y-54710000D01*
X62810000Y-51640000D02*
X62810000Y-51690000D01*
X62810000Y-54710000D02*
X62810000Y-54760000D01*
X62810000Y-54760000D02*
X60990000Y-54760000D01*
X63350000Y-54710000D02*
X63590000Y-55040000D01*
X63110000Y-55040000D01*
X63350000Y-54710000D01*
G36*
X63590000Y-55040000D02*
G01*
X63110000Y-55040000D01*
X63350000Y-54710000D01*
X63590000Y-55040000D01*
G37*
D12*
X66380000Y-47100000D02*
G75*
G02*
X66180000Y-47100000I-100000J0D01*
G01*
X66180000Y-47100000D02*
G75*
G02*
X66380000Y-47100000I100000J0D01*
G01*
D11*
X64300000Y-42947500D02*
X65600000Y-42947500D01*
X64300000Y-44927500D02*
X65350000Y-44927500D01*
X65720000Y-44927500D02*
X66000000Y-44927500D01*
X65720000Y-45207500D01*
X65720000Y-44927500D01*
G36*
X65720000Y-45207500D02*
G01*
X65720000Y-44927500D01*
X66000000Y-44927500D01*
X65720000Y-45207500D01*
G37*
X64240000Y-53592164D02*
X64240000Y-53807836D01*
X64960000Y-53592164D02*
X64960000Y-53807836D01*
X65346359Y-45420000D02*
X65653641Y-45420000D01*
X65346359Y-46180000D02*
X65653641Y-46180000D01*
X60696359Y-37620000D02*
X61003641Y-37620000D01*
X60696359Y-38380000D02*
X61003641Y-38380000D01*
D12*
X69399998Y-50225001D02*
X69399998Y-50425001D01*
X69399998Y-51500002D02*
X69399998Y-51700002D01*
X71200000Y-50200000D02*
X71200000Y-50700001D01*
X71200000Y-51450000D02*
X71200000Y-51650000D01*
D11*
X60762164Y-39965000D02*
X60977836Y-39965000D01*
X60762164Y-40685000D02*
X60977836Y-40685000D01*
X64649622Y-39140000D02*
X63850378Y-39140000D01*
X64649622Y-40260000D02*
X63850378Y-40260000D01*
X37965000Y-45560000D02*
X37965000Y-42340000D01*
X38090000Y-45560000D02*
X37965000Y-45560000D01*
X41185000Y-45560000D02*
X41060000Y-45560000D01*
X37965000Y-42340000D02*
X38090000Y-42340000D01*
X41060000Y-42340000D02*
X41185000Y-42340000D01*
X41185000Y-42340000D02*
X41185000Y-45560000D01*
X40705000Y-41830000D02*
X40465000Y-41500000D01*
X40945000Y-41500000D01*
X40705000Y-41830000D01*
G36*
X40705000Y-41830000D02*
G01*
X40465000Y-41500000D01*
X40945000Y-41500000D01*
X40705000Y-41830000D01*
G37*
X43490000Y-53840580D02*
X43490000Y-53559420D01*
X44510000Y-53840580D02*
X44510000Y-53559420D01*
X44990000Y-53840580D02*
X44990000Y-53559420D01*
X46010000Y-53840580D02*
X46010000Y-53559420D01*
X42649622Y-40260000D02*
X41850378Y-40260000D01*
X42649622Y-39140000D02*
X41850378Y-39140000D01*
X37490000Y-47042164D02*
X37490000Y-47257836D01*
X38210000Y-47042164D02*
X38210000Y-47257836D01*
X48440580Y-53360000D02*
X48159420Y-53360000D01*
X48440580Y-52340000D02*
X48159420Y-52340000D01*
X42240000Y-53592164D02*
X42240000Y-53807836D01*
X42960000Y-53592164D02*
X42960000Y-53807836D01*
X41985796Y-48588498D02*
X41985796Y-48372826D01*
X42705796Y-48588498D02*
X42705796Y-48372826D01*
X39003641Y-37380000D02*
X38696359Y-37380000D01*
X39003641Y-36620000D02*
X38696359Y-36620000D01*
X38696359Y-38380000D02*
X39003641Y-38380000D01*
X38696359Y-37620000D02*
X39003641Y-37620000D01*
X43107836Y-42660000D02*
X42892164Y-42660000D01*
X43107836Y-41940000D02*
X42892164Y-41940000D01*
X38762164Y-39685000D02*
X38977836Y-39685000D01*
X38762164Y-38965000D02*
X38977836Y-38965000D01*
D12*
X44380000Y-47100000D02*
G75*
G02*
X44180000Y-47100000I-100000J0D01*
G01*
X44180000Y-47100000D02*
G75*
G02*
X44380000Y-47100000I100000J0D01*
G01*
D11*
X38977836Y-41685000D02*
X38762164Y-41685000D01*
X38977836Y-40965000D02*
X38762164Y-40965000D01*
X38560796Y-49353162D02*
X38560796Y-47533162D01*
X38635796Y-49353162D02*
X38560796Y-49353162D01*
X41680796Y-49353162D02*
X41605796Y-49353162D01*
X38560796Y-47533162D02*
X38635796Y-47533162D01*
X41605796Y-47533162D02*
X41680796Y-47533162D01*
X41680796Y-47533162D02*
X41680796Y-49353162D01*
X41610796Y-46993162D02*
X41940796Y-46753162D01*
X41940796Y-47233162D01*
X41610796Y-46993162D01*
G36*
X41940796Y-47233162D02*
G01*
X41610796Y-46993162D01*
X41940796Y-46753162D01*
X41940796Y-47233162D01*
G37*
X39800287Y-37789867D02*
X42085287Y-37789867D01*
X39800287Y-36319867D02*
X39800287Y-37789867D01*
X42085287Y-36319867D02*
X39800287Y-36319867D01*
X43346359Y-46180000D02*
X43653641Y-46180000D01*
X43346359Y-45420000D02*
X43653641Y-45420000D01*
X42300000Y-44927500D02*
X43350000Y-44927500D01*
X42300000Y-42947500D02*
X43600000Y-42947500D01*
X43720000Y-44927500D02*
X44000000Y-44927500D01*
X43720000Y-45207500D01*
X43720000Y-44927500D01*
G36*
X43720000Y-45207500D02*
G01*
X43720000Y-44927500D01*
X44000000Y-44927500D01*
X43720000Y-45207500D01*
G37*
D12*
X47399998Y-51500002D02*
X47399998Y-51700002D01*
X49200000Y-51450000D02*
X49200000Y-51650000D01*
X47399998Y-50225001D02*
X47399998Y-50425001D01*
X49200000Y-50200000D02*
X49200000Y-50700001D01*
D11*
X43703641Y-41530000D02*
X43396359Y-41530000D01*
X43703641Y-40770000D02*
X43396359Y-40770000D01*
X38762164Y-40685000D02*
X38977836Y-40685000D01*
X38762164Y-39965000D02*
X38977836Y-39965000D01*
X38990000Y-54760000D02*
X38990000Y-54710000D01*
X40810000Y-54760000D02*
X38990000Y-54760000D01*
X40810000Y-54710000D02*
X40810000Y-54760000D01*
X38990000Y-53590000D02*
X38990000Y-52810000D01*
X38990000Y-51690000D02*
X38990000Y-51640000D01*
X38990000Y-51640000D02*
X40810000Y-51640000D01*
X40810000Y-51640000D02*
X40810000Y-51690000D01*
X41350000Y-54710000D02*
X41590000Y-55040000D01*
X41110000Y-55040000D01*
X41350000Y-54710000D01*
G36*
X41590000Y-55040000D02*
G01*
X41110000Y-55040000D01*
X41350000Y-54710000D01*
X41590000Y-55040000D01*
G37*
X48660000Y-55710000D02*
X46440000Y-55710000D01*
X46440000Y-53590000D02*
X48660000Y-53590000D01*
%LPC*%
D13*
X77000000Y-97050000D02*
X79900000Y-97050000D01*
X79900000Y-110950000D01*
X77000000Y-110950000D01*
X77000000Y-97050000D01*
G36*
X77000000Y-97050000D02*
G01*
X79900000Y-97050000D01*
X79900000Y-110950000D01*
X77000000Y-110950000D01*
X77000000Y-97050000D01*
G37*
X99300000Y-110950000D02*
X101700000Y-110950000D01*
X101700000Y-112250000D01*
X99300000Y-112250000D01*
X99300000Y-110950000D01*
G36*
X99300000Y-110950000D02*
G01*
X101700000Y-110950000D01*
X101700000Y-112250000D01*
X99300000Y-112250000D01*
X99300000Y-110950000D01*
G37*
X55300000Y-110950000D02*
X57700000Y-110950000D01*
X57700000Y-112250000D01*
X55300000Y-112250000D01*
X55300000Y-110950000D01*
G36*
X55300000Y-110950000D02*
G01*
X57700000Y-110950000D01*
X57700000Y-112250000D01*
X55300000Y-112250000D01*
X55300000Y-110950000D01*
G37*
X77300000Y-110950000D02*
X79700000Y-110950000D01*
X79700000Y-112250000D01*
X77300000Y-112250000D01*
X77300000Y-110950000D01*
G36*
X77300000Y-110950000D02*
G01*
X79700000Y-110950000D01*
X79700000Y-112250000D01*
X77300000Y-112250000D01*
X77300000Y-110950000D01*
G37*
X55000000Y-97050000D02*
X57900000Y-97050000D01*
X57900000Y-110950000D01*
X55000000Y-110950000D01*
X55000000Y-97050000D01*
G36*
X55000000Y-97050000D02*
G01*
X57900000Y-97050000D01*
X57900000Y-110950000D01*
X55000000Y-110950000D01*
X55000000Y-97050000D01*
G37*
X33000000Y-97050000D02*
X35900000Y-97050000D01*
X35900000Y-110950000D01*
X33000000Y-110950000D01*
X33000000Y-97050000D01*
G36*
X33000000Y-97050000D02*
G01*
X35900000Y-97050000D01*
X35900000Y-110950000D01*
X33000000Y-110950000D01*
X33000000Y-97050000D01*
G37*
X33300000Y-95750000D02*
X35700000Y-95750000D01*
X35700000Y-97050000D01*
X33300000Y-97050000D01*
X33300000Y-95750000D01*
G36*
X33300000Y-95750000D02*
G01*
X35700000Y-95750000D01*
X35700000Y-97050000D01*
X33300000Y-97050000D01*
X33300000Y-95750000D01*
G37*
X55300000Y-95750000D02*
X57700000Y-95750000D01*
X57700000Y-97050000D01*
X55300000Y-97050000D01*
X55300000Y-95750000D01*
G36*
X55300000Y-95750000D02*
G01*
X57700000Y-95750000D01*
X57700000Y-97050000D01*
X55300000Y-97050000D01*
X55300000Y-95750000D01*
G37*
X77300000Y-95750000D02*
X79700000Y-95750000D01*
X79700000Y-97050000D01*
X77300000Y-97050000D01*
X77300000Y-95750000D01*
G36*
X77300000Y-95750000D02*
G01*
X79700000Y-95750000D01*
X79700000Y-97050000D01*
X77300000Y-97050000D01*
X77300000Y-95750000D01*
G37*
X99000000Y-97050000D02*
X101900000Y-97050000D01*
X101900000Y-110950000D01*
X99000000Y-110950000D01*
X99000000Y-97050000D01*
G36*
X99000000Y-97050000D02*
G01*
X101900000Y-97050000D01*
X101900000Y-110950000D01*
X99000000Y-110950000D01*
X99000000Y-97050000D01*
G37*
X99300000Y-95750000D02*
X101700000Y-95750000D01*
X101700000Y-97050000D01*
X99300000Y-97050000D01*
X99300000Y-95750000D01*
G36*
X99300000Y-95750000D02*
G01*
X101700000Y-95750000D01*
X101700000Y-97050000D01*
X99300000Y-97050000D01*
X99300000Y-95750000D01*
G37*
X33300000Y-110950000D02*
X35700000Y-110950000D01*
X35700000Y-112250000D01*
X33300000Y-112250000D01*
X33300000Y-110950000D01*
G36*
X33300000Y-110950000D02*
G01*
X35700000Y-110950000D01*
X35700000Y-112250000D01*
X33300000Y-112250000D01*
X33300000Y-110950000D01*
G37*
X77000000Y-68050000D02*
X79900000Y-68050000D01*
X79900000Y-81950000D01*
X77000000Y-81950000D01*
X77000000Y-68050000D01*
G36*
X77000000Y-68050000D02*
G01*
X79900000Y-68050000D01*
X79900000Y-81950000D01*
X77000000Y-81950000D01*
X77000000Y-68050000D01*
G37*
X99300000Y-81950000D02*
X101700000Y-81950000D01*
X101700000Y-83250000D01*
X99300000Y-83250000D01*
X99300000Y-81950000D01*
G36*
X99300000Y-81950000D02*
G01*
X101700000Y-81950000D01*
X101700000Y-83250000D01*
X99300000Y-83250000D01*
X99300000Y-81950000D01*
G37*
X55300000Y-81950000D02*
X57700000Y-81950000D01*
X57700000Y-83250000D01*
X55300000Y-83250000D01*
X55300000Y-81950000D01*
G36*
X55300000Y-81950000D02*
G01*
X57700000Y-81950000D01*
X57700000Y-83250000D01*
X55300000Y-83250000D01*
X55300000Y-81950000D01*
G37*
X77300000Y-81950000D02*
X79700000Y-81950000D01*
X79700000Y-83250000D01*
X77300000Y-83250000D01*
X77300000Y-81950000D01*
G36*
X77300000Y-81950000D02*
G01*
X79700000Y-81950000D01*
X79700000Y-83250000D01*
X77300000Y-83250000D01*
X77300000Y-81950000D01*
G37*
X55000000Y-68050000D02*
X57900000Y-68050000D01*
X57900000Y-81950000D01*
X55000000Y-81950000D01*
X55000000Y-68050000D01*
G36*
X55000000Y-68050000D02*
G01*
X57900000Y-68050000D01*
X57900000Y-81950000D01*
X55000000Y-81950000D01*
X55000000Y-68050000D01*
G37*
X33000000Y-68050000D02*
X35900000Y-68050000D01*
X35900000Y-81950000D01*
X33000000Y-81950000D01*
X33000000Y-68050000D01*
G36*
X33000000Y-68050000D02*
G01*
X35900000Y-68050000D01*
X35900000Y-81950000D01*
X33000000Y-81950000D01*
X33000000Y-68050000D01*
G37*
X33300000Y-66750000D02*
X35700000Y-66750000D01*
X35700000Y-68050000D01*
X33300000Y-68050000D01*
X33300000Y-66750000D01*
G36*
X33300000Y-66750000D02*
G01*
X35700000Y-66750000D01*
X35700000Y-68050000D01*
X33300000Y-68050000D01*
X33300000Y-66750000D01*
G37*
X55300000Y-66750000D02*
X57700000Y-66750000D01*
X57700000Y-68050000D01*
X55300000Y-68050000D01*
X55300000Y-66750000D01*
G36*
X55300000Y-66750000D02*
G01*
X57700000Y-66750000D01*
X57700000Y-68050000D01*
X55300000Y-68050000D01*
X55300000Y-66750000D01*
G37*
X77300000Y-66750000D02*
X79700000Y-66750000D01*
X79700000Y-68050000D01*
X77300000Y-68050000D01*
X77300000Y-66750000D01*
G36*
X77300000Y-66750000D02*
G01*
X79700000Y-66750000D01*
X79700000Y-68050000D01*
X77300000Y-68050000D01*
X77300000Y-66750000D01*
G37*
X99000000Y-68050000D02*
X101900000Y-68050000D01*
X101900000Y-81950000D01*
X99000000Y-81950000D01*
X99000000Y-68050000D01*
G36*
X99000000Y-68050000D02*
G01*
X101900000Y-68050000D01*
X101900000Y-81950000D01*
X99000000Y-81950000D01*
X99000000Y-68050000D01*
G37*
X99300000Y-66750000D02*
X101700000Y-66750000D01*
X101700000Y-68050000D01*
X99300000Y-68050000D01*
X99300000Y-66750000D01*
G36*
X99300000Y-66750000D02*
G01*
X101700000Y-66750000D01*
X101700000Y-68050000D01*
X99300000Y-68050000D01*
X99300000Y-66750000D01*
G37*
X33300000Y-81950000D02*
X35700000Y-81950000D01*
X35700000Y-83250000D01*
X33300000Y-83250000D01*
X33300000Y-81950000D01*
G36*
X33300000Y-81950000D02*
G01*
X35700000Y-81950000D01*
X35700000Y-83250000D01*
X33300000Y-83250000D01*
X33300000Y-81950000D01*
G37*
X99000000Y-39050000D02*
X101900000Y-39050000D01*
X101900000Y-52950000D01*
X99000000Y-52950000D01*
X99000000Y-39050000D01*
G36*
X99000000Y-39050000D02*
G01*
X101900000Y-39050000D01*
X101900000Y-52950000D01*
X99000000Y-52950000D01*
X99000000Y-39050000D01*
G37*
X99300000Y-37750000D02*
X101700000Y-37750000D01*
X101700000Y-39050000D01*
X99300000Y-39050000D01*
X99300000Y-37750000D01*
G36*
X99300000Y-37750000D02*
G01*
X101700000Y-37750000D01*
X101700000Y-39050000D01*
X99300000Y-39050000D01*
X99300000Y-37750000D01*
G37*
X99300000Y-52950000D02*
X101700000Y-52950000D01*
X101700000Y-54250000D01*
X99300000Y-54250000D01*
X99300000Y-52950000D01*
G36*
X99300000Y-52950000D02*
G01*
X101700000Y-52950000D01*
X101700000Y-54250000D01*
X99300000Y-54250000D01*
X99300000Y-52950000D01*
G37*
X77000000Y-39050000D02*
X79900000Y-39050000D01*
X79900000Y-52950000D01*
X77000000Y-52950000D01*
X77000000Y-39050000D01*
G36*
X77000000Y-39050000D02*
G01*
X79900000Y-39050000D01*
X79900000Y-52950000D01*
X77000000Y-52950000D01*
X77000000Y-39050000D01*
G37*
X77300000Y-37750000D02*
X79700000Y-37750000D01*
X79700000Y-39050000D01*
X77300000Y-39050000D01*
X77300000Y-37750000D01*
G36*
X77300000Y-37750000D02*
G01*
X79700000Y-37750000D01*
X79700000Y-39050000D01*
X77300000Y-39050000D01*
X77300000Y-37750000D01*
G37*
X77300000Y-52950000D02*
X79700000Y-52950000D01*
X79700000Y-54250000D01*
X77300000Y-54250000D01*
X77300000Y-52950000D01*
G36*
X77300000Y-52950000D02*
G01*
X79700000Y-52950000D01*
X79700000Y-54250000D01*
X77300000Y-54250000D01*
X77300000Y-52950000D01*
G37*
X55000000Y-39050000D02*
X57900000Y-39050000D01*
X57900000Y-52950000D01*
X55000000Y-52950000D01*
X55000000Y-39050000D01*
G36*
X55000000Y-39050000D02*
G01*
X57900000Y-39050000D01*
X57900000Y-52950000D01*
X55000000Y-52950000D01*
X55000000Y-39050000D01*
G37*
X55300000Y-37750000D02*
X57700000Y-37750000D01*
X57700000Y-39050000D01*
X55300000Y-39050000D01*
X55300000Y-37750000D01*
G36*
X55300000Y-37750000D02*
G01*
X57700000Y-37750000D01*
X57700000Y-39050000D01*
X55300000Y-39050000D01*
X55300000Y-37750000D01*
G37*
X55300000Y-52950000D02*
X57700000Y-52950000D01*
X57700000Y-54250000D01*
X55300000Y-54250000D01*
X55300000Y-52950000D01*
G36*
X55300000Y-52950000D02*
G01*
X57700000Y-52950000D01*
X57700000Y-54250000D01*
X55300000Y-54250000D01*
X55300000Y-52950000D01*
G37*
X33300000Y-52950000D02*
X35700000Y-52950000D01*
X35700000Y-54250000D01*
X33300000Y-54250000D01*
X33300000Y-52950000D01*
G36*
X33300000Y-52950000D02*
G01*
X35700000Y-52950000D01*
X35700000Y-54250000D01*
X33300000Y-54250000D01*
X33300000Y-52950000D01*
G37*
X33000000Y-39050000D02*
X35900000Y-39050000D01*
X35900000Y-52950000D01*
X33000000Y-52950000D01*
X33000000Y-39050000D01*
G36*
X33000000Y-39050000D02*
G01*
X35900000Y-39050000D01*
X35900000Y-52950000D01*
X33000000Y-52950000D01*
X33000000Y-39050000D01*
G37*
X33300000Y-37750000D02*
X35700000Y-37750000D01*
X35700000Y-39050000D01*
X33300000Y-39050000D01*
X33300000Y-37750000D01*
G36*
X33300000Y-37750000D02*
G01*
X35700000Y-37750000D01*
X35700000Y-39050000D01*
X33300000Y-39050000D01*
X33300000Y-37750000D01*
G37*
D10*
X54700000Y-28900000D02*
X95500000Y-28900000D01*
X95500000Y-32200000D01*
X54700000Y-32200000D01*
X54700000Y-28900000D01*
G36*
X54700000Y-28900000D02*
G01*
X95500000Y-28900000D01*
X95500000Y-32200000D01*
X54700000Y-32200000D01*
X54700000Y-28900000D01*
G37*
D14*
X71075000Y-110850000D03*
X69525000Y-110850000D03*
D15*
X104390000Y-98325000D03*
X105350000Y-98325000D03*
D16*
X86600000Y-111220000D03*
X86600000Y-112180000D03*
D17*
X110000000Y-112475000D03*
X110000000Y-110925000D03*
D14*
X115075000Y-110850000D03*
X113525000Y-110850000D03*
D18*
X60340000Y-96000000D03*
X61360000Y-96000000D03*
D19*
X106700000Y-100500000D03*
X106250000Y-100500000D03*
X105800000Y-100500000D03*
X105350000Y-100500000D03*
X104900000Y-100500000D03*
X104450000Y-100500000D03*
X104450000Y-103400000D03*
X104900000Y-103400000D03*
X105350000Y-103400000D03*
X105800000Y-103400000D03*
X106250000Y-103400000D03*
X106700000Y-103400000D03*
D20*
X105575000Y-101950000D03*
D21*
X109800000Y-102475000D03*
D22*
X109875000Y-101937500D03*
D21*
X109800000Y-101400000D03*
X108100000Y-101400000D03*
D22*
X108025000Y-101937500D03*
D21*
X108100000Y-102475000D03*
D23*
X109312500Y-97700000D03*
X107187500Y-97700000D03*
D17*
X67500000Y-112475000D03*
X67500000Y-110925000D03*
D15*
X82390000Y-97325000D03*
X83350000Y-97325000D03*
D14*
X93075000Y-110850000D03*
X91525000Y-110850000D03*
X49075000Y-110850000D03*
X47525000Y-110850000D03*
D23*
X65312500Y-97700000D03*
X63187500Y-97700000D03*
D15*
X82390000Y-98325000D03*
X83350000Y-98325000D03*
D24*
X66060000Y-99150000D03*
X65040000Y-99150000D03*
D16*
X64600000Y-111220000D03*
X64600000Y-112180000D03*
D25*
X63037500Y-112150000D03*
X63037500Y-111200000D03*
X63037500Y-110250000D03*
X60762500Y-110250000D03*
X60762500Y-112150000D03*
D26*
X78500000Y-112250000D03*
X78500000Y-95750000D03*
D27*
X79475000Y-110075000D03*
D28*
X77675000Y-110300000D03*
D29*
X79325000Y-108950000D03*
D28*
X77675000Y-109400000D03*
D29*
X79325000Y-108050000D03*
D28*
X77675000Y-108500000D03*
D29*
X79325000Y-107150000D03*
D28*
X77675000Y-107600000D03*
D29*
X79325000Y-106250000D03*
D28*
X77675000Y-106700000D03*
D29*
X79325000Y-105350000D03*
D28*
X77675000Y-105800000D03*
D29*
X79325000Y-104450000D03*
D28*
X77675000Y-104900000D03*
D29*
X79325000Y-103550000D03*
D28*
X77675000Y-104000000D03*
D29*
X79325000Y-102650000D03*
D28*
X77675000Y-103100000D03*
D29*
X79325000Y-101750000D03*
D28*
X77675000Y-102200000D03*
D29*
X79325000Y-100850000D03*
D28*
X77675000Y-101300000D03*
D29*
X79325000Y-99950000D03*
D28*
X77675000Y-100400000D03*
D29*
X79325000Y-99050000D03*
D28*
X77675000Y-99500000D03*
D27*
X79475000Y-97925000D03*
D28*
X77675000Y-98600000D03*
X77675000Y-97700000D03*
D30*
X111530000Y-105150000D03*
X111530000Y-104150000D03*
X111530000Y-103150000D03*
X111530000Y-102150000D03*
X111530000Y-100650000D03*
X111530000Y-99650000D03*
X111530000Y-98650000D03*
X111530000Y-97650000D03*
X111530000Y-98150000D03*
X111530000Y-99150000D03*
X111530000Y-100150000D03*
X111530000Y-101150000D03*
X111530000Y-101650000D03*
X111530000Y-102650000D03*
X111530000Y-103650000D03*
X111530000Y-104650000D03*
X111530000Y-105650000D03*
X111530000Y-97150000D03*
D31*
X112150000Y-106800000D03*
X112150000Y-96000000D03*
D32*
X115380000Y-106800000D03*
X115380000Y-96000000D03*
D33*
X62497787Y-95054867D03*
X64072787Y-95054867D03*
D34*
X92275000Y-112650000D03*
X90825000Y-112650000D03*
D35*
X85095796Y-105305662D03*
X84445796Y-105305662D03*
X83795796Y-105305662D03*
X83145796Y-105305662D03*
X83145796Y-107580662D03*
X83795796Y-107580662D03*
X84445796Y-107580662D03*
X85095796Y-107580662D03*
X41095796Y-105305662D03*
X40445796Y-105305662D03*
X39795796Y-105305662D03*
X39145796Y-105305662D03*
X39145796Y-107580662D03*
X39795796Y-107580662D03*
X40445796Y-107580662D03*
X41095796Y-107580662D03*
D16*
X37850000Y-104670000D03*
X37850000Y-105630000D03*
D36*
X108345796Y-106960662D03*
X108345796Y-106000662D03*
D17*
X45500000Y-112475000D03*
X45500000Y-110925000D03*
D24*
X88060000Y-99150000D03*
X87040000Y-99150000D03*
X44060000Y-99150000D03*
X43040000Y-99150000D03*
D37*
X87480000Y-100300000D03*
X86520000Y-100300000D03*
D33*
X40497787Y-95054867D03*
X42072787Y-95054867D03*
D38*
X92799998Y-108300000D03*
X92299999Y-108300000D03*
X91800000Y-108300000D03*
D39*
X91800000Y-109400000D03*
X92299999Y-109400000D03*
X92799998Y-109400000D03*
D23*
X87312500Y-97700000D03*
X85187500Y-97700000D03*
D33*
X84497787Y-95054867D03*
X86072787Y-95054867D03*
D35*
X107095796Y-105305662D03*
X106445796Y-105305662D03*
X105795796Y-105305662D03*
X105145796Y-105305662D03*
X105145796Y-107580662D03*
X105795796Y-107580662D03*
X106445796Y-107580662D03*
X107095796Y-107580662D03*
D24*
X105360000Y-95000000D03*
X104340000Y-95000000D03*
D25*
X85037500Y-112150000D03*
X85037500Y-111200000D03*
X85037500Y-110250000D03*
X82762500Y-110250000D03*
X82762500Y-112150000D03*
D36*
X86345796Y-106960662D03*
X86345796Y-106000662D03*
D26*
X100500000Y-112250000D03*
X100500000Y-95750000D03*
D27*
X101475000Y-110075000D03*
D28*
X99675000Y-110300000D03*
D29*
X101325000Y-108950000D03*
D28*
X99675000Y-109400000D03*
D29*
X101325000Y-108050000D03*
D28*
X99675000Y-108500000D03*
D29*
X101325000Y-107150000D03*
D28*
X99675000Y-107600000D03*
D29*
X101325000Y-106250000D03*
D28*
X99675000Y-106700000D03*
D29*
X101325000Y-105350000D03*
D28*
X99675000Y-105800000D03*
D29*
X101325000Y-104450000D03*
D28*
X99675000Y-104900000D03*
D29*
X101325000Y-103550000D03*
D28*
X99675000Y-104000000D03*
D29*
X101325000Y-102650000D03*
D28*
X99675000Y-103100000D03*
D29*
X101325000Y-101750000D03*
D28*
X99675000Y-102200000D03*
D29*
X101325000Y-100850000D03*
D28*
X99675000Y-101300000D03*
D29*
X101325000Y-99950000D03*
D28*
X99675000Y-100400000D03*
D29*
X101325000Y-99050000D03*
D28*
X99675000Y-99500000D03*
D27*
X101475000Y-97925000D03*
D28*
X99675000Y-98600000D03*
X99675000Y-97700000D03*
D24*
X83360000Y-95000000D03*
X82340000Y-95000000D03*
D16*
X81850000Y-104670000D03*
X81850000Y-105630000D03*
D19*
X40700000Y-100500000D03*
X40250000Y-100500000D03*
X39800000Y-100500000D03*
X39350000Y-100500000D03*
X38900000Y-100500000D03*
X38450000Y-100500000D03*
X38450000Y-103400000D03*
X38900000Y-103400000D03*
X39350000Y-103400000D03*
X39800000Y-103400000D03*
X40250000Y-103400000D03*
X40700000Y-103400000D03*
D20*
X39575000Y-101950000D03*
D24*
X61360000Y-95000000D03*
X60340000Y-95000000D03*
D37*
X43480000Y-100300000D03*
X42520000Y-100300000D03*
D18*
X64990000Y-103800000D03*
X66010000Y-103800000D03*
D21*
X87800000Y-102475000D03*
D22*
X87875000Y-101937500D03*
D21*
X87800000Y-101400000D03*
X86100000Y-101400000D03*
D22*
X86025000Y-101937500D03*
D21*
X86100000Y-102475000D03*
D15*
X60390000Y-97325000D03*
X61350000Y-97325000D03*
D26*
X56500000Y-112250000D03*
X56500000Y-95750000D03*
D27*
X57475000Y-110075000D03*
D28*
X55675000Y-110300000D03*
D29*
X57325000Y-108950000D03*
D28*
X55675000Y-109400000D03*
D29*
X57325000Y-108050000D03*
D28*
X55675000Y-108500000D03*
D29*
X57325000Y-107150000D03*
D28*
X55675000Y-107600000D03*
D29*
X57325000Y-106250000D03*
D28*
X55675000Y-106700000D03*
D29*
X57325000Y-105350000D03*
D28*
X55675000Y-105800000D03*
D29*
X57325000Y-104450000D03*
D28*
X55675000Y-104900000D03*
D29*
X57325000Y-103550000D03*
D28*
X55675000Y-104000000D03*
D29*
X57325000Y-102650000D03*
D28*
X55675000Y-103100000D03*
D29*
X57325000Y-101750000D03*
D28*
X55675000Y-102200000D03*
D29*
X57325000Y-100850000D03*
D28*
X55675000Y-101300000D03*
D29*
X57325000Y-99950000D03*
D28*
X55675000Y-100400000D03*
D29*
X57325000Y-99050000D03*
D28*
X55675000Y-99500000D03*
D27*
X57475000Y-97925000D03*
D28*
X55675000Y-98600000D03*
X55675000Y-97700000D03*
D34*
X70275000Y-112650000D03*
X68825000Y-112650000D03*
D35*
X63095796Y-105305662D03*
X62445796Y-105305662D03*
X61795796Y-105305662D03*
X61145796Y-105305662D03*
X61145796Y-107580662D03*
X61795796Y-107580662D03*
X62445796Y-107580662D03*
X63095796Y-107580662D03*
D36*
X64345796Y-106960662D03*
X64345796Y-106000662D03*
D18*
X82340000Y-96000000D03*
X83360000Y-96000000D03*
D37*
X65480000Y-100300000D03*
X64520000Y-100300000D03*
D17*
X44000000Y-112475000D03*
X44000000Y-110925000D03*
D30*
X89530000Y-105150000D03*
X89530000Y-104150000D03*
X89530000Y-103150000D03*
X89530000Y-102150000D03*
X89530000Y-100650000D03*
X89530000Y-99650000D03*
X89530000Y-98650000D03*
X89530000Y-97650000D03*
X89530000Y-98150000D03*
X89530000Y-99150000D03*
X89530000Y-100150000D03*
X89530000Y-101150000D03*
X89530000Y-101650000D03*
X89530000Y-102650000D03*
X89530000Y-103650000D03*
X89530000Y-104650000D03*
X89530000Y-105650000D03*
X89530000Y-97150000D03*
D31*
X90150000Y-106800000D03*
X90150000Y-96000000D03*
D32*
X93380000Y-106800000D03*
X93380000Y-96000000D03*
D38*
X114799998Y-108300000D03*
X114299999Y-108300000D03*
X113800000Y-108300000D03*
D39*
X113800000Y-109400000D03*
X114299999Y-109400000D03*
X114799998Y-109400000D03*
D37*
X83350000Y-99325000D03*
X82390000Y-99325000D03*
D15*
X38390000Y-97325000D03*
X39350000Y-97325000D03*
D19*
X62700000Y-100500000D03*
X62250000Y-100500000D03*
X61800000Y-100500000D03*
X61350000Y-100500000D03*
X60900000Y-100500000D03*
X60450000Y-100500000D03*
X60450000Y-103400000D03*
X60900000Y-103400000D03*
X61350000Y-103400000D03*
X61800000Y-103400000D03*
X62250000Y-103400000D03*
X62700000Y-103400000D03*
D20*
X61575000Y-101950000D03*
D18*
X104340000Y-96000000D03*
X105360000Y-96000000D03*
D17*
X88000000Y-112475000D03*
X88000000Y-110925000D03*
D37*
X39350000Y-99325000D03*
X38390000Y-99325000D03*
X105350000Y-99325000D03*
X104390000Y-99325000D03*
D34*
X48275000Y-112650000D03*
X46825000Y-112650000D03*
D19*
X84700000Y-100500000D03*
X84250000Y-100500000D03*
X83800000Y-100500000D03*
X83350000Y-100500000D03*
X82900000Y-100500000D03*
X82450000Y-100500000D03*
X82450000Y-103400000D03*
X82900000Y-103400000D03*
X83350000Y-103400000D03*
X83800000Y-103400000D03*
X84250000Y-103400000D03*
X84700000Y-103400000D03*
D20*
X83575000Y-101950000D03*
D37*
X109480000Y-100300000D03*
X108520000Y-100300000D03*
D24*
X39360000Y-95000000D03*
X38340000Y-95000000D03*
D36*
X42345796Y-106960662D03*
X42345796Y-106000662D03*
D38*
X70799998Y-108300000D03*
X70299999Y-108300000D03*
X69800000Y-108300000D03*
D39*
X69800000Y-109400000D03*
X70299999Y-109400000D03*
X70799998Y-109400000D03*
D24*
X110060000Y-99150000D03*
X109040000Y-99150000D03*
D17*
X111500000Y-112475000D03*
X111500000Y-110925000D03*
D25*
X107037500Y-112150000D03*
X107037500Y-111200000D03*
X107037500Y-110250000D03*
X104762500Y-110250000D03*
X104762500Y-112150000D03*
X41037500Y-112150000D03*
X41037500Y-111200000D03*
X41037500Y-110250000D03*
X38762500Y-110250000D03*
X38762500Y-112150000D03*
D16*
X59850000Y-104670000D03*
X59850000Y-105630000D03*
D17*
X89500000Y-112475000D03*
X89500000Y-110925000D03*
D18*
X86990000Y-103800000D03*
X88010000Y-103800000D03*
D30*
X45530000Y-105150000D03*
X45530000Y-104150000D03*
X45530000Y-103150000D03*
X45530000Y-102150000D03*
X45530000Y-100650000D03*
X45530000Y-99650000D03*
X45530000Y-98650000D03*
X45530000Y-97650000D03*
X45530000Y-98150000D03*
X45530000Y-99150000D03*
X45530000Y-100150000D03*
X45530000Y-101150000D03*
X45530000Y-101650000D03*
X45530000Y-102650000D03*
X45530000Y-103650000D03*
X45530000Y-104650000D03*
X45530000Y-105650000D03*
X45530000Y-97150000D03*
D31*
X46150000Y-106800000D03*
X46150000Y-96000000D03*
D32*
X49380000Y-106800000D03*
X49380000Y-96000000D03*
D18*
X108990000Y-103800000D03*
X110010000Y-103800000D03*
D30*
X67530000Y-105150000D03*
X67530000Y-104150000D03*
X67530000Y-103150000D03*
X67530000Y-102150000D03*
X67530000Y-100650000D03*
X67530000Y-99650000D03*
X67530000Y-98650000D03*
X67530000Y-97650000D03*
X67530000Y-98150000D03*
X67530000Y-99150000D03*
X67530000Y-100150000D03*
X67530000Y-101150000D03*
X67530000Y-101650000D03*
X67530000Y-102650000D03*
X67530000Y-103650000D03*
X67530000Y-104650000D03*
X67530000Y-105650000D03*
X67530000Y-97150000D03*
D31*
X68150000Y-106800000D03*
X68150000Y-96000000D03*
D32*
X71380000Y-106800000D03*
X71380000Y-96000000D03*
D16*
X108600000Y-111220000D03*
X108600000Y-112180000D03*
D21*
X43800000Y-102475000D03*
D22*
X43875000Y-101937500D03*
D21*
X43800000Y-101400000D03*
X42100000Y-101400000D03*
D22*
X42025000Y-101937500D03*
D21*
X42100000Y-102475000D03*
D15*
X60390000Y-98325000D03*
X61350000Y-98325000D03*
D16*
X42600000Y-111220000D03*
X42600000Y-112180000D03*
X103850000Y-104670000D03*
X103850000Y-105630000D03*
D34*
X114275000Y-112650000D03*
X112825000Y-112650000D03*
D18*
X42990000Y-103800000D03*
X44010000Y-103800000D03*
X38340000Y-96000000D03*
X39360000Y-96000000D03*
D33*
X106497787Y-95054867D03*
X108072787Y-95054867D03*
D38*
X48799998Y-108300000D03*
X48299999Y-108300000D03*
X47800000Y-108300000D03*
D39*
X47800000Y-109400000D03*
X48299999Y-109400000D03*
X48799998Y-109400000D03*
D17*
X66000000Y-112475000D03*
X66000000Y-110925000D03*
D15*
X104390000Y-97325000D03*
X105350000Y-97325000D03*
D21*
X65800000Y-102475000D03*
D22*
X65875000Y-101937500D03*
D21*
X65800000Y-101400000D03*
X64100000Y-101400000D03*
D22*
X64025000Y-101937500D03*
D21*
X64100000Y-102475000D03*
D15*
X38390000Y-98325000D03*
X39350000Y-98325000D03*
D23*
X43312500Y-97700000D03*
X41187500Y-97700000D03*
D37*
X61350000Y-99325000D03*
X60390000Y-99325000D03*
D26*
X34500000Y-112250000D03*
X34500000Y-95750000D03*
D27*
X35475000Y-110075000D03*
D28*
X33675000Y-110300000D03*
D29*
X35325000Y-108950000D03*
D28*
X33675000Y-109400000D03*
D29*
X35325000Y-108050000D03*
D28*
X33675000Y-108500000D03*
D29*
X35325000Y-107150000D03*
D28*
X33675000Y-107600000D03*
D29*
X35325000Y-106250000D03*
D28*
X33675000Y-106700000D03*
D29*
X35325000Y-105350000D03*
D28*
X33675000Y-105800000D03*
D29*
X35325000Y-104450000D03*
D28*
X33675000Y-104900000D03*
D29*
X35325000Y-103550000D03*
D28*
X33675000Y-104000000D03*
D29*
X35325000Y-102650000D03*
D28*
X33675000Y-103100000D03*
D29*
X35325000Y-101750000D03*
D28*
X33675000Y-102200000D03*
D29*
X35325000Y-100850000D03*
D28*
X33675000Y-101300000D03*
D29*
X35325000Y-99950000D03*
D28*
X33675000Y-100400000D03*
D29*
X35325000Y-99050000D03*
D28*
X33675000Y-99500000D03*
D27*
X35475000Y-97925000D03*
D28*
X33675000Y-98600000D03*
X33675000Y-97700000D03*
D14*
X71075000Y-81850000D03*
X69525000Y-81850000D03*
D15*
X104390000Y-69325000D03*
X105350000Y-69325000D03*
D16*
X86600000Y-82220000D03*
X86600000Y-83180000D03*
D17*
X110000000Y-83475000D03*
X110000000Y-81925000D03*
D14*
X115075000Y-81850000D03*
X113525000Y-81850000D03*
D18*
X60340000Y-67000000D03*
X61360000Y-67000000D03*
D19*
X106700000Y-71500000D03*
X106250000Y-71500000D03*
X105800000Y-71500000D03*
X105350000Y-71500000D03*
X104900000Y-71500000D03*
X104450000Y-71500000D03*
X104450000Y-74400000D03*
X104900000Y-74400000D03*
X105350000Y-74400000D03*
X105800000Y-74400000D03*
X106250000Y-74400000D03*
X106700000Y-74400000D03*
D20*
X105575000Y-72950000D03*
D21*
X109800000Y-73475000D03*
D22*
X109875000Y-72937500D03*
D21*
X109800000Y-72400000D03*
X108100000Y-72400000D03*
D22*
X108025000Y-72937500D03*
D21*
X108100000Y-73475000D03*
D23*
X109312500Y-68700000D03*
X107187500Y-68700000D03*
D17*
X67500000Y-83475000D03*
X67500000Y-81925000D03*
D15*
X82390000Y-68325000D03*
X83350000Y-68325000D03*
D14*
X93075000Y-81850000D03*
X91525000Y-81850000D03*
X49075000Y-81850000D03*
X47525000Y-81850000D03*
D23*
X65312500Y-68700000D03*
X63187500Y-68700000D03*
D15*
X82390000Y-69325000D03*
X83350000Y-69325000D03*
D24*
X66060000Y-70150000D03*
X65040000Y-70150000D03*
D16*
X64600000Y-82220000D03*
X64600000Y-83180000D03*
D25*
X63037500Y-83150000D03*
X63037500Y-82200000D03*
X63037500Y-81250000D03*
X60762500Y-81250000D03*
X60762500Y-83150000D03*
D26*
X78500000Y-83250000D03*
X78500000Y-66750000D03*
D27*
X79475000Y-81075000D03*
D28*
X77675000Y-81300000D03*
D29*
X79325000Y-79950000D03*
D28*
X77675000Y-80400000D03*
D29*
X79325000Y-79050000D03*
D28*
X77675000Y-79500000D03*
D29*
X79325000Y-78150000D03*
D28*
X77675000Y-78600000D03*
D29*
X79325000Y-77250000D03*
D28*
X77675000Y-77700000D03*
D29*
X79325000Y-76350000D03*
D28*
X77675000Y-76800000D03*
D29*
X79325000Y-75450000D03*
D28*
X77675000Y-75900000D03*
D29*
X79325000Y-74550000D03*
D28*
X77675000Y-75000000D03*
D29*
X79325000Y-73650000D03*
D28*
X77675000Y-74100000D03*
D29*
X79325000Y-72750000D03*
D28*
X77675000Y-73200000D03*
D29*
X79325000Y-71850000D03*
D28*
X77675000Y-72300000D03*
D29*
X79325000Y-70950000D03*
D28*
X77675000Y-71400000D03*
D29*
X79325000Y-70050000D03*
D28*
X77675000Y-70500000D03*
D27*
X79475000Y-68925000D03*
D28*
X77675000Y-69600000D03*
X77675000Y-68700000D03*
D30*
X111530000Y-76150000D03*
X111530000Y-75150000D03*
X111530000Y-74150000D03*
X111530000Y-73150000D03*
X111530000Y-71650000D03*
X111530000Y-70650000D03*
X111530000Y-69650000D03*
X111530000Y-68650000D03*
X111530000Y-69150000D03*
X111530000Y-70150000D03*
X111530000Y-71150000D03*
X111530000Y-72150000D03*
X111530000Y-72650000D03*
X111530000Y-73650000D03*
X111530000Y-74650000D03*
X111530000Y-75650000D03*
X111530000Y-76650000D03*
X111530000Y-68150000D03*
D31*
X112150000Y-77800000D03*
X112150000Y-67000000D03*
D32*
X115380000Y-77800000D03*
X115380000Y-67000000D03*
D33*
X62497787Y-66054867D03*
X64072787Y-66054867D03*
D34*
X92275000Y-83650000D03*
X90825000Y-83650000D03*
D35*
X85095796Y-76305662D03*
X84445796Y-76305662D03*
X83795796Y-76305662D03*
X83145796Y-76305662D03*
X83145796Y-78580662D03*
X83795796Y-78580662D03*
X84445796Y-78580662D03*
X85095796Y-78580662D03*
X41095796Y-76305662D03*
X40445796Y-76305662D03*
X39795796Y-76305662D03*
X39145796Y-76305662D03*
X39145796Y-78580662D03*
X39795796Y-78580662D03*
X40445796Y-78580662D03*
X41095796Y-78580662D03*
D16*
X37850000Y-75670000D03*
X37850000Y-76630000D03*
D36*
X108345796Y-77960662D03*
X108345796Y-77000662D03*
D17*
X45500000Y-83475000D03*
X45500000Y-81925000D03*
D24*
X88060000Y-70150000D03*
X87040000Y-70150000D03*
X44060000Y-70150000D03*
X43040000Y-70150000D03*
D37*
X87480000Y-71300000D03*
X86520000Y-71300000D03*
D33*
X40497787Y-66054867D03*
X42072787Y-66054867D03*
D38*
X92799998Y-79300000D03*
X92299999Y-79300000D03*
X91800000Y-79300000D03*
D39*
X91800000Y-80400000D03*
X92299999Y-80400000D03*
X92799998Y-80400000D03*
D23*
X87312500Y-68700000D03*
X85187500Y-68700000D03*
D33*
X84497787Y-66054867D03*
X86072787Y-66054867D03*
D35*
X107095796Y-76305662D03*
X106445796Y-76305662D03*
X105795796Y-76305662D03*
X105145796Y-76305662D03*
X105145796Y-78580662D03*
X105795796Y-78580662D03*
X106445796Y-78580662D03*
X107095796Y-78580662D03*
D24*
X105360000Y-66000000D03*
X104340000Y-66000000D03*
D25*
X85037500Y-83150000D03*
X85037500Y-82200000D03*
X85037500Y-81250000D03*
X82762500Y-81250000D03*
X82762500Y-83150000D03*
D36*
X86345796Y-77960662D03*
X86345796Y-77000662D03*
D26*
X100500000Y-83250000D03*
X100500000Y-66750000D03*
D27*
X101475000Y-81075000D03*
D28*
X99675000Y-81300000D03*
D29*
X101325000Y-79950000D03*
D28*
X99675000Y-80400000D03*
D29*
X101325000Y-79050000D03*
D28*
X99675000Y-79500000D03*
D29*
X101325000Y-78150000D03*
D28*
X99675000Y-78600000D03*
D29*
X101325000Y-77250000D03*
D28*
X99675000Y-77700000D03*
D29*
X101325000Y-76350000D03*
D28*
X99675000Y-76800000D03*
D29*
X101325000Y-75450000D03*
D28*
X99675000Y-75900000D03*
D29*
X101325000Y-74550000D03*
D28*
X99675000Y-75000000D03*
D29*
X101325000Y-73650000D03*
D28*
X99675000Y-74100000D03*
D29*
X101325000Y-72750000D03*
D28*
X99675000Y-73200000D03*
D29*
X101325000Y-71850000D03*
D28*
X99675000Y-72300000D03*
D29*
X101325000Y-70950000D03*
D28*
X99675000Y-71400000D03*
D29*
X101325000Y-70050000D03*
D28*
X99675000Y-70500000D03*
D27*
X101475000Y-68925000D03*
D28*
X99675000Y-69600000D03*
X99675000Y-68700000D03*
D24*
X83360000Y-66000000D03*
X82340000Y-66000000D03*
D16*
X81850000Y-75670000D03*
X81850000Y-76630000D03*
D19*
X40700000Y-71500000D03*
X40250000Y-71500000D03*
X39800000Y-71500000D03*
X39350000Y-71500000D03*
X38900000Y-71500000D03*
X38450000Y-71500000D03*
X38450000Y-74400000D03*
X38900000Y-74400000D03*
X39350000Y-74400000D03*
X39800000Y-74400000D03*
X40250000Y-74400000D03*
X40700000Y-74400000D03*
D20*
X39575000Y-72950000D03*
D24*
X61360000Y-66000000D03*
X60340000Y-66000000D03*
D37*
X43480000Y-71300000D03*
X42520000Y-71300000D03*
D18*
X64990000Y-74800000D03*
X66010000Y-74800000D03*
D21*
X87800000Y-73475000D03*
D22*
X87875000Y-72937500D03*
D21*
X87800000Y-72400000D03*
X86100000Y-72400000D03*
D22*
X86025000Y-72937500D03*
D21*
X86100000Y-73475000D03*
D15*
X60390000Y-68325000D03*
X61350000Y-68325000D03*
D26*
X56500000Y-83250000D03*
X56500000Y-66750000D03*
D27*
X57475000Y-81075000D03*
D28*
X55675000Y-81300000D03*
D29*
X57325000Y-79950000D03*
D28*
X55675000Y-80400000D03*
D29*
X57325000Y-79050000D03*
D28*
X55675000Y-79500000D03*
D29*
X57325000Y-78150000D03*
D28*
X55675000Y-78600000D03*
D29*
X57325000Y-77250000D03*
D28*
X55675000Y-77700000D03*
D29*
X57325000Y-76350000D03*
D28*
X55675000Y-76800000D03*
D29*
X57325000Y-75450000D03*
D28*
X55675000Y-75900000D03*
D29*
X57325000Y-74550000D03*
D28*
X55675000Y-75000000D03*
D29*
X57325000Y-73650000D03*
D28*
X55675000Y-74100000D03*
D29*
X57325000Y-72750000D03*
D28*
X55675000Y-73200000D03*
D29*
X57325000Y-71850000D03*
D28*
X55675000Y-72300000D03*
D29*
X57325000Y-70950000D03*
D28*
X55675000Y-71400000D03*
D29*
X57325000Y-70050000D03*
D28*
X55675000Y-70500000D03*
D27*
X57475000Y-68925000D03*
D28*
X55675000Y-69600000D03*
X55675000Y-68700000D03*
D34*
X70275000Y-83650000D03*
X68825000Y-83650000D03*
D35*
X63095796Y-76305662D03*
X62445796Y-76305662D03*
X61795796Y-76305662D03*
X61145796Y-76305662D03*
X61145796Y-78580662D03*
X61795796Y-78580662D03*
X62445796Y-78580662D03*
X63095796Y-78580662D03*
D36*
X64345796Y-77960662D03*
X64345796Y-77000662D03*
D18*
X82340000Y-67000000D03*
X83360000Y-67000000D03*
D37*
X65480000Y-71300000D03*
X64520000Y-71300000D03*
D17*
X44000000Y-83475000D03*
X44000000Y-81925000D03*
D30*
X89530000Y-76150000D03*
X89530000Y-75150000D03*
X89530000Y-74150000D03*
X89530000Y-73150000D03*
X89530000Y-71650000D03*
X89530000Y-70650000D03*
X89530000Y-69650000D03*
X89530000Y-68650000D03*
X89530000Y-69150000D03*
X89530000Y-70150000D03*
X89530000Y-71150000D03*
X89530000Y-72150000D03*
X89530000Y-72650000D03*
X89530000Y-73650000D03*
X89530000Y-74650000D03*
X89530000Y-75650000D03*
X89530000Y-76650000D03*
X89530000Y-68150000D03*
D31*
X90150000Y-77800000D03*
X90150000Y-67000000D03*
D32*
X93380000Y-77800000D03*
X93380000Y-67000000D03*
D38*
X114799998Y-79300000D03*
X114299999Y-79300000D03*
X113800000Y-79300000D03*
D39*
X113800000Y-80400000D03*
X114299999Y-80400000D03*
X114799998Y-80400000D03*
D37*
X83350000Y-70325000D03*
X82390000Y-70325000D03*
D15*
X38390000Y-68325000D03*
X39350000Y-68325000D03*
D19*
X62700000Y-71500000D03*
X62250000Y-71500000D03*
X61800000Y-71500000D03*
X61350000Y-71500000D03*
X60900000Y-71500000D03*
X60450000Y-71500000D03*
X60450000Y-74400000D03*
X60900000Y-74400000D03*
X61350000Y-74400000D03*
X61800000Y-74400000D03*
X62250000Y-74400000D03*
X62700000Y-74400000D03*
D20*
X61575000Y-72950000D03*
D18*
X104340000Y-67000000D03*
X105360000Y-67000000D03*
D17*
X88000000Y-83475000D03*
X88000000Y-81925000D03*
D37*
X39350000Y-70325000D03*
X38390000Y-70325000D03*
X105350000Y-70325000D03*
X104390000Y-70325000D03*
D34*
X48275000Y-83650000D03*
X46825000Y-83650000D03*
D19*
X84700000Y-71500000D03*
X84250000Y-71500000D03*
X83800000Y-71500000D03*
X83350000Y-71500000D03*
X82900000Y-71500000D03*
X82450000Y-71500000D03*
X82450000Y-74400000D03*
X82900000Y-74400000D03*
X83350000Y-74400000D03*
X83800000Y-74400000D03*
X84250000Y-74400000D03*
X84700000Y-74400000D03*
D20*
X83575000Y-72950000D03*
D37*
X109480000Y-71300000D03*
X108520000Y-71300000D03*
D24*
X39360000Y-66000000D03*
X38340000Y-66000000D03*
D36*
X42345796Y-77960662D03*
X42345796Y-77000662D03*
D38*
X70799998Y-79300000D03*
X70299999Y-79300000D03*
X69800000Y-79300000D03*
D39*
X69800000Y-80400000D03*
X70299999Y-80400000D03*
X70799998Y-80400000D03*
D24*
X110060000Y-70150000D03*
X109040000Y-70150000D03*
D17*
X111500000Y-83475000D03*
X111500000Y-81925000D03*
D25*
X107037500Y-83150000D03*
X107037500Y-82200000D03*
X107037500Y-81250000D03*
X104762500Y-81250000D03*
X104762500Y-83150000D03*
X41037500Y-83150000D03*
X41037500Y-82200000D03*
X41037500Y-81250000D03*
X38762500Y-81250000D03*
X38762500Y-83150000D03*
D16*
X59850000Y-75670000D03*
X59850000Y-76630000D03*
D17*
X89500000Y-83475000D03*
X89500000Y-81925000D03*
D18*
X86990000Y-74800000D03*
X88010000Y-74800000D03*
D30*
X45530000Y-76150000D03*
X45530000Y-75150000D03*
X45530000Y-74150000D03*
X45530000Y-73150000D03*
X45530000Y-71650000D03*
X45530000Y-70650000D03*
X45530000Y-69650000D03*
X45530000Y-68650000D03*
X45530000Y-69150000D03*
X45530000Y-70150000D03*
X45530000Y-71150000D03*
X45530000Y-72150000D03*
X45530000Y-72650000D03*
X45530000Y-73650000D03*
X45530000Y-74650000D03*
X45530000Y-75650000D03*
X45530000Y-76650000D03*
X45530000Y-68150000D03*
D31*
X46150000Y-77800000D03*
X46150000Y-67000000D03*
D32*
X49380000Y-77800000D03*
X49380000Y-67000000D03*
D18*
X108990000Y-74800000D03*
X110010000Y-74800000D03*
D30*
X67530000Y-76150000D03*
X67530000Y-75150000D03*
X67530000Y-74150000D03*
X67530000Y-73150000D03*
X67530000Y-71650000D03*
X67530000Y-70650000D03*
X67530000Y-69650000D03*
X67530000Y-68650000D03*
X67530000Y-69150000D03*
X67530000Y-70150000D03*
X67530000Y-71150000D03*
X67530000Y-72150000D03*
X67530000Y-72650000D03*
X67530000Y-73650000D03*
X67530000Y-74650000D03*
X67530000Y-75650000D03*
X67530000Y-76650000D03*
X67530000Y-68150000D03*
D31*
X68150000Y-77800000D03*
X68150000Y-67000000D03*
D32*
X71380000Y-77800000D03*
X71380000Y-67000000D03*
D16*
X108600000Y-82220000D03*
X108600000Y-83180000D03*
D21*
X43800000Y-73475000D03*
D22*
X43875000Y-72937500D03*
D21*
X43800000Y-72400000D03*
X42100000Y-72400000D03*
D22*
X42025000Y-72937500D03*
D21*
X42100000Y-73475000D03*
D15*
X60390000Y-69325000D03*
X61350000Y-69325000D03*
D16*
X42600000Y-82220000D03*
X42600000Y-83180000D03*
X103850000Y-75670000D03*
X103850000Y-76630000D03*
D34*
X114275000Y-83650000D03*
X112825000Y-83650000D03*
D18*
X42990000Y-74800000D03*
X44010000Y-74800000D03*
X38340000Y-67000000D03*
X39360000Y-67000000D03*
D33*
X106497787Y-66054867D03*
X108072787Y-66054867D03*
D38*
X48799998Y-79300000D03*
X48299999Y-79300000D03*
X47800000Y-79300000D03*
D39*
X47800000Y-80400000D03*
X48299999Y-80400000D03*
X48799998Y-80400000D03*
D17*
X66000000Y-83475000D03*
X66000000Y-81925000D03*
D15*
X104390000Y-68325000D03*
X105350000Y-68325000D03*
D21*
X65800000Y-73475000D03*
D22*
X65875000Y-72937500D03*
D21*
X65800000Y-72400000D03*
X64100000Y-72400000D03*
D22*
X64025000Y-72937500D03*
D21*
X64100000Y-73475000D03*
D15*
X38390000Y-69325000D03*
X39350000Y-69325000D03*
D23*
X43312500Y-68700000D03*
X41187500Y-68700000D03*
D37*
X61350000Y-70325000D03*
X60390000Y-70325000D03*
D26*
X34500000Y-83250000D03*
X34500000Y-66750000D03*
D27*
X35475000Y-81075000D03*
D28*
X33675000Y-81300000D03*
D29*
X35325000Y-79950000D03*
D28*
X33675000Y-80400000D03*
D29*
X35325000Y-79050000D03*
D28*
X33675000Y-79500000D03*
D29*
X35325000Y-78150000D03*
D28*
X33675000Y-78600000D03*
D29*
X35325000Y-77250000D03*
D28*
X33675000Y-77700000D03*
D29*
X35325000Y-76350000D03*
D28*
X33675000Y-76800000D03*
D29*
X35325000Y-75450000D03*
D28*
X33675000Y-75900000D03*
D29*
X35325000Y-74550000D03*
D28*
X33675000Y-75000000D03*
D29*
X35325000Y-73650000D03*
D28*
X33675000Y-74100000D03*
D29*
X35325000Y-72750000D03*
D28*
X33675000Y-73200000D03*
D29*
X35325000Y-71850000D03*
D28*
X33675000Y-72300000D03*
D29*
X35325000Y-70950000D03*
D28*
X33675000Y-71400000D03*
D29*
X35325000Y-70050000D03*
D28*
X33675000Y-70500000D03*
D27*
X35475000Y-68925000D03*
D28*
X33675000Y-69600000D03*
X33675000Y-68700000D03*
D14*
X115075000Y-52850000D03*
X113525000Y-52850000D03*
D35*
X107095796Y-47305662D03*
X106445796Y-47305662D03*
X105795796Y-47305662D03*
X105145796Y-47305662D03*
X105145796Y-49580662D03*
X105795796Y-49580662D03*
X106445796Y-49580662D03*
X107095796Y-49580662D03*
D16*
X103850000Y-46670000D03*
X103850000Y-47630000D03*
D17*
X111500000Y-54475000D03*
X111500000Y-52925000D03*
D24*
X110060000Y-41150000D03*
X109040000Y-41150000D03*
D33*
X106497787Y-37054867D03*
X108072787Y-37054867D03*
D19*
X106700000Y-42500000D03*
X106250000Y-42500000D03*
X105800000Y-42500000D03*
X105350000Y-42500000D03*
X104900000Y-42500000D03*
X104450000Y-42500000D03*
X104450000Y-45400000D03*
X104900000Y-45400000D03*
X105350000Y-45400000D03*
X105800000Y-45400000D03*
X106250000Y-45400000D03*
X106700000Y-45400000D03*
D20*
X105575000Y-43950000D03*
D37*
X109480000Y-42300000D03*
X108520000Y-42300000D03*
D17*
X110000000Y-54475000D03*
X110000000Y-52925000D03*
D15*
X104390000Y-39325000D03*
X105350000Y-39325000D03*
D37*
X105350000Y-41325000D03*
X104390000Y-41325000D03*
D34*
X114275000Y-54650000D03*
X112825000Y-54650000D03*
D24*
X105360000Y-37000000D03*
X104340000Y-37000000D03*
D36*
X108345796Y-48960662D03*
X108345796Y-48000662D03*
D25*
X107037500Y-54150000D03*
X107037500Y-53200000D03*
X107037500Y-52250000D03*
X104762500Y-52250000D03*
X104762500Y-54150000D03*
D30*
X111530000Y-47150000D03*
X111530000Y-46150000D03*
X111530000Y-45150000D03*
X111530000Y-44150000D03*
X111530000Y-42650000D03*
X111530000Y-41650000D03*
X111530000Y-40650000D03*
X111530000Y-39650000D03*
X111530000Y-40150000D03*
X111530000Y-41150000D03*
X111530000Y-42150000D03*
X111530000Y-43150000D03*
X111530000Y-43650000D03*
X111530000Y-44650000D03*
X111530000Y-45650000D03*
X111530000Y-46650000D03*
X111530000Y-47650000D03*
X111530000Y-39150000D03*
D31*
X112150000Y-48800000D03*
X112150000Y-38000000D03*
D32*
X115380000Y-48800000D03*
X115380000Y-38000000D03*
D21*
X109800000Y-44475000D03*
D22*
X109875000Y-43937500D03*
D21*
X109800000Y-43400000D03*
X108100000Y-43400000D03*
D22*
X108025000Y-43937500D03*
D21*
X108100000Y-44475000D03*
D16*
X108600000Y-53220000D03*
X108600000Y-54180000D03*
D18*
X108990000Y-45800000D03*
X110010000Y-45800000D03*
X104340000Y-38000000D03*
X105360000Y-38000000D03*
D38*
X114799998Y-50300000D03*
X114299999Y-50300000D03*
X113800000Y-50300000D03*
D39*
X113800000Y-51400000D03*
X114299999Y-51400000D03*
X114799998Y-51400000D03*
D15*
X104390000Y-40325000D03*
X105350000Y-40325000D03*
D23*
X109312500Y-39700000D03*
X107187500Y-39700000D03*
D26*
X100500000Y-54250000D03*
X100500000Y-37750000D03*
D27*
X101475000Y-52075000D03*
D28*
X99675000Y-52300000D03*
D29*
X101325000Y-50950000D03*
D28*
X99675000Y-51400000D03*
D29*
X101325000Y-50050000D03*
D28*
X99675000Y-50500000D03*
D29*
X101325000Y-49150000D03*
D28*
X99675000Y-49600000D03*
D29*
X101325000Y-48250000D03*
D28*
X99675000Y-48700000D03*
D29*
X101325000Y-47350000D03*
D28*
X99675000Y-47800000D03*
D29*
X101325000Y-46450000D03*
D28*
X99675000Y-46900000D03*
D29*
X101325000Y-45550000D03*
D28*
X99675000Y-46000000D03*
D29*
X101325000Y-44650000D03*
D28*
X99675000Y-45100000D03*
D29*
X101325000Y-43750000D03*
D28*
X99675000Y-44200000D03*
D29*
X101325000Y-42850000D03*
D28*
X99675000Y-43300000D03*
D29*
X101325000Y-41950000D03*
D28*
X99675000Y-42400000D03*
D29*
X101325000Y-41050000D03*
D28*
X99675000Y-41500000D03*
D27*
X101475000Y-39925000D03*
D28*
X99675000Y-40600000D03*
X99675000Y-39700000D03*
D14*
X93075000Y-52850000D03*
X91525000Y-52850000D03*
D35*
X85095796Y-47305662D03*
X84445796Y-47305662D03*
X83795796Y-47305662D03*
X83145796Y-47305662D03*
X83145796Y-49580662D03*
X83795796Y-49580662D03*
X84445796Y-49580662D03*
X85095796Y-49580662D03*
D16*
X81850000Y-46670000D03*
X81850000Y-47630000D03*
D17*
X89500000Y-54475000D03*
X89500000Y-52925000D03*
D24*
X88060000Y-41150000D03*
X87040000Y-41150000D03*
D33*
X84497787Y-37054867D03*
X86072787Y-37054867D03*
D19*
X84700000Y-42500000D03*
X84250000Y-42500000D03*
X83800000Y-42500000D03*
X83350000Y-42500000D03*
X82900000Y-42500000D03*
X82450000Y-42500000D03*
X82450000Y-45400000D03*
X82900000Y-45400000D03*
X83350000Y-45400000D03*
X83800000Y-45400000D03*
X84250000Y-45400000D03*
X84700000Y-45400000D03*
D20*
X83575000Y-43950000D03*
D37*
X87480000Y-42300000D03*
X86520000Y-42300000D03*
D17*
X88000000Y-54475000D03*
X88000000Y-52925000D03*
D15*
X82390000Y-39325000D03*
X83350000Y-39325000D03*
D37*
X83350000Y-41325000D03*
X82390000Y-41325000D03*
D34*
X92275000Y-54650000D03*
X90825000Y-54650000D03*
D24*
X83360000Y-37000000D03*
X82340000Y-37000000D03*
D36*
X86345796Y-48960662D03*
X86345796Y-48000662D03*
D25*
X85037500Y-54150000D03*
X85037500Y-53200000D03*
X85037500Y-52250000D03*
X82762500Y-52250000D03*
X82762500Y-54150000D03*
D30*
X89530000Y-47150000D03*
X89530000Y-46150000D03*
X89530000Y-45150000D03*
X89530000Y-44150000D03*
X89530000Y-42650000D03*
X89530000Y-41650000D03*
X89530000Y-40650000D03*
X89530000Y-39650000D03*
X89530000Y-40150000D03*
X89530000Y-41150000D03*
X89530000Y-42150000D03*
X89530000Y-43150000D03*
X89530000Y-43650000D03*
X89530000Y-44650000D03*
X89530000Y-45650000D03*
X89530000Y-46650000D03*
X89530000Y-47650000D03*
X89530000Y-39150000D03*
D31*
X90150000Y-48800000D03*
X90150000Y-38000000D03*
D32*
X93380000Y-48800000D03*
X93380000Y-38000000D03*
D21*
X87800000Y-44475000D03*
D22*
X87875000Y-43937500D03*
D21*
X87800000Y-43400000D03*
X86100000Y-43400000D03*
D22*
X86025000Y-43937500D03*
D21*
X86100000Y-44475000D03*
D16*
X86600000Y-53220000D03*
X86600000Y-54180000D03*
D18*
X86990000Y-45800000D03*
X88010000Y-45800000D03*
X82340000Y-38000000D03*
X83360000Y-38000000D03*
D38*
X92799998Y-50300000D03*
X92299999Y-50300000D03*
X91800000Y-50300000D03*
D39*
X91800000Y-51400000D03*
X92299999Y-51400000D03*
X92799998Y-51400000D03*
D15*
X82390000Y-40325000D03*
X83350000Y-40325000D03*
D23*
X87312500Y-39700000D03*
X85187500Y-39700000D03*
D26*
X78500000Y-54250000D03*
X78500000Y-37750000D03*
D27*
X79475000Y-52075000D03*
D28*
X77675000Y-52300000D03*
D29*
X79325000Y-50950000D03*
D28*
X77675000Y-51400000D03*
D29*
X79325000Y-50050000D03*
D28*
X77675000Y-50500000D03*
D29*
X79325000Y-49150000D03*
D28*
X77675000Y-49600000D03*
D29*
X79325000Y-48250000D03*
D28*
X77675000Y-48700000D03*
D29*
X79325000Y-47350000D03*
D28*
X77675000Y-47800000D03*
D29*
X79325000Y-46450000D03*
D28*
X77675000Y-46900000D03*
D29*
X79325000Y-45550000D03*
D28*
X77675000Y-46000000D03*
D29*
X79325000Y-44650000D03*
D28*
X77675000Y-45100000D03*
D29*
X79325000Y-43750000D03*
D28*
X77675000Y-44200000D03*
D29*
X79325000Y-42850000D03*
D28*
X77675000Y-43300000D03*
D29*
X79325000Y-41950000D03*
D28*
X77675000Y-42400000D03*
D29*
X79325000Y-41050000D03*
D28*
X77675000Y-41500000D03*
D27*
X79475000Y-39925000D03*
D28*
X77675000Y-40600000D03*
X77675000Y-39700000D03*
D14*
X71075000Y-52850000D03*
X69525000Y-52850000D03*
D35*
X63095796Y-47305662D03*
X62445796Y-47305662D03*
X61795796Y-47305662D03*
X61145796Y-47305662D03*
X61145796Y-49580662D03*
X61795796Y-49580662D03*
X62445796Y-49580662D03*
X63095796Y-49580662D03*
D16*
X59850000Y-46670000D03*
X59850000Y-47630000D03*
D17*
X67500000Y-54475000D03*
X67500000Y-52925000D03*
D24*
X66060000Y-41150000D03*
X65040000Y-41150000D03*
D33*
X62497787Y-37054867D03*
X64072787Y-37054867D03*
D19*
X62700000Y-42500000D03*
X62250000Y-42500000D03*
X61800000Y-42500000D03*
X61350000Y-42500000D03*
X60900000Y-42500000D03*
X60450000Y-42500000D03*
X60450000Y-45400000D03*
X60900000Y-45400000D03*
X61350000Y-45400000D03*
X61800000Y-45400000D03*
X62250000Y-45400000D03*
X62700000Y-45400000D03*
D20*
X61575000Y-43950000D03*
D37*
X65480000Y-42300000D03*
X64520000Y-42300000D03*
D17*
X66000000Y-54475000D03*
X66000000Y-52925000D03*
D15*
X60390000Y-39325000D03*
X61350000Y-39325000D03*
D37*
X61350000Y-41325000D03*
X60390000Y-41325000D03*
D34*
X70275000Y-54650000D03*
X68825000Y-54650000D03*
D24*
X61360000Y-37000000D03*
X60340000Y-37000000D03*
D36*
X64345796Y-48960662D03*
X64345796Y-48000662D03*
D25*
X63037500Y-54150000D03*
X63037500Y-53200000D03*
X63037500Y-52250000D03*
X60762500Y-52250000D03*
X60762500Y-54150000D03*
D30*
X67530000Y-47150000D03*
X67530000Y-46150000D03*
X67530000Y-45150000D03*
X67530000Y-44150000D03*
X67530000Y-42650000D03*
X67530000Y-41650000D03*
X67530000Y-40650000D03*
X67530000Y-39650000D03*
X67530000Y-40150000D03*
X67530000Y-41150000D03*
X67530000Y-42150000D03*
X67530000Y-43150000D03*
X67530000Y-43650000D03*
X67530000Y-44650000D03*
X67530000Y-45650000D03*
X67530000Y-46650000D03*
X67530000Y-47650000D03*
X67530000Y-39150000D03*
D31*
X68150000Y-48800000D03*
X68150000Y-38000000D03*
D32*
X71380000Y-48800000D03*
X71380000Y-38000000D03*
D21*
X65800000Y-44475000D03*
D22*
X65875000Y-43937500D03*
D21*
X65800000Y-43400000D03*
X64100000Y-43400000D03*
D22*
X64025000Y-43937500D03*
D21*
X64100000Y-44475000D03*
D16*
X64600000Y-53220000D03*
X64600000Y-54180000D03*
D18*
X64990000Y-45800000D03*
X66010000Y-45800000D03*
X60340000Y-38000000D03*
X61360000Y-38000000D03*
D38*
X70799998Y-50300000D03*
X70299999Y-50300000D03*
X69800000Y-50300000D03*
D39*
X69800000Y-51400000D03*
X70299999Y-51400000D03*
X70799998Y-51400000D03*
D15*
X60390000Y-40325000D03*
X61350000Y-40325000D03*
D23*
X65312500Y-39700000D03*
X63187500Y-39700000D03*
D26*
X56500000Y-54250000D03*
X56500000Y-37750000D03*
D27*
X57475000Y-52075000D03*
D28*
X55675000Y-52300000D03*
D29*
X57325000Y-50950000D03*
D28*
X55675000Y-51400000D03*
D29*
X57325000Y-50050000D03*
D28*
X55675000Y-50500000D03*
D29*
X57325000Y-49150000D03*
D28*
X55675000Y-49600000D03*
D29*
X57325000Y-48250000D03*
D28*
X55675000Y-48700000D03*
D29*
X57325000Y-47350000D03*
D28*
X55675000Y-47800000D03*
D29*
X57325000Y-46450000D03*
D28*
X55675000Y-46900000D03*
D29*
X57325000Y-45550000D03*
D28*
X55675000Y-46000000D03*
D29*
X57325000Y-44650000D03*
D28*
X55675000Y-45100000D03*
D29*
X57325000Y-43750000D03*
D28*
X55675000Y-44200000D03*
D29*
X57325000Y-42850000D03*
D28*
X55675000Y-43300000D03*
D29*
X57325000Y-41950000D03*
D28*
X55675000Y-42400000D03*
D29*
X57325000Y-41050000D03*
D28*
X55675000Y-41500000D03*
D27*
X57475000Y-39925000D03*
D28*
X55675000Y-40600000D03*
X55675000Y-39700000D03*
D19*
X40700000Y-42500000D03*
X40250000Y-42500000D03*
X39800000Y-42500000D03*
X39350000Y-42500000D03*
X38900000Y-42500000D03*
X38450000Y-42500000D03*
X38450000Y-45400000D03*
X38900000Y-45400000D03*
X39350000Y-45400000D03*
X39800000Y-45400000D03*
X40250000Y-45400000D03*
X40700000Y-45400000D03*
D20*
X39575000Y-43950000D03*
D17*
X44000000Y-54475000D03*
X44000000Y-52925000D03*
X45500000Y-54475000D03*
X45500000Y-52925000D03*
D23*
X43312500Y-39700000D03*
X41187500Y-39700000D03*
D26*
X34500000Y-54250000D03*
X34500000Y-37750000D03*
D27*
X35475000Y-52075000D03*
D28*
X33675000Y-52300000D03*
D29*
X35325000Y-50950000D03*
D28*
X33675000Y-51400000D03*
D29*
X35325000Y-50050000D03*
D28*
X33675000Y-50500000D03*
D29*
X35325000Y-49150000D03*
D28*
X33675000Y-49600000D03*
D29*
X35325000Y-48250000D03*
D28*
X33675000Y-48700000D03*
D29*
X35325000Y-47350000D03*
D28*
X33675000Y-47800000D03*
D29*
X35325000Y-46450000D03*
D28*
X33675000Y-46900000D03*
D29*
X35325000Y-45550000D03*
D28*
X33675000Y-46000000D03*
D29*
X35325000Y-44650000D03*
D28*
X33675000Y-45100000D03*
D29*
X35325000Y-43750000D03*
D28*
X33675000Y-44200000D03*
D29*
X35325000Y-42850000D03*
D28*
X33675000Y-43300000D03*
D29*
X35325000Y-41950000D03*
D28*
X33675000Y-42400000D03*
D29*
X35325000Y-41050000D03*
D28*
X33675000Y-41500000D03*
D27*
X35475000Y-39925000D03*
D28*
X33675000Y-40600000D03*
X33675000Y-39700000D03*
D16*
X37850000Y-46670000D03*
X37850000Y-47630000D03*
D14*
X49075000Y-52850000D03*
X47525000Y-52850000D03*
D16*
X42600000Y-53220000D03*
X42600000Y-54180000D03*
D36*
X42345796Y-48960662D03*
X42345796Y-48000662D03*
D24*
X39360000Y-37000000D03*
X38340000Y-37000000D03*
D18*
X38340000Y-38000000D03*
X39360000Y-38000000D03*
D37*
X43480000Y-42300000D03*
X42520000Y-42300000D03*
D15*
X38390000Y-39325000D03*
X39350000Y-39325000D03*
D30*
X45530000Y-47150000D03*
X45530000Y-46150000D03*
X45530000Y-45150000D03*
X45530000Y-44150000D03*
X45530000Y-42650000D03*
X45530000Y-41650000D03*
X45530000Y-40650000D03*
X45530000Y-39650000D03*
X45530000Y-40150000D03*
X45530000Y-41150000D03*
X45530000Y-42150000D03*
X45530000Y-43150000D03*
X45530000Y-43650000D03*
X45530000Y-44650000D03*
X45530000Y-45650000D03*
X45530000Y-46650000D03*
X45530000Y-47650000D03*
X45530000Y-39150000D03*
D31*
X46150000Y-48800000D03*
X46150000Y-38000000D03*
D32*
X49380000Y-48800000D03*
X49380000Y-38000000D03*
D37*
X39350000Y-41325000D03*
X38390000Y-41325000D03*
D35*
X41095796Y-47305662D03*
X40445796Y-47305662D03*
X39795796Y-47305662D03*
X39145796Y-47305662D03*
X39145796Y-49580662D03*
X39795796Y-49580662D03*
X40445796Y-49580662D03*
X41095796Y-49580662D03*
D33*
X40497787Y-37054867D03*
X42072787Y-37054867D03*
D18*
X42990000Y-45800000D03*
X44010000Y-45800000D03*
D21*
X43800000Y-44475000D03*
D22*
X43875000Y-43937500D03*
D21*
X43800000Y-43400000D03*
X42100000Y-43400000D03*
D22*
X42025000Y-43937500D03*
D21*
X42100000Y-44475000D03*
D38*
X48799998Y-50300000D03*
X48299999Y-50300000D03*
X47800000Y-50300000D03*
D39*
X47800000Y-51400000D03*
X48299999Y-51400000D03*
X48799998Y-51400000D03*
D24*
X44060000Y-41150000D03*
X43040000Y-41150000D03*
D15*
X38390000Y-40325000D03*
X39350000Y-40325000D03*
D25*
X41037500Y-54150000D03*
X41037500Y-53200000D03*
X41037500Y-52250000D03*
X38762500Y-52250000D03*
X38762500Y-54150000D03*
D34*
X48275000Y-54650000D03*
X46825000Y-54650000D03*
D40*
X30000000Y-30000000D03*
D41*
X115000000Y-30000000D03*
D40*
X30000000Y-120000000D03*
D41*
X35000000Y-30000000D03*
D42*
X35000000Y-30000000D03*
D41*
X110000000Y-120000000D03*
D40*
X120000000Y-120000000D03*
D41*
X40000000Y-120000000D03*
D40*
X120000000Y-30000000D03*
%LPD*%
M02*
